<?xml version="1.0" encoding="utf-8"?>
<!-- Generator: Adobe Illustrator 16.0.0, SVG Export Plug-In . SVG Version: 6.00 Build 0)  -->
<!DOCTYPE svg PUBLIC "-//W3C//DTD SVG 1.1//EN" "http://www.w3.org/Graphics/SVG/1.1/DTD/svg11.dtd">
<svg version="1.1" id="Layer_2" xmlns="http://www.w3.org/2000/svg" xmlns:xlink="http://www.w3.org/1999/xlink" x="0px" y="0px"
	 width="253.174px" height="128.346px" viewBox="0 0 253.174 128.346" enable-background="new 0 0 253.174 128.346"
	 xml:space="preserve">
<circle fill="#231F20" stroke="#231F20" stroke-width="0.3" stroke-miterlimit="10" cx="166.665" cy="64.009" r="32.68"/>
<g>
	<g>
		<g>
			<path fill="#FFFFFF" stroke="#FFFFFF" stroke-width="0.3" stroke-miterlimit="10" d="M142.314,62.896
				c-0.338,0.634-0.608,1.256-0.814,1.867c-0.148,0.437-0.249,0.84-0.302,1.213c-0.052,0.373-0.045,0.687,0.02,0.938
				c0.066,0.252,0.199,0.433,0.396,0.538c0.197,0.107,0.486,0.108,0.867,0.004c0.176-0.048,0.392-0.128,0.65-0.244
				c0.384-0.354,0.722-0.779,1.014-1.274c0.291-0.498,0.562-1.058,0.814-1.682c0.057-0.175,0.123-0.346,0.195-0.514
				c0.07-0.165,0.141-0.353,0.205-0.559c0.148-0.435,0.263-0.835,0.34-1.2c0.081-0.364,0.087-0.596,0.021-0.696
				c-0.055-0.087-0.173-0.122-0.359-0.101c-0.185,0.021-0.372,0.039-0.563,0.053c-0.19,0.015-0.352-0.006-0.479-0.068
				c-0.129-0.061-0.162-0.224-0.101-0.489c0.083-0.227,0.221-0.498,0.419-0.813c0.197-0.316,0.375-0.612,0.536-0.889
				c0.104-0.189,0.202-0.357,0.3-0.509c0.097-0.15,0.192-0.308,0.283-0.471c0.094-0.164,0.195-0.346,0.309-0.553
				c0.114-0.204,0.24-0.458,0.379-0.757c0.496-0.513,1.051-0.85,1.668-1.014c0.233-0.062,0.441-0.087,0.622-0.077
				c0.053,0.086,0.063,0.188,0.03,0.297l-0.085,0.241c-0.069,0.223-0.187,0.46-0.35,0.715c-0.165,0.255-0.327,0.521-0.489,0.796
				c-0.133,0.196-0.252,0.399-0.361,0.609c-0.107,0.211-0.225,0.436-0.351,0.674c0.444,0.011,0.784,0.138,1.021,0.381
				c0.029,0.458-0.006,0.976-0.102,1.554c-0.098,0.58-0.25,1.175-0.457,1.783c-0.184,0.56-0.406,1.115-0.666,1.667
				c-0.259,0.552-0.551,1.083-0.871,1.592c-0.322,0.512-0.674,0.99-1.051,1.438c-0.383,0.447-0.783,0.839-1.205,1.173
				c-0.404,0.229-0.795,0.423-1.172,0.587c-0.377,0.16-0.734,0.288-1.072,0.381c-0.5,0.138-0.945,0.196-1.338,0.176
				c-0.395-0.022-0.717-0.127-0.971-0.31c-0.253-0.184-0.417-0.459-0.49-0.826c-0.074-0.364-0.04-0.83,0.104-1.399
				c0.052-0.219,0.115-0.449,0.186-0.687c0.07-0.24,0.148-0.479,0.234-0.724c0.118-0.354,0.246-0.695,0.382-1.027
				c0.135-0.329,0.291-0.672,0.466-1.027c0.111-0.235,0.227-0.445,0.344-0.63c0.117-0.186,0.238-0.368,0.37-0.55
				c0.13-0.182,0.259-0.362,0.39-0.545c0.131-0.181,0.273-0.387,0.426-0.619c0.007-0.044,0.053-0.138,0.133-0.276
				c-0.3,0.036-0.578,0.034-0.837-0.006c-0.259-0.04-0.469-0.126-0.634-0.258c-0.164-0.133-0.271-0.314-0.32-0.551
				s-0.026-0.536,0.066-0.896c0.183-0.24,0.387-0.445,0.612-0.614c0.226-0.169,0.449-0.285,0.669-0.343
				c0.176-0.046,0.317-0.055,0.424-0.025c0.08,0.008,0.131,0.063,0.148,0.168c0.016,0.105,0.031,0.212,0.047,0.318
				c0.016,0.104,0.037,0.198,0.064,0.279c0.027,0.08,0.101,0.104,0.219,0.073c0.135-0.138,0.271-0.288,0.403-0.447
				c0.134-0.159,0.269-0.309,0.406-0.448c0.136-0.139,0.28-0.262,0.431-0.367c0.152-0.106,0.316-0.184,0.492-0.23
				c0.059-0.016,0.117-0.031,0.176-0.047s0.115-0.016,0.17-0.001c0.193,0.008,0.296,0.191,0.308,0.554
				c0.013,0.361-0.045,0.741-0.173,1.141c-0.083,0.228-0.21,0.487-0.381,0.781c-0.172,0.294-0.364,0.604-0.576,0.933
				c-0.213,0.328-0.428,0.652-0.646,0.974C142.64,62.348,142.458,62.639,142.314,62.896z"/>
			<path fill="#FFFFFF" stroke="#FFFFFF" stroke-width="0.3" stroke-miterlimit="10" d="M150.565,52.761
				c-0.02,0.107-0.054,0.225-0.105,0.354c-0.061,0.177-0.168,0.387-0.324,0.631c-0.309,0.242-0.641,0.441-0.998,0.602
				c-0.357,0.161-0.732,0.292-1.13,0.397c-0.527,0.14-1.079,0.29-1.65,0.449c-0.575,0.16-1.14,0.311-1.696,0.458l-0.33,0.087
				c-0.264,0.07-0.493,0.138-0.686,0.204c-0.193,0.067-0.375,0.129-0.547,0.189c-0.172,0.059-0.34,0.115-0.502,0.165
				c-0.162,0.051-0.354,0.105-0.574,0.164c-0.205,0.054-0.406,0.089-0.605,0.104s-0.369-0.007-0.512-0.073
				c0.003-0.089,0.016-0.176,0.037-0.262c0.024-0.086,0.049-0.17,0.077-0.25c0.118-0.353,0.273-0.635,0.466-0.847
				c0.191-0.212,0.422-0.386,0.692-0.522c0.269-0.138,0.571-0.253,0.911-0.35c0.337-0.096,0.707-0.212,1.109-0.347
				c0.236-0.076,0.477-0.151,0.721-0.222c0.243-0.072,0.496-0.141,0.761-0.211l0.098-0.31c0.054-0.146,0.076-0.225,0.063-0.236
				c0.018-0.106,0.039-0.185,0.062-0.235c0.129-0.325,0.348-0.573,0.658-0.74c0.311-0.169,0.617-0.294,0.926-0.375
				c0.161-0.042,0.295-0.041,0.398,0.005c0.088,0.05,0.122,0.15,0.102,0.301c-0.018,0.15-0.061,0.321-0.123,0.512l-0.218,0.626
				c0.075-0.02,0.142-0.035,0.207-0.045c0.065-0.009,0.134-0.024,0.207-0.043l0.651-0.128c0.041-0.069,0.071-0.142,0.094-0.22
				c0.02-0.078,0.046-0.158,0.072-0.237c0.055-0.146,0.076-0.224,0.064-0.236c0.019-0.106,0.041-0.185,0.062-0.234
				c0.129-0.325,0.344-0.571,0.646-0.736c0.303-0.166,0.607-0.291,0.916-0.372c0.16-0.042,0.293-0.04,0.397,0.005
				c0.089,0.049,0.122,0.15,0.103,0.3c-0.02,0.15-0.061,0.32-0.123,0.511l-0.276,0.836
				C150.618,52.544,150.585,52.654,150.565,52.761z"/>
			<path fill="#FFFFFF" stroke="#FFFFFF" stroke-width="0.3" stroke-miterlimit="10" d="M147.55,49.603
				c0.064-0.191,0.137-0.362,0.221-0.516c0.083-0.153,0.166-0.298,0.245-0.434c0.081-0.138,0.159-0.286,0.237-0.444
				c0.078-0.158,0.158-0.35,0.238-0.574c-0.24,0.019-0.437-0.029-0.59-0.143c-0.156-0.112-0.198-0.287-0.127-0.522
				c0.079-0.21,0.245-0.435,0.5-0.676c0.188-0.194,0.391-0.348,0.607-0.46c0.215-0.115,0.434-0.2,0.652-0.256
				c0.221-0.057,0.428-0.077,0.621-0.062c0.193,0.016,0.355,0.065,0.486,0.147c0.132,0.082,0.22,0.201,0.262,0.357
				c0.041,0.157,0.025,0.352-0.044,0.588c-0.054,0.146-0.128,0.301-0.222,0.471c-0.094,0.169-0.221,0.354-0.383,0.557l0.22-0.057
				c0.409-0.106,0.79-0.293,1.138-0.556c0.348-0.265,0.688-0.544,1.023-0.841c0.332-0.296,0.68-0.578,1.043-0.846
				c0.363-0.269,0.771-0.459,1.227-0.577l0.109-0.028c0.139,0.08,0.225,0.169,0.256,0.27c0.029,0.101,0.027,0.214-0.01,0.339
				c-0.057,0.159-0.156,0.323-0.298,0.489c-0.143,0.167-0.306,0.337-0.489,0.507c-0.187,0.171-0.385,0.342-0.598,0.513
				c-0.211,0.171-0.406,0.323-0.585,0.457l-0.119,0.074c-0.275,0.215-0.603,0.453-0.977,0.709c-0.375,0.258-0.767,0.509-1.174,0.754
				c-0.407,0.243-0.821,0.463-1.24,0.66c-0.421,0.197-0.813,0.343-1.181,0.438c-0.293,0.077-0.506,0.096-0.637,0.056
				c-0.135-0.037-0.289-0.113-0.464-0.227L147.55,49.603z"/>
			<path fill="#FFFFFF" stroke="#FFFFFF" stroke-width="0.3" stroke-miterlimit="10" d="M151.332,57.675
				c-0.05-0.103-0.087-0.195-0.106-0.277c-0.02-0.081-0.004-0.187,0.047-0.317c0.097-0.301,0.338-0.598,0.727-0.891
				c0.388-0.291,0.811-0.553,1.271-0.784c0.461-0.23,0.908-0.427,1.341-0.585c0.435-0.159,0.753-0.265,0.958-0.319
				c0.689-0.184,1.298-0.241,1.822-0.17c0.524,0.069,0.863,0.264,1.013,0.585c0.186,0.367,0.288,0.806,0.316,1.311
				c0.027,0.503-0.058,1.151-0.257,1.94c-0.02,0.106-0.042,0.192-0.068,0.257c-0.05,0.201-0.106,0.415-0.168,0.64
				c-0.062,0.227-0.127,0.449-0.194,0.669c-0.15,0.444-0.317,0.884-0.501,1.316c-0.183,0.433-0.384,0.83-0.602,1.193
				c-0.203,0.344-0.469,0.7-0.799,1.063c-0.332,0.366-0.689,0.72-1.07,1.063c-0.383,0.344-0.765,0.659-1.143,0.944
				c-0.381,0.286-0.716,0.503-1.008,0.655c-0.184,0.095-0.411,0.197-0.683,0.309c-0.271,0.111-0.537,0.202-0.802,0.275
				c-0.117,0.032-0.233,0.056-0.348,0.072c-0.115,0.018-0.222,0.034-0.321,0.046c-0.342,0.036-0.623-0.024-0.846-0.182
				c-0.224-0.157-0.399-0.366-0.524-0.631c-0.127-0.263-0.201-0.564-0.225-0.908c-0.02-0.343,0.004-0.677,0.076-1.001
				c0.02-0.108,0.042-0.195,0.068-0.259c0.07-0.238,0.181-0.525,0.333-0.867c0.151-0.337,0.28-0.608,0.388-0.812
				c0.105-0.203,0.28-0.477,0.523-0.818c0.243-0.341,0.518-0.688,0.826-1.041c0.308-0.351,0.625-0.668,0.957-0.953
				c0.33-0.285,0.635-0.465,0.913-0.54c0.088-0.023,0.152-0.034,0.194-0.03c0.028-0.008,0.073,0.012,0.135,0.061
				c0.062,0.048,0.121,0.104,0.18,0.168c0.057,0.065,0.104,0.135,0.138,0.214c0.036,0.077,0.047,0.146,0.036,0.206
				c0.009,0.028,0.009,0.053-0.003,0.077c-0.012,0.025-0.021,0.053-0.025,0.084c-0.06,0.175-0.165,0.334-0.316,0.476
				s-0.317,0.289-0.497,0.438c-0.182,0.15-0.362,0.298-0.54,0.438c-0.18,0.144-0.317,0.294-0.415,0.45
				c-0.102,0.174-0.217,0.36-0.344,0.561c-0.126,0.202-0.219,0.39-0.278,0.566c-0.097,0.303-0.165,0.604-0.205,0.904
				s-0.024,0.558,0.05,0.77c0.072,0.212,0.207,0.369,0.406,0.467s0.475,0.098,0.826,0.002l0.11-0.03
				c0.03-0.008,0.063-0.021,0.101-0.037c0.037-0.018,0.072-0.034,0.102-0.042c0.312-0.112,0.629-0.323,0.949-0.628
				c0.319-0.304,0.628-0.66,0.925-1.066s0.568-0.853,0.818-1.34c0.247-0.487,0.45-0.976,0.61-1.467
				c0.172-0.494,0.285-0.946,0.34-1.359c0.053-0.411,0.068-0.778,0.041-1.095c-0.025-0.318-0.094-0.579-0.205-0.78
				c-0.109-0.202-0.248-0.339-0.416-0.409c-0.153-0.075-0.33-0.107-0.527-0.098s-0.398,0.042-0.604,0.097
				c-0.176,0.047-0.408,0.119-0.699,0.219c-0.291,0.099-0.512,0.191-0.666,0.276c-0.279,0.147-0.571,0.337-0.877,0.571
				c-0.309,0.235-0.611,0.392-0.904,0.47c-0.088,0.024-0.142,0.023-0.166,0.001C151.496,57.776,151.435,57.734,151.332,57.675z"/>
			<path fill="#FFFFFF" stroke="#FFFFFF" stroke-width="0.3" stroke-miterlimit="10" d="M164.61,47.51
				c-0.814,0.486-1.641,0.84-2.477,1.06c-0.543,0.143-1.035,0.203-1.478,0.183c-0.444-0.021-0.759-0.172-0.944-0.455
				c-0.063-0.115-0.104-0.248-0.127-0.4c-0.021-0.154-0.049-0.326-0.084-0.519c-0.027-0.152-0.065-0.311-0.111-0.479
				c-0.045-0.169-0.039-0.339,0.02-0.514c0.037-0.125,0.129-0.263,0.276-0.417c0.146-0.153,0.309-0.297,0.485-0.43
				c0.178-0.132,0.361-0.252,0.547-0.357c0.188-0.106,0.348-0.176,0.479-0.21c0.028-0.007,0.054-0.011,0.075-0.01
				c0.02,0.002,0.044-0.001,0.074-0.009c0.168,0,0.277,0.065,0.33,0.195c0.055,0.131,0.084,0.288,0.094,0.473
				c0.008,0.185,0.023,0.364,0.049,0.537c0.023,0.175,0.098,0.303,0.223,0.385c0.14,0.079,0.322,0.128,0.549,0.148
				c0.229,0.019,0.465-0.003,0.715-0.069c0.161-0.042,0.334-0.107,0.519-0.2c0.244-0.121,0.49-0.303,0.738-0.548
				c0.247-0.243,0.503-0.498,0.768-0.758c0.265-0.264,0.532-0.505,0.804-0.727c0.27-0.221,0.545-0.367,0.822-0.439
				c0.119-0.031,0.205-0.036,0.265-0.015c0.062,0.019,0.146,0.058,0.263,0.114c0.006,0.2-0.018,0.417-0.065,0.65
				c-0.052,0.237-0.112,0.479-0.187,0.727c-0.115,0.331-0.244,0.668-0.385,1.013c-0.14,0.345-0.277,0.694-0.41,1.042
				c-0.119,0.347-0.256,0.748-0.408,1.205c-0.152,0.456-0.321,0.953-0.502,1.488c-0.181,0.536-0.374,1.093-0.576,1.67
				c-0.205,0.578-0.4,1.151-0.586,1.717c-0.299,0.87-0.573,1.69-0.825,2.461c-0.253,0.771-0.454,1.423-0.606,1.953
				c-0.034,0.11-0.063,0.21-0.087,0.303c-0.024,0.095-0.05,0.188-0.081,0.283c-0.148,0.427-0.301,0.844-0.459,1.245
				c-0.156,0.403-0.308,0.81-0.451,1.225c-0.086,0.238-0.164,0.479-0.236,0.722s-0.116,0.482-0.129,0.716
				c-0.006,0.03-0.009,0.06-0.006,0.088c0,0.029-0.008,0.06-0.027,0.094c-0.127,0.38-0.361,0.74-0.709,1.081
				c-0.348,0.339-0.697,0.558-1.049,0.655c-0.278,0.077-0.488,0.041-0.628-0.109c-0.054-0.085-0.065-0.218-0.032-0.4
				s0.084-0.384,0.152-0.604c0.113-0.319,0.238-0.645,0.375-0.979c0.137-0.333,0.246-0.604,0.326-0.812
				c0.137-0.37,0.282-0.77,0.437-1.2c0.155-0.432,0.312-0.893,0.472-1.382c0.218-0.664,0.447-1.362,0.693-2.098
				s0.488-1.477,0.73-2.225c0.24-0.748,0.479-1.491,0.721-2.231c0.238-0.738,0.476-1.449,0.711-2.128
				c0.176-0.507,0.342-0.989,0.494-1.445C164.302,48.314,164.456,47.894,164.61,47.51z"/>
			<path fill="#FFFFFF" stroke="#FFFFFF" stroke-width="0.3" stroke-miterlimit="10" d="M167.392,53.246
				c-0.111,0.002-0.225,0.009-0.34,0.026s-0.22,0.02-0.314,0.01c-0.098-0.01-0.176-0.036-0.238-0.077
				c-0.061-0.04-0.096-0.118-0.103-0.23c0.003-0.029,0.007-0.062,0.007-0.099c-0.001-0.035,0.008-0.07,0.029-0.103
				c0.063-0.204,0.195-0.418,0.389-0.642c0.194-0.224,0.38-0.402,0.559-0.535c0.258-0.184,0.545-0.318,0.868-0.404
				c0.337-0.09,0.653-0.121,0.948-0.09c0.295,0.028,0.476,0.091,0.541,0.188c0.088,0.134,0.09,0.38,0.012,0.736
				c-0.08,0.357-0.192,0.741-0.338,1.151c-0.09,0.268-0.177,0.517-0.261,0.746c-0.083,0.229-0.155,0.43-0.214,0.604l-0.146,0.447
				c-0.138,0.381-0.254,0.706-0.345,0.974c-0.09,0.268-0.196,0.575-0.314,0.922c-0.236,0.678-0.41,1.307-0.521,1.881
				c-0.113,0.576-0.092,1.091,0.061,1.551c0.375,0.084,0.842,0.05,1.398-0.103c0.22-0.06,0.433-0.141,0.639-0.239
				c0.207-0.099,0.393-0.222,0.559-0.368c0.148-0.126,0.312-0.318,0.49-0.574c0.18-0.254,0.357-0.531,0.529-0.829
				s0.332-0.598,0.479-0.902c0.146-0.302,0.268-0.567,0.365-0.795c0.054-0.142,0.104-0.281,0.148-0.413
				c0.047-0.134,0.096-0.275,0.15-0.415c0.129-0.407,0.248-0.803,0.354-1.188c0.104-0.384,0.207-0.772,0.308-1.163
				c0.099-0.39,0.208-0.796,0.327-1.221c0.121-0.423,0.26-0.878,0.419-1.362c0.067-0.218,0.143-0.437,0.225-0.659
				c0.083-0.221,0.165-0.449,0.251-0.685c0.092-0.267,0.176-0.534,0.253-0.805c0.077-0.269,0.14-0.531,0.187-0.785
				c0.027-0.221,0.087-0.472,0.18-0.752c0.095-0.281,0.187-0.555,0.277-0.82l0.318-0.938c0.023-0.049,0.039-0.092,0.047-0.129
				c0.006-0.037,0.025-0.074,0.062-0.112c0.131-0.263,0.332-0.493,0.607-0.692c0.273-0.2,0.543-0.334,0.807-0.404
				c0.178-0.046,0.335-0.056,0.477-0.029c0.143,0.027,0.235,0.106,0.281,0.235c-0.326,1.464-0.769,3.054-1.33,4.772
				c-0.561,1.721-1.141,3.459-1.742,5.214l-0.318,0.942c-0.311,0.924-0.677,1.864-1.104,2.821c-0.427,0.958-0.946,1.812-1.557,2.565
				c-0.247,0.21-0.545,0.41-0.893,0.599s-0.706,0.362-1.077,0.521s-0.745,0.302-1.122,0.427c-0.379,0.125-0.723,0.231-1.029,0.316
				c-0.266,0.073-0.514,0.122-0.748,0.152c-0.234,0.028-0.449,0.034-0.643,0.015c-0.271-0.027-0.475-0.156-0.605-0.394
				c-0.131-0.237-0.215-0.529-0.248-0.877c-0.033-0.35-0.024-0.739,0.025-1.168c0.051-0.431,0.128-0.855,0.23-1.269
				c0.056-0.145,0.098-0.285,0.131-0.423c0.031-0.136,0.076-0.286,0.133-0.445c0.176-0.506,0.357-0.985,0.545-1.437
				c0.188-0.451,0.361-0.929,0.523-1.431c0.115-0.332,0.213-0.652,0.289-0.958C167.345,53.787,167.388,53.505,167.392,53.246z"/>
		</g>
		<g>
			<path fill="#FFFFFF" stroke="#FFFFFF" stroke-width="0.3" stroke-miterlimit="10" d="M150.876,73.239
				c-0.141,0.084-0.361,0.229-0.664,0.438c-0.301,0.207-0.568,0.344-0.804,0.41c-0.191,0.054-0.324,0.019-0.398-0.107
				c-0.066-0.096-0.071-0.226-0.015-0.389c0.063-0.19,0.198-0.402,0.407-0.638c0.209-0.23,0.444-0.453,0.705-0.665
				c0.261-0.21,0.532-0.402,0.813-0.575c0.281-0.174,0.533-0.298,0.756-0.374l0.242-0.067c0.572-0.159,0.928-0.085,1.067,0.224
				s0.137,0.78-0.003,1.414l-0.148,0.236c-0.234,0.371-0.481,0.778-0.742,1.221s-0.516,0.897-0.766,1.36
				c-0.252,0.462-0.487,0.929-0.711,1.396c-0.225,0.473-0.41,0.926-0.557,1.358c-0.162,0.511-0.26,0.978-0.294,1.403
				c-0.034,0.422,0.026,0.78,0.183,1.068c0.3,0.119,0.586,0.138,0.865,0.058c0.264-0.075,0.51-0.222,0.736-0.439
				c0.229-0.218,0.438-0.484,0.636-0.802c0.196-0.317,0.378-0.667,0.544-1.048c0.164-0.379,0.32-0.778,0.465-1.198
				c0.221-0.687,0.406-1.368,0.557-2.047c0.132-0.574,0.281-1.139,0.451-1.692c0.17-0.555,0.294-1.01,0.373-1.365
				c0.036-0.197,0.043-0.359,0.024-0.485c-0.02-0.124,0-0.273,0.06-0.45c0.008-0.045,0.032-0.102,0.072-0.171
				c0.146-0.274,0.354-0.511,0.621-0.717c0.267-0.204,0.531-0.343,0.795-0.417c0.176-0.049,0.336-0.064,0.479-0.047
				c0.145,0.018,0.252,0.096,0.324,0.233c-0.217,0.812-0.413,1.649-0.588,2.507c-0.177,0.858-0.387,1.729-0.629,2.605l-0.318,1.067
				c-0.246,0.75-0.543,1.471-0.891,2.164c-0.346,0.692-0.75,1.325-1.207,1.898c-0.458,0.573-0.973,1.073-1.541,1.497
				c-0.572,0.428-1.195,0.739-1.869,0.934c-0.571,0.164-1.032,0.175-1.382,0.036c-0.351-0.138-0.603-0.387-0.753-0.743
				c-0.152-0.355-0.207-0.81-0.164-1.362c0.043-0.55,0.174-1.155,0.389-1.812c0.139-0.464,0.349-0.981,0.633-1.558
				c0.156-0.319,0.336-0.646,0.543-0.98c0.206-0.336,0.41-0.662,0.614-0.981c0.204-0.318,0.392-0.629,0.564-0.933
				c0.173-0.303,0.306-0.597,0.399-0.887c0.031-0.096,0.059-0.192,0.085-0.294C150.86,73.422,150.874,73.327,150.876,73.239z"/>
			<path fill="#FFFFFF" stroke="#FFFFFF" stroke-width="0.3" stroke-miterlimit="10" d="M160.784,70.633
				c-0.178,0.063-0.365,0.189-0.557,0.371c-0.193,0.185-0.393,0.379-0.597,0.58c-0.203,0.201-0.407,0.388-0.613,0.561
				c-0.204,0.175-0.403,0.287-0.594,0.341c-0.249,0.069-0.456,0.057-0.618-0.042c0.012-0.061,0.018-0.118,0.02-0.167
				c0.002-0.052,0.017-0.11,0.042-0.175c0.114-0.32,0.309-0.654,0.589-1c0.277-0.345,0.595-0.674,0.951-0.99
				c0.355-0.316,0.729-0.602,1.115-0.854s0.744-0.438,1.072-0.559c0.029-0.008,0.146-0.04,0.352-0.098s0.43-0.122,0.674-0.2
				c0.243-0.073,0.463-0.139,0.661-0.193c0.198-0.056,0.312-0.087,0.341-0.096c0.499-0.139,0.861-0.122,1.088,0.052
				c0.225,0.175,0.359,0.44,0.407,0.8c0.045,0.362,0.02,0.788-0.077,1.283c-0.097,0.492-0.22,0.997-0.37,1.514
				c-0.047,0.186-0.102,0.369-0.161,0.55c-0.062,0.184-0.123,0.362-0.182,0.537c-0.184,0.556-0.377,1.098-0.577,1.63
				c-0.202,0.531-0.384,1.058-0.549,1.578c-0.067,0.22-0.134,0.433-0.198,0.639s-0.131,0.41-0.195,0.617
				c-0.045,0.172-0.062,0.323-0.052,0.457c0.011,0.133-0.009,0.265-0.062,0.395c-0.068,0.148-0.171,0.308-0.305,0.477
				c-0.135,0.167-0.285,0.327-0.451,0.475s-0.342,0.282-0.533,0.4c-0.187,0.119-0.354,0.2-0.502,0.243
				c-0.191,0.055-0.328,0.05-0.415-0.009c-0.101-0.06-0.139-0.174-0.113-0.348c0.024-0.172,0.069-0.369,0.139-0.591l0.268-0.788
				c0.257-0.811,0.513-1.627,0.767-2.455c0.256-0.828,0.562-1.773,0.924-2.841c0.212-0.635,0.35-1.145,0.413-1.53
				c0.063-0.384,0.069-0.673,0.021-0.868c-0.049-0.194-0.142-0.309-0.282-0.34c-0.141-0.033-0.299-0.025-0.475,0.024
				c-0.234,0.065-0.479,0.167-0.734,0.304C161.163,70.452,160.952,70.557,160.784,70.633z"/>
			<path fill="#FFFFFF" stroke="#FFFFFF" stroke-width="0.3" stroke-miterlimit="10" d="M170.177,68.233
				c-0.104,0.102-0.204,0.238-0.307,0.419c-0.103,0.18-0.199,0.363-0.289,0.552c-0.091,0.191-0.164,0.36-0.219,0.513
				c-0.056,0.151-0.095,0.252-0.119,0.301c-0.12,0.363-0.158,0.643-0.109,0.837c0.049,0.193,0.192,0.32,0.43,0.381
				c0.107,0.028,0.221,0.018,0.342-0.032c0.119-0.047,0.238-0.06,0.361-0.038c-0.006,0.03-0.023,0.104-0.051,0.219
				s-0.059,0.241-0.09,0.379c-0.032,0.137-0.066,0.267-0.101,0.383c-0.035,0.116-0.057,0.191-0.062,0.222
				c-0.005,0.029-0.028,0.078-0.069,0.147c-0.215,0.12-0.42,0.248-0.611,0.389c-0.193,0.141-0.362,0.303-0.507,0.487
				c-0.214,0.261-0.396,0.477-0.546,0.649c-0.149,0.17-0.303,0.465-0.463,0.883c-0.088,0.326-0.104,0.567-0.049,0.724
				c0.057,0.155,0.166,0.254,0.333,0.292c0.167,0.037,0.381,0.025,0.642-0.036c0.262-0.06,0.553-0.136,0.875-0.228
				c0.616-0.177,1.195-0.44,1.74-0.79c0.542-0.348,0.886-0.728,1.031-1.14c0.482-1.422,0.89-2.606,1.223-3.555
				c0.335-0.95,0.613-1.734,0.838-2.352c0.116-0.404,0.213-0.758,0.29-1.066c0.077-0.306,0.164-0.612,0.263-0.927
				c0.026-0.063,0.062-0.146,0.109-0.242c0.146-0.271,0.352-0.506,0.619-0.708c0.266-0.203,0.531-0.339,0.795-0.413
				c0.176-0.049,0.338-0.062,0.488-0.042c0.148,0.023,0.245,0.098,0.292,0.229l-0.208,0.569c-0.162,0.5-0.303,0.886-0.422,1.152
				c-0.118,0.268-0.207,0.487-0.267,0.661c-0.222,0.603-0.433,1.188-0.635,1.757s-0.406,1.147-0.61,1.73l-0.829,2.479
				c-0.062,0.188-0.182,0.479-0.357,0.87s-0.454,0.812-0.834,1.255c-0.381,0.445-0.899,0.887-1.556,1.325
				c-0.655,0.438-1.498,0.806-2.524,1.102l-0.132,0.038c-0.82,0.237-1.467,0.33-1.938,0.28c-0.471-0.052-0.816-0.188-1.041-0.41
				c-0.223-0.225-0.336-0.514-0.34-0.871c-0.006-0.357,0.053-0.717,0.176-1.084c0.229-0.652,0.485-1.182,0.767-1.584
				c0.282-0.403,0.614-0.814,0.998-1.24c-0.19-0.175-0.337-0.419-0.439-0.735c-0.104-0.314-0.05-0.772,0.156-1.376
				c0.063-0.189,0.151-0.407,0.265-0.654c0.115-0.246,0.231-0.502,0.35-0.765c0.145-0.412,0.294-0.776,0.449-1.092
				c0.154-0.314,0.336-0.58,0.541-0.796c0.154-0.157,0.418-0.342,0.791-0.553c0.372-0.211,0.728-0.363,1.064-0.457
				c0.309-0.086,0.554-0.1,0.737-0.035c0.114,0.052,0.204,0.156,0.266,0.312c0.063,0.151,0.06,0.333-0.005,0.536
				c-0.045,0.098-0.088,0.173-0.125,0.227c-0.094,0.141-0.19,0.253-0.291,0.341c-0.1,0.083-0.206,0.16-0.324,0.229
				c-0.115,0.068-0.238,0.128-0.365,0.177C170.446,68.108,170.313,68.167,170.177,68.233z"/>
			<path fill="#FFFFFF" stroke="#FFFFFF" stroke-width="0.3" stroke-miterlimit="10" d="M182.159,58.438
				c-0.814,0.494-1.641,0.857-2.476,1.088c-0.543,0.15-1.036,0.218-1.478,0.203c-0.444-0.012-0.758-0.156-0.944-0.43
				c-0.063-0.111-0.104-0.242-0.126-0.393c-0.021-0.149-0.049-0.32-0.085-0.508c-0.026-0.15-0.065-0.306-0.112-0.471
				c-0.045-0.164-0.039-0.334,0.02-0.507c0.039-0.125,0.13-0.263,0.276-0.416c0.146-0.154,0.309-0.296,0.486-0.43
				c0.178-0.136,0.36-0.255,0.547-0.363c0.188-0.108,0.348-0.18,0.478-0.215c0.03-0.008,0.055-0.011,0.076-0.009
				c0.021,0,0.046-0.003,0.074-0.011c0.168-0.002,0.279,0.058,0.332,0.188c0.053,0.127,0.083,0.281,0.091,0.462
				c0.01,0.183,0.026,0.359,0.05,0.53c0.023,0.169,0.098,0.294,0.223,0.375c0.141,0.075,0.322,0.119,0.551,0.136
				c0.227,0.015,0.463-0.01,0.713-0.079c0.161-0.044,0.335-0.115,0.52-0.207c0.244-0.124,0.49-0.308,0.738-0.553
				s0.504-0.5,0.768-0.762s0.531-0.505,0.803-0.728c0.271-0.223,0.546-0.373,0.823-0.448c0.119-0.033,0.206-0.038,0.265-0.018
				c0.06,0.02,0.146,0.056,0.263,0.107c0.006,0.198-0.017,0.413-0.066,0.644c-0.05,0.232-0.111,0.471-0.187,0.717
				c-0.115,0.331-0.243,0.665-0.383,1.006c-0.141,0.343-0.277,0.688-0.41,1.035c-0.119,0.343-0.256,0.742-0.409,1.193
				c-0.153,0.453-0.321,0.945-0.503,1.476c-0.182,0.531-0.373,1.083-0.576,1.656s-0.398,1.14-0.586,1.701
				c-0.297,0.862-0.572,1.677-0.824,2.441c-0.254,0.764-0.455,1.409-0.607,1.934c-0.033,0.109-0.062,0.21-0.085,0.302
				c-0.024,0.092-0.052,0.185-0.085,0.277c-0.146,0.424-0.298,0.837-0.455,1.235c-0.157,0.399-0.307,0.805-0.453,1.215
				c-0.085,0.237-0.164,0.476-0.234,0.715c-0.073,0.242-0.116,0.478-0.129,0.708c-0.008,0.03-0.009,0.059-0.006,0.086
				c0,0.028-0.01,0.06-0.027,0.093c-0.127,0.377-0.362,0.735-0.709,1.077s-0.697,0.564-1.051,0.666
				c-0.277,0.08-0.486,0.048-0.627-0.098c-0.054-0.083-0.064-0.216-0.031-0.396c0.031-0.18,0.082-0.38,0.151-0.599
				c0.112-0.316,0.239-0.64,0.376-0.971c0.137-0.33,0.245-0.598,0.326-0.807c0.135-0.365,0.281-0.763,0.436-1.189
				c0.155-0.428,0.312-0.883,0.471-1.368c0.219-0.659,0.449-1.352,0.695-2.081c0.245-0.729,0.488-1.465,0.729-2.205
				c0.24-0.739,0.479-1.477,0.72-2.209c0.239-0.733,0.477-1.437,0.711-2.11c0.177-0.501,0.342-0.979,0.495-1.433
				C181.853,59.239,182.007,58.821,182.159,58.438z"/>
			<path fill="#FFFFFF" stroke="#FFFFFF" stroke-width="0.3" stroke-miterlimit="10" d="M184.942,64.044
				c-0.112,0.003-0.226,0.015-0.34,0.032c-0.115,0.021-0.22,0.024-0.316,0.015c-0.096-0.007-0.174-0.032-0.236-0.071
				c-0.062-0.039-0.098-0.114-0.105-0.226c0.006-0.028,0.008-0.061,0.009-0.097c-0.001-0.034,0.009-0.07,0.029-0.104
				c0.065-0.201,0.194-0.414,0.389-0.637s0.38-0.403,0.559-0.538c0.257-0.185,0.546-0.322,0.868-0.412
				c0.338-0.094,0.652-0.128,0.947-0.105c0.296,0.022,0.476,0.081,0.543,0.175c0.086,0.129,0.089,0.375,0.012,0.726
				c-0.081,0.353-0.193,0.733-0.338,1.14c-0.091,0.266-0.177,0.511-0.262,0.74c-0.084,0.228-0.156,0.429-0.215,0.599l-0.145,0.443
				c-0.139,0.377-0.254,0.698-0.346,0.963c-0.09,0.268-0.195,0.572-0.314,0.916c-0.234,0.673-0.41,1.294-0.521,1.861
				c-0.111,0.568-0.091,1.077,0.062,1.527c0.375,0.077,0.84,0.033,1.396-0.126c0.221-0.063,0.433-0.146,0.64-0.246
				c0.206-0.102,0.392-0.225,0.56-0.372c0.148-0.127,0.311-0.317,0.49-0.573c0.18-0.254,0.355-0.531,0.528-0.826
				s0.332-0.593,0.479-0.896c0.146-0.302,0.268-0.564,0.364-0.791c0.054-0.141,0.104-0.276,0.149-0.411
				c0.046-0.131,0.096-0.269,0.148-0.409c0.131-0.403,0.249-0.795,0.354-1.176c0.106-0.38,0.209-0.765,0.309-1.152
				c0.1-0.386,0.207-0.788,0.328-1.209c0.12-0.419,0.258-0.869,0.418-1.348c0.068-0.217,0.143-0.432,0.225-0.653
				c0.084-0.22,0.167-0.447,0.252-0.68c0.092-0.265,0.176-0.529,0.252-0.797c0.078-0.267,0.14-0.525,0.188-0.777
				c0.027-0.219,0.086-0.466,0.18-0.745s0.186-0.548,0.275-0.812l0.319-0.929c0.023-0.049,0.039-0.093,0.046-0.13
				c0.007-0.036,0.026-0.073,0.062-0.111c0.132-0.26,0.334-0.491,0.608-0.694c0.273-0.2,0.542-0.337,0.807-0.41
				c0.177-0.049,0.336-0.061,0.477-0.036c0.142,0.024,0.235,0.099,0.28,0.227c-0.324,1.446-0.767,3.021-1.328,4.723
				c-0.561,1.706-1.143,3.428-1.744,5.168l-0.317,0.933c-0.31,0.916-0.679,1.849-1.103,2.799c-0.428,0.951-0.946,1.802-1.558,2.554
				c-0.248,0.212-0.546,0.414-0.894,0.605c-0.347,0.192-0.705,0.368-1.076,0.532c-0.371,0.163-0.744,0.31-1.123,0.439
				c-0.378,0.13-0.721,0.24-1.028,0.329c-0.265,0.076-0.514,0.129-0.749,0.163c-0.235,0.032-0.447,0.04-0.641,0.024
				c-0.273-0.021-0.477-0.145-0.607-0.376c-0.131-0.229-0.214-0.519-0.247-0.861s-0.025-0.727,0.026-1.152
				c0.049-0.424,0.126-0.842,0.23-1.254c0.053-0.141,0.097-0.281,0.13-0.419c0.032-0.135,0.076-0.281,0.132-0.438
				c0.177-0.504,0.357-0.979,0.545-1.429c0.188-0.446,0.36-0.92,0.523-1.417c0.115-0.33,0.213-0.645,0.289-0.95
				C184.896,64.579,184.937,64.299,184.942,64.044z"/>
		</g>
	</g>
</g>
<rect x="0" y="0" fill="none" width="84.233" height="26.688"/>
<text transform="matrix(1 0 0 1 42.7915 72.3474)" fill="#231F20" font-family="'Arabica-Italic'" font-size="18">เคยได้ยินมั๊ย?</text>
</svg>
