<?xml version="1.0" encoding="UTF-8"?>
<svg width="200px" height="97px" viewBox="0 0 200 97" version="1.1" xmlns="http://www.w3.org/2000/svg" xmlns:xlink="http://www.w3.org/1999/xlink">
    <!-- Generator: Sketch 48.2 (47327) - http://www.bohemiancoding.com/sketch -->
    <title>Slice 1</title>
    <desc>Created with Sketch.</desc>
    <defs></defs>
    <g id="Page-1" stroke="none" stroke-width="1" fill="none" fill-rule="evenodd">
        <g id="01">
            <circle id="Oval" stroke="#231F20" stroke-width="0.3" fill="#231F20" fill-rule="nonzero" cx="166.665" cy="64.009" r="32.68"></circle>
            <g id="Group" transform="translate(138.000000, 43.000000)" fill="#FFFFFF" fill-rule="nonzero" stroke="#FFFFFF" stroke-width="0.3">
                <g id="Shape">
                    <path d="M4.314,19.896 C3.976,20.53 3.706,21.152 3.5,21.763 C3.352,22.2 3.251,22.603 3.198,22.976 C3.146,23.349 3.153,23.663 3.218,23.914 C3.284,24.166 3.417,24.347 3.614,24.452 C3.811,24.559 4.1,24.56 4.481,24.456 C4.657,24.408 4.873,24.328 5.131,24.212 C5.515,23.858 5.853,23.433 6.145,22.938 C6.436,22.44 6.707,21.88 6.959,21.256 C7.016,21.081 7.082,20.91 7.154,20.742 C7.224,20.577 7.295,20.389 7.359,20.183 C7.507,19.748 7.622,19.348 7.699,18.983 C7.78,18.619 7.786,18.387 7.72,18.287 C7.665,18.2 7.547,18.165 7.361,18.186 C7.176,18.207 6.989,18.225 6.798,18.239 C6.608,18.254 6.446,18.233 6.319,18.171 C6.19,18.11 6.157,17.947 6.218,17.682 C6.301,17.455 6.439,17.184 6.637,16.869 C6.834,16.553 7.012,16.257 7.173,15.98 C7.277,15.791 7.375,15.623 7.473,15.471 C7.57,15.321 7.665,15.163 7.756,15 C7.85,14.836 7.951,14.654 8.065,14.447 C8.179,14.243 8.305,13.989 8.444,13.69 C8.94,13.177 9.495,12.84 10.112,12.676 C10.345,12.614 10.553,12.589 10.734,12.599 C10.787,12.685 10.797,12.787 10.764,12.896 L10.679,13.137 C10.61,13.36 10.492,13.597 10.329,13.852 C10.164,14.107 10.002,14.373 9.84,14.648 C9.707,14.844 9.588,15.047 9.479,15.257 C9.372,15.468 9.254,15.693 9.128,15.931 C9.572,15.942 9.912,16.069 10.149,16.312 C10.178,16.77 10.143,17.288 10.047,17.866 C9.949,18.446 9.797,19.041 9.59,19.649 C9.406,20.209 9.184,20.764 8.924,21.316 C8.665,21.868 8.373,22.399 8.053,22.908 C7.731,23.42 7.379,23.898 7.002,24.346 C6.619,24.793 6.219,25.185 5.797,25.519 C5.393,25.748 5.002,25.942 4.625,26.106 C4.248,26.266 3.891,26.394 3.553,26.487 C3.053,26.625 2.608,26.683 2.215,26.663 C1.82,26.641 1.498,26.536 1.244,26.353 C0.991,26.169 0.827,25.894 0.754,25.527 C0.68,25.163 0.714,24.697 0.858,24.128 C0.91,23.909 0.973,23.679 1.044,23.441 C1.114,23.201 1.192,22.962 1.278,22.717 C1.396,22.363 1.524,22.022 1.66,21.69 C1.795,21.361 1.951,21.018 2.126,20.663 C2.237,20.428 2.353,20.218 2.47,20.033 C2.587,19.847 2.708,19.665 2.84,19.483 C2.97,19.301 3.099,19.121 3.23,18.938 C3.361,18.757 3.503,18.551 3.656,18.319 C3.663,18.275 3.709,18.181 3.789,18.043 C3.489,18.079 3.211,18.077 2.952,18.037 C2.693,17.997 2.483,17.911 2.318,17.779 C2.154,17.646 2.047,17.465 1.998,17.228 C1.949,16.991 1.972,16.692 2.064,16.332 C2.247,16.092 2.451,15.887 2.676,15.718 C2.902,15.549 3.125,15.433 3.345,15.375 C3.521,15.329 3.662,15.32 3.769,15.35 C3.849,15.358 3.9,15.413 3.917,15.518 C3.933,15.623 3.948,15.73 3.964,15.836 C3.98,15.94 4.001,16.034 4.028,16.115 C4.055,16.195 4.129,16.219 4.247,16.188 C4.382,16.05 4.518,15.9 4.65,15.741 C4.784,15.582 4.919,15.432 5.056,15.293 C5.192,15.154 5.336,15.031 5.487,14.926 C5.639,14.82 5.803,14.742 5.979,14.696 C6.038,14.68 6.096,14.665 6.155,14.649 C6.214,14.633 6.27,14.633 6.325,14.648 C6.518,14.656 6.621,14.839 6.633,15.202 C6.646,15.563 6.588,15.943 6.46,16.343 C6.377,16.571 6.25,16.83 6.079,17.124 C5.907,17.418 5.715,17.728 5.503,18.057 C5.29,18.385 5.075,18.709 4.857,19.031 C4.64,19.348 4.458,19.639 4.314,19.896 Z"></path>
                    <path d="M12.565,9.761 C12.545,9.868 12.511,9.986 12.46,10.115 C12.399,10.292 12.292,10.502 12.136,10.746 C11.827,10.988 11.495,11.187 11.138,11.348 C10.781,11.509 10.406,11.64 10.008,11.745 C9.481,11.885 8.929,12.035 8.358,12.194 C7.783,12.354 7.218,12.505 6.662,12.652 L6.332,12.739 C6.068,12.809 5.839,12.877 5.646,12.943 C5.453,13.01 5.271,13.072 5.099,13.132 C4.927,13.191 4.759,13.247 4.597,13.297 C4.435,13.348 4.243,13.402 4.023,13.461 C3.818,13.515 3.617,13.55 3.418,13.565 C3.219,13.58 3.049,13.558 2.906,13.492 C2.909,13.403 2.922,13.316 2.943,13.23 C2.967,13.144 2.992,13.06 3.02,12.98 C3.138,12.627 3.293,12.345 3.486,12.133 C3.677,11.921 3.908,11.747 4.178,11.611 C4.447,11.473 4.749,11.358 5.089,11.261 C5.426,11.165 5.796,11.049 6.198,10.914 C6.434,10.838 6.675,10.763 6.919,10.692 C7.162,10.62 7.415,10.551 7.68,10.481 L7.778,10.171 C7.832,10.025 7.854,9.946 7.841,9.935 C7.859,9.829 7.88,9.75 7.903,9.7 C8.032,9.375 8.251,9.127 8.561,8.96 C8.872,8.791 9.178,8.666 9.487,8.585 C9.648,8.543 9.782,8.544 9.885,8.59 C9.973,8.64 10.007,8.74 9.987,8.891 C9.969,9.041 9.926,9.212 9.864,9.403 L9.646,10.029 C9.721,10.009 9.788,9.994 9.853,9.984 C9.918,9.975 9.987,9.96 10.06,9.941 L10.711,9.813 C10.752,9.744 10.782,9.671 10.805,9.593 C10.825,9.515 10.851,9.435 10.877,9.356 C10.932,9.21 10.953,9.132 10.941,9.12 C10.96,9.014 10.982,8.935 11.003,8.886 C11.132,8.561 11.347,8.315 11.649,8.15 C11.952,7.984 12.256,7.859 12.565,7.778 C12.725,7.736 12.858,7.738 12.962,7.783 C13.051,7.832 13.084,7.933 13.065,8.083 C13.045,8.233 13.004,8.403 12.942,8.594 L12.666,9.43 C12.618,9.544 12.585,9.654 12.565,9.761 Z"></path>
                    <path d="M9.55,6.603 C9.614,6.412 9.687,6.241 9.771,6.087 C9.854,5.934 9.937,5.789 10.016,5.653 C10.097,5.515 10.175,5.367 10.253,5.209 C10.331,5.051 10.411,4.859 10.491,4.635 C10.251,4.654 10.054,4.606 9.901,4.492 C9.745,4.38 9.703,4.205 9.774,3.97 C9.853,3.76 10.019,3.535 10.274,3.294 C10.462,3.1 10.665,2.946 10.881,2.834 C11.096,2.719 11.315,2.634 11.533,2.578 C11.754,2.521 11.961,2.501 12.154,2.516 C12.347,2.532 12.509,2.581 12.64,2.663 C12.772,2.745 12.86,2.864 12.902,3.02 C12.943,3.177 12.927,3.372 12.858,3.608 C12.804,3.754 12.73,3.909 12.636,4.079 C12.542,4.248 12.415,4.433 12.253,4.636 L12.473,4.579 C12.882,4.473 13.263,4.286 13.611,4.023 C13.959,3.758 14.299,3.479 14.634,3.182 C14.966,2.886 15.314,2.604 15.677,2.336 C16.04,2.067 16.448,1.877 16.904,1.759 L17.013,1.731 C17.152,1.811 17.238,1.9 17.269,2.001 C17.298,2.102 17.296,2.215 17.259,2.34 C17.202,2.499 17.103,2.663 16.961,2.829 C16.818,2.996 16.655,3.166 16.472,3.336 C16.285,3.507 16.087,3.678 15.874,3.849 C15.663,4.02 15.468,4.172 15.289,4.306 L15.17,4.38 C14.895,4.595 14.567,4.833 14.193,5.089 C13.818,5.347 13.426,5.598 13.019,5.843 C12.612,6.086 12.198,6.306 11.779,6.503 C11.358,6.7 10.966,6.846 10.598,6.941 C10.305,7.018 10.092,7.037 9.961,6.997 C9.826,6.96 9.672,6.884 9.497,6.77 L9.55,6.603 Z"></path>
                    <path d="M13.332,14.675 C13.282,14.572 13.245,14.48 13.226,14.398 C13.206,14.317 13.222,14.211 13.273,14.081 C13.37,13.78 13.611,13.483 14,13.19 C14.388,12.899 14.811,12.637 15.271,12.406 C15.732,12.176 16.179,11.979 16.612,11.821 C17.047,11.662 17.365,11.556 17.57,11.502 C18.259,11.318 18.868,11.261 19.392,11.332 C19.916,11.401 20.255,11.596 20.405,11.917 C20.591,12.284 20.693,12.723 20.721,13.228 C20.748,13.731 20.663,14.379 20.464,15.168 C20.444,15.274 20.422,15.36 20.396,15.425 C20.346,15.626 20.29,15.84 20.228,16.065 C20.166,16.292 20.101,16.514 20.034,16.734 C19.884,17.178 19.717,17.618 19.533,18.05 C19.35,18.483 19.149,18.88 18.931,19.243 C18.728,19.587 18.462,19.943 18.132,20.306 C17.8,20.672 17.443,21.026 17.062,21.369 C16.679,21.713 16.297,22.028 15.919,22.313 C15.538,22.599 15.203,22.816 14.911,22.968 C14.727,23.063 14.5,23.165 14.228,23.277 C13.957,23.388 13.691,23.479 13.426,23.552 C13.309,23.584 13.193,23.608 13.078,23.624 C12.963,23.642 12.856,23.658 12.757,23.67 C12.415,23.706 12.134,23.646 11.911,23.488 C11.687,23.331 11.512,23.122 11.387,22.857 C11.26,22.594 11.186,22.293 11.162,21.949 C11.142,21.606 11.166,21.272 11.238,20.948 C11.258,20.84 11.28,20.753 11.306,20.689 C11.376,20.451 11.487,20.164 11.639,19.822 C11.79,19.485 11.919,19.214 12.027,19.01 C12.132,18.807 12.307,18.533 12.55,18.192 C12.793,17.851 13.068,17.504 13.376,17.151 C13.684,16.8 14.001,16.483 14.333,16.198 C14.663,15.913 14.968,15.733 15.246,15.658 C15.334,15.635 15.398,15.624 15.44,15.628 C15.468,15.62 15.513,15.64 15.575,15.689 C15.637,15.737 15.696,15.793 15.755,15.857 C15.812,15.922 15.859,15.992 15.893,16.071 C15.929,16.148 15.94,16.217 15.929,16.277 C15.938,16.305 15.938,16.33 15.926,16.354 C15.914,16.379 15.905,16.407 15.901,16.438 C15.841,16.613 15.736,16.772 15.585,16.914 C15.434,17.056 15.268,17.203 15.088,17.352 C14.906,17.502 14.726,17.65 14.548,17.79 C14.368,17.934 14.231,18.084 14.133,18.24 C14.031,18.414 13.916,18.6 13.789,18.801 C13.663,19.003 13.57,19.191 13.511,19.367 C13.414,19.67 13.346,19.971 13.306,20.271 C13.266,20.571 13.282,20.829 13.356,21.041 C13.428,21.253 13.563,21.41 13.762,21.508 C13.961,21.606 14.237,21.606 14.588,21.51 L14.698,21.48 C14.728,21.472 14.761,21.459 14.799,21.443 C14.836,21.425 14.871,21.409 14.901,21.401 C15.213,21.289 15.53,21.078 15.85,20.773 C16.169,20.469 16.478,20.113 16.775,19.707 C17.072,19.301 17.343,18.854 17.593,18.367 C17.84,17.88 18.043,17.391 18.203,16.9 C18.375,16.406 18.488,15.954 18.543,15.541 C18.596,15.13 18.611,14.763 18.584,14.446 C18.559,14.128 18.49,13.867 18.379,13.666 C18.27,13.464 18.131,13.327 17.963,13.257 C17.81,13.182 17.633,13.15 17.436,13.159 C17.239,13.168 17.038,13.201 16.832,13.256 C16.656,13.303 16.424,13.375 16.133,13.475 C15.842,13.574 15.621,13.666 15.467,13.751 C15.188,13.898 14.896,14.088 14.59,14.322 C14.281,14.557 13.979,14.714 13.686,14.792 C13.598,14.816 13.544,14.815 13.52,14.793 C13.496,14.776 13.435,14.734 13.332,14.675 Z"></path>
                    <path d="M26.61,4.51 C25.796,4.996 24.969,5.35 24.133,5.57 C23.59,5.713 23.098,5.773 22.655,5.753 C22.211,5.732 21.896,5.581 21.711,5.298 C21.648,5.183 21.607,5.05 21.584,4.898 C21.563,4.744 21.535,4.572 21.5,4.379 C21.473,4.227 21.435,4.068 21.389,3.9 C21.344,3.731 21.35,3.561 21.409,3.386 C21.446,3.261 21.538,3.123 21.685,2.969 C21.831,2.816 21.994,2.672 22.17,2.539 C22.348,2.407 22.531,2.287 22.717,2.182 C22.905,2.076 23.065,2.006 23.196,1.972 C23.224,1.965 23.25,1.961 23.271,1.962 C23.291,1.964 23.315,1.961 23.345,1.953 C23.513,1.953 23.622,2.018 23.675,2.148 C23.73,2.279 23.759,2.436 23.769,2.621 C23.777,2.806 23.792,2.985 23.818,3.158 C23.841,3.333 23.916,3.461 24.041,3.543 C24.181,3.622 24.363,3.671 24.59,3.691 C24.819,3.71 25.055,3.688 25.305,3.622 C25.466,3.58 25.639,3.515 25.824,3.422 C26.068,3.301 26.314,3.119 26.562,2.874 C26.809,2.631 27.065,2.376 27.33,2.116 C27.595,1.852 27.862,1.611 28.134,1.389 C28.404,1.168 28.679,1.022 28.956,0.95 C29.075,0.919 29.161,0.914 29.221,0.935 C29.283,0.954 29.367,0.993 29.484,1.049 C29.49,1.249 29.466,1.466 29.419,1.699 C29.367,1.936 29.307,2.178 29.232,2.426 C29.117,2.757 28.988,3.094 28.847,3.439 C28.707,3.784 28.57,4.133 28.437,4.481 C28.318,4.828 28.181,5.229 28.029,5.686 C27.877,6.142 27.708,6.639 27.527,7.174 C27.346,7.71 27.153,8.267 26.951,8.844 C26.746,9.422 26.551,9.995 26.365,10.561 C26.066,11.431 25.792,12.251 25.54,13.022 C25.287,13.793 25.086,14.445 24.934,14.975 C24.9,15.085 24.871,15.185 24.847,15.278 C24.823,15.373 24.797,15.466 24.766,15.561 C24.618,15.988 24.465,16.405 24.307,16.806 C24.151,17.209 23.999,17.616 23.856,18.031 C23.77,18.269 23.692,18.51 23.62,18.753 C23.548,18.996 23.504,19.235 23.491,19.469 C23.485,19.499 23.482,19.529 23.485,19.557 C23.485,19.586 23.477,19.617 23.458,19.651 C23.331,20.031 23.097,20.391 22.749,20.732 C22.401,21.071 22.052,21.29 21.7,21.387 C21.422,21.464 21.212,21.428 21.072,21.278 C21.018,21.193 21.007,21.06 21.04,20.878 C21.073,20.696 21.124,20.494 21.192,20.274 C21.305,19.955 21.43,19.629 21.567,19.295 C21.704,18.962 21.813,18.691 21.893,18.483 C22.03,18.113 22.175,17.713 22.33,17.283 C22.485,16.851 22.642,16.39 22.802,15.901 C23.02,15.237 23.249,14.539 23.495,13.803 C23.741,13.067 23.983,12.326 24.225,11.578 C24.465,10.83 24.704,10.087 24.946,9.347 C25.184,8.609 25.422,7.898 25.657,7.219 C25.833,6.712 25.999,6.23 26.151,5.774 C26.302,5.314 26.456,4.894 26.61,4.51 Z"></path>
                    <path d="M29.392,10.246 C29.281,10.248 29.167,10.255 29.052,10.272 C28.937,10.289 28.832,10.292 28.738,10.282 C28.64,10.272 28.562,10.246 28.5,10.205 C28.439,10.165 28.404,10.087 28.397,9.975 C28.4,9.946 28.404,9.913 28.404,9.876 C28.403,9.841 28.412,9.806 28.433,9.773 C28.496,9.569 28.628,9.355 28.822,9.131 C29.016,8.907 29.202,8.729 29.381,8.596 C29.639,8.412 29.926,8.278 30.249,8.192 C30.586,8.102 30.902,8.071 31.197,8.102 C31.492,8.13 31.673,8.193 31.738,8.29 C31.826,8.424 31.828,8.67 31.75,9.026 C31.67,9.383 31.558,9.767 31.412,10.177 C31.322,10.445 31.235,10.694 31.151,10.923 C31.068,11.152 30.996,11.353 30.937,11.527 L30.791,11.974 C30.653,12.355 30.537,12.68 30.446,12.948 C30.356,13.216 30.25,13.523 30.132,13.87 C29.896,14.548 29.722,15.177 29.611,15.751 C29.498,16.327 29.519,16.842 29.672,17.302 C30.047,17.386 30.514,17.352 31.07,17.199 C31.29,17.139 31.503,17.058 31.709,16.96 C31.916,16.861 32.102,16.738 32.268,16.592 C32.416,16.466 32.58,16.274 32.758,16.018 C32.938,15.764 33.115,15.487 33.287,15.189 C33.459,14.891 33.619,14.591 33.766,14.287 C33.912,13.985 34.034,13.72 34.131,13.492 C34.185,13.35 34.235,13.211 34.279,13.079 C34.326,12.945 34.375,12.804 34.429,12.664 C34.558,12.257 34.677,11.861 34.783,11.476 C34.887,11.092 34.99,10.704 35.091,10.313 C35.19,9.923 35.299,9.517 35.418,9.092 C35.539,8.669 35.678,8.214 35.837,7.73 C35.904,7.512 35.98,7.293 36.062,7.071 C36.145,6.85 36.227,6.622 36.313,6.386 C36.405,6.119 36.489,5.852 36.566,5.581 C36.643,5.312 36.706,5.05 36.753,4.796 C36.78,4.575 36.84,4.324 36.933,4.044 C37.028,3.763 37.12,3.489 37.21,3.224 L37.528,2.286 C37.551,2.237 37.567,2.194 37.575,2.157 C37.581,2.12 37.6,2.083 37.637,2.045 C37.768,1.782 37.969,1.552 38.244,1.353 C38.517,1.153 38.787,1.019 39.051,0.949 C39.229,0.903 39.386,0.893 39.528,0.92 C39.671,0.947 39.763,1.026 39.809,1.155 C39.483,2.619 39.04,4.209 38.479,5.927 C37.918,7.648 37.338,9.386 36.737,11.141 L36.419,12.083 C36.108,13.007 35.742,13.947 35.315,14.904 C34.888,15.862 34.369,16.716 33.758,17.469 C33.511,17.679 33.213,17.879 32.865,18.068 C32.517,18.257 32.159,18.43 31.788,18.589 C31.417,18.748 31.043,18.891 30.666,19.016 C30.287,19.141 29.943,19.247 29.637,19.332 C29.371,19.405 29.123,19.454 28.889,19.484 C28.655,19.512 28.44,19.518 28.246,19.499 C27.975,19.472 27.771,19.343 27.641,19.105 C27.51,18.868 27.426,18.576 27.393,18.228 C27.36,17.878 27.369,17.489 27.418,17.06 C27.469,16.629 27.546,16.205 27.648,15.791 C27.704,15.646 27.746,15.506 27.779,15.368 C27.81,15.232 27.855,15.082 27.912,14.923 C28.088,14.417 28.269,13.938 28.457,13.486 C28.645,13.035 28.818,12.557 28.98,12.055 C29.095,11.723 29.193,11.403 29.269,11.097 C29.345,10.787 29.388,10.505 29.392,10.246 Z"></path>
                </g>
                <g transform="translate(9.000000, 11.000000)" id="Shape">
                    <path d="M3.876,19.239 C3.735,19.323 3.515,19.468 3.212,19.677 C2.911,19.884 2.644,20.021 2.408,20.087 C2.217,20.141 2.084,20.106 2.01,19.98 C1.944,19.884 1.939,19.754 1.995,19.591 C2.058,19.401 2.193,19.189 2.402,18.953 C2.611,18.723 2.846,18.5 3.107,18.288 C3.368,18.078 3.639,17.886 3.92,17.713 C4.201,17.539 4.453,17.415 4.676,17.339 L4.918,17.272 C5.49,17.113 5.846,17.187 5.985,17.496 C6.124,17.805 6.122,18.276 5.982,18.91 L5.834,19.146 C5.6,19.517 5.353,19.924 5.092,20.367 C4.831,20.81 4.576,21.264 4.326,21.727 C4.074,22.189 3.839,22.656 3.615,23.123 C3.39,23.596 3.205,24.049 3.058,24.481 C2.896,24.992 2.798,25.459 2.764,25.884 C2.73,26.306 2.79,26.664 2.947,26.952 C3.247,27.071 3.533,27.09 3.812,27.01 C4.076,26.935 4.322,26.788 4.548,26.571 C4.777,26.353 4.986,26.087 5.184,25.769 C5.38,25.452 5.562,25.102 5.728,24.721 C5.892,24.342 6.048,23.943 6.193,23.523 C6.414,22.836 6.599,22.155 6.75,21.476 C6.882,20.902 7.031,20.337 7.201,19.784 C7.371,19.229 7.495,18.774 7.574,18.419 C7.61,18.222 7.617,18.06 7.598,17.934 C7.578,17.81 7.598,17.661 7.658,17.484 C7.666,17.439 7.69,17.382 7.73,17.313 C7.876,17.039 8.084,16.802 8.351,16.596 C8.618,16.392 8.882,16.253 9.146,16.179 C9.322,16.13 9.482,16.115 9.625,16.132 C9.77,16.15 9.877,16.228 9.949,16.365 C9.732,17.177 9.536,18.014 9.361,18.872 C9.184,19.73 8.974,20.601 8.732,21.477 L8.414,22.544 C8.168,23.294 7.871,24.015 7.523,24.708 C7.177,25.4 6.773,26.033 6.316,26.606 C5.858,27.179 5.343,27.679 4.775,28.103 C4.203,28.531 3.58,28.842 2.906,29.037 C2.335,29.201 1.874,29.212 1.524,29.073 C1.173,28.935 0.921,28.686 0.771,28.33 C0.619,27.975 0.564,27.52 0.607,26.968 C0.65,26.418 0.781,25.813 0.996,25.156 C1.135,24.692 1.345,24.175 1.629,23.598 C1.785,23.279 1.965,22.952 2.172,22.618 C2.378,22.282 2.582,21.956 2.786,21.637 C2.99,21.319 3.178,21.008 3.35,20.704 C3.523,20.401 3.656,20.107 3.749,19.817 C3.78,19.721 3.808,19.625 3.834,19.523 C3.86,19.422 3.874,19.327 3.876,19.239 Z"></path>
                    <path d="M13.784,16.633 C13.606,16.696 13.419,16.822 13.227,17.004 C13.034,17.189 12.834,17.383 12.63,17.584 C12.427,17.785 12.223,17.972 12.017,18.145 C11.813,18.32 11.614,18.432 11.423,18.486 C11.174,18.555 10.967,18.543 10.805,18.444 C10.817,18.383 10.823,18.326 10.825,18.277 C10.827,18.225 10.842,18.167 10.867,18.102 C10.981,17.782 11.176,17.448 11.456,17.102 C11.733,16.757 12.051,16.428 12.407,16.112 C12.762,15.796 13.136,15.51 13.522,15.258 C13.908,15.006 14.266,14.82 14.594,14.699 C14.623,14.691 14.74,14.659 14.946,14.601 C15.152,14.543 15.376,14.479 15.62,14.401 C15.863,14.328 16.083,14.262 16.281,14.208 C16.479,14.152 16.593,14.121 16.622,14.112 C17.121,13.973 17.483,13.99 17.71,14.164 C17.935,14.339 18.069,14.604 18.117,14.964 C18.162,15.326 18.137,15.752 18.04,16.247 C17.943,16.739 17.82,17.244 17.67,17.761 C17.623,17.947 17.568,18.13 17.509,18.311 C17.447,18.495 17.386,18.673 17.327,18.848 C17.143,19.404 16.95,19.946 16.75,20.478 C16.548,21.009 16.366,21.536 16.201,22.056 C16.134,22.276 16.067,22.489 16.003,22.695 C15.939,22.901 15.872,23.105 15.808,23.312 C15.763,23.484 15.746,23.635 15.756,23.769 C15.767,23.902 15.747,24.034 15.694,24.164 C15.626,24.312 15.523,24.472 15.389,24.641 C15.254,24.808 15.104,24.968 14.938,25.116 C14.772,25.264 14.596,25.398 14.405,25.516 C14.218,25.635 14.051,25.716 13.903,25.759 C13.712,25.814 13.575,25.809 13.488,25.75 C13.387,25.69 13.349,25.576 13.375,25.402 C13.399,25.23 13.444,25.033 13.514,24.811 L13.782,24.023 C14.039,23.212 14.295,22.396 14.549,21.568 C14.805,20.74 15.111,19.795 15.473,18.727 C15.685,18.092 15.823,17.582 15.886,17.197 C15.949,16.813 15.955,16.524 15.907,16.329 C15.858,16.135 15.765,16.02 15.625,15.989 C15.484,15.956 15.326,15.964 15.15,16.013 C14.916,16.078 14.671,16.18 14.416,16.317 C14.163,16.452 13.952,16.557 13.784,16.633 Z"></path>
                    <path d="M23.177,14.233 C23.073,14.335 22.973,14.471 22.87,14.652 C22.767,14.832 22.671,15.015 22.581,15.204 C22.49,15.395 22.417,15.564 22.362,15.717 C22.306,15.868 22.267,15.969 22.243,16.018 C22.123,16.381 22.085,16.661 22.134,16.855 C22.183,17.048 22.326,17.175 22.564,17.236 C22.671,17.264 22.785,17.254 22.906,17.204 C23.025,17.157 23.144,17.144 23.267,17.166 C23.261,17.196 23.244,17.27 23.216,17.385 C23.188,17.5 23.157,17.626 23.126,17.764 C23.094,17.901 23.06,18.031 23.025,18.147 C22.99,18.263 22.968,18.338 22.963,18.369 C22.958,18.398 22.935,18.447 22.894,18.516 C22.679,18.636 22.474,18.764 22.283,18.905 C22.09,19.046 21.921,19.208 21.776,19.392 C21.562,19.653 21.38,19.869 21.23,20.041 C21.081,20.211 20.927,20.506 20.767,20.924 C20.679,21.25 20.663,21.491 20.718,21.648 C20.775,21.803 20.884,21.902 21.051,21.94 C21.218,21.977 21.432,21.965 21.693,21.904 C21.955,21.844 22.246,21.768 22.568,21.676 C23.184,21.499 23.763,21.236 24.308,20.886 C24.85,20.538 25.194,20.158 25.339,19.746 C25.821,18.324 26.229,17.14 26.562,16.191 C26.897,15.241 27.175,14.457 27.4,13.839 C27.516,13.435 27.613,13.081 27.69,12.773 C27.767,12.467 27.854,12.161 27.953,11.846 C27.979,11.783 28.015,11.7 28.062,11.604 C28.208,11.333 28.414,11.098 28.681,10.896 C28.947,10.693 29.212,10.557 29.476,10.483 C29.652,10.434 29.814,10.421 29.964,10.441 C30.112,10.464 30.209,10.539 30.256,10.67 L30.048,11.239 C29.886,11.739 29.745,12.125 29.626,12.391 C29.508,12.659 29.419,12.878 29.359,13.052 C29.137,13.655 28.926,14.24 28.724,14.809 C28.522,15.378 28.318,15.956 28.114,16.539 L27.285,19.018 C27.223,19.206 27.103,19.497 26.928,19.888 C26.753,20.279 26.474,20.7 26.094,21.143 C25.713,21.588 25.195,22.03 24.538,22.468 C23.883,22.906 23.04,23.274 22.014,23.57 L21.882,23.608 C21.062,23.845 20.415,23.938 19.944,23.888 C19.473,23.836 19.128,23.7 18.903,23.478 C18.68,23.253 18.567,22.964 18.563,22.607 C18.557,22.25 18.616,21.89 18.739,21.523 C18.968,20.871 19.224,20.341 19.506,19.939 C19.788,19.536 20.12,19.125 20.504,18.699 C20.314,18.524 20.167,18.28 20.065,17.964 C19.961,17.65 20.015,17.192 20.221,16.588 C20.284,16.399 20.372,16.181 20.486,15.934 C20.601,15.688 20.717,15.432 20.836,15.169 C20.981,14.757 21.13,14.393 21.285,14.077 C21.439,13.763 21.621,13.497 21.826,13.281 C21.98,13.124 22.244,12.939 22.617,12.728 C22.989,12.517 23.345,12.365 23.681,12.271 C23.99,12.185 24.235,12.171 24.418,12.236 C24.532,12.288 24.622,12.392 24.684,12.548 C24.747,12.699 24.744,12.881 24.679,13.084 C24.634,13.182 24.591,13.257 24.554,13.311 C24.46,13.452 24.364,13.564 24.263,13.652 C24.163,13.735 24.057,13.812 23.939,13.881 C23.824,13.949 23.701,14.009 23.574,14.058 C23.446,14.108 23.313,14.167 23.177,14.233 Z"></path>
                    <path d="M35.159,4.438 C34.345,4.932 33.518,5.295 32.683,5.526 C32.14,5.676 31.647,5.744 31.205,5.729 C30.761,5.717 30.447,5.573 30.261,5.299 C30.198,5.188 30.157,5.057 30.135,4.906 C30.114,4.757 30.086,4.586 30.05,4.398 C30.024,4.248 29.985,4.092 29.938,3.927 C29.893,3.763 29.899,3.593 29.958,3.42 C29.997,3.295 30.088,3.157 30.234,3.004 C30.38,2.85 30.543,2.708 30.72,2.574 C30.898,2.438 31.08,2.319 31.267,2.211 C31.455,2.103 31.615,2.031 31.745,1.996 C31.775,1.988 31.8,1.985 31.821,1.987 C31.842,1.987 31.867,1.984 31.895,1.976 C32.063,1.974 32.174,2.034 32.227,2.164 C32.28,2.291 32.31,2.445 32.318,2.626 C32.328,2.809 32.344,2.985 32.368,3.156 C32.391,3.325 32.466,3.45 32.591,3.531 C32.732,3.606 32.913,3.65 33.142,3.667 C33.369,3.682 33.605,3.657 33.855,3.588 C34.016,3.544 34.19,3.473 34.375,3.381 C34.619,3.257 34.865,3.073 35.113,2.828 C35.361,2.583 35.617,2.328 35.881,2.066 C36.145,1.804 36.412,1.561 36.684,1.338 C36.955,1.115 37.23,0.965 37.507,0.89 C37.626,0.857 37.713,0.852 37.772,0.872 C37.832,0.892 37.918,0.928 38.035,0.979 C38.041,1.177 38.018,1.392 37.969,1.623 C37.919,1.855 37.858,2.094 37.782,2.34 C37.667,2.671 37.539,3.005 37.399,3.346 C37.258,3.689 37.122,4.034 36.989,4.381 C36.87,4.724 36.733,5.123 36.58,5.574 C36.427,6.027 36.259,6.519 36.077,7.05 C35.895,7.581 35.704,8.133 35.501,8.706 C35.298,9.279 35.103,9.846 34.915,10.407 C34.618,11.269 34.343,12.084 34.091,12.848 C33.837,13.612 33.636,14.257 33.484,14.782 C33.451,14.891 33.422,14.992 33.399,15.084 C33.375,15.176 33.347,15.269 33.314,15.361 C33.168,15.785 33.016,16.198 32.859,16.596 C32.702,16.995 32.552,17.401 32.406,17.811 C32.321,18.048 32.242,18.287 32.172,18.526 C32.099,18.768 32.056,19.004 32.043,19.234 C32.035,19.264 32.034,19.293 32.037,19.32 C32.037,19.348 32.027,19.38 32.01,19.413 C31.883,19.79 31.648,20.148 31.301,20.49 C30.954,20.832 30.604,21.054 30.25,21.156 C29.973,21.236 29.764,21.204 29.623,21.058 C29.569,20.975 29.559,20.842 29.592,20.662 C29.623,20.482 29.674,20.282 29.743,20.063 C29.855,19.747 29.982,19.423 30.119,19.092 C30.256,18.762 30.364,18.494 30.445,18.285 C30.58,17.92 30.726,17.522 30.881,17.096 C31.036,16.668 31.193,16.213 31.352,15.728 C31.571,15.069 31.801,14.376 32.047,13.647 C32.292,12.918 32.535,12.182 32.776,11.442 C33.016,10.703 33.255,9.965 33.496,9.233 C33.735,8.5 33.973,7.796 34.207,7.123 C34.384,6.622 34.549,6.144 34.702,5.69 C34.853,5.239 35.007,4.821 35.159,4.438 Z"></path>
                    <path d="M37.942,10.044 C37.83,10.047 37.716,10.059 37.602,10.076 C37.487,10.097 37.382,10.1 37.286,10.091 C37.19,10.084 37.112,10.059 37.05,10.02 C36.988,9.981 36.952,9.906 36.945,9.794 C36.951,9.766 36.953,9.733 36.954,9.697 C36.953,9.663 36.963,9.627 36.983,9.593 C37.048,9.392 37.177,9.179 37.372,8.956 C37.567,8.733 37.752,8.553 37.931,8.418 C38.188,8.233 38.477,8.096 38.799,8.006 C39.137,7.912 39.451,7.878 39.746,7.901 C40.042,7.923 40.222,7.982 40.289,8.076 C40.375,8.205 40.378,8.451 40.301,8.802 C40.22,9.155 40.108,9.535 39.963,9.942 C39.872,10.208 39.786,10.453 39.701,10.682 C39.617,10.91 39.545,11.111 39.486,11.281 L39.341,11.724 C39.202,12.101 39.087,12.422 38.995,12.687 C38.905,12.955 38.8,13.259 38.681,13.603 C38.447,14.276 38.271,14.897 38.16,15.464 C38.049,16.032 38.069,16.541 38.222,16.991 C38.597,17.068 39.062,17.024 39.618,16.865 C39.839,16.802 40.051,16.719 40.258,16.619 C40.464,16.517 40.65,16.394 40.818,16.247 C40.966,16.12 41.129,15.93 41.308,15.674 C41.488,15.42 41.663,15.143 41.836,14.848 C42.009,14.553 42.168,14.255 42.315,13.952 C42.461,13.65 42.583,13.388 42.679,13.161 C42.733,13.02 42.783,12.885 42.828,12.75 C42.874,12.619 42.924,12.481 42.976,12.341 C43.107,11.938 43.225,11.546 43.33,11.165 C43.436,10.785 43.539,10.4 43.639,10.013 C43.739,9.627 43.846,9.225 43.967,8.804 C44.087,8.385 44.225,7.935 44.385,7.456 C44.453,7.239 44.528,7.024 44.61,6.803 C44.694,6.583 44.777,6.356 44.862,6.123 C44.954,5.858 45.038,5.594 45.114,5.326 C45.192,5.059 45.254,4.801 45.302,4.549 C45.329,4.33 45.388,4.083 45.482,3.804 C45.576,3.525 45.668,3.256 45.757,2.992 L46.076,2.063 C46.099,2.014 46.115,1.97 46.122,1.933 C46.129,1.897 46.148,1.86 46.184,1.822 C46.316,1.562 46.518,1.331 46.792,1.128 C47.065,0.928 47.334,0.791 47.599,0.718 C47.776,0.669 47.935,0.657 48.076,0.682 C48.218,0.706 48.311,0.781 48.356,0.909 C48.032,2.355 47.589,3.93 47.028,5.632 C46.467,7.338 45.885,9.06 45.284,10.8 L44.967,11.733 C44.657,12.649 44.288,13.582 43.864,14.532 C43.436,15.483 42.918,16.334 42.306,17.086 C42.058,17.298 41.76,17.5 41.412,17.691 C41.065,17.883 40.707,18.059 40.336,18.223 C39.965,18.386 39.592,18.533 39.213,18.662 C38.835,18.792 38.492,18.902 38.185,18.991 C37.92,19.067 37.671,19.12 37.436,19.154 C37.201,19.186 36.989,19.194 36.795,19.178 C36.522,19.157 36.318,19.033 36.188,18.802 C36.057,18.573 35.974,18.283 35.941,17.941 C35.908,17.599 35.916,17.214 35.967,16.789 C36.016,16.365 36.093,15.947 36.197,15.535 C36.25,15.394 36.294,15.254 36.327,15.116 C36.359,14.981 36.403,14.835 36.459,14.678 C36.636,14.174 36.816,13.699 37.004,13.249 C37.192,12.803 37.364,12.329 37.527,11.832 C37.642,11.502 37.74,11.187 37.816,10.882 C37.896,10.579 37.937,10.299 37.942,10.044 Z"></path>
                </g>
            </g>
            <rect id="Rectangle-path" x="0" y="0" width="84.233" height="26.688"></rect>
            <text id="เคยได้ยินมั๊ย?" fill="#231F20" font-family="Thonburi" font-size="18" font-weight="normal">
                <tspan x="5" y="69">เคยได้ยินมั๊ย</tspan>
                <tspan x="100.297852" y="74.0185547" font-family="Helvetica">?</tspan>
            </text>
        </g>
    </g>
</svg>