<?xml version="1.0" encoding="utf-8"?>
<!-- Generator: Adobe Illustrator 16.0.0, SVG Export Plug-In . SVG Version: 6.00 Build 0)  -->
<!DOCTYPE svg PUBLIC "-//W3C//DTD SVG 1.1//EN" "http://www.w3.org/Graphics/SVG/1.1/DTD/svg11.dtd">
<svg version="1.1" id="Layer_1" xmlns="http://www.w3.org/2000/svg" xmlns:xlink="http://www.w3.org/1999/xlink" x="0px" y="0px"
	 width="253.174px" height="128.345px" viewBox="0 0 253.174 128.345" enable-background="new 0 0 253.174 128.345"
	 xml:space="preserve">
<g id="Merchant">
	<path fill="none" stroke="#000000" stroke-linecap="round" stroke-linejoin="round" stroke-miterlimit="10" d="M185.448,63.512
		c0.91,7.512-0.736,15.92,7.023,19.961c7.189,3.743,15.275,2.145,19.529-4.867c2.281-3.76,3.017-7.865,2.918-12.161"/>
	<path fill="none" stroke="#000000" stroke-linecap="round" stroke-linejoin="round" stroke-miterlimit="10" d="M186.063,63.512
		c-2.279,0-13.461,0-6.23-2.896c6.398-2.562,28.996-5.545,32.091-3.004c5.266,4.323,2.995,8.833,2.995,8.833
		c-2.671,0.527-7.871,0.48-10.584,0.388c-4.062-0.136-11.741,0.006-12.097-0.975c-0.356-0.979,5.785-2.504,7.637-2.839
		C199.875,63.019,189.661,63.512,186.063,63.512z"/>
	<path fill="none" stroke="#000000" stroke-linecap="round" stroke-linejoin="round" stroke-miterlimit="10" d="M183.414,69.18
		c0.078,3.154,1.303,6.547,4.854,7.098c3.201,0.494,5.599-1.977,6.065-4.951c0.114-0.728,0.104-1.476,0.172-2.209
		C191.254,69.12,186.926,69.118,183.414,69.18z"/>
	<path fill="none" stroke="#000000" stroke-linecap="round" stroke-linejoin="round" stroke-miterlimit="10" d="M197.645,69.18
		c0.079,3.154,2.347,6.785,5.915,7.214c4.56,0.55,7.023-2.286,7.577-4.257c0.346-1.222,0.427-2.286,0.494-3.02
		C208.383,69.12,201.158,69.118,197.645,69.18z"/>
	<path fill="none" stroke="#000000" stroke-linecap="round" stroke-linejoin="round" stroke-miterlimit="10" d="M194.565,70.29
		c1.229-0.848,1.991-0.371,3.08,0.308"/>
	<path fill="none" stroke="#000000" stroke-linecap="round" stroke-linejoin="round" stroke-miterlimit="10" d="M195.016,81.131
		c0.542,1.299,2.188,1.402,2.691,0"/>
	<path fill="none" stroke="#000000" stroke-linecap="round" stroke-linejoin="round" stroke-miterlimit="10" d="M187.357,67.394
		c0.699-0.026,1.4,0.014,2.095,0.062"/>
	<path fill="none" stroke="#000000" stroke-linecap="round" stroke-linejoin="round" stroke-miterlimit="10" d="M200.725,67.702
		c0.689,0.106,1.396,0.06,2.097,0.062"/>
	<path fill="none" stroke="#000000" stroke-linecap="round" stroke-linejoin="round" stroke-miterlimit="10" d="M187.666,69.303
		c-0.03,0.762-0.217,1.484,0.285,1.971c0.368-0.43,0.269-1.186,0.27-1.908"/>
	<path fill="none" stroke="#000000" stroke-linecap="round" stroke-linejoin="round" stroke-miterlimit="10" d="M202.082,69.549
		c0.042,0.543,0,1.51,0.432,1.725c0.309-0.369,0.13-1.287,0.123-1.848"/>
	<path fill="none" stroke="#000000" stroke-linecap="round" stroke-linejoin="round" stroke-miterlimit="10" d="M199.618,85.506
		c0.001,0.809-0.155,1.974,0.186,2.588"/>
	<path fill="none" stroke="#000000" stroke-linecap="round" stroke-linejoin="round" stroke-miterlimit="10" d="M201.343,85.506
		c0.02,0.847-0.067,1.91,0.062,2.711"/>
	<path fill="none" stroke="#000000" stroke-linecap="round" stroke-linejoin="round" stroke-miterlimit="10" d="M206.025,84.089
		c0,1.407-0.151,2.95,0.124,4.312"/>
	<path fill="none" stroke="#000000" stroke-linecap="round" stroke-linejoin="round" stroke-miterlimit="10" d="M208.244,82.918
		c-0.022,0.922-0.519,5.065-0.062,5.237"/>
	<path fill="none" stroke="#000000" stroke-linecap="round" stroke-linejoin="round" stroke-miterlimit="10" d="M205.97,88.277
		c0.812,0.125,1.593,0.05,2.392,0.145c-0.086,1.782-2.443,1.577-2.269-0.132"/>
	<path fill="none" stroke="#000000" stroke-linecap="round" stroke-linejoin="round" stroke-miterlimit="10" d="M199.377,88.284
		c0.819,0.056,1.59-0.086,2.395-0.061c0.066,1.783-2.299,1.78-2.271,0.063"/>
	<path fill="none" stroke="#000000" stroke-linecap="round" stroke-linejoin="round" stroke-miterlimit="10" d="M201.958,88.28
		c1.14,0.16,2.597,0.084,3.758,0.122"/>
	<path fill="none" stroke="#000000" stroke-linecap="round" stroke-linejoin="round" stroke-miterlimit="10" d="M199.309,88.28
		c0.333,7.795,0.39,15.621,1.014,23.402c0.082,1.053-0.002,1.064,0.17,2.107"/>
	<path fill="none" stroke="#000000" stroke-linecap="round" stroke-linejoin="round" stroke-miterlimit="10" d="M209.721,111.198
		c-2.565,0.92-6.494,0.492-9.304,0.493"/>
	<path fill="none" stroke="#000000" stroke-linecap="round" stroke-linejoin="round" stroke-miterlimit="10" d="M208.612,88.156
		c0.026,0.395,0.193,0.88,0.256,1.284c1.435,0.033,2.877,0.069,4.304,0.071"/>
	<path fill="none" stroke="#000000" stroke-linecap="round" stroke-linejoin="round" stroke-miterlimit="10" d="M209.721,81.995
		c3.45,0.432,2.66,5.531,3.697,7.395"/>
	<path fill="none" stroke="#000000" stroke-linecap="round" stroke-linejoin="round" stroke-miterlimit="10" d="M197.708,85.446
		c-0.229,1.109-0.537,2.48-0.307,3.572"/>
	<path fill="none" stroke="#000000" stroke-linecap="round" stroke-linejoin="round" stroke-miterlimit="10" d="M199.372,89.018
		c-0.692-0.024-1.346,0.053-2.033,0.062"/>
	<path fill="none" stroke="#000000" stroke-linecap="round" stroke-linejoin="round" stroke-miterlimit="10" d="M209.23,89.573
		c0.466,5.253,0.162,10.707,0.239,15.988c0.01,0.709-0.048,1.426,0.068,2.125"/>
	<path fill="none" stroke="#000000" stroke-linecap="round" stroke-linejoin="round" stroke-miterlimit="10" d="M211.448,89.634
		c0.158,3.718,0.045,6.815,0.184,10.535c0.102,2.72,0.025,5.451,0.555,7.517c0,0,0.899,1.93,0.273,2.866
		c-0.828,1.237-1.845,1.878-3.076,0.247c-0.928-1.229-0.565-1.884,0.093-3.052"/>
	<path fill="none" stroke="#000000" stroke-linecap="round" stroke-linejoin="round" stroke-miterlimit="10" d="M197.922,89.172
		c0.425,6.046-0.78,13.243,1.018,19.13"/>
	<path fill="none" stroke="#000000" stroke-linecap="round" stroke-linejoin="round" stroke-miterlimit="10" d="M200.049,112.09
		c-2.051-0.16-2.736-2.771-1.109-3.881"/>
	<path fill="none" stroke="#000000" stroke-linecap="round" stroke-linejoin="round" stroke-miterlimit="10" d="M200.788,94.07
		c1.447-0.147,4.035,0.339,5.269,0"/>
	<path fill="none" stroke="#000000" stroke-linecap="round" stroke-linejoin="round" stroke-miterlimit="10" d="M206.056,94.07
		c0.231,1.222,0.321,2.956-0.086,4.56c-0.9,0.709-3.396,0.678-4.638,0.107c-0.404-0.332-0.536-3.473-0.545-4.667"/>
	<path fill="none" stroke="#000000" stroke-linecap="round" stroke-linejoin="round" stroke-miterlimit="10" d="M212.432,89.634
		c0.723,7.073,0.357,14.495,0.451,21.622c0.015,1.162,0.017,0.758,0.014,2.129"/>
	<path fill="none" stroke="#000000" stroke-linecap="round" stroke-linejoin="round" stroke-miterlimit="10" d="M205.594,111.813
		c0.082,1.021,0.082,1.021,0.138,1.572"/>
	<path fill="none" stroke="#000000" stroke-linecap="round" stroke-linejoin="round" stroke-miterlimit="10" d="M211.786,99.893
		c0.368,0.053,0.717,0.053,1.109,0"/>
	<path fill="none" stroke="#000000" stroke-linecap="round" stroke-linejoin="round" stroke-miterlimit="10" d="M211.995,101.989
		c0.353,0.012,0.461,0,0.877-0.138"/>
</g>
<g id="Post">
	<path fill="none" stroke="#000000" stroke-linecap="round" stroke-linejoin="round" stroke-miterlimit="10" d="M166.41,36.219
		c1.815,23.197,1.898,46.702,2.214,69.967c0.039,3.035,0.143,0.945,0.143,5.012"/>
	<path fill="none" stroke="#000000" stroke-linecap="round" stroke-linejoin="round" stroke-miterlimit="10" d="M230.175,25.683
		c-8.132,1.109-13.564,2.8-19.605,3.763c-7.026,1.121-14.021,2.476-21.022,3.744c-8.569,1.553-14.024,2.354-23.138,3.029"/>
	<path fill="none" stroke="#000000" stroke-linecap="round" stroke-linejoin="round" stroke-miterlimit="10" d="M232.024,113.385
		c-0.479-13.107-0.216-26.656-0.951-38.91c-0.768-12.793-0.688-19.538-0.897-32.342c-0.072-4.444-0.073-12.004,0-16.45"/>
	<path fill="none" stroke="#000000" stroke-linecap="round" stroke-linejoin="round" stroke-miterlimit="10" d="M171.647,50.943
		c0,9.858,0.51,23.345,0.863,32.407c0.328,8.488,0.395,12.893,0.633,21.387c0.086,3.054,0.215,4.305,0.219,7.354"/>
	<path fill="none" stroke="#000000" stroke-linecap="round" stroke-linejoin="round" stroke-miterlimit="10" d="M224.014,42.333
		c-5.349,1.438-11.504,2.339-17.189,3.3c-4.867,0.823-11.127,1.773-16.018,2.451c-6.631,0.92-12.525,2.179-19.16,2.86"/>
	<path fill="none" stroke="#000000" stroke-linecap="round" stroke-linejoin="round" stroke-miterlimit="10" d="M224.014,42.333
		c0.79,21.508,2.038,50.383,2.712,56.297c0.322,2.828,0.609,10.891,0.673,13.461"/>
	<path fill="none" stroke="#000000" stroke-linecap="round" stroke-linejoin="round" stroke-miterlimit="10" d="M188.897,36.157
		c-2.814-0.766-7.611,1.185-4.006,3.786c1.358,0.98,8.182,2.849,4.146,5.934c-1.586,1.213-4.213-0.12-5.068-1.587"/>
	<path fill="none" stroke="#000000" stroke-linecap="round" stroke-linejoin="round" stroke-miterlimit="10" d="M190.869,35.048
		c-0.04,3.539,0.464,7.869,1.109,11.213"/>
	<path fill="none" stroke="#000000" stroke-linecap="round" stroke-linejoin="round" stroke-miterlimit="10" d="M194.442,34.555
		c0.449,3.383,0.325,8.243,1.232,11.09"/>
	<path fill="none" stroke="#000000" stroke-linecap="round" stroke-linejoin="round" stroke-miterlimit="10" d="M191.485,40.593
		c1.07-0.344,2.217-0.591,3.326-0.739"/>
	<path fill="none" stroke="#000000" stroke-linecap="round" stroke-linejoin="round" stroke-miterlimit="10" d="M200.48,34.433
		c-5.485-0.833-5.355,9.718-1.553,9.92c3.675,0.196,4.318-8.482,1.553-10.044"/>
	<path fill="none" stroke="#000000" stroke-linecap="round" stroke-linejoin="round" stroke-miterlimit="10" d="M203.807,33.446
		c0.471,2.663,0.312,5.5,0.484,8.206c0.047,0.75,0.012,3.838,0.255,2.761"/>
	<path fill="none" stroke="#000000" stroke-linecap="round" stroke-linejoin="round" stroke-miterlimit="10" d="M204.546,39.042
		c7.023-2.824,4.142-7.975-0.863-5.843"/>
</g>
<g id="Hanger">
	<polygon fill="#D72D27" points="124.87,89.172 129.121,88.822 134.071,109.203 119.866,109.174 	"/>
	<path fill="#D72D27" d="M122.963,77.575c-0.092,0.287-2.576,6.25-2.576,6.25l3.326,1.004V86l6.244,0.345l1.058-1.962h2.218
		l-2.002-7.485l-4.294,2.324L122.963,77.575z"/>
	<path fill="none" stroke="#000000" stroke-linecap="round" stroke-linejoin="round" stroke-miterlimit="10" d="M117.789,113.155
		c0-12.877,0-28.219-0.432-44.113"/>
	<path fill="none" stroke="#000000" stroke-linecap="round" stroke-linejoin="round" stroke-miterlimit="10" d="M161.223,68.549
		c-8.965,0.678-18.24,0.104-28.833,0.225c-4.594,0.052-10.438,0.316-15.033,0.268"/>
	<path fill="none" stroke="#000000" stroke-linecap="round" stroke-linejoin="round" stroke-miterlimit="10" d="M162.702,112.292
		c0.047,0.114,0.178,0.871,0.12,0.358c0.274-9.749-0.46-18.542-0.767-28.268c-0.156-4.965-0.884-10.899-0.832-15.833"/>
	<path fill="none" stroke="#000000" stroke-linecap="round" stroke-linejoin="round" stroke-miterlimit="10" d="M119.206,70.766
		c0,4.282,0.123,7.785,0.123,10.844c0.001,4.335,0.066,6.664,0.026,10.998c-0.053,5.637-0.148,14.186-0.149,20.547"/>
	<path fill="none" stroke="#000000" stroke-linecap="round" stroke-linejoin="round" stroke-miterlimit="10" d="M159.645,70.603
		c-8.964,0.156-26.978-0.452-40.316-0.083"/>
	<path fill="none" stroke="#000000" stroke-linecap="round" stroke-linejoin="round" stroke-miterlimit="10" d="M161.469,112.785
		c-0.345-13.529-0.923-24.706-1.848-42.634"/>
	<path fill="none" stroke="#000000" stroke-linecap="round" stroke-linejoin="round" stroke-miterlimit="10" d="M149.456,106.932
		c2.342,0.598,7.146,0.386,7.146,0.386c-0.555-5.562,0.041-10.278-0.123-13.017c-0.233-3.895-2.068-3.969-1.725-7.331
		c0.924-0.533,2.287-1.079,3.021-1.787c0,0-0.479-1.833-0.619-3.142c-0.316-2.949-0.469-3.589-2.911-5.375
		c-0.61,0.553-1.315,1.205-1.983,1.271"/>
	<path fill="none" stroke="#000000" stroke-linecap="round" stroke-linejoin="round" stroke-miterlimit="10" d="M147.223,77.543
		c0.44-0.111,1.387-0.361,1.662-0.877c0,0,1.154-0.03,2.004,0.771c0.756,0.714,1.406,2.396,1.616,4.388l-1.976,1.035
		c0,0-1.146,1.086-1.26,3.041c-0.158,2.733,1.393,2.562,1.028,7.008c-0.204,2.483-0.358,6.006-0.644,8.4
		c-0.172,1.445-0.477,6.824-0.477,6.824c-2.48,0.535-4.365,0.473-6.191,0.092"/>
	<path fill="none" stroke="#000000" stroke-linecap="round" stroke-linejoin="round" stroke-miterlimit="10" d="M137.442,108.49
		c1.529,0.42,4.167,0.56,5.41,0.685c-0.234-0.763,0.119-5.146,0.66-7.531c0.389-1.708,1.107-5.268,1.262-7.773
		c0.146-2.402-0.1-2.961-0.678-5.544c-0.924-4.128,2.045-6.347,2.602-10.289c-1.226-0.839-2.688-1.276-3.525-1.726
		c-1.064,1.43-3.081,1.172-3.697-0.184l-0.863,0.431"/>
	<path fill="none" stroke="#000000" stroke-linecap="round" stroke-linejoin="round" stroke-miterlimit="10" d="M133.45,108.852
		c1.062,0.195,3.191,0.351,3.191,0.351c0.547-2.706,0.387-6.927,0.555-8.103c0.465-3.246,1.402-5.979,1.602-8.932
		c0.17-2.526-0.594-4.95-0.412-7.104c0.027-0.312,1.281-0.211,2.44-0.93c-0.145-2.047,0-3.635-1.535-6.406
		c-0.513-0.928-2.835-1.418-2.835-1.418c-0.459,0.74-2.14,1.627-3.326,0c0,0-1.275,1.086-1.627,1.617"/>
	<path fill="none" stroke="#000000" stroke-linecap="round" stroke-linejoin="round" stroke-miterlimit="10" d="M123.463,83.825
		c-0.955-0.196-1.701-0.386-2.395-0.412c0.463-2.574,0.047-3.189,1.895-5.838l1.387-0.678c0.043,3.58,4.62,2.673,5.473,0.012
		c3.359,1.332,2.65,3.676,3.41,6.95c-1.213,0.475-1.941,0.405-2.693,0.523"/>
	<path fill="none" stroke="#000000" stroke-linecap="round" stroke-linejoin="round" stroke-miterlimit="10" d="M130.54,84.382
		c-0.826,2.095-0.661,2.956-0.658,3.88c0.008,1.832,1.597,5.755,2.323,9.982c0.246,1.43,1.104,9.645,1.028,11.088
		c-3.523,0.984-8.698,1.48-12.288-0.658c-0.569-3.592,1.984-13.123,3.405-20.318c0.354-1.789-0.157-1.296-0.887-4.531"/>
	<path fill="none" stroke="#000000" stroke-linecap="round" stroke-linejoin="round" stroke-miterlimit="10" d="M124.35,86
		c1.344,0.757,3.829,1.054,5.176,0.046"/>
	<path fill="none" stroke="#000000" stroke-linecap="round" stroke-linejoin="round" stroke-miterlimit="10" d="M124.442,88.171
		c1.461,0.915,3.584,0.804,5.084,0.046"/>
	<path fill="none" stroke="#000000" stroke-linecap="round" stroke-linejoin="round" stroke-miterlimit="10" d="M125.305,68.672
		c-0.246-1.473,1.643-2.385,2.354-0.868c0.464,0.987-0.262,2.435-0.398,3.437c-0.239,1.76,0.105,3.575-0.168,5.317"/>
	<path fill="none" stroke="#000000" stroke-linecap="round" stroke-linejoin="round" stroke-miterlimit="10" d="M124.627,77.42
		c2.141-0.844,2.716-0.752,4.682,0"/>
	<path fill="none" stroke="#000000" stroke-linecap="round" stroke-linejoin="round" stroke-miterlimit="10" d="M132.883,68.241
		c0.674-1.103,1.934-0.888,2.479,0.196c0.44,0.877-0.029,1.63-0.217,2.478c-0.359,1.643-0.34,3.4-0.291,5.088"/>
	<path fill="none" stroke="#000000" stroke-linecap="round" stroke-linejoin="round" stroke-miterlimit="10" d="M133.436,76.434
		c0.95-0.288,1.791-0.637,2.773-0.184"/>
	<path fill="none" stroke="#000000" stroke-linecap="round" stroke-linejoin="round" stroke-miterlimit="10" d="M139.538,68.425
		c1.393-2.318,2.336,1.193,2.186,2.329c-0.209,1.578-0.559,3.073-0.523,4.694"/>
	<path fill="none" stroke="#000000" stroke-linecap="round" stroke-linejoin="round" stroke-miterlimit="10" d="M139.783,76.25
		c1.157-0.479,1.818-0.836,2.834,0.122"/>
	<path fill="none" stroke="#000000" stroke-linecap="round" stroke-linejoin="round" stroke-miterlimit="10" d="M145.636,68.364
		c1.978-1.538,2.662,1.362,2.198,2.801c-0.533,1.66-0.707,3.081-0.967,4.838"/>
	<path fill="none" stroke="#000000" stroke-linecap="round" stroke-linejoin="round" stroke-miterlimit="10" d="M145.266,76.681
		c1.118-0.584,2.213-0.88,3.266,0.062"/>
	<path fill="none" stroke="#000000" stroke-linecap="round" stroke-linejoin="round" stroke-miterlimit="10" d="M150.073,68.425
		c0.326-0.852,1.311-0.812,1.816-0.14c0.58,0.771-0.033,2.127-0.208,2.924c-0.349,1.595-0.319,3.162-0.315,4.793"/>
	<path fill="none" stroke="#000000" stroke-linecap="round" stroke-linejoin="round" stroke-miterlimit="10" d="M149.825,76.497
		c1.712-0.699,2.328,0.02,3.697,0.308"/>
</g>
<g id="Girl">
	<path fill="none" stroke="#000000" stroke-linecap="round" stroke-linejoin="round" stroke-miterlimit="10" d="M78.493,52.668
		c-7.763,0.617-12.938,6.654-14.012,12.1c-1.33,6.741,2.891,14.018,9.206,15.625c13.554,3.45,24.028-9.365,18.771-19.867
		C90.586,56.787,86.255,52.052,78.493,52.668z"/>
	<path fill="none" stroke="#000000" stroke-linecap="round" stroke-linejoin="round" stroke-miterlimit="10" d="M64.477,68.841
		c6.676-0.068,15.643-9.099,15.249-16.08"/>
	<path fill="none" stroke="#000000" stroke-linecap="round" stroke-linejoin="round" stroke-miterlimit="10" d="M64.477,64.128
		c3.027,1.262,8.577-2.795,10.716-4.822c1.795-1.7,3.327-3.916,3.886-6.36"/>
	<path fill="none" stroke="#000000" stroke-linecap="round" stroke-linejoin="round" stroke-miterlimit="10" d="M65.678,61.171
		c3.729,0.452,11.474-4.611,12.384-8.41"/>
	<path fill="none" stroke="#000000" stroke-linecap="round" stroke-linejoin="round" stroke-miterlimit="10" d="M79.725,52.946
		c1.104,6.395,6.933,11.628,13.585,10.72"/>
	<path fill="none" stroke="#000000" stroke-linecap="round" stroke-linejoin="round" stroke-miterlimit="10" d="M80.094,53.223
		c3.352,4.633,8.399,7.72,13.4,9.981"/>
	<path fill="none" stroke="#000000" stroke-linecap="round" stroke-linejoin="round" stroke-miterlimit="10" d="M80.692,52.946
		c1.643,2.114,4.986,2.695,7.584,4.482c1.878,1.292,3.937,2.99,4.938,4.944"/>
	<path fill="none" stroke="#000000" stroke-linecap="round" stroke-linejoin="round" stroke-miterlimit="10" d="M68.819,68.009
		c-0.006,6.099,11.329,5.495,9.509-2.477c-0.266-1.166-1.003-2.559-2.484-3.16"/>
	<path fill="none" stroke="#000000" stroke-linecap="round" stroke-linejoin="round" stroke-miterlimit="10" d="M84.9,61.725
		c-3.442,2.446-5.164,7.613-0.437,9.994c3.512,1.77,6.774-1.242,6.79-4.812c0.006-1.268-0.184-2.29-1.033-3.252"/>
	<path fill="none" stroke="#000000" stroke-linecap="round" stroke-linejoin="round" stroke-miterlimit="10" d="M76.213,67.27
		c0.108,0.699,0.174,1.477,0.185,2.218"/>
	<path fill="none" stroke="#000000" stroke-linecap="round" stroke-linejoin="round" stroke-miterlimit="10" d="M88.689,66.993
		c0.089,0.671,0.088,1.353,0,2.033"/>
	<path fill="none" stroke="#000000" stroke-linecap="round" stroke-linejoin="round" stroke-miterlimit="10" d="M75.566,80.762
		c-4.335-5.911,8.95-11.33,10.218-4.181c0.145,0.812,0.23,1.579-0.099,2.333"/>
	<path fill="none" stroke="#000000" stroke-linecap="round" stroke-linejoin="round" stroke-miterlimit="10" d="M77.502,74.305
		c2.768,0.399,4.567,0.322,6.474-0.104"/>
	<path fill="none" stroke="#000000" stroke-linecap="round" stroke-linejoin="round" stroke-miterlimit="10" d="M84.564,79.67"/>
	<path fill="none" stroke="#000000" stroke-linecap="round" stroke-linejoin="round" stroke-miterlimit="10" d="M76.213,80.393"/>
	<path d="M77.572,74.108c-1.713,0.768-4.026,4.428-2.338,6.142c0.733-1.273,3.647-2.774,5.155-2.845
		c1.466-0.066,4.142,0.277,5,1.528c1.39-0.728,0.114-5.239-1.54-4.646C81.25,75.217,77.572,74.108,77.572,74.108z"/>
	<path fill="none" stroke="#000000" stroke-linecap="round" stroke-linejoin="round" stroke-miterlimit="10" d="M64.477,64.128
		c0.247-7.024,6.5-13.554,15.26-13.554c10.585,0,14.158,9.241,14.158,13.554"/>
	<path fill="none" stroke="#000000" stroke-linecap="round" stroke-linejoin="round" stroke-miterlimit="10" d="M93.215,60.324
		c-0.737-7.963-7.509-11.347-15.153-11.009c-8.539,0.376-13.371,7.159-14.317,11.102c-0.911,3.801-0.895,8.392-0.691,12.15
		c0.237,4.401-1.696,5.97-3.659,7.941"/>
	<path fill="none" stroke="#000000" stroke-linecap="round" stroke-linejoin="round" stroke-miterlimit="10" d="M65.154,72.274
		c0.002,4.906-2.457,6.75-3.727,8.304"/>
	<path fill="none" stroke="#000000" stroke-linecap="round" stroke-linejoin="round" stroke-miterlimit="10" d="M66.356,74.91
		c0.044,1.378-0.194,2.509-0.901,3.701c-0.388,0.655-0.979,1.319-1.502,2.151"/>
	<path fill="none" stroke="#000000" stroke-linecap="round" stroke-linejoin="round" stroke-miterlimit="10" d="M69.775,78.729
		c-0.279,1.201-0.539,1.779-1.078,2.402"/>
	<path fill="none" stroke="#000000" stroke-linecap="round" stroke-linejoin="round" stroke-miterlimit="10" d="M71.537,79.592
		c0.004,0.626-0.772,1.635-0.684,1.602"/>
	<path fill="none" stroke="#000000" stroke-linecap="round" stroke-linejoin="round" stroke-miterlimit="10" d="M87.118,78.36
		c0.034,0.695,0.92,1.89,1.456,2.148"/>
	<path fill="none" stroke="#000000" stroke-linecap="round" stroke-linejoin="round" stroke-miterlimit="10" d="M88.966,76.968
		c0.012,1.11,0.743,2.57,1.664,2.685"/>
	<path fill="none" stroke="#000000" stroke-linecap="round" stroke-linejoin="round" stroke-miterlimit="10" d="M91.308,74.417
		c0.154,2.342,1.294,4.605,4.251,5.176"/>
	<path fill="none" stroke="#000000" stroke-linecap="round" stroke-linejoin="round" stroke-miterlimit="10" d="M93.833,64.189
		c0.395,3.62-0.311,6.967-0.127,9.557c0.192,2.719,1.791,4.305,4.255,5.168"/>
	<path fill="none" stroke="#000000" stroke-linecap="round" stroke-linejoin="round" stroke-miterlimit="10" d="M85.913,101.602
		c-0.486-1.221-1.784-4.162-2.853-6.85c-0.312-0.787-1.502-2.088-1.718-3.824c0.643-1.86,0.999-2.84,1.248-4.137
		c0.292-1.516,0.347-3.788-2.496-3.788c-0.513,0.899-1.568,0.739-2.125-0.161c0,0-3.269,0-2.958,2.414
		c0.152,1.172,0.5,1.734,0.813,2.859c0.609,2.182,0.789,2.766,0.789,2.766c-1.099,1.98-3.269,5.625-4.236,7.163
		c-1.312,2.085-2.733,4.917-3.681,7.67c2.839,1.638,4.493,2.349,7.608,2.727c2.026,0.245,5.601-0.221,7.67-0.462
		c0.844-0.098,3.08-0.064,3.928-0.093C87.904,107.886,86.799,103.833,85.913,101.602z"/>
	<path fill="#FFFFFF" stroke="#000000" stroke-linecap="round" stroke-linejoin="round" stroke-miterlimit="10" d="M68.328,78.729
		c-0.511-0.801-3.171-2.957-3.574-5.359c-0.143-0.855,0.564-1.697,1.325,0c-0.181-0.462-0.131-1.793,0.282-1.852
		c0.413-0.057,0.816,0.723,1.073,1.482c0.037-1.465,1.07-1.518,1.257-0.321c0.544,3.493,1.433,4.687,1.733,5.271
		c0.211,0.41-0.109,0.939-0.65,1.457c-1.118,1.069-4.787,4.623-5.822,5.768c1.673-0.118,8.254-1.243,11.434-1.387
		c0.827-0.037,1.228,0.28,1.227,0.764c0,0.33-0.216,0.74-1.078,0.863c-2.608,0.373-7.552,0.785-8.779,0.955
		c-1.6,0.219-5.945,0.801-6.122,0.052C60.399,85.422,66.916,80.694,68.328,78.729z"/>
	<path fill="none" stroke="#000000" stroke-linecap="round" stroke-linejoin="round" stroke-miterlimit="10" d="M67.434,72.938
		c0.281,0.861,0.5,1.746,0.801,2.588"/>
	<path fill="none" stroke="#000000" stroke-linecap="round" stroke-linejoin="round" stroke-miterlimit="10" d="M66.017,73.338
		c0.125,0.721,0.658,1.709,1.109,2.279"/>
	<path fill="#FFFFFF" stroke="#000000" stroke-linecap="round" stroke-linejoin="round" stroke-miterlimit="10" d="M89.105,77.274
		c-0.531-0.783,0.958-1.717,2.148-3.488c1.166-1.736,1.561-3.129,1.826-3.361c0.289-0.254,0.674,0.062,0.647,0.195
		c0.91-1.961,0.947,1.086,0.525,2.018c-0.931,2.054-2.111,3.477-3.205,4.66c1.017,1.247,5.053,5.652,4.513,6.699
		c-0.434,0.842-5.417,0.764-7.285,0.879c-1.099,0.067-4.062,0.356-5.452,0.381c0.009-0.658-0.262-1.229-0.623-1.773
		c4.027-0.065,7.854-0.086,11.643-0.271C92.355,81.229,89.105,77.274,89.105,77.274z"/>
	<path fill="none" stroke="#000000" stroke-linecap="round" stroke-linejoin="round" stroke-miterlimit="10" d="M93.772,70.597
		c0.146,0.722-0.146,1.568-0.462,2.194c-0.415,0.824-0.562,1.086-1.248,1.941"/>
	<path fill="none" stroke="#000000" stroke-linecap="round" stroke-linejoin="round" stroke-miterlimit="10" d="M77.923,80.994
		c0.087,0.601,0.047,1.233,0.046,1.849"/>
	<path fill="none" stroke="#000000" stroke-linecap="round" stroke-linejoin="round" stroke-miterlimit="10" d="M80.002,80.948
		c0.082,0.525,0.05,1.403,0.092,1.895"/>
	<path fill="none" stroke="#000000" stroke-linecap="round" stroke-linejoin="round" stroke-miterlimit="10" d="M72.824,107.625
		c-0.082,1.642-0.33,3.313-0.492,4.929"/>
	<path fill="none" stroke="#000000" stroke-linecap="round" stroke-linejoin="round" stroke-miterlimit="10" d="M75.166,108.364
		c-0.222,1.46-0.734,2.889-0.986,4.312"/>
	<path fill="none" stroke="#000000" stroke-linecap="round" stroke-linejoin="round" stroke-miterlimit="10" d="M81.819,108.118
		c0.382,1.461,0.729,2.979,1.109,4.436"/>
	<path fill="none" stroke="#000000" stroke-linecap="round" stroke-linejoin="round" stroke-miterlimit="10" d="M84.038,108.241
		c0.168,1.113,0.722,3.671,0.862,4.066"/>
</g>
<g>
	<path fill="none" stroke="#000000" stroke-linecap="round" stroke-linejoin="round" stroke-miterlimit="10" d="M99.132,86.008
		c3.892-0.598,3.94,2.064,3.21,5.15c2.846-0.403,4.217,1.165,3.818,4.029c0.827,0.375,1.534,0.303,2.398,0.062"/>
	<path fill="none" stroke="#000000" stroke-linecap="round" stroke-linejoin="round" stroke-miterlimit="10" d="M100.046,67.764
		c0.13-0.91,0.862-2.068,1.219-2.927c0.53,0.354,2.297,0.544,2.917,1.061c0.084-2.01,1.482-3.527,3.461-3.861"/>
	<path fill="none" stroke="#000000" stroke-linecap="round" stroke-linejoin="round" stroke-miterlimit="10" d="M101.113,79.467
		c0.531,1.322,1.072,2.679,2.238,3.527c2.814-3.675,3.167-5.241,5.451-0.762c1.639,3.211,1.14,2.276,3.521,0.167
		c0.855,0.211,0.855,1.181,1.851,1.257"/>
	<path fill="none" stroke="#000000" stroke-linecap="round" stroke-linejoin="round" stroke-miterlimit="10" d="M100.426,72.907
		c1.597-1.533,3.058,0.232,4.526,0.928c1.509-2.006,1.586-5.231,4.365-2.812c2.58,2.247,1.161,1.054,3.862-0.426"/>
</g>
<text transform="matrix(0.9617 -0.2741 0.2741 0.9617 18.7378 48.2871)"><tspan x="0" y="0" font-family="'Arabica-Italic'" font-size="15">กรี๊ดๆๆๆ</tspan><tspan x="0" y="17.999" font-family="'Arabica-Italic'" font-size="15">สวยจัง!</tspan></text>
</svg>
