<?xml version="1.0" encoding="utf-8"?>
<!-- Generator: Adobe Illustrator 16.0.0, SVG Export Plug-In . SVG Version: 6.00 Build 0)  -->
<!DOCTYPE svg PUBLIC "-//W3C//DTD SVG 1.1//EN" "http://www.w3.org/Graphics/SVG/1.1/DTD/svg11.dtd">
<svg version="1.1" id="Layer_2" xmlns="http://www.w3.org/2000/svg" xmlns:xlink="http://www.w3.org/1999/xlink" x="0px" y="0px"
	 width="253.174px" height="128.345px" viewBox="0 0 253.174 128.345" enable-background="new 0 0 253.174 128.345"
	 xml:space="preserve">
<g id="Girl_5_">
	<path fill="none" stroke="#000000" stroke-linecap="round" stroke-linejoin="round" stroke-miterlimit="10" d="M93.453,56.882
		c-6.571,4.179-8.319,11.937-6.719,17.251c1.981,6.58,9.116,11.033,15.45,9.498c13.592-3.295,16.85-19.521,7.289-26.341
		C106.066,54.862,100.024,52.705,93.453,56.882z"/>
	<path fill="none" stroke="#000000" stroke-linecap="round" stroke-linejoin="round" stroke-miterlimit="10" d="M88.636,77.735
		c5.868-3.186,9.565-15.362,5.948-21.348"/>
	<path fill="none" stroke="#000000" stroke-linecap="round" stroke-linejoin="round" stroke-miterlimit="10" d="M86.431,73.569
		c3.265-0.301,6.271-6.483,7.212-9.275c0.79-2.343,1.106-5.018,0.457-7.44"/>
	<path fill="none" stroke="#000000" stroke-linecap="round" stroke-linejoin="round" stroke-miterlimit="10" d="M86.107,70.393
		c3.507-1.346,7.982-9.444,7.008-13.227"/>
	<path fill="none" stroke="#000000" stroke-linecap="round" stroke-linejoin="round" stroke-miterlimit="10" d="M94.671,56.551
		c3.968,5.134,11.569,7.03,17.024,3.115"/>
	<path fill="none" stroke="#000000" stroke-linecap="round" stroke-linejoin="round" stroke-miterlimit="10" d="M95.127,56.624
		c5.131,2.525,11.037,2.89,16.513,2.547"/>
	<path fill="none" stroke="#000000" stroke-linecap="round" stroke-linejoin="round" stroke-miterlimit="10" d="M95.525,56.098
		c2.442,1.1,5.668,0.048,8.801,0.411c2.266,0.263,4.879,0.799,6.678,2.058"/>
	<path fill="none" stroke="#000000" stroke-linecap="round" stroke-linejoin="round" stroke-miterlimit="10" d="M111.457,77.903"/>
	<path fill="none" stroke="#000000" stroke-linecap="round" stroke-linejoin="round" stroke-miterlimit="10" d="M104.415,82.45"/>
	<path fill="none" stroke="#000000" stroke-linecap="round" stroke-linejoin="round" stroke-miterlimit="10" d="M86.431,73.569
		c-3.07-6.32-0.601-15.019,7.141-19.119c9.354-4.955,16.836,1.54,18.855,5.35"/>
	<path fill="none" stroke="#000000" stroke-linecap="round" stroke-linejoin="round" stroke-miterlimit="10" d="M110.045,56.757
		c-4.378-6.693-11.945-6.513-18.543-2.636c-7.37,4.329-8.464,12.585-7.454,16.512c0.973,3.785,3.136,7.834,5.076,11.061
		c2.27,3.777,1.295,6.068,0.483,8.73"/>
	<path fill="none" stroke="#000000" stroke-linecap="round" stroke-linejoin="round" stroke-miterlimit="10" d="M90.842,80.452
		c2.298,4.334,0.989,7.115,0.594,9.082"/>
	<path fill="none" stroke="#000000" stroke-linecap="round" stroke-linejoin="round" stroke-miterlimit="10" d="M93.138,82.217
		c0.684,1.197,1.003,2.309,0.937,3.691c-0.037,0.762-0.247,1.625-0.32,2.605"/>
	<path fill="none" stroke="#000000" stroke-linecap="round" stroke-linejoin="round" stroke-miterlimit="10" d="M97.947,83.993
		c0.316,1.193,0.356,1.824,0.172,2.627"/>
	<path fill="none" stroke="#000000" stroke-linecap="round" stroke-linejoin="round" stroke-miterlimit="10" d="M99.908,83.93
		c0.297,0.551,0.083,1.807,0.146,1.736"/>
	<path fill="none" stroke="#000000" stroke-linecap="round" stroke-linejoin="round" stroke-miterlimit="10" d="M113.1,75.549
		c0.355,0.598,1.698,1.238,2.292,1.217"/>
	<path fill="none" stroke="#000000" stroke-linecap="round" stroke-linejoin="round" stroke-miterlimit="10" d="M114.082,73.454
		c0.53,0.977,1.859,1.924,2.727,1.594"/>
	<path fill="none" stroke="#000000" stroke-linecap="round" stroke-linejoin="round" stroke-miterlimit="10" d="M114.957,70.104
		c1.232,1.996,3.299,3.463,6.178,2.582"/>
	<path fill="none" stroke="#000000" stroke-linecap="round" stroke-linejoin="round" stroke-miterlimit="10" d="M112.402,59.883
		c2.043,3.014,2.985,6.303,4.359,8.506c1.442,2.311,3.6,2.965,6.18,2.574"/>
	<g>
		<path fill="none" stroke="#000000" stroke-linecap="round" stroke-linejoin="round" stroke-miterlimit="10" d="M114.081,102.69
			c-0.486-1.221-1.874-4.537-2.983-6.666c-0.392-0.752-1.371-2.27-1.587-4.006c0.534-2.182,0.788-2.965,1.038-4.262
			c0.291-1.516,0.908-4.111-2.033-5.307c-0.33,0.578-1.617,1.543-3.882,0.732c0,0-1.384,0.582-0.878,2.727
			c0.168,0.711,0.826,2.055,1.109,3.188c0.416,1.664-0.139,2.689-0.139,2.689c-1.099,1.98-3.213,5.811-4.18,7.348
			c-1.312,2.084-3.051,4.398-3.999,7.152c2.839,1.637,4.811,2.867,7.927,3.244c2.025,0.244,5.6-0.221,7.67-0.463
			c0.844-0.098,3.08-0.062,3.928-0.092C116.072,108.975,114.967,104.92,114.081,102.69z"/>
	</g>
	<path fill="none" stroke="#000000" stroke-linecap="round" stroke-linejoin="round" stroke-miterlimit="10" d="M100.747,108.528
		c-0.082,1.641-0.514,2.752-0.676,4.365"/>
	<path fill="none" stroke="#000000" stroke-linecap="round" stroke-linejoin="round" stroke-miterlimit="10" d="M102.641,109.254
		c-0.427,1.805-0.824,2.996-1.21,4.055"/>
	<path fill="none" stroke="#000000" stroke-linecap="round" stroke-linejoin="round" stroke-miterlimit="10" d="M109.764,109.598
		c0.381,1.461,0.285,2.531,0.666,3.988"/>
	<path fill="none" stroke="#000000" stroke-linecap="round" stroke-linejoin="round" stroke-miterlimit="10" d="M111.457,109.149
		c0.167,1.113,0.339,3.236,0.339,4.438"/>
	<path fill="none" stroke="#000000" stroke-linecap="round" stroke-linejoin="round" stroke-miterlimit="10" d="M107.684,81.473
		c0.16,0.355,0.365,0.801,0.416,1.109"/>
	<path fill="none" stroke="#000000" stroke-linecap="round" stroke-linejoin="round" stroke-miterlimit="10" d="M133.006,83.459
		c2.377,0.422,4.846-0.195,7.297,0.352c1.764,0.395,3.375,0.992,5.031,1.689c0.01,1.705-0.59,3.379-0.646,5.068
		c-1.574-0.467-2.93-1.559-4.66-1.869c-2.352-0.424-4.297-0.199-6.648-0.086C133.342,86.928,133.006,83.459,133.006,83.459z"/>
	<path fill="#FFFFFF" stroke="#000000" stroke-linecap="round" stroke-linejoin="round" stroke-miterlimit="10" d="M110.179,83.436
		c5.964-0.123,12.279-0.461,18.214,0.279c1.273,0.158,3.309-0.604,4.412-0.055c0.621,0.309,1.688,0.773,1.688,1.174
		c-0.562,0.611-1.748,0.396-2.551-0.066"/>
	<path fill="none" stroke="#000000" stroke-linecap="round" stroke-linejoin="round" stroke-miterlimit="10" d="M110.825,85.354
		c5.329-0.607,10.971-0.859,16.3-0.086c1.434,0.209,3.432,0.447,3.432,0.447c0.738,1.086,1.924,1.188,2.617,1.127"/>
	<path fill="#FFFFFF" d="M120.332,83.282c1.139-0.695,3.326-2.023,4.705-2.051c0.008,0.158,0.156,0.324,0.164,0.482
		c1.214,0.041,2.454,0.104,3.657,0.227c-0.035,0.324-0.148,0.656-0.207,0.975c0.811,0.309,0.986,0.359,0.801,1.232
		c-0.211,0.99-0.443,1.975-0.5,2.99c-1.176,0.027-2.365,0.146-3.536,0.055c-0.764-0.059-2.3-0.268-3.054-0.637
		C122.362,86.555,121.562,84.674,120.332,83.282z"/>
	<path fill="none" stroke="#000000" stroke-linecap="round" stroke-linejoin="round" stroke-miterlimit="10" d="M122.362,86.401
		c0.139-1.039-1.55-2.475-2.147-3.268c1.591-0.391,3.187-1.576,4.822-1.775c0.174,1.283,0.437,2.529,0.712,3.791
		c0.107,0.494,0.176,1.455,0.402,1.775"/>
	<path fill="none" stroke="#000000" stroke-linecap="round" stroke-linejoin="round" stroke-miterlimit="10" d="M128.954,87.018
		c0.09-1.271,0.354-2.525,0.668-3.754c-1.406-0.189-2.936-0.355-4.302-0.744"/>
	<path fill="none" stroke="#000000" stroke-linecap="round" stroke-linejoin="round" stroke-miterlimit="10" d="M125.226,81.596
		c1.235,0.209,2.542,0.137,3.786,0.344c-0.182,0.375-0.432,0.766-0.52,1.197"/>
	<path fill="none" stroke="#000000" stroke-width="0.5" stroke-linecap="round" stroke-linejoin="round" stroke-miterlimit="10" d="
		M123.348,86.678c0.079-1.234-0.633-2.309-1.391-3.203c0.625-0.369,1.558-0.764,2.278-0.898c0.316,1.324,0.521,3.074,1.021,4.195"/>
	<path fill="none" stroke="#000000" stroke-width="0.5" stroke-linecap="round" stroke-linejoin="round" stroke-miterlimit="10" d="
		M124.394,85.354c-0.646-0.523-1.267,0.48-0.855,0.959C124.119,86.987,125.042,85.877,124.394,85.354z"/>
	<path fill="none" stroke="#000000" stroke-width="0.5" stroke-linecap="round" stroke-linejoin="round" stroke-miterlimit="10" d="
		M125.659,83.661c0.877,0.418,1.793,0.49,2.705,0.715c-0.01,0.746-0.164,1.809-0.24,2.426"/>
	<path fill="none" stroke="#000000" stroke-width="0.5" stroke-linecap="round" stroke-linejoin="round" stroke-miterlimit="10" d="
		M126.09,86.37c0.299-1.428,2.113-0.189,0.922,0.555"/>
	<path fill="none" stroke="#000000" stroke-linecap="round" stroke-linejoin="round" stroke-miterlimit="10" d="M118.912,85.76
		c2.922,0.824,4.303,1.088,5.207,1.227c0.869,0.133,5.405-0.059,5.444,0.387c0.1,1.078-0.049,2.305-0.084,3.176
		c-0.037,0.936-0.129,2.674-0.369,3c-0.238,0.318-5.413-0.293-6.168-0.393c-1.342-0.176-4.184-0.84-5.039-1.211
		c-0.41-0.176-0.024-2.516,0.64-4.682L118.912,85.76z"/>
	<path fill="none" stroke="#000000" stroke-linecap="round" stroke-linejoin="round" stroke-miterlimit="10" d="M123.841,87.696
		c-0.312,1.6-0.451,2.951-0.743,5.299"/>
	<path fill="#FFFFFF" stroke="#000000" stroke-linecap="round" stroke-linejoin="round" stroke-miterlimit="10" d="M118.727,87.202
		c-3.25-0.266-6.613-0.805-9.734-1.756c-0.929-0.281-4.203-1.527-4.476-0.416c-0.392,1.59,3.987,2.242,5.528,2.512
		c2.645,0.463,7.979,0.611,8.189,1.109c0.924,2.188,4.708,4.559,4.375,2.957c0.553,0.525,1.909,0.369,1.36-0.453
		c0.68,0.008,1.355-0.225,1.299-0.73c-0.051-0.471-1.027-0.326-2.327-1.035c-0.693-0.377-1.397-0.822-2.274-1.693
		c0,0,0.924-0.863,0.646-1.418C120.76,85.668,118.727,87.202,118.727,87.202z"/>
	<path fill="none" stroke="#000000" stroke-linecap="round" stroke-linejoin="round" stroke-miterlimit="10" d="M121.83,89.944
		c0.985,0.709,1.401,1.057,2.14,1.211"/>
	<path fill="none" stroke="#000000" stroke-linecap="round" stroke-linejoin="round" stroke-miterlimit="10" d="M120.932,90.424
		c0.635,0.643,0.924,0.779,1.678,1.184"/>
	<path fill="none" stroke="#000000" stroke-width="0.5" stroke-linecap="round" stroke-linejoin="round" stroke-miterlimit="10" d="
		M134.463,84.577c3.887-0.348,6.783,0.191,9.578,1.293c0,1.055-0.104,2.135-0.186,3.312c-1.994-0.828-4.275-2.164-9.363-1.486
		C134.209,86.61,134.463,84.577,134.463,84.577z"/>
	<path fill="none" stroke="#000000" stroke-width="0.5" stroke-linecap="round" stroke-linejoin="round" stroke-miterlimit="10" d="
		M140.444,85.631c-0.66-0.76-2.357,0.078-1.604,1.17C139.411,87.625,141.106,86.391,140.444,85.631z"/>
	<path fill="#FFFFFF" stroke="#000000" stroke-linecap="round" stroke-linejoin="round" stroke-miterlimit="10" d="M90.772,73.387
		c4.567-2.727,3.049-4.99,1.438-8.798c2.762,4.162,3.806,5.515,7.696,3.806c-3.587,1.957-3.125,4.613-1.527,7.938
		c-1.122-1.512-1.787-3.613-3.861-3.965C93.174,72.139,90.772,73.387,90.772,73.387z"/>
	<path fill="#FFFFFF" stroke="#000000" stroke-linecap="round" stroke-linejoin="round" stroke-miterlimit="10" d="M102.559,67.159
		c4.568-2.726,3.051-4.99,1.439-8.798c2.762,4.161,3.807,5.515,7.697,3.806c-3.588,1.957-3.125,4.613-1.527,7.937
		c-1.123-1.512-1.788-3.614-3.861-3.964C104.961,65.912,102.559,67.159,102.559,67.159z"/>
	<path fill="none" stroke="#000000" stroke-linecap="round" stroke-linejoin="round" stroke-miterlimit="10" d="M94.449,78.608
		c7.089,1.844,16.376-3.059,17.978-10.258c0.452,3.844-0.762,9.439-5.505,11.879C100.936,83.309,94.449,78.608,94.449,78.608z"/>
	<path fill="none" stroke="#000000" stroke-linecap="round" stroke-linejoin="round" stroke-miterlimit="10" d="M105.42,76.899
		c0.726,0.85,1.066,2.027,1.617,3.002"/>
	<path fill="none" stroke="#000000" stroke-linecap="round" stroke-linejoin="round" stroke-miterlimit="10" d="M101.168,78.7
		c0.431,0.725,1.179,1.912,1.755,2.357"/>
	<path fill="none" stroke="#000000" stroke-linecap="round" stroke-linejoin="round" stroke-miterlimit="10" d="M109.764,73.432
		c0.338,1.039,0.738,2.057,1.062,3.096"/>
</g>
<g id="Merchant_6_">
	<g id="Merchant_8_">
		<path fill="none" stroke="#000000" stroke-linecap="round" stroke-linejoin="round" stroke-miterlimit="10" d="M154.518,59.17
			c0.91,7.511-0.736,15.92,7.023,19.961c7.189,3.742,15.277,2.145,19.531-4.867c2.281-3.76,3.016-7.865,2.918-12.161"/>
		<path fill="none" stroke="#000000" stroke-linecap="round" stroke-linejoin="round" stroke-miterlimit="10" d="M155.133,59.17
			c-2.279,0-13.461,0-6.229-2.896c6.396-2.562,28.994-5.545,32.09-3.004c5.266,4.322,2.996,8.833,2.996,8.833
			c-2.672,0.527-7.873,0.48-10.586,0.389c-4.061-0.137-11.74,0.005-12.096-0.975c-0.355-0.979,5.785-2.504,7.637-2.84
			C168.946,58.677,158.733,59.17,155.133,59.17z"/>
		<path fill="none" stroke="#000000" stroke-linecap="round" stroke-linejoin="round" stroke-miterlimit="10" d="M152.485,64.838
			c0.078,3.152,1.303,6.547,4.854,7.096c3.201,0.496,5.598-1.975,6.066-4.949c0.113-0.727,0.104-1.476,0.17-2.208
			C160.327,64.777,155.997,64.777,152.485,64.838z"/>
		<path fill="none" stroke="#000000" stroke-linecap="round" stroke-linejoin="round" stroke-miterlimit="10" d="M166.717,64.838
			c0.078,3.152,2.346,6.785,5.914,7.213c4.561,0.549,7.023-2.285,7.578-4.256c0.344-1.222,0.426-2.286,0.492-3.019
			C177.454,64.777,170.229,64.777,166.717,64.838z"/>
		<path fill="none" stroke="#000000" stroke-linecap="round" stroke-linejoin="round" stroke-miterlimit="10" d="M163.637,65.947
			c1.227-0.847,1.99-0.37,3.08,0.308"/>
		<path fill="none" stroke="#000000" stroke-linecap="round" stroke-linejoin="round" stroke-miterlimit="10" d="M161.842,75.571
			c0.139,0.904,4.574,3.969,7.637,0"/>
		<path fill="none" stroke="#000000" stroke-linecap="round" stroke-linejoin="round" stroke-miterlimit="10" d="M156.428,63.052
			c0.699-0.026,1.4,0.014,2.094,0.062"/>
		<path fill="none" stroke="#000000" stroke-linecap="round" stroke-linejoin="round" stroke-miterlimit="10" d="M169.797,63.36
			c0.689,0.105,1.395,0.06,2.096,0.062"/>
		<path fill="none" stroke="#000000" stroke-linecap="round" stroke-linejoin="round" stroke-miterlimit="10" d="M156.737,64.961
			c-0.029,0.761-0.217,1.484,0.285,1.972c0.367-0.43,0.268-1.186,0.27-1.91"/>
		<path fill="none" stroke="#000000" stroke-linecap="round" stroke-linejoin="round" stroke-miterlimit="10" d="M171.153,65.208
			c0.041,0.543,0,1.51,0.432,1.725c0.309-0.369,0.129-1.289,0.123-1.848"/>
		<path fill="none" stroke="#000000" stroke-linecap="round" stroke-linejoin="round" stroke-miterlimit="10" d="M168.688,81.165
			c0.002,0.809-0.154,1.975,0.186,2.588"/>
		<path fill="none" stroke="#000000" stroke-linecap="round" stroke-linejoin="round" stroke-miterlimit="10" d="M170.415,81.165
			c0.02,0.846-0.066,1.91,0.062,2.711"/>
		<path fill="none" stroke="#000000" stroke-linecap="round" stroke-linejoin="round" stroke-miterlimit="10" d="M175.096,79.747
			c0,1.408-0.152,2.951,0.125,4.314"/>
		<path fill="none" stroke="#000000" stroke-linecap="round" stroke-linejoin="round" stroke-miterlimit="10" d="M177.315,78.577
			c-0.023,0.922-0.52,5.064-0.062,5.236"/>
		<path fill="none" stroke="#000000" stroke-linecap="round" stroke-linejoin="round" stroke-miterlimit="10" d="M175.042,83.934
			c0.812,0.127,1.592,0.051,2.391,0.145c-0.086,1.783-2.441,1.578-2.268-0.131"/>
		<path fill="none" stroke="#000000" stroke-linecap="round" stroke-linejoin="round" stroke-miterlimit="10" d="M168.45,83.942
			c0.818,0.055,1.59-0.086,2.395-0.061c0.064,1.783-2.299,1.781-2.271,0.062"/>
		<path fill="none" stroke="#000000" stroke-linecap="round" stroke-linejoin="round" stroke-miterlimit="10" d="M171.03,83.938
			c1.139,0.16,2.598,0.084,3.758,0.123"/>
		<path fill="none" stroke="#000000" stroke-linecap="round" stroke-linejoin="round" stroke-miterlimit="10" d="M168.381,83.938
			c0.332,7.795,0.389,15.621,1.012,23.402c0.084,1.053,0.082,4.756,0.254,5.799"/>
		<path fill="none" stroke="#000000" stroke-linecap="round" stroke-linejoin="round" stroke-miterlimit="10" d="M179.536,106.979
			c-2.564,0.92-7.236,0.369-10.045,0.369"/>
		<path fill="none" stroke="#000000" stroke-linecap="round" stroke-linejoin="round" stroke-miterlimit="10" d="M169.86,89.729
			c1.447-0.148,4.035,0.338,5.268,0"/>
		<path fill="none" stroke="#000000" stroke-linecap="round" stroke-linejoin="round" stroke-miterlimit="10" d="M175.127,89.729
			c0.232,1.221,0.32,2.955-0.086,4.559c-0.9,0.709-3.395,0.678-4.637,0.107c-0.406-0.332-0.537-3.473-0.545-4.666"/>
		<path fill="none" stroke="#000000" stroke-linecap="round" stroke-linejoin="round" stroke-miterlimit="10" d="M181.942,112.77
			c0.004-1.371,0.027-4.693,0.012-5.855c-0.092-7.129,0.271-14.549-0.449-21.621c0,0,0.611-6.131-3.543-6.361"/>
		<path fill="none" stroke="#000000" stroke-linecap="round" stroke-linejoin="round" stroke-miterlimit="10" d="M174.665,107.471
			c0.084,1.021,0.32,4.746,0.377,5.299"/>
		<path fill="none" stroke="#000000" stroke-linecap="round" stroke-linejoin="round" stroke-miterlimit="10" d="M179.536,95.59
			c0.369,0.053,2.037,0.014,2.43-0.039"/>
		<path fill="none" stroke="#000000" stroke-linecap="round" stroke-linejoin="round" stroke-miterlimit="10" d="M179.965,97.579
			c0.354,0.012,1.562,0.068,1.977-0.07"/>
	</g>
	<path fill="none" stroke="#000000" stroke-linecap="round" stroke-linejoin="round" stroke-miterlimit="10" d="M168.077,81.165
		c-2.045,0.236-3.748,1.975-5.789,2.346c0.65,1.234,1.01,2.805,1.23,4.186"/>
	<path fill="#FFFFFF" stroke="#000000" stroke-linecap="round" stroke-linejoin="round" stroke-miterlimit="10" d="M162.715,84.471
		c-5.24,0.867-13.617,1.652-13.617,1.652c-1.418-0.57-4.787-0.408-4.719,0.172c0.135,1.131,1.518,0.779,2.504,0.93"/>
	<path fill="none" stroke="#000000" stroke-linecap="round" stroke-linejoin="round" stroke-miterlimit="10" d="M145.034,88.62
		c1.668,0.477,3.453,0.568,4.506-1.037c4.582-0.184,9.572-0.658,13.67-0.996"/>
	<path fill="#FFFFFF" stroke="#000000" stroke-miterlimit="10" d="M179.352,79.254c-2.559-1.543-6.443,2.648-9.492,5.42
		c1.6,1.645,2.209,2.285,4.281,3.68C177.061,85.715,182.401,81.096,179.352,79.254z"/>
	<path fill="none" stroke="#000000" stroke-linecap="round" stroke-linejoin="round" stroke-miterlimit="10" d="M178.983,83.506
		c0,4.25,0.363,9.645,0.461,14.055c0.068,3.139,0.084,6.275,0.092,9.418"/>
	<path fill="none" stroke="#000000" stroke-linecap="round" stroke-linejoin="round" stroke-miterlimit="10" d="M151.319,94.411
		c-0.846-3.195,1.58-6.822,5.143-6.213c2.707,0.465,3.275,3.629,3.053,5.967"/>
	<path fill="none" stroke="#000000" stroke-linecap="round" stroke-linejoin="round" stroke-miterlimit="10" d="M152.182,94.411
		c-0.58-4.297,5.182-7.939,6.223-2.586c0.162,0.842,0.152,1.73,0.123,2.586"/>
	<path fill="none" stroke="#000000" stroke-linecap="round" stroke-linejoin="round" stroke-miterlimit="10" d="M148.036,94.288
		c3.68,0.244,4.959,0.125,8.076,0.123c2.078-0.002,4.164-0.148,6.234-0.123"/>
	<path fill="none" stroke="#000000" stroke-linecap="round" stroke-linejoin="round" stroke-miterlimit="10" d="M148.036,94.288
		c0.641,4.084,0.445,7.914,0.432,10.873c-0.008,1.877,0.172,3.854-0.924,5.359c4.129,0,15.184,0,15.834,0
		c-1.031-0.963-1.031-1.754-1.162-3.334c-0.303-3.674-0.035-6.809-0.061-9.396c-0.012-1.127,0.193-2.377,0.191-3.502"/>
	<path fill="#FFFFFF" stroke="#000000" stroke-miterlimit="10" d="M170.542,85.54c-3.709,0.773-8.518,2.217-12.307,2.434
		c0,0-1.619-1.287-2.807-1.014c-1.73,0.402-1.58,2.824-0.041,3.355c0.939,0.322,2.893-0.848,2.893-0.848
		c2.219-0.285,4.324-0.701,6.225-0.979c2.67-0.389,4.754-0.516,8.068-1.039L170.542,85.54z"/>
</g>
<text transform="matrix(0.9617 -0.2741 0.2741 0.9617 53.6812 51.4214)" font-family="'Arabica-Italic'" font-size="15">ซื้อ!</text>
<path fill="none" stroke="#000000" stroke-linecap="round" stroke-linejoin="round" stroke-miterlimit="10" d="M68.499,52.362
	c5.319-0.548,1.714,4.46,3.973,6.205c2.196,1.695,6.03-1.738,8.225,0.587"/>
</svg>
