<?xml version="1.0" encoding="UTF-8"?>
<svg width="220px" height="98px" viewBox="0 0 220 98" version="1.1" xmlns="http://www.w3.org/2000/svg" xmlns:xlink="http://www.w3.org/1999/xlink">
    <!-- Generator: Sketch 48.2 (47327) - http://www.bohemiancoding.com/sketch -->
    <title>Slice 1</title>
    <desc>Created with Sketch.</desc>
    <defs></defs>
    <g id="Page-1" stroke="none" stroke-width="1" fill="none" fill-rule="evenodd">
        <g id="03" transform="translate(9.000000, 20.000000)">
            <polygon id="Shape" fill="#D72D27" fill-rule="nonzero" points="93.999 44.609 92.414 39.875 95.067 39.794 96.455 38.955 98.527 41.634 97.603 44.464"></polygon>
            <polyline id="Shape" fill="#D72D27" fill-rule="nonzero" points="97.603 46.025 105.857 56.203 95.167 58.509 84.575 55.089 91.872 45.806 95.167 52.158 95.067 54.458 96.664 56.496 98.56 53.912 95.705 51.562 94.917 47.111"></polyline>
            <g id="Girl_2_" transform="translate(78.000000, 16.000000)" stroke="#000000">
                <path d="M7.374,4.831 C2.714,7.793 1.476,13.293 2.61,17.06 C4.014,21.724 9.022,24.652 13.561,23.792 C24.542,21.716 25.507,9.953 18.73,5.118 C16.315,3.398 12.032,1.869 7.374,4.831 Z" id="Shape" stroke-width="0.8" stroke-linecap="round" stroke-linejoin="round"></path>
                <path d="M3.959,19.613 C8.118,17.355 10.739,8.722 8.176,4.479" id="Shape" stroke-width="0.8" stroke-linecap="round" stroke-linejoin="round"></path>
                <path d="M2.396,16.66 C4.71,16.447 6.841,12.063 7.508,10.084 C8.069,8.424 8.292,6.527 7.831,4.81" id="Shape" stroke-width="0.8" stroke-linecap="round" stroke-linejoin="round"></path>
                <path d="M2.166,14.41 C4.652,13.455 7.824,7.713 7.134,5.031" id="Shape" stroke-width="0.8" stroke-linecap="round" stroke-linejoin="round"></path>
                <path d="M8.237,4.595 C11.049,8.236 16.438,9.579 20.306,6.802" id="Shape" stroke-width="0.8" stroke-linecap="round" stroke-linejoin="round"></path>
                <path d="M8.561,4.646 C12.199,6.437 16.384,6.695 20.268,6.453" id="Shape" stroke-width="0.8" stroke-linecap="round" stroke-linejoin="round"></path>
                <path d="M8.843,4.275 C10.573,5.054 12.862,4.308 15.081,4.565 C16.688,4.752 18.541,5.132 19.816,6.024" id="Shape" stroke-width="0.8" stroke-linecap="round" stroke-linejoin="round"></path>
                <path d="M2.396,16.66 C0.218,12.179 1.97,6.014 7.458,3.105 C14.089,-0.407 19.392,4.197 20.824,6.898" id="Shape" stroke-width="0.8" stroke-linecap="round" stroke-linejoin="round"></path>
                <path d="M19.136,4.742 C16.032,-0.002 10.667,0.125 5.989,2.873 C0.764,5.941 -0.011,11.795 0.706,14.579 C1.395,17.264 2.929,20.133 4.304,22.42 C5.912,25.098 5.222,26.723 4.647,28.609" id="Shape" stroke-width="0.8" stroke-linecap="round" stroke-linejoin="round"></path>
                <path d="M5.522,21.539 C7.151,24.611 6.222,26.584 5.942,27.978" id="Shape" stroke-width="0.8" stroke-linecap="round" stroke-linejoin="round"></path>
                <path d="M7.149,22.791 C7.633,23.641 7.86,24.428 7.813,25.408 C7.788,25.947 7.638,26.56 7.586,27.256" id="Shape" stroke-width="0.8" stroke-linecap="round" stroke-linejoin="round"></path>
                <path d="M10.56,24.05 C10.783,24.894 10.812,25.343 10.681,25.911" id="Shape" stroke-width="0.8" stroke-linecap="round" stroke-linejoin="round"></path>
                <path d="M11.949,24.005 C12.159,24.396 12.009,25.286 12.052,25.235" id="Shape" stroke-width="0.8" stroke-linecap="round" stroke-linejoin="round"></path>
                <path d="M21.697,18.445 C21.949,18.869 22.506,18.941 22.927,18.925" id="Shape" stroke-width="0.8" stroke-linecap="round" stroke-linejoin="round"></path>
                <path d="M22.494,16.66 C22.871,17.353 24.387,18.09 25.002,17.855" id="Shape" stroke-width="0.8" stroke-linecap="round" stroke-linejoin="round"></path>
                <path d="M23.005,14.457 C23.878,15.871 24.956,16.658 26.997,16.035" id="Shape" stroke-width="0.8" stroke-linecap="round" stroke-linejoin="round"></path>
                <path d="M20.808,6.957 C22.255,9.094 22.923,11.426 23.898,12.988 C24.919,14.627 26.449,15.09 28.279,14.812" id="Shape" stroke-width="0.8" stroke-linecap="round" stroke-linejoin="round"></path>
                <path d="M9.037,11.365 C11.456,11.26 13.12,12.69 13.134,15.127 C13.148,17.604 11.532,18.93 9.499,18.93 C8.588,18.928 6.912,18.659 6.403,17.789" id="Shape" stroke-width="0.8" stroke-linecap="round" stroke-linejoin="round"></path>
                <path d="M14.952,8.223 C13.242,10.405 13.282,13.158 16.063,14.54 C18.787,15.894 22.312,13.12 21.496,10.256 C21.174,9.125 20.098,8.245 19.064,7.714" id="Shape" stroke-width="0.8" stroke-linecap="round" stroke-linejoin="round"></path>
                <path d="M15.875,18.181 C14.196,17.357 13.125,19.003 14.499,20.3 C16.338,22.038 19.595,19.732 18.052,17.527 C17.693,17.013 17.076,16.734 16.522,17.009 C15.967,17.287 15.875,18.181 15.875,18.181 Z" id="Shape" stroke-width="0.8" stroke-linecap="round" stroke-linejoin="round"></path>
                <path d="M9.284,14.693 C9.221,14.991 9.382,15.33 9.674,15.463 C9.779,15.125 9.675,14.725 9.343,14.594 C9.23,14.627 9.286,14.721 9.284,14.723" id="Shape" stroke-width="0.8" stroke-linecap="round" stroke-linejoin="round"></path>
                <path d="M17.722,10.75 C17.658,11.136 17.779,11.566 18.214,11.527 C18.296,11.229 18.152,10.945 17.874,10.81" id="Shape" stroke-width="0.8" stroke-linecap="round" stroke-linejoin="round"></path>
                <path d="M16.528,19.058 C16.321,18.994 16.18,19.236 16.399,19.398 C16.659,19.593 16.815,19.171 16.528,19.041" id="Shape" stroke-width="0.8" stroke-linecap="round" stroke-linejoin="round"></path>
                <path d="M19.449,21.253 C21.219,23.753 20,25.435 19.972,27.978 C19.962,28.853 19.445,29.611 20.136,30.285 C22.693,32.779 25.288,36.137 27.857,40.203 C26.117,40.937 23.847,41.695 21.697,42.144 C17.593,43.001 13.719,42.744 9.969,40.857 C8.685,40.212 7.482,39.384 6.092,38.978 C8.31,35.249 11.493,31.83 14.767,29.017" id="Shape" stroke-width="0.8" stroke-linecap="round" stroke-linejoin="round"></path>
                <path d="M15.182,23.425 C16.229,24.222 17.861,23.667 18.185,22.363" id="Shape" stroke-width="0.8" stroke-linecap="round" stroke-linejoin="round"></path>
                <path d="M14.814,28.232 C16.276,29.08 18.554,29.132 19.896,28" id="Shape" stroke-width="0.8" stroke-linecap="round" stroke-linejoin="round"></path>
                <path d="M14.212,29.478 C15.484,30.746 18.681,31.251 19.757,29.433" id="Shape" stroke-width="0.8" stroke-linecap="round" stroke-linejoin="round"></path>
                <path d="M14.414,23.875 C12.611,23.473 13.384,25.332 13.796,26.984 C14.537,29.968 16.485,34.935 16.659,35.466 C17.143,36.956 16.268,37.085 16.682,38.859 C16.985,40.152 19.896,42.447 20.136,39.228 C20.136,39.228 20.657,38.988 20.542,38.488 C20.243,37.183 18.847,35.703 17.704,35.562 C17.526,35.089 16.805,31.722 16.162,29.433 C15.551,27.255 15.088,24.023 14.414,23.875 Z" id="Shape" fill="#FFFFFF" fill-rule="nonzero"></path>
                <path d="M17.863,39.089 C18.049,39.86 18.228,40.277 18.509,40.753" id="Shape" stroke-linecap="round" stroke-linejoin="round"></path>
                <path d="M18.664,38.828 C19.004,39.584 19.377,40.08 19.758,40.496" id="Shape" stroke-linecap="round" stroke-linejoin="round"></path>
                <path d="M19.203,37.826 C19.506,38.221 19.707,38.713 20.004,39.09" id="Shape" stroke-linecap="round" stroke-linejoin="round"></path>
                <path d="M19.964,21.808 C20.321,21.445 21.103,20.638 21.37,20.152 C22.132,18.763 21.349,17.705 20.427,19.041 C19.445,20.463 17.816,21.254 17.704,21.623 C17.483,22.359 17.878,22.394 18.454,22.955 C18.847,23.338 19.534,24.369 19.895,24.834 C20.407,25.498 22.055,27.654 22.622,27.422 C23.431,27.092 23.544,25.992 23.29,25.238 C22.829,23.877 21.64,21.508 20.808,21.168 L19.964,21.808 Z" id="Shape" fill="#FFFFFF" fill-rule="nonzero" stroke-linecap="round" stroke-linejoin="round"></path>
                <path d="M19.964,21.923 C20.456,23.111 21.337,24.259 22.114,25.273" id="Shape" stroke-linecap="round" stroke-linejoin="round"></path>
                <path d="M14.707,42.509 C16.3,47.384 12.976,50.757 10.516,54.708" id="Shape" stroke-linecap="round" stroke-linejoin="round"></path>
                <path d="M16.661,42.755 C18.072,47.222 14.981,52.091 12.087,55.077" id="Shape" stroke-linecap="round" stroke-linejoin="round"></path>
                <path d="M10.331,54.832 C11.704,56.07 13.298,61.309 15.998,59.883" id="Shape" stroke-linecap="round" stroke-linejoin="round"></path>
                <path d="M12.087,55.246 C13.364,56.51 13.937,59.512 15.938,59.883" id="Shape" stroke-linecap="round" stroke-linejoin="round"></path>
                <path d="M10.331,54.832 C9.977,55.602 9.618,58.344 9.622,59.945" id="Shape" stroke-linecap="round" stroke-linejoin="round"></path>
                <path d="M15.999,59.882 C18.51,60.591 16.554,61.792 14.059,61.005 C13.328,60.776 11.836,59.148 11.836,59.148 C11.481,58.568 10.418,57.294 9.978,56.617" id="Shape" stroke-linecap="round" stroke-linejoin="round"></path>
                <path d="M17.167,42.9 C17.482,45.601 17.318,47.398 18.695,49.855 C19.341,51.011 21.941,54.554 22.529,55.078" id="Shape" stroke-linecap="round" stroke-linejoin="round"></path>
                <path d="M19.203,42.648 C19.279,45.459 19.101,47.273 20.435,49.859 C21.349,51.627 22.898,53.129 23.777,54.8" id="Shape" stroke-linecap="round" stroke-linejoin="round"></path>
                <path d="M23.986,54.292 C23.437,55.302 21.757,60.274 19.896,59.466" id="Shape" stroke-linecap="round" stroke-linejoin="round"></path>
                <path d="M22.271,54.832 C22.275,55.789 21.771,56.73 21.306,57.564 C20.958,58.183 20.462,58.968 19.861,59.367 C19.441,59.646 18.507,60.086 18.611,60.769 C18.664,61.126 19.943,61.054 20.336,60.943 C22.172,60.42 22.766,59.459 23.615,57.906 C23.894,57.396 24.437,56.021 24.437,56.021" id="Shape" stroke-linecap="round" stroke-linejoin="round"></path>
                <path d="M23.986,54.292 C24.287,55.245 24.547,56.56 24.804,57.563 C24.898,57.938 25.302,59.444 25.302,59.444" id="Shape" stroke-linecap="round" stroke-linejoin="round"></path>
            </g>
            <g id="IG" transform="translate(64.000000, 1.000000)" stroke="#000000">
                <path d="M60.048,49.908 C59.548,41.933 59.298,24.81 58.894,16.836 C58.359,6.287 58.154,0.491 58.154,0.491 C58.154,0.491 31.539,1.221 22.843,1.875 C17.239,2.297 0.632,2.983 0.632,2.983 C0.643,13.15 1.232,20.271 1.155,25.734 C1.034,34.458 1.521,42.12 1.52,50.854 C1.519,55.448 1.155,68.104 1.155,68.104 C1.155,68.104 11.593,68.118 14.928,67.985 C19.282,67.813 23.635,67.7 27.985,67.44 C36.424,66.936 59.817,67.303 59.817,67.303 C59.817,67.303 60.503,57.16 60.048,49.908 Z M31.642,60.835 C27.756,61.044 22.813,60.915 18.929,61.177 C16.357,61.351 8.36,61.132 8.36,61.132 C8.36,61.132 7.343,51.421 6.92,37.362 C6.566,25.579 5.988,25.375 6.219,13.518 C6.219,13.518 23.483,12.769 28.415,12.664 C37.056,12.479 44.423,12.165 51.411,11.578 C51.765,27.771 52.026,43.712 53.138,59.817 C46.509,60.263 39.589,60.408 31.642,60.835 Z" id="Shape" fill="#FFFFFF" fill-rule="nonzero"></path>
                <path d="M8.374,5.572 C4.8,2.183 0.136,7.631 3.895,10.459 C7.284,13.008 11.741,8.765 8.374,5.572 Z" id="Shape"></path>
                <path d="M13.056,10.131 C12.995,6.945 15.271,7.604 16.864,9.169 C18.232,5.26 18.84,10.266 20.17,8.043 C20.588,8.564 20.697,8.481 21.137,8.766 C21.617,5.665 23.199,10.005 25.01,7.913" id="Shape"></path>
                <path d="M47.927,5.572 C47.96,5.975 47.073,6.218 48.093,6.557 C48.155,6.39 48.195,5.815 48.249,5.709 C47.865,5.921 47.994,5.827 47.927,5.572" id="Shape" stroke-linecap="round" stroke-linejoin="round"></path>
                <path d="M7.272,66.939 C3.3,65.425 6.077,59.88 7.196,64.312 C8.091,61.314 11.225,63.287 8.214,66.275 L7.272,66.939 Z" id="Shape" stroke-linecap="round" stroke-linejoin="round"></path>
                <path d="M19.88,62.22 C20.622,63.015 21.208,63.7 21.958,64.361 C21.456,65.138 20.919,66.015 20.435,66.74 C21.886,66.029 23.505,64.988 24.719,63.91 L19.88,62.22 Z" id="Shape" stroke-linecap="round" stroke-linejoin="round"></path>
                <path d="M17.961,66.49 L16.298,66.152 C15.189,67.785 10.476,66.65 12.003,63.498 C13.314,60.793 18.823,62.269 17.314,65.027 L17.961,66.49 Z" id="Shape" stroke-linecap="round" stroke-linejoin="round"></path>
                <path d="M53.841,61.328 C54.071,62.814 54.22,64.652 54.687,66.012 C55.13,65.242 55.748,64.303 56.152,63.516 C56.941,64.358 57.453,65.012 58.162,65.95 C58.094,63.891 57.963,62.753 57.816,61.177 L53.841,61.328 Z" id="Shape" stroke-linecap="round" stroke-linejoin="round"></path>
                <path d="M50.9,5.849 C49.609,6.135 51.765,6.933 50.992,5.803" id="Shape" stroke-linecap="round" stroke-linejoin="round"></path>
                <path d="M53.48,5.387 C53.093,5.481 52.615,6.136 53.345,6.215 C53.855,6.27 53.98,5.501 53.388,5.433" id="Shape" stroke-linecap="round" stroke-linejoin="round"></path>
            </g>
            <g id="Crowd" stroke="#000000" stroke-linecap="round" stroke-linejoin="round">
                <path d="M2.139,68.058 C2.25,61.921 4.617,52.185 4.604,46.124 C4.604,46.124 0.617,42.778 0.538,39.222 C0.39,32.66 5.43,27.11 12.489,29.549" id="Shape"></path>
                <path d="M12.489,31.027 C6.945,30.41 4.067,34.382 3.991,39.353 C3.921,43.978 6.305,45.222 8.915,47.48" id="Shape"></path>
                <path d="M5.959,68.058 C6.024,60.728 6.615,54.392 8.916,47.48" id="Shape"></path>
                <path d="M24.812,30.23 C17.242,24.285 5.959,34.929 11.164,43.015 C12.297,44.777 13.625,46.286 15.311,47.509 C12.039,53.464 11.258,61.28 12.238,68.909 C12.434,69.225 12.375,68.686 12.613,68.552" id="Shape"></path>
                <path d="M35.654,29.861 C31.744,27.359 26.673,28.033 23.716,32.431 C21.379,35.906 21.326,40.738 23.574,44.283 C24.415,45.607 25.48,46.674 26.906,47.357" id="Shape"></path>
                <path d="M23.086,68.798 C24.321,61.503 23.732,54.278 26.782,47.357" id="Shape"></path>
                <path d="M47.114,47.111 C51.784,43.978 55.185,34.974 47.114,30.107 C39.256,25.368 31.949,31.693 31.75,39.484 C31.673,42.466 33.002,44.396 35.285,46.433" id="Shape"></path>
                <path d="M33.313,69.908 C34.465,62.322 32.986,53.885 35.284,46.433" id="Shape"></path>
                <path d="M46.806,47.111 C47.938,47.654 48.544,48.33 48.838,49.543 C49.108,50.66 48.541,52.77 49.302,53.703 C50.904,55.668 51.507,50.986 51.33,50.078 C51.204,49.424 50.378,48.099 51.013,47.465 C51.77,46.709 52.783,47.957 53.151,48.653" id="Shape"></path>
                <path d="M46.498,51.238 C46.915,52.978 47.951,57.17 50.46,55.939 C52.175,55.097 52.426,52.785 52.545,51.125 C53.965,50.848 54.625,48.689 53.583,47.666" id="Shape"></path>
                <path d="M48.823,49.06 C49.913,46.714 51.057,43.955 51.616,43.722 C52.111,43.517 54.092,43.951 54.568,44.339 C55.025,44.71 54.25,45.888 54.006,46.499 C53.719,47.216 53.471,47.948 53.152,48.651" id="Shape"></path>
                <path d="M49.178,50.5 C49.813,50.58 50.408,50.924 51.057,50.963" id="Shape"></path>
                <path d="M49.055,56.199 C49.299,60.722 49.56,66.011 50.071,70.152" id="Shape"></path>
                <path d="M146.675,45.632 C145.279,47.792 142.445,51.683 140.161,51.702 C138.233,51.718 136.503,47.233 136.503,47.233 C137.495,45.878 137.064,43.551 136.564,42.78 C136.007,41.919 135.66,44.333 135.216,45.446" id="Shape"></path>
                <path d="M148.523,47.851 C146.306,50.869 143.121,54.234 139.898,53.888 C136.459,53.519 133.492,48.22 134.353,43.968" id="Shape"></path>
                <path d="M139.958,51.546 C141.858,46.593 145.196,42.599 145.196,42.599 C138.296,35.96 140.944,27.765 147.598,25.363 C155.487,22.513 160.475,28.321 160.967,33.619 C161.281,36.994 158.133,42.599 158.133,42.599 C160.906,46.31 164.233,55.859 164.233,65.779" id="Shape"></path>
                <path d="M139.281,53.765 C138.992,58.189 138.566,62.329 138.972,66.777 C139.06,66.828 139.005,66.644 139.097,66.517" id="Shape"></path>
                <path d="M135.093,45.57 C134.386,43.4 132.818,38.215 133.052,37.414 C133.167,37.019 135.556,36.107 137.435,36.367 C138.167,36.469 139.042,41.012 139.042,41.012 C139.042,41.012 140.093,45.424 139.854,45.866 C139.411,46.688 137.934,47.251 136.631,47.481" id="Shape"></path>
                <path d="M174.462,52.318 C174.931,49.339 175.946,45.711 176.864,44" id="Shape"></path>
                <path d="M191.65,62.853 C191.543,57.31 192.019,53.765 188.97,47.48 C187.05,43.525 186.382,43.968 186.382,43.968 C193.314,36.884 188.97,27.146 181.671,27.174 C175.974,27.196 172.349,31.478 172.349,35.497 C172.349,39.794 173.847,41.415 177.326,43.999" id="Shape"></path>
                <path d="M174,54.166 C173.258,57.783 173.072,61.395 173.076,65.07" id="Shape"></path>
                <path d="M168.085,46.957 C168.243,45.975 168.753,44.98 169.661,44.562 C170.44,44.562 169.509,45.564 169.608,47.373 C169.608,47.373 171.674,51.189 172.77,52.125 C174.35,53.471 176.364,51.709 177.51,50.33 C178.33,49.344 178.713,48.537 179.266,47.697" id="Shape"></path>
                <path d="M167.623,44.832 C165.978,47.584 168.363,48.361 168.363,48.361 C170.949,53.242 173.699,55.132 176.865,52.965 C178.295,51.985 179.267,50.84 180.33,49.602" id="Shape"></path>
                <path d="M168.115,45.941 C167.662,43.871 166.636,39.964 167.045,39.041 C167.316,38.426 170.211,38.072 170.703,38.453 C171.123,38.777 172.336,45.115 172.349,46.742 C172.359,47.851 171.492,47.597 170.025,47.851" id="Shape"></path>
                <path d="M175.201,48.343 C172.722,47.919 174.984,44.523 172.213,42.921 C171.707,42.63 170.734,42.089 170.516,42.437 C170.016,43.224 171.678,44.335 172.35,44.832" id="Shape" fill="#FFFFFF" fill-rule="nonzero"></path>
                <path d="M172.089,47.603 C172.814,48.429 173.468,49.818 174.523,50.253" id="Shape"></path>
                <path d="M160.552,29.537 C163.509,25.332 171.411,25.98 172.982,30.877" id="Shape"></path>
                <path d="M170.421,26.753 C172.812,25.285 174.523,25.648 176.605,27.174" id="Shape"></path>
                <path d="M187.861,28.474 C195.521,26.323 200.947,33.447 197.638,40.527 C197.115,41.646 196.374,42.646 195.519,43.533 C200.103,49.101 200.451,56.64 200.798,63.5" id="Shape"></path>
                <path d="M190.865,44.74 C190.25,45.484 189.414,46.176 188.74,46.865" id="Shape"></path>
                <path d="M192.482,46.679 C191.666,47.413 190.496,48.343 189.755,48.759" id="Shape"></path>
                <path d="M135.402,43.968 C135.097,42.406 133.99,38.816 134.24,38.331 C134.508,37.808 136.818,37.438 137.302,37.569 C137.743,38.762 138.579,42.577 138.966,45.069 C138.413,45.268 138.005,45.352 137.341,45.569" id="Shape" stroke-width="0.8"></path>
                <path d="M168.917,44.863 C168.714,43.728 167.714,40.181 167.962,39.933 C168.208,39.685 170.073,39.398 170.271,39.564 C170.474,39.732 170.646,41.548 170.826,42.152" id="Shape" stroke-width="0.8"></path>
                <path d="M169.933,46.896 C170.482,46.837 171.265,46.685 171.408,46.474 C171.543,46.279 171.17,44.402 171.103,43.849" id="Shape" stroke-width="0.8"></path>
                <path d="M52.636,47.666 C52.914,47.109 53.851,45.152 53.744,44.887 C53.623,44.59 52.327,44.498 52.041,44.467 C51.832,44.444 50.949,46.219 50.949,46.219 C50.949,46.219 49.632,49.178 49.616,49.43 C49.596,49.742 50.395,50.008 51.057,50.008" id="Shape" stroke-width="0.8"></path>
                <path d="M1.03,12.24 C0.896,15.197 2.613,17.189 3.608,19.743 C4.393,21.759 4.053,24.928 5.465,26.409" id="Shape"></path>
                <path d="M16.432,3.984 C15.577,6.897 18.52,6.82 19.184,8.805 C19.792,10.624 18.247,12.652 19.02,14.827" id="Shape"></path>
                <path d="M34.916,17.539 C32.926,20.803 36.141,20.268 36.817,22.266 C37.481,24.229 34.307,26.074 36.024,28.26" id="Shape"></path>
                <path d="M46.128,6.818 C44.495,10.959 48.01,13.321 47.856,17.359 C47.752,20.083 46.809,23.218 46.744,25.795" id="Shape"></path>
                <path d="M151.451,22.467 C151.576,21.66 152.808,20.26 152.49,19.28 C151.857,17.338 148.738,17.816 150.988,14.888" id="Shape"></path>
                <path d="M170.488,0.288 C172.011,3.551 168.506,6.315 169.547,9.201 C170.203,11.021 171.768,11.123 171.684,13.465 C171.614,15.422 170.471,16.899 169.868,18.692 C169.362,20.19 169.501,21.733 169.194,23.208" id="Shape"></path>
                <path d="M182.687,10.546 C181.72,13.343 183.378,14.914 183.421,17.488 C183.458,19.656 181.573,21.196 181.761,23.484" id="Shape"></path>
                <path d="M194.521,17.898 C192.482,19.771 195.955,21.31 195.607,23.207 C195.363,24.545 190.865,23.484 192.205,25.978" id="Shape"></path>
            </g>
        </g>
        <g id="Like" transform="translate(0.000000, 12.000000)">
            <circle id="Oval" stroke="#DFDDDD" stroke-width="0.5" fill="#FFFFFF" cx="9.96" cy="9.96" r="9.24"></circle>
            <g id="iconmonstr-facebook-like-1" stroke-width="1" transform="translate(4.160000, 4.160000)" fill="#707ACA">
                <path d="M8.91072,3.36695652 L7.98,3.36695652 L7.98,2.63043478 L8.4,1.32784348 L8.4,0 L6.19668,0 C5.29032,2.68051826 4.41084,4.2053287 3.36,4.20869565 L3.36,3.78782609 L0,3.78782609 L0,9.25913043 L3.36,9.25913043 L3.36,8.83826087 L4.2,8.83826087 L5.25294,9.68 L8.80656,9.68 L10.08,8.44853565 L10.08,4.12999304 L8.91072,3.36695652 Z M9.24,8.09121739 L8.46762,8.83826087 L5.54694,8.83826087 L4.494,7.99652174 L3.36,7.99652174 L3.36,5.05043478 C4.94802,5.05043478 6.18534,2.66242087 6.79938,0.84173913 L7.56,0.84173913 L7.56,1.17464696 L7.14,2.47723826 L7.14,4.20869565 L8.66166,4.20869565 L9.24,4.58621565 L9.24,8.09121739 Z" id="Shape" fill-rule="nonzero"></path>
            </g>
        </g>
        <g id="Like" transform="translate(52.000000, 7.000000)">
            <circle id="Oval" stroke="#DFDDDD" stroke-width="0.5" fill="#FFFFFF" cx="9.96" cy="9.96" r="9.24"></circle>
            <g id="iconmonstr-facebook-like-1" stroke-width="1" transform="translate(4.160000, 4.160000)" fill="#707ACA">
                <path d="M8.91072,3.36695652 L7.98,3.36695652 L7.98,2.63043478 L8.4,1.32784348 L8.4,0 L6.19668,0 C5.29032,2.68051826 4.41084,4.2053287 3.36,4.20869565 L3.36,3.78782609 L0,3.78782609 L0,9.25913043 L3.36,9.25913043 L3.36,8.83826087 L4.2,8.83826087 L5.25294,9.68 L8.80656,9.68 L10.08,8.44853565 L10.08,4.12999304 L8.91072,3.36695652 Z M9.24,8.09121739 L8.46762,8.83826087 L5.54694,8.83826087 L4.494,7.99652174 L3.36,7.99652174 L3.36,5.05043478 C4.94802,5.05043478 6.18534,2.66242087 6.79938,0.84173913 L7.56,0.84173913 L7.56,1.17464696 L7.14,2.47723826 L7.14,4.20869565 L8.66166,4.20869565 L9.24,4.58621565 L9.24,8.09121739 Z" id="Shape" fill-rule="nonzero"></path>
            </g>
        </g>
        <g id="Like" transform="translate(170.000000, 0.000000)">
            <circle id="Oval" stroke="#DFDDDD" stroke-width="0.5" fill="#FFFFFF" cx="9.96" cy="9.96" r="9.24"></circle>
            <g id="iconmonstr-facebook-like-1" stroke-width="1" transform="translate(4.160000, 4.160000)" fill="#707ACA">
                <path d="M8.91072,3.36695652 L7.98,3.36695652 L7.98,2.63043478 L8.4,1.32784348 L8.4,0 L6.19668,0 C5.29032,2.68051826 4.41084,4.2053287 3.36,4.20869565 L3.36,3.78782609 L0,3.78782609 L0,9.25913043 L3.36,9.25913043 L3.36,8.83826087 L4.2,8.83826087 L5.25294,9.68 L8.80656,9.68 L10.08,8.44853565 L10.08,4.12999304 L8.91072,3.36695652 Z M9.24,8.09121739 L8.46762,8.83826087 L5.54694,8.83826087 L4.494,7.99652174 L3.36,7.99652174 L3.36,5.05043478 C4.94802,5.05043478 6.18534,2.66242087 6.79938,0.84173913 L7.56,0.84173913 L7.56,1.17464696 L7.14,2.47723826 L7.14,4.20869565 L8.66166,4.20869565 L9.24,4.58621565 L9.24,8.09121739 Z" id="Shape" fill-rule="nonzero"></path>
            </g>
        </g>
        <g id="Like" transform="translate(31.000000, 16.000000)">
            <circle id="Oval" stroke="#DFDDDD" stroke-width="0.5" fill="#FFFFFF" cx="9.96" cy="9.96" r="9.24"></circle>
            <g id="iconmonstr-facebook-like-1" stroke-width="1" transform="translate(4.160000, 4.160000)" fill="#707ACA">
                <path d="M8.91072,3.36695652 L7.98,3.36695652 L7.98,2.63043478 L8.4,1.32784348 L8.4,0 L6.19668,0 C5.29032,2.68051826 4.41084,4.2053287 3.36,4.20869565 L3.36,3.78782609 L0,3.78782609 L0,9.25913043 L3.36,9.25913043 L3.36,8.83826087 L4.2,8.83826087 L5.25294,9.68 L8.80656,9.68 L10.08,8.44853565 L10.08,4.12999304 L8.91072,3.36695652 Z M9.24,8.09121739 L8.46762,8.83826087 L5.54694,8.83826087 L4.494,7.99652174 L3.36,7.99652174 L3.36,5.05043478 C4.94802,5.05043478 6.18534,2.66242087 6.79938,0.84173913 L7.56,0.84173913 L7.56,1.17464696 L7.14,2.47723826 L7.14,4.20869565 L8.66166,4.20869565 L9.24,4.58621565 L9.24,8.09121739 Z" id="Shape" fill-rule="nonzero"></path>
            </g>
        </g>
        <g id="Love" transform="translate(16.000000, 2.000000)">
            <circle id="Oval" stroke="#DCDADA" stroke-width="0.5" fill="#FFFFFF" cx="10.0403226" cy="10.0403226" r="9.31451613"></circle>
            <g id="hearticon" stroke-width="1" transform="translate(3.870968, 4.435484)" fill="#EB7EB6">
                <path d="M6.12894828,11.2096774 C6.61240755,10.7264092 9.37219509,7.96541959 11.097522,6.2405824 C12.6432678,4.69493316 12.6102935,2.44209209 11.2049029,1.04449965 C9.79951229,-0.353460489 7.52698403,-0.34733231 6.12894828,1.05798164 C4.73103511,-0.34733231 2.45850685,-0.353460489 1.05311624,1.04449965 C-0.352274366,2.44209209 -0.385126061,4.69493316 1.16049716,6.2405824 C2.88570147,7.96541959 5.64585675,10.7264092 6.12894828,11.2096774 Z" id="Shape" fill-rule="nonzero"></path>
            </g>
        </g>
        <g id="Love" transform="translate(150.000000, 12.000000)">
            <circle id="Oval" stroke="#DCDADA" stroke-width="0.5" fill="#FFFFFF" cx="10.0403226" cy="10.0403226" r="9.31451613"></circle>
            <g id="hearticon" stroke-width="1" transform="translate(3.870968, 4.435484)" fill="#EB7EB6">
                <path d="M6.12894828,11.2096774 C6.61240755,10.7264092 9.37219509,7.96541959 11.097522,6.2405824 C12.6432678,4.69493316 12.6102935,2.44209209 11.2049029,1.04449965 C9.79951229,-0.353460489 7.52698403,-0.34733231 6.12894828,1.05798164 C4.73103511,-0.34733231 2.45850685,-0.353460489 1.05311624,1.04449965 C-0.352274366,2.44209209 -0.385126061,4.69493316 1.16049716,6.2405824 C2.88570147,7.96541959 5.64585675,10.7264092 6.12894828,11.2096774 Z" id="Shape" fill-rule="nonzero"></path>
            </g>
        </g>
        <g id="Love" transform="translate(200.000000, 17.000000)">
            <circle id="Oval" stroke="#DCDADA" stroke-width="0.5" fill="#FFFFFF" cx="10.0403226" cy="10.0403226" r="9.31451613"></circle>
            <g id="hearticon" stroke-width="1" transform="translate(3.870968, 4.435484)" fill="#EB7EB6">
                <path d="M6.12894828,11.2096774 C6.61240755,10.7264092 9.37219509,7.96541959 11.097522,6.2405824 C12.6432678,4.69493316 12.6102935,2.44209209 11.2049029,1.04449965 C9.79951229,-0.353460489 7.52698403,-0.34733231 6.12894828,1.05798164 C4.73103511,-0.34733231 2.45850685,-0.353460489 1.05311624,1.04449965 C-0.352274366,2.44209209 -0.385126061,4.69493316 1.16049716,6.2405824 C2.88570147,7.96541959 5.64585675,10.7264092 6.12894828,11.2096774 Z" id="Shape" fill-rule="nonzero"></path>
            </g>
        </g>
        <g id="Share" transform="translate(183.000000, 13.000000)">
            <circle id="Oval" stroke="#DCDADA" fill="#FFFFFF" cx="8.53427419" cy="8.53427419" r="7.91733871"></circle>
            <g id="Group" transform="translate(4.112903, 3.975806)" fill="#000000">
                <path d="M6.01840205,3.4 C3.03628756,3.4 0.560751102,5.60553239 0.0832128744,8.5 C0.0284858955,8.16828736 0,7.82752645 0,7.48 C0,4.10001733 2.69453038,1.36 6.01840205,1.36 L6.01840205,-5.68434189e-14 L9.73387097,2.40125 L6.01840205,4.8025 L6.01840205,3.4 Z" id="Combined-Shape"></path>
            </g>
        </g>
    </g>
</svg>