<?xml version="1.0" encoding="utf-8"?>
<!-- Generator: Adobe Illustrator 16.0.0, SVG Export Plug-In . SVG Version: 6.00 Build 0)  -->
<!DOCTYPE svg PUBLIC "-//W3C//DTD SVG 1.1//EN" "http://www.w3.org/Graphics/SVG/1.1/DTD/svg11.dtd">
<svg version="1.1" id="Layer_3" xmlns="http://www.w3.org/2000/svg" xmlns:xlink="http://www.w3.org/1999/xlink" x="0px" y="0px"
	 width="253.174px" height="128.345px" viewBox="0 0 253.174 128.345" enable-background="new 0 0 253.174 128.345"
	 xml:space="preserve">
<polygon fill="#D72D27" points="102.173,84.375 100.534,87.26 100.772,90.557 104.847,90.69 106.485,86.815 104.847,83.731 "/>
<polygon fill="#D72D27" points="100.534,92.379 92.808,106.204 100.325,108.608 111.904,108.116 105.33,92.604 103.837,93.465 "/>
<g id="Girl_3_">
	<path fill="none" stroke="#000000" stroke-linecap="round" stroke-linejoin="round" stroke-miterlimit="10" d="M102.604,53.159
		c-7.764,0.616-12.938,6.653-14.012,12.099c-1.329,6.74,2.891,14.018,9.207,15.625c13.554,3.451,24.028-9.363,18.771-19.867
		C114.696,57.277,110.367,52.542,102.604,53.159z"/>
	<path fill="none" stroke="#000000" stroke-linecap="round" stroke-linejoin="round" stroke-miterlimit="10" d="M88.588,69.331
		c6.675-0.066,15.643-9.097,15.249-16.08"/>
	<path fill="none" stroke="#000000" stroke-linecap="round" stroke-linejoin="round" stroke-miterlimit="10" d="M88.588,64.618
		c3.027,1.262,8.577-2.795,10.716-4.821c1.795-1.7,3.326-3.916,3.886-6.361"/>
	<path fill="none" stroke="#000000" stroke-linecap="round" stroke-linejoin="round" stroke-miterlimit="10" d="M89.789,61.661
		c3.729,0.452,11.474-4.611,12.384-8.41"/>
	<path fill="none" stroke="#000000" stroke-linecap="round" stroke-linejoin="round" stroke-miterlimit="10" d="M103.837,53.436
		c1.103,6.395,6.932,11.629,13.584,10.721"/>
	<path fill="none" stroke="#000000" stroke-linecap="round" stroke-linejoin="round" stroke-miterlimit="10" d="M104.206,53.714
		c3.352,4.633,8.399,7.72,13.4,9.98"/>
	<path fill="none" stroke="#000000" stroke-linecap="round" stroke-linejoin="round" stroke-miterlimit="10" d="M104.804,53.436
		c1.643,2.114,4.986,2.696,7.584,4.482c1.879,1.292,3.938,2.99,4.938,4.944"/>
	<path fill="none" stroke="#000000" stroke-linecap="round" stroke-linejoin="round" stroke-miterlimit="10" d="M92.93,68.499
		c-0.005,6.102,11.329,5.496,9.509-2.477c-0.266-1.166-1.002-2.557-2.484-3.16"/>
	<path fill="none" stroke="#000000" stroke-linecap="round" stroke-linejoin="round" stroke-miterlimit="10" d="M109.011,62.215
		c-3.441,2.446-5.162,7.614-0.438,9.995c3.514,1.77,6.775-1.242,6.791-4.812c0.006-1.268-0.184-2.289-1.033-3.252"/>
	<path fill="none" stroke="#000000" stroke-linecap="round" stroke-linejoin="round" stroke-miterlimit="10" d="M100.325,67.76
		c0.108,0.699,0.174,1.477,0.184,2.219"/>
	<path fill="none" stroke="#000000" stroke-linecap="round" stroke-linejoin="round" stroke-miterlimit="10" d="M112.8,67.483
		c0.089,0.672,0.089,1.354,0,2.033"/>
	<path fill="none" stroke="#000000" stroke-linecap="round" stroke-linejoin="round" stroke-miterlimit="10" d="M108.676,80.161"/>
	<path fill="none" stroke="#000000" stroke-linecap="round" stroke-linejoin="round" stroke-miterlimit="10" d="M100.325,80.883"/>
	<path fill="none" stroke="#000000" stroke-linecap="round" stroke-linejoin="round" stroke-miterlimit="10" d="M88.588,64.618
		c0.246-7.022,6.5-13.554,15.261-13.554c10.585,0,14.157,9.242,14.157,13.554"/>
	<path fill="none" stroke="#000000" stroke-linecap="round" stroke-linejoin="round" stroke-miterlimit="10" d="M117.325,60.815
		c-0.736-7.964-7.508-11.347-15.152-11.01c-8.54,0.376-13.371,7.159-14.317,11.102c-0.912,3.802-0.895,8.392-0.692,12.152
		c0.237,4.398-1.695,5.969-3.659,7.939"/>
	<path fill="none" stroke="#000000" stroke-linecap="round" stroke-linejoin="round" stroke-miterlimit="10" d="M89.265,72.764
		c0.002,4.906-2.457,6.75-3.727,8.305"/>
	<path fill="none" stroke="#000000" stroke-linecap="round" stroke-linejoin="round" stroke-miterlimit="10" d="M90.467,75.401
		c0.044,1.379-0.193,2.508-0.9,3.701c-0.388,0.654-0.979,1.318-1.503,2.15"/>
	<path fill="none" stroke="#000000" stroke-linecap="round" stroke-linejoin="round" stroke-miterlimit="10" d="M93.886,79.219
		c-0.28,1.201-0.539,1.779-1.078,2.402"/>
	<path fill="none" stroke="#000000" stroke-linecap="round" stroke-linejoin="round" stroke-miterlimit="10" d="M95.647,80.083
		c0.004,0.627-0.772,1.637-0.683,1.602"/>
	<path fill="none" stroke="#000000" stroke-linecap="round" stroke-linejoin="round" stroke-miterlimit="10" d="M111.229,78.85
		c0.033,0.695,0.92,1.891,1.455,2.148"/>
	<path fill="none" stroke="#000000" stroke-linecap="round" stroke-linejoin="round" stroke-miterlimit="10" d="M113.077,77.458
		c0.012,1.113,0.742,2.57,1.664,2.688"/>
	<path fill="none" stroke="#000000" stroke-linecap="round" stroke-linejoin="round" stroke-miterlimit="10" d="M115.419,74.907
		c0.154,2.342,1.294,4.605,4.25,5.176"/>
	<path fill="none" stroke="#000000" stroke-linecap="round" stroke-linejoin="round" stroke-miterlimit="10" d="M117.945,64.68
		c0.394,3.619-0.312,6.967-0.128,9.557c0.192,2.719,1.791,4.307,4.255,5.168"/>
	<path fill="none" stroke="#000000" stroke-linecap="round" stroke-linejoin="round" stroke-miterlimit="10" d="M110.023,102.092
		c-0.485-1.223-1.784-4.162-2.853-6.848c-0.312-0.789-1.502-2.09-1.717-3.826c0.643-1.859,0.996-2.84,1.247-4.135
		c0.292-1.52,0.347-3.791-2.495-3.791c-0.514,0.9-1.569,0.74-2.126-0.16c0,0-3.269,0-2.957,2.414
		c0.151,1.172,0.499,1.734,0.813,2.859c0.609,2.182,0.789,2.766,0.789,2.766c-1.1,1.98-3.27,5.625-4.237,7.162
		c-1.311,2.086-2.733,4.918-3.681,7.67c2.839,1.639,4.494,2.352,7.609,2.727c2.025,0.246,5.602-0.221,7.67-0.461
		c0.844-0.1,3.08-0.064,3.928-0.092C112.015,108.377,110.91,104.323,110.023,102.092z"/>
	<path fill="none" stroke="#000000" stroke-linecap="round" stroke-linejoin="round" stroke-miterlimit="10" d="M102.034,81.485
		c0.086,0.6,0.047,1.232,0.046,1.848"/>
	<path fill="none" stroke="#000000" stroke-linecap="round" stroke-linejoin="round" stroke-miterlimit="10" d="M104.113,81.438
		c0.083,0.525,0.051,1.404,0.093,1.895"/>
	<path fill="none" stroke="#000000" stroke-linecap="round" stroke-linejoin="round" stroke-miterlimit="10" d="M96.936,108.116
		c-0.082,1.639-0.331,3.314-0.493,4.928"/>
	<path fill="none" stroke="#000000" stroke-linecap="round" stroke-linejoin="round" stroke-miterlimit="10" d="M99.276,108.854
		c-0.221,1.459-0.732,2.889-0.985,4.312"/>
	<path fill="none" stroke="#000000" stroke-linecap="round" stroke-linejoin="round" stroke-miterlimit="10" d="M105.932,108.608
		c0.381,1.461,0.728,2.979,1.108,4.436"/>
	<path fill="none" stroke="#000000" stroke-linecap="round" stroke-linejoin="round" stroke-miterlimit="10" d="M108.149,108.731
		c0.168,1.113,0.722,3.672,0.861,4.064"/>
	<path fill="#FFFFFF" stroke="#000000" stroke-miterlimit="10" d="M100.494,86.811c0.058,0.256-0.054,0.865-0.054,0.865
		c-0.338,1.201-1.627,2.482-2.657,1.477c-1.117-1.09,2.177-4.803,2.892-5.936c0.634-1.006,0.988-1.723,1.498-2.797
		c-3.072-2.26,1.309-8.795,2.58-2.975c0.425,1.941-0.64,3.438-2.342,6.164C101.829,84.54,100.494,86.811,100.494,86.811z"/>
	<path fill="#FFFFFF" stroke="#000000" stroke-linecap="round" stroke-linejoin="round" stroke-miterlimit="10" d="M108.318,86.782
		c-1.246-1.51-3.521-6.773-3.486-8.707c0.017-0.922,0.335-2.75,1.562-2.83c1.365-0.09,1.643,2.125,1.566,2.99
		c-0.09,1.012-0.896,1.689-0.692,2.451c0,0,1.901,4.211,2.593,5.508c1.316,2.473,0.414,3.836-1.342,2.52
		c-1.411-1.059-3.097-3.156-3.097-5.033C106.323,83.333,108.318,86.782,108.318,86.782z"/>
	<path fill="none" stroke="#000000" stroke-linecap="round" stroke-linejoin="round" stroke-miterlimit="10" d="M100.534,86.741
		c-0.313,0.443-0.496,0.594-0.812,1.039"/>
	<path fill="none" stroke="#000000" stroke-linecap="round" stroke-linejoin="round" stroke-miterlimit="10" d="M105.47,90.631
		c-1.231,0.615-4.023,0.652-5.037-0.324"/>
	<path fill="none" stroke="#000000" stroke-linecap="round" stroke-linejoin="round" stroke-miterlimit="10" d="M100.386,91.879
		c0.982,0.949,4.127,1.605,4.944,0.139"/>
</g>
<g id="Merchant_4_">
	<path fill="none" stroke="#000000" stroke-linecap="round" stroke-linejoin="round" stroke-miterlimit="10" d="M142.701,58.716
		c0.91,7.513-0.736,15.921,7.023,19.962c7.189,3.742,15.277,2.143,19.531-4.867c2.281-3.762,3.016-7.867,2.918-12.163"/>
	<path fill="none" stroke="#000000" stroke-linecap="round" stroke-linejoin="round" stroke-miterlimit="10" d="M143.318,58.716
		c-2.28,0-13.462,0-6.231-2.896c6.397-2.561,28.995-5.544,32.091-3.004c5.266,4.322,2.996,8.833,2.996,8.833
		c-2.672,0.528-7.873,0.479-10.586,0.389c-4.062-0.135-11.74,0.006-12.096-0.974s5.785-2.506,7.637-2.841
		C157.128,58.223,146.916,58.716,143.318,58.716z"/>
	<path fill="none" stroke="#000000" stroke-linecap="round" stroke-linejoin="round" stroke-miterlimit="10" d="M140.668,64.383
		c0.078,3.154,1.302,6.547,4.853,7.098c3.201,0.496,5.6-1.975,6.066-4.951c0.113-0.727,0.104-1.475,0.17-2.207
		C148.509,64.323,144.179,64.323,140.668,64.383z"/>
	<path fill="none" stroke="#000000" stroke-linecap="round" stroke-linejoin="round" stroke-miterlimit="10" d="M154.9,64.383
		c0.078,3.154,2.346,6.785,5.914,7.215c4.561,0.549,7.023-2.285,7.578-4.256c0.346-1.223,0.426-2.287,0.494-3.02
		C165.636,64.323,158.412,64.323,154.9,64.383z"/>
	<path fill="none" stroke="#000000" stroke-linecap="round" stroke-linejoin="round" stroke-miterlimit="10" d="M151.82,65.493
		c1.229-0.846,1.99-0.369,3.08,0.309"/>
	<path fill="none" stroke="#000000" stroke-linecap="round" stroke-linejoin="round" stroke-miterlimit="10" d="M150.615,76.002
		c0.955,1.914,3.979,3.438,5.812-0.125L150.615,76.002z"/>
	<path fill="none" stroke="#000000" stroke-linecap="round" stroke-linejoin="round" stroke-miterlimit="10" d="M144.611,60.814
		c0.562-0.323,1.604-0.406,2.094,0.062"/>
	<path fill="none" stroke="#000000" stroke-linecap="round" stroke-linejoin="round" stroke-miterlimit="10" d="M144.919,64.508
		c-0.029,0.76-0.217,1.482,0.285,1.971c0.369-0.43,0.27-1.186,0.27-1.91"/>
	<path fill="none" stroke="#000000" stroke-linecap="round" stroke-linejoin="round" stroke-miterlimit="10" d="M159.335,64.754
		c0.041,0.543,0,1.508,0.432,1.725c0.309-0.371,0.131-1.289,0.123-1.848"/>
	<path fill="none" stroke="#000000" stroke-linecap="round" stroke-linejoin="round" stroke-miterlimit="10" d="M156.873,80.709
		c0,0.809-0.156,1.975,0.184,2.59"/>
	<path fill="none" stroke="#000000" stroke-linecap="round" stroke-linejoin="round" stroke-miterlimit="10" d="M158.597,80.709
		c0.02,0.848-0.066,1.912,0.061,2.711"/>
	<path fill="none" stroke="#000000" stroke-linecap="round" stroke-linejoin="round" stroke-miterlimit="10" d="M163.279,79.293
		c0,1.406-0.152,2.951,0.123,4.312"/>
	<path fill="none" stroke="#000000" stroke-linecap="round" stroke-linejoin="round" stroke-miterlimit="10" d="M165.498,78.124
		c-0.023,0.922-0.52,5.064-0.061,5.236"/>
	<path fill="none" stroke="#000000" stroke-linecap="round" stroke-linejoin="round" stroke-miterlimit="10" d="M163.224,83.479
		c0.812,0.127,1.592,0.051,2.393,0.146c-0.088,1.783-2.443,1.578-2.27-0.133"/>
	<path fill="none" stroke="#000000" stroke-linecap="round" stroke-linejoin="round" stroke-miterlimit="10" d="M156.63,83.487
		c0.82,0.057,1.592-0.084,2.396-0.061c0.066,1.783-2.299,1.781-2.271,0.064"/>
	<path fill="none" stroke="#000000" stroke-linecap="round" stroke-linejoin="round" stroke-miterlimit="10" d="M159.212,83.483
		c1.139,0.16,2.598,0.084,3.758,0.123"/>
	<path fill="none" stroke="#000000" stroke-linecap="round" stroke-linejoin="round" stroke-miterlimit="10" d="M156.564,83.483
		c0.332,7.797,0.389,15.621,1.012,23.402c0.084,1.055,0.082,6.301,0.254,7.344"/>
	<path fill="none" stroke="#000000" stroke-linecap="round" stroke-linejoin="round" stroke-miterlimit="10" d="M166.509,84.903
		c0,2.498,0.074,5.004,0.084,7.508c0.012,3.547,0.191,14.604,0.191,14.604c-2.062,0-6.232-0.119-9.113-0.119"/>
	<path fill="none" stroke="#000000" stroke-linecap="round" stroke-linejoin="round" stroke-miterlimit="10" d="M154.962,80.649
		c-0.23,1.109-0.539,2.482-0.309,3.574"/>
	<path fill="none" stroke="#000000" stroke-linecap="round" stroke-linejoin="round" stroke-miterlimit="10" d="M156.626,84.223
		c-0.693-0.025-1.346,0.051-2.033,0.061"/>
	<path fill="none" stroke="#000000" stroke-linecap="round" stroke-linejoin="round" stroke-miterlimit="10" d="M155.177,84.375
		c0.424,6.045-0.781,13.244,1.018,19.131"/>
	<path fill="none" stroke="#000000" stroke-linecap="round" stroke-linejoin="round" stroke-miterlimit="10" d="M157.302,107.295
		c-2.049-0.162-2.736-2.771-1.107-3.881"/>
	<path fill="none" stroke="#000000" stroke-linecap="round" stroke-linejoin="round" stroke-miterlimit="10" d="M158.042,89.274
		c1.447-0.146,4.035,0.34,5.268,0"/>
	<path fill="none" stroke="#000000" stroke-linecap="round" stroke-linejoin="round" stroke-miterlimit="10" d="M163.31,89.274
		c0.232,1.223,0.32,2.955-0.086,4.561c-0.9,0.707-3.395,0.676-4.637,0.107c-0.406-0.334-0.537-3.473-0.545-4.668"/>
	<path fill="none" stroke="#000000" stroke-linecap="round" stroke-linejoin="round" stroke-miterlimit="10" d="M169.595,81.143
		c0.721,7.072,0.449,18.189,0.541,25.318c0.016,1.162-0.26,6.396-0.262,7.768"/>
	<path fill="none" stroke="#000000" stroke-linecap="round" stroke-linejoin="round" stroke-miterlimit="10" d="M162.847,107.018
		c0.082,1.02-0.055,6.658,0,7.211"/>
	<path fill="none" stroke="#000000" stroke-linecap="round" stroke-linejoin="round" stroke-miterlimit="10" d="M166.785,95.137
		c0.367,0.055,2.971,0.012,3.363-0.041"/>
	<path fill="none" stroke="#000000" stroke-linecap="round" stroke-linejoin="round" stroke-miterlimit="10" d="M166.785,97.196
		c0.352,0.012,2.924-0.004,3.34-0.141"/>
	<path fill="#FFFFFF" stroke="#000000" stroke-miterlimit="10" d="M158.591,81.452c-3.346,0.531-3.688,0.615-7.084,0.615
		c-1.664,0-5.395-0.283-5.395-0.283c-0.939-1.043-1.926-1.311-3.127-1.199c-1.706,0.156-3.409,2.141-2.878,3.514
		c0.736,1.9,5.065,1.852,6.065-0.418c5.088,0.418,8.48,0.543,13.342-0.01"/>
	<path fill="#FFFFFF" stroke="#000000" stroke-miterlimit="10" d="M158.658,81.057c2.184-0.832,8.316-3.795,10.229-1.764
		c2.129,2.264-2.371,5.371-4.104,6.229c-1.275,0.633-2.488,1.025-4.008,1.783C159.757,85.42,158.658,81.057,158.658,81.057z"/>
	<path fill="none" stroke="#000000" stroke-width="0.8" stroke-linecap="round" stroke-linejoin="round" stroke-miterlimit="10" d="
		M131.946,83.469c0.012-0.561-0.006-1.531,0.004-2.256c3.244-0.053,6.65-0.27,9.884-0.516"/>
	<path fill="none" stroke="#000000" stroke-width="0.8" stroke-linecap="round" stroke-linejoin="round" stroke-miterlimit="10" d="
		M133.194,83.053c-0.09-0.266-0.059-0.633-0.043-0.914c2.477-0.367,5.066-0.242,7.527-0.609"/>
	<path fill="none" stroke="#000000" stroke-width="0.8" stroke-linecap="round" stroke-linejoin="round" stroke-miterlimit="10" d="
		M131.993,86.334c-0.656-0.99-0.986-2.033-1.064-2.473c0,0,1.285-0.24,2.312-0.445c2.303-0.459,4.609-0.852,6.93-1.193"/>
	<path fill="none" stroke="#000000" stroke-width="0.8" stroke-linecap="round" stroke-linejoin="round" stroke-miterlimit="10" d="
		M132.917,85.733c-0.439-0.531-0.787-1.357-0.787-1.357c1.338-0.312,6.344-1.115,7.695-1.367"/>
	<path fill="none" stroke="#000000" stroke-width="0.8" stroke-linecap="round" stroke-linejoin="round" stroke-miterlimit="10" d="
		M139.616,83.655c-3.385,1.031-5.617,1.883-8.418,3.279c0.826,1.492,1.25,2.828,2.316,4.166c1.941-1.301,3.746-2.469,4.916-3.24
		c1.117-0.736,3.169-1.646,4.271-2.402"/>
	<path fill="none" stroke="#000000" stroke-width="0.8" stroke-linecap="round" stroke-linejoin="round" stroke-miterlimit="10" d="
		M140.01,84.375c-2.168,0.787-4.783,1.357-7.055,2.879c0.365,0.713,0.902,1.387,1.391,1.998c2.078-1.496,4.992-2.918,6.887-3.889"/>
	<path fill="none" stroke="#000000" stroke-width="0.8" stroke-linecap="round" stroke-linejoin="round" stroke-miterlimit="10" d="
		M136.127,84.625c-0.479-0.764,1.189-1.289,1.455-0.508"/>
	<path fill="none" stroke="#000000" stroke-width="0.8" stroke-linecap="round" stroke-linejoin="round" stroke-miterlimit="10" d="
		M138.506,85.665c-0.309-0.449-1.189-0.234-1.115,0.385c0.105,0.867,1.564,0.428,1.162-0.408"/>
</g>
<text transform="matrix(0.9617 -0.2741 0.2741 0.9617 49.2046 54.4668)" font-family="'Arabica-Italic'" font-size="15">เอ้า! มาไง?</text>
<text transform="matrix(0.9881 0.1538 -0.1538 0.9881 170.563 42.4746)" font-family="'Arabica-Italic'" font-size="15">อ่ะ...ให้</text>
<path fill="none" stroke="#000000" stroke-linecap="round" stroke-linejoin="round" stroke-miterlimit="10" d="M81.58,51.51
	c1.297,1.479,2.358,3.517,3.204,5.176"/>
<path fill="none" stroke="#000000" stroke-linecap="round" stroke-linejoin="round" stroke-miterlimit="10" d="M176.458,54.467
	c1.346-1.787,2.951-3.531,4.436-5.174"/>
</svg>
