<?xml version="1.0" encoding="utf-8"?>
<!-- Generator: Adobe Illustrator 16.0.0, SVG Export Plug-In . SVG Version: 6.00 Build 0)  -->
<!DOCTYPE svg PUBLIC "-//W3C//DTD SVG 1.1//EN" "http://www.w3.org/Graphics/SVG/1.1/DTD/svg11.dtd">
<svg version="1.1" id="Layer_2" xmlns="http://www.w3.org/2000/svg" xmlns:xlink="http://www.w3.org/1999/xlink" x="0px" y="0px"
	 width="253.174px" height="158.853px" viewBox="0 0 253.174 158.853" enable-background="new 0 0 253.174 158.853"
	 xml:space="preserve">
<g>
	<g>
		<g>
			<path stroke="#000000" stroke-width="0.3" stroke-miterlimit="10" d="M110.496,30.937c-0.338,0.634-0.608,1.255-0.814,1.867
				c-0.148,0.436-0.249,0.84-0.302,1.212c-0.052,0.373-0.045,0.687,0.02,0.938c0.066,0.254,0.199,0.433,0.396,0.54
				c0.197,0.107,0.486,0.108,0.867,0.004c0.176-0.048,0.392-0.13,0.65-0.244c0.384-0.354,0.722-0.779,1.014-1.275
				c0.291-0.497,0.562-1.057,0.814-1.682c0.057-0.176,0.123-0.347,0.195-0.514c0.07-0.165,0.141-0.353,0.205-0.56
				c0.148-0.435,0.263-0.834,0.34-1.199c0.081-0.364,0.087-0.596,0.021-0.696c-0.055-0.087-0.173-0.122-0.359-0.101
				c-0.185,0.021-0.372,0.039-0.563,0.053c-0.19,0.015-0.352-0.006-0.479-0.068c-0.129-0.061-0.162-0.224-0.101-0.489
				c0.083-0.227,0.221-0.498,0.419-0.813c0.197-0.316,0.375-0.612,0.536-0.889c0.104-0.189,0.202-0.357,0.3-0.509
				c0.097-0.15,0.192-0.308,0.283-0.471c0.094-0.164,0.195-0.346,0.309-0.553c0.114-0.204,0.24-0.458,0.379-0.757
				c0.496-0.513,1.051-0.85,1.668-1.014c0.233-0.062,0.441-0.087,0.622-0.077c0.053,0.086,0.063,0.188,0.03,0.297l-0.085,0.241
				c-0.069,0.223-0.187,0.46-0.35,0.715c-0.165,0.255-0.327,0.521-0.489,0.796c-0.133,0.196-0.252,0.399-0.361,0.609
				c-0.107,0.211-0.225,0.436-0.351,0.674c0.444,0.011,0.784,0.138,1.021,0.381c0.029,0.458-0.006,0.976-0.102,1.555
				c-0.098,0.58-0.25,1.174-0.457,1.783c-0.184,0.559-0.406,1.115-0.666,1.667c-0.259,0.551-0.551,1.083-0.871,1.593
				c-0.322,0.511-0.674,0.99-1.051,1.437c-0.383,0.448-0.783,0.839-1.205,1.174c-0.404,0.228-0.795,0.423-1.172,0.586
				c-0.377,0.161-0.734,0.289-1.072,0.382c-0.5,0.138-0.945,0.196-1.338,0.174c-0.395-0.022-0.717-0.125-0.971-0.309
				c-0.253-0.185-0.417-0.459-0.49-0.825c-0.074-0.366-0.04-0.832,0.104-1.399c0.052-0.219,0.115-0.449,0.186-0.687
				c0.07-0.24,0.148-0.481,0.234-0.724c0.118-0.354,0.246-0.697,0.382-1.027c0.135-0.33,0.291-0.673,0.466-1.028
				c0.111-0.235,0.227-0.445,0.344-0.63c0.117-0.186,0.238-0.369,0.37-0.55c0.13-0.181,0.259-0.362,0.39-0.545
				c0.131-0.181,0.273-0.387,0.426-0.619c0.007-0.044,0.053-0.138,0.133-0.276c-0.3,0.036-0.578,0.033-0.837-0.006
				c-0.259-0.04-0.469-0.127-0.634-0.258c-0.164-0.133-0.271-0.314-0.32-0.551s-0.026-0.535,0.066-0.896
				c0.183-0.24,0.387-0.445,0.612-0.614c0.226-0.169,0.449-0.285,0.669-0.343c0.176-0.046,0.317-0.055,0.424-0.025
				c0.08,0.008,0.131,0.063,0.148,0.168c0.016,0.105,0.031,0.212,0.047,0.318c0.016,0.104,0.037,0.198,0.064,0.279
				c0.027,0.08,0.101,0.104,0.219,0.073c0.135-0.138,0.271-0.288,0.403-0.447c0.134-0.159,0.269-0.309,0.406-0.448
				c0.136-0.139,0.28-0.262,0.431-0.367c0.152-0.106,0.316-0.184,0.492-0.23c0.059-0.016,0.117-0.031,0.176-0.047
				s0.115-0.016,0.17-0.001c0.193,0.008,0.296,0.191,0.308,0.554c0.013,0.361-0.045,0.741-0.173,1.141
				c-0.083,0.228-0.21,0.487-0.381,0.781c-0.172,0.294-0.364,0.604-0.576,0.933c-0.213,0.328-0.428,0.652-0.646,0.974
				C110.821,30.389,110.64,30.68,110.496,30.937z"/>
			<path stroke="#000000" stroke-width="0.3" stroke-miterlimit="10" d="M118.747,20.802c-0.02,0.107-0.054,0.225-0.105,0.354
				c-0.061,0.176-0.168,0.387-0.324,0.631c-0.309,0.242-0.641,0.441-0.998,0.602c-0.357,0.16-0.732,0.292-1.13,0.396
				c-0.527,0.14-1.079,0.29-1.65,0.449c-0.575,0.16-1.14,0.311-1.696,0.458l-0.33,0.087c-0.264,0.07-0.493,0.138-0.686,0.204
				c-0.193,0.067-0.375,0.129-0.547,0.189c-0.172,0.059-0.34,0.116-0.502,0.165c-0.162,0.051-0.354,0.105-0.574,0.164
				c-0.205,0.054-0.406,0.089-0.605,0.104s-0.369-0.007-0.512-0.073c0.003-0.089,0.016-0.175,0.037-0.262
				c0.024-0.086,0.049-0.17,0.077-0.25c0.118-0.353,0.273-0.635,0.466-0.847c0.191-0.212,0.422-0.386,0.692-0.522
				c0.269-0.138,0.571-0.252,0.911-0.35c0.337-0.096,0.707-0.212,1.109-0.347c0.236-0.076,0.477-0.151,0.721-0.222
				c0.243-0.072,0.496-0.141,0.761-0.211l0.098-0.31c0.054-0.146,0.076-0.225,0.063-0.236c0.018-0.106,0.039-0.185,0.062-0.235
				c0.129-0.325,0.348-0.573,0.658-0.74c0.311-0.169,0.617-0.294,0.926-0.375c0.161-0.042,0.295-0.041,0.398,0.005
				c0.088,0.05,0.122,0.15,0.102,0.301c-0.018,0.15-0.061,0.321-0.123,0.512l-0.218,0.626c0.075-0.02,0.142-0.035,0.207-0.045
				c0.065-0.009,0.134-0.024,0.207-0.043l0.651-0.128c0.041-0.069,0.071-0.142,0.094-0.22c0.02-0.078,0.046-0.158,0.072-0.237
				c0.055-0.146,0.076-0.224,0.064-0.235c0.019-0.107,0.041-0.186,0.062-0.234c0.129-0.325,0.344-0.571,0.646-0.736
				c0.303-0.166,0.607-0.291,0.916-0.372c0.16-0.042,0.293-0.04,0.397,0.005c0.089,0.049,0.122,0.15,0.103,0.3
				c-0.02,0.15-0.061,0.32-0.123,0.511l-0.276,0.836C118.8,20.585,118.767,20.695,118.747,20.802z"/>
			<path stroke="#000000" stroke-width="0.3" stroke-miterlimit="10" d="M115.731,17.644c0.064-0.191,0.137-0.362,0.221-0.516
				c0.083-0.152,0.166-0.298,0.245-0.434c0.081-0.138,0.159-0.286,0.237-0.444c0.078-0.158,0.158-0.35,0.238-0.574
				c-0.24,0.019-0.437-0.029-0.59-0.143c-0.156-0.112-0.198-0.287-0.127-0.522c0.079-0.21,0.245-0.435,0.5-0.676
				c0.188-0.193,0.391-0.348,0.607-0.46c0.215-0.115,0.434-0.2,0.652-0.256c0.221-0.057,0.428-0.077,0.621-0.062
				c0.193,0.016,0.355,0.065,0.486,0.147c0.132,0.082,0.22,0.202,0.262,0.357c0.041,0.157,0.025,0.352-0.044,0.588
				c-0.054,0.146-0.128,0.301-0.222,0.472c-0.094,0.169-0.221,0.354-0.383,0.557l0.22-0.057c0.409-0.106,0.79-0.293,1.138-0.556
				c0.348-0.265,0.688-0.544,1.023-0.841c0.332-0.296,0.68-0.578,1.043-0.846c0.363-0.269,0.771-0.459,1.227-0.577l0.109-0.028
				c0.139,0.08,0.225,0.169,0.256,0.27c0.029,0.101,0.027,0.214-0.01,0.339c-0.057,0.159-0.156,0.323-0.298,0.489
				c-0.143,0.167-0.306,0.337-0.489,0.507c-0.187,0.171-0.385,0.342-0.598,0.513c-0.211,0.171-0.406,0.323-0.585,0.457l-0.119,0.074
				c-0.275,0.215-0.603,0.453-0.977,0.709c-0.375,0.258-0.767,0.509-1.174,0.754c-0.407,0.243-0.821,0.463-1.24,0.66
				c-0.421,0.197-0.813,0.343-1.181,0.438c-0.293,0.077-0.506,0.096-0.637,0.056c-0.135-0.037-0.289-0.113-0.464-0.227
				L115.731,17.644z"/>
			<path stroke="#000000" stroke-width="0.3" stroke-miterlimit="10" d="M119.514,25.716c-0.05-0.103-0.087-0.195-0.106-0.277
				c-0.02-0.081-0.004-0.187,0.047-0.317c0.097-0.301,0.338-0.598,0.727-0.891c0.388-0.291,0.811-0.553,1.271-0.784
				c0.461-0.23,0.908-0.427,1.341-0.585c0.435-0.159,0.753-0.265,0.958-0.319c0.689-0.184,1.298-0.241,1.822-0.17
				c0.524,0.069,0.863,0.264,1.013,0.585c0.186,0.367,0.288,0.806,0.316,1.311c0.027,0.503-0.058,1.151-0.257,1.94
				c-0.02,0.106-0.042,0.192-0.068,0.257c-0.05,0.201-0.106,0.415-0.168,0.64c-0.062,0.227-0.127,0.45-0.194,0.67
				c-0.15,0.444-0.317,0.884-0.501,1.316c-0.183,0.433-0.384,0.83-0.602,1.193c-0.203,0.344-0.469,0.698-0.799,1.063
				c-0.332,0.366-0.689,0.72-1.07,1.062c-0.383,0.345-0.765,0.66-1.143,0.944c-0.381,0.286-0.716,0.504-1.008,0.656
				c-0.184,0.095-0.411,0.198-0.683,0.309c-0.271,0.111-0.537,0.202-0.802,0.274c-0.117,0.032-0.233,0.058-0.348,0.074
				c-0.115,0.018-0.222,0.033-0.321,0.045c-0.342,0.037-0.623-0.024-0.846-0.181c-0.224-0.158-0.399-0.368-0.524-0.63
				c-0.127-0.264-0.201-0.566-0.225-0.91c-0.02-0.342,0.004-0.677,0.076-1.001c0.02-0.108,0.042-0.194,0.068-0.258
				c0.07-0.238,0.181-0.526,0.333-0.866c0.151-0.338,0.28-0.609,0.388-0.812c0.105-0.203,0.28-0.476,0.523-0.818
				c0.243-0.341,0.518-0.688,0.826-1.041c0.308-0.351,0.625-0.668,0.957-0.953c0.33-0.285,0.635-0.465,0.913-0.54
				c0.088-0.023,0.152-0.034,0.194-0.03c0.028-0.008,0.073,0.012,0.135,0.061c0.062,0.048,0.121,0.104,0.18,0.168
				c0.057,0.065,0.104,0.135,0.138,0.214c0.036,0.077,0.047,0.146,0.036,0.206c0.009,0.028,0.009,0.053-0.003,0.077
				c-0.012,0.025-0.021,0.053-0.025,0.084c-0.06,0.175-0.165,0.334-0.316,0.476s-0.317,0.289-0.497,0.438
				c-0.182,0.15-0.362,0.298-0.54,0.438c-0.18,0.144-0.317,0.293-0.415,0.45c-0.102,0.173-0.217,0.359-0.344,0.56
				c-0.126,0.202-0.219,0.391-0.278,0.566c-0.097,0.303-0.165,0.604-0.205,0.904c-0.04,0.302-0.024,0.559,0.05,0.771
				c0.072,0.212,0.207,0.369,0.406,0.466c0.199,0.098,0.475,0.099,0.826,0.003l0.11-0.03c0.03-0.008,0.063-0.021,0.101-0.038
				c0.037-0.018,0.072-0.032,0.102-0.041c0.312-0.113,0.629-0.323,0.949-0.628c0.319-0.304,0.628-0.659,0.925-1.067
				c0.297-0.406,0.568-0.853,0.818-1.34c0.247-0.486,0.45-0.975,0.61-1.467c0.172-0.494,0.285-0.946,0.34-1.359
				c0.053-0.411,0.068-0.778,0.041-1.095c-0.025-0.318-0.094-0.579-0.205-0.78c-0.109-0.202-0.248-0.339-0.416-0.408
				c-0.153-0.076-0.33-0.107-0.527-0.098c-0.197,0.01-0.398,0.042-0.604,0.097c-0.176,0.047-0.408,0.119-0.699,0.219
				c-0.291,0.099-0.512,0.192-0.666,0.276c-0.279,0.147-0.571,0.337-0.877,0.572c-0.309,0.235-0.611,0.392-0.904,0.47
				c-0.088,0.023-0.142,0.023-0.166,0.001S119.616,25.775,119.514,25.716z"/>
			<path stroke="#000000" stroke-width="0.3" stroke-miterlimit="10" d="M132.792,15.55c-0.814,0.486-1.641,0.84-2.478,1.06
				c-0.543,0.143-1.035,0.203-1.477,0.183c-0.445-0.021-0.76-0.172-0.945-0.455c-0.062-0.115-0.104-0.248-0.127-0.4
				c-0.021-0.154-0.049-0.326-0.084-0.519c-0.027-0.152-0.064-0.311-0.111-0.479c-0.045-0.169-0.039-0.339,0.02-0.514
				c0.037-0.125,0.129-0.263,0.277-0.417c0.145-0.153,0.309-0.297,0.484-0.43c0.178-0.132,0.361-0.252,0.547-0.357
				c0.188-0.106,0.348-0.176,0.48-0.21c0.027-0.007,0.053-0.011,0.074-0.01c0.02,0.002,0.045-0.001,0.074-0.009
				c0.168,0,0.277,0.065,0.33,0.195c0.055,0.131,0.084,0.288,0.094,0.473c0.008,0.185,0.023,0.364,0.049,0.537
				c0.023,0.175,0.098,0.303,0.223,0.385c0.14,0.079,0.323,0.128,0.55,0.148c0.229,0.019,0.465-0.003,0.715-0.069
				c0.16-0.042,0.334-0.107,0.518-0.2c0.244-0.121,0.49-0.303,0.738-0.548c0.248-0.243,0.504-0.498,0.768-0.758
				c0.266-0.264,0.533-0.505,0.805-0.727c0.27-0.221,0.545-0.367,0.822-0.439c0.119-0.031,0.205-0.036,0.264-0.015
				c0.062,0.019,0.146,0.058,0.264,0.114c0.006,0.2-0.018,0.417-0.066,0.65c-0.051,0.237-0.111,0.479-0.186,0.727
				c-0.115,0.331-0.244,0.668-0.385,1.013c-0.141,0.345-0.277,0.694-0.41,1.042c-0.119,0.347-0.256,0.748-0.408,1.205
				c-0.152,0.456-0.322,0.953-0.502,1.488c-0.182,0.536-0.375,1.093-0.576,1.67c-0.205,0.578-0.4,1.151-0.586,1.717
				c-0.299,0.87-0.574,1.69-0.826,2.461c-0.252,0.771-0.453,1.423-0.605,1.954c-0.035,0.109-0.064,0.21-0.088,0.303
				c-0.023,0.094-0.049,0.187-0.08,0.282c-0.148,0.428-0.301,0.844-0.459,1.245c-0.157,0.402-0.308,0.811-0.452,1.225
				c-0.086,0.239-0.164,0.479-0.236,0.723c-0.072,0.242-0.115,0.482-0.129,0.715c-0.006,0.03-0.008,0.06-0.006,0.089
				c0,0.028-0.008,0.059-0.027,0.094c-0.127,0.38-0.361,0.74-0.709,1.08c-0.348,0.34-0.697,0.558-1.049,0.655
				c-0.277,0.077-0.488,0.042-0.627-0.108c-0.054-0.085-0.065-0.219-0.032-0.401c0.033-0.182,0.084-0.383,0.152-0.604
				c0.113-0.32,0.238-0.646,0.375-0.979c0.137-0.333,0.246-0.604,0.326-0.812c0.137-0.37,0.283-0.769,0.438-1.2
				s0.312-0.893,0.471-1.381c0.219-0.664,0.447-1.363,0.693-2.098s0.488-1.477,0.731-2.225c0.24-0.748,0.479-1.491,0.721-2.231
				c0.238-0.738,0.475-1.449,0.711-2.128c0.176-0.507,0.342-0.989,0.494-1.445C132.484,16.355,132.638,15.935,132.792,15.55z"/>
			<path stroke="#000000" stroke-width="0.3" stroke-miterlimit="10" d="M135.574,21.287c-0.111,0.002-0.225,0.009-0.34,0.026
				s-0.221,0.02-0.314,0.01c-0.098-0.01-0.176-0.036-0.238-0.077c-0.061-0.04-0.096-0.118-0.104-0.23
				c0.004-0.029,0.008-0.062,0.008-0.099c-0.002-0.035,0.008-0.07,0.029-0.103c0.062-0.204,0.195-0.418,0.389-0.642
				c0.193-0.224,0.379-0.402,0.559-0.535c0.258-0.184,0.545-0.318,0.867-0.404c0.338-0.09,0.654-0.121,0.949-0.09
				c0.295,0.028,0.475,0.091,0.541,0.188c0.088,0.133,0.09,0.379,0.012,0.736c-0.08,0.356-0.193,0.741-0.338,1.151
				c-0.09,0.268-0.178,0.517-0.262,0.746c-0.082,0.229-0.154,0.43-0.213,0.604l-0.146,0.447c-0.137,0.381-0.254,0.706-0.344,0.974
				s-0.197,0.575-0.314,0.922c-0.236,0.679-0.41,1.307-0.521,1.881c-0.113,0.576-0.092,1.092,0.061,1.552
				c0.375,0.083,0.842,0.049,1.398-0.104c0.219-0.06,0.432-0.14,0.639-0.24c0.207-0.099,0.393-0.222,0.559-0.367
				c0.148-0.126,0.312-0.319,0.49-0.574c0.18-0.255,0.357-0.532,0.529-0.83c0.172-0.297,0.332-0.597,0.479-0.901
				c0.145-0.302,0.268-0.568,0.365-0.794c0.053-0.143,0.104-0.281,0.148-0.414c0.047-0.134,0.096-0.274,0.15-0.415
				c0.129-0.406,0.248-0.802,0.354-1.188c0.104-0.384,0.207-0.771,0.307-1.162c0.1-0.39,0.209-0.796,0.328-1.221
				c0.121-0.423,0.26-0.878,0.418-1.361c0.068-0.219,0.143-0.438,0.225-0.66c0.084-0.222,0.166-0.449,0.252-0.686
				c0.092-0.267,0.176-0.534,0.252-0.805c0.078-0.269,0.141-0.531,0.188-0.785c0.027-0.222,0.086-0.472,0.18-0.753
				c0.094-0.28,0.186-0.554,0.277-0.82l0.318-0.938c0.023-0.049,0.039-0.092,0.047-0.129c0.006-0.037,0.025-0.074,0.062-0.112
				c0.131-0.263,0.332-0.493,0.607-0.693c0.273-0.199,0.543-0.334,0.807-0.403c0.178-0.046,0.334-0.055,0.477-0.029
				c0.143,0.027,0.234,0.106,0.281,0.235c-0.326,1.463-0.77,3.055-1.33,4.772c-0.561,1.721-1.141,3.459-1.742,5.214l-0.318,0.941
				c-0.311,0.925-0.678,1.865-1.104,2.822c-0.428,0.958-0.947,1.813-1.557,2.565c-0.248,0.211-0.545,0.41-0.893,0.599
				c-0.348,0.188-0.707,0.362-1.078,0.521s-0.744,0.302-1.121,0.427c-0.379,0.126-0.723,0.231-1.029,0.316
				c-0.266,0.073-0.514,0.123-0.748,0.152c-0.234,0.028-0.449,0.034-0.643,0.016c-0.271-0.027-0.475-0.157-0.605-0.394
				c-0.131-0.236-0.215-0.529-0.248-0.878s-0.025-0.738,0.025-1.168c0.051-0.431,0.127-0.854,0.23-1.269
				c0.055-0.144,0.098-0.285,0.131-0.422c0.031-0.138,0.076-0.286,0.133-0.445c0.176-0.506,0.357-0.986,0.545-1.438
				c0.188-0.451,0.361-0.929,0.523-1.431c0.115-0.332,0.213-0.652,0.289-0.958C135.527,21.828,135.57,21.546,135.574,21.287z"/>
		</g>
		<g>
			<path stroke="#000000" stroke-width="0.3" stroke-miterlimit="10" d="M119.058,41.279c-0.141,0.084-0.361,0.229-0.664,0.438
				c-0.301,0.207-0.568,0.344-0.804,0.41c-0.191,0.054-0.324,0.019-0.398-0.107c-0.066-0.097-0.071-0.226-0.015-0.389
				c0.063-0.191,0.198-0.403,0.407-0.637c0.209-0.232,0.444-0.455,0.705-0.666c0.261-0.21,0.532-0.402,0.813-0.577
				c0.281-0.172,0.533-0.296,0.756-0.373l0.242-0.068c0.572-0.16,0.928-0.085,1.067,0.225c0.14,0.308,0.137,0.78-0.003,1.413
				l-0.148,0.238c-0.234,0.37-0.481,0.777-0.742,1.22c-0.261,0.443-0.516,0.897-0.766,1.36c-0.252,0.463-0.487,0.929-0.711,1.397
				c-0.225,0.472-0.41,0.924-0.557,1.357c-0.162,0.511-0.26,0.978-0.294,1.403c-0.034,0.423,0.026,0.78,0.183,1.069
				c0.3,0.118,0.586,0.138,0.865,0.058c0.264-0.076,0.51-0.223,0.736-0.439c0.229-0.218,0.438-0.486,0.636-0.804
				c0.196-0.317,0.378-0.666,0.544-1.046c0.164-0.38,0.32-0.78,0.465-1.198c0.221-0.686,0.406-1.368,0.557-2.048
				c0.132-0.574,0.281-1.138,0.451-1.692s0.294-1.009,0.373-1.365c0.036-0.198,0.043-0.359,0.024-0.485
				c-0.02-0.124,0-0.274,0.06-0.45c0.008-0.046,0.032-0.103,0.072-0.172c0.146-0.273,0.354-0.511,0.621-0.716
				c0.267-0.205,0.531-0.344,0.795-0.417c0.176-0.049,0.336-0.064,0.479-0.047c0.145,0.017,0.252,0.096,0.324,0.233
				c-0.217,0.813-0.413,1.648-0.588,2.507c-0.177,0.858-0.387,1.729-0.629,2.606l-0.318,1.067c-0.246,0.749-0.543,1.471-0.891,2.164
				c-0.346,0.693-0.75,1.326-1.207,1.899c-0.458,0.573-0.973,1.073-1.541,1.498c-0.572,0.426-1.195,0.738-1.869,0.932
				c-0.571,0.165-1.032,0.177-1.382,0.037c-0.351-0.138-0.603-0.387-0.753-0.744c-0.152-0.356-0.207-0.81-0.164-1.362
				c0.043-0.55,0.174-1.155,0.389-1.812c0.139-0.463,0.349-0.98,0.633-1.557c0.156-0.32,0.336-0.646,0.543-0.982
				c0.206-0.334,0.41-0.661,0.614-0.979c0.204-0.32,0.392-0.63,0.564-0.934c0.173-0.303,0.306-0.598,0.399-0.886
				c0.031-0.096,0.059-0.193,0.085-0.296C119.042,41.462,119.056,41.368,119.058,41.279z"/>
			<path stroke="#000000" stroke-width="0.3" stroke-miterlimit="10" d="M128.965,38.673c-0.178,0.064-0.365,0.188-0.557,0.372
				c-0.193,0.185-0.393,0.378-0.596,0.579s-0.408,0.388-0.614,0.562c-0.204,0.173-0.403,0.286-0.594,0.34
				c-0.249,0.07-0.456,0.057-0.618-0.042c0.012-0.061,0.018-0.118,0.02-0.167c0.002-0.052,0.017-0.11,0.042-0.175
				c0.114-0.321,0.309-0.654,0.589-0.999c0.277-0.345,0.595-0.675,0.951-0.992c0.355-0.315,0.729-0.601,1.115-0.853
				c0.387-0.251,0.744-0.438,1.072-0.559c0.029-0.008,0.146-0.041,0.352-0.098s0.431-0.122,0.675-0.199
				c0.242-0.075,0.463-0.14,0.66-0.195c0.199-0.055,0.312-0.087,0.342-0.095c0.498-0.14,0.861-0.122,1.088,0.052
				c0.225,0.174,0.359,0.441,0.406,0.801c0.045,0.361,0.02,0.788-0.076,1.282c-0.098,0.492-0.221,0.998-0.371,1.514
				c-0.047,0.185-0.102,0.369-0.16,0.551c-0.062,0.183-0.123,0.362-0.182,0.537c-0.184,0.554-0.377,1.098-0.578,1.628
				c-0.201,0.532-0.383,1.059-0.549,1.58c-0.066,0.22-0.133,0.433-0.197,0.639c-0.064,0.205-0.131,0.411-0.195,0.616
				c-0.045,0.172-0.062,0.324-0.053,0.458c0.012,0.134-0.008,0.265-0.061,0.395c-0.068,0.149-0.172,0.308-0.305,0.477
				c-0.135,0.167-0.286,0.327-0.452,0.475c-0.166,0.148-0.342,0.283-0.533,0.402c-0.186,0.118-0.354,0.199-0.502,0.241
				c-0.191,0.056-0.328,0.052-0.414-0.009c-0.102-0.058-0.139-0.173-0.113-0.346c0.023-0.173,0.068-0.369,0.139-0.59l0.268-0.79
				c0.256-0.809,0.512-1.626,0.766-2.455c0.256-0.828,0.562-1.773,0.925-2.84c0.211-0.635,0.35-1.145,0.412-1.53
				c0.064-0.385,0.07-0.673,0.021-0.868c-0.049-0.196-0.141-0.309-0.281-0.341c-0.141-0.032-0.299-0.024-0.476,0.025
				c-0.234,0.066-0.479,0.166-0.734,0.303C129.344,38.492,129.133,38.597,128.965,38.673z"/>
			<path stroke="#000000" stroke-width="0.3" stroke-miterlimit="10" d="M138.359,36.273c-0.104,0.101-0.205,0.239-0.307,0.419
				c-0.104,0.18-0.199,0.363-0.289,0.553c-0.092,0.19-0.164,0.36-0.219,0.512c-0.057,0.151-0.096,0.251-0.119,0.301
				c-0.121,0.363-0.158,0.642-0.109,0.835s0.191,0.322,0.43,0.382c0.107,0.028,0.221,0.017,0.342-0.033
				c0.119-0.047,0.238-0.059,0.361-0.037c-0.006,0.029-0.023,0.103-0.051,0.218c-0.027,0.114-0.059,0.241-0.09,0.378
				c-0.033,0.138-0.066,0.267-0.102,0.383c-0.035,0.117-0.057,0.191-0.062,0.222c-0.004,0.03-0.027,0.079-0.068,0.148
				c-0.215,0.119-0.42,0.248-0.611,0.388c-0.193,0.141-0.363,0.303-0.508,0.487c-0.213,0.262-0.396,0.478-0.545,0.649
				c-0.15,0.171-0.303,0.467-0.463,0.884c-0.088,0.326-0.104,0.566-0.049,0.723c0.057,0.155,0.166,0.253,0.332,0.292
				c0.168,0.038,0.381,0.026,0.643-0.034c0.262-0.061,0.553-0.137,0.875-0.229c0.615-0.176,1.195-0.44,1.74-0.789
				c0.541-0.347,0.885-0.727,1.031-1.14c0.482-1.421,0.889-2.606,1.223-3.555c0.334-0.95,0.613-1.735,0.838-2.352
				c0.115-0.403,0.213-0.758,0.289-1.064c0.078-0.306,0.164-0.614,0.264-0.928c0.025-0.064,0.062-0.146,0.109-0.243
				c0.145-0.27,0.352-0.505,0.619-0.708c0.266-0.203,0.531-0.339,0.795-0.413c0.176-0.049,0.338-0.062,0.488-0.042
				c0.148,0.023,0.244,0.099,0.291,0.229l-0.207,0.569c-0.162,0.5-0.303,0.885-0.422,1.151c-0.119,0.269-0.207,0.488-0.268,0.662
				c-0.221,0.603-0.432,1.188-0.635,1.756c-0.201,0.57-0.406,1.148-0.609,1.731l-0.83,2.479c-0.061,0.188-0.182,0.479-0.357,0.871
				c-0.176,0.391-0.453,0.811-0.834,1.255s-0.898,0.886-1.555,1.324c-0.656,0.439-1.498,0.807-2.525,1.103l-0.131,0.038
				c-0.82,0.236-1.467,0.329-1.938,0.28c-0.471-0.051-0.816-0.188-1.041-0.411c-0.223-0.223-0.336-0.513-0.34-0.871
				c-0.006-0.357,0.053-0.716,0.176-1.083c0.229-0.653,0.484-1.181,0.766-1.584c0.283-0.403,0.615-0.815,0.998-1.24
				c-0.189-0.176-0.336-0.419-0.439-0.736c-0.104-0.314-0.049-0.773,0.156-1.376c0.064-0.19,0.152-0.407,0.266-0.655
				c0.115-0.247,0.23-0.501,0.35-0.764c0.145-0.413,0.293-0.776,0.449-1.093c0.154-0.315,0.336-0.58,0.541-0.795
				c0.154-0.158,0.418-0.342,0.791-0.554c0.371-0.21,0.727-0.363,1.064-0.458c0.309-0.086,0.553-0.098,0.736-0.034
				c0.115,0.052,0.205,0.156,0.266,0.312c0.064,0.152,0.061,0.333-0.004,0.536c-0.045,0.098-0.088,0.173-0.125,0.227
				c-0.094,0.14-0.191,0.253-0.291,0.339c-0.1,0.084-0.207,0.161-0.324,0.229c-0.115,0.069-0.238,0.128-0.365,0.178
				S138.496,36.207,138.359,36.273z"/>
			<path stroke="#000000" stroke-width="0.3" stroke-miterlimit="10" d="M150.341,26.479c-0.814,0.494-1.641,0.856-2.477,1.087
				c-0.543,0.15-1.035,0.218-1.477,0.204c-0.445-0.012-0.758-0.156-0.945-0.431c-0.062-0.11-0.104-0.242-0.125-0.393
				c-0.021-0.149-0.049-0.319-0.086-0.508c-0.025-0.149-0.064-0.306-0.111-0.471c-0.045-0.164-0.039-0.333,0.02-0.506
				c0.039-0.124,0.129-0.262,0.275-0.416c0.146-0.154,0.309-0.297,0.486-0.431c0.178-0.135,0.361-0.254,0.547-0.363
				c0.188-0.108,0.348-0.18,0.479-0.215c0.029-0.008,0.055-0.01,0.076-0.01c0.02,0.001,0.045-0.001,0.074-0.01
				c0.168-0.003,0.279,0.058,0.332,0.186c0.053,0.127,0.082,0.283,0.09,0.464c0.01,0.183,0.027,0.359,0.051,0.529
				c0.023,0.17,0.098,0.295,0.223,0.375c0.141,0.075,0.322,0.121,0.551,0.136c0.227,0.015,0.463-0.01,0.713-0.079
				c0.16-0.044,0.334-0.113,0.52-0.207c0.244-0.124,0.49-0.308,0.738-0.553c0.248-0.244,0.504-0.499,0.768-0.761
				c0.264-0.263,0.531-0.505,0.803-0.729c0.271-0.222,0.545-0.372,0.822-0.447c0.119-0.033,0.207-0.039,0.266-0.019
				s0.146,0.056,0.262,0.108c0.006,0.197-0.016,0.412-0.066,0.644c-0.049,0.232-0.111,0.471-0.186,0.717
				c-0.115,0.33-0.244,0.664-0.383,1.006c-0.141,0.343-0.277,0.688-0.41,1.035c-0.119,0.343-0.256,0.741-0.41,1.193
				c-0.152,0.452-0.32,0.944-0.502,1.475c-0.182,0.532-0.373,1.083-0.576,1.656c-0.203,0.574-0.398,1.14-0.586,1.702
				c-0.297,0.862-0.572,1.675-0.824,2.44c-0.254,0.765-0.455,1.409-0.607,1.935c-0.033,0.108-0.062,0.209-0.086,0.301
				c-0.023,0.092-0.051,0.184-0.084,0.278c-0.146,0.425-0.299,0.837-0.455,1.235c-0.158,0.4-0.307,0.804-0.453,1.214
				c-0.086,0.238-0.164,0.477-0.234,0.715c-0.074,0.242-0.117,0.478-0.129,0.708c-0.008,0.032-0.01,0.061-0.006,0.087
				c0,0.029-0.01,0.06-0.027,0.093c-0.127,0.377-0.363,0.736-0.709,1.077c-0.348,0.342-0.697,0.564-1.051,0.666
				c-0.277,0.08-0.486,0.047-0.627-0.098c-0.055-0.083-0.064-0.215-0.031-0.396c0.031-0.179,0.082-0.378,0.15-0.598
				c0.113-0.316,0.24-0.641,0.377-0.97c0.137-0.331,0.244-0.599,0.326-0.808c0.135-0.365,0.281-0.762,0.436-1.189
				c0.154-0.428,0.312-0.883,0.471-1.369c0.219-0.659,0.449-1.351,0.695-2.081c0.244-0.728,0.488-1.464,0.729-2.204
				c0.24-0.74,0.48-1.478,0.721-2.21c0.238-0.731,0.477-1.436,0.711-2.11c0.176-0.501,0.342-0.979,0.494-1.432
				C150.035,27.28,150.189,26.861,150.341,26.479z"/>
			<path stroke="#000000" stroke-width="0.3" stroke-miterlimit="10" d="M153.125,32.085c-0.113,0.003-0.227,0.015-0.34,0.031
				c-0.115,0.02-0.221,0.024-0.316,0.016c-0.096-0.008-0.174-0.033-0.236-0.071c-0.062-0.04-0.098-0.115-0.105-0.227
				c0.006-0.029,0.008-0.062,0.008-0.097c0-0.034,0.01-0.069,0.029-0.103c0.066-0.202,0.195-0.415,0.389-0.639
				c0.195-0.224,0.381-0.402,0.559-0.538c0.258-0.185,0.547-0.321,0.869-0.411c0.338-0.094,0.652-0.128,0.947-0.106
				c0.295,0.023,0.475,0.082,0.543,0.175c0.086,0.131,0.088,0.375,0.012,0.727c-0.082,0.354-0.193,0.733-0.338,1.141
				c-0.092,0.265-0.178,0.511-0.262,0.739c-0.084,0.229-0.156,0.429-0.215,0.6l-0.145,0.442c-0.139,0.378-0.254,0.699-0.346,0.964
				c-0.09,0.267-0.195,0.571-0.314,0.915c-0.234,0.673-0.41,1.295-0.521,1.863c-0.111,0.567-0.092,1.077,0.062,1.526
				c0.375,0.077,0.84,0.034,1.396-0.125c0.221-0.063,0.432-0.145,0.639-0.246s0.393-0.224,0.561-0.373
				c0.148-0.126,0.311-0.317,0.49-0.573c0.18-0.255,0.355-0.531,0.527-0.826c0.174-0.295,0.332-0.593,0.48-0.896
				c0.145-0.301,0.268-0.565,0.363-0.79c0.055-0.142,0.105-0.278,0.15-0.412c0.045-0.132,0.096-0.269,0.148-0.41
				c0.131-0.403,0.248-0.793,0.354-1.175c0.105-0.381,0.209-0.766,0.309-1.152s0.207-0.789,0.328-1.209
				c0.119-0.418,0.258-0.869,0.418-1.349c0.068-0.216,0.143-0.433,0.225-0.652c0.084-0.22,0.166-0.447,0.252-0.681
				c0.092-0.264,0.176-0.529,0.252-0.796c0.078-0.268,0.139-0.525,0.188-0.778c0.027-0.218,0.086-0.466,0.18-0.744
				c0.094-0.279,0.186-0.549,0.275-0.813l0.318-0.928c0.023-0.049,0.039-0.092,0.047-0.13c0.006-0.036,0.025-0.073,0.062-0.111
				c0.131-0.26,0.334-0.491,0.607-0.693c0.273-0.201,0.543-0.338,0.807-0.411c0.178-0.049,0.336-0.061,0.477-0.036
				c0.143,0.024,0.236,0.099,0.281,0.227c-0.324,1.447-0.768,3.022-1.328,4.724c-0.561,1.705-1.143,3.428-1.744,5.168l-0.318,0.932
				c-0.309,0.916-0.678,1.849-1.102,2.798c-0.428,0.951-0.947,1.803-1.559,2.556c-0.248,0.212-0.545,0.413-0.893,0.604
				c-0.348,0.192-0.705,0.369-1.076,0.531c-0.371,0.164-0.744,0.31-1.123,0.441c-0.379,0.13-0.721,0.239-1.029,0.328
				c-0.264,0.076-0.514,0.13-0.748,0.163c-0.236,0.033-0.447,0.041-0.641,0.025c-0.273-0.021-0.477-0.146-0.607-0.376
				c-0.131-0.229-0.215-0.518-0.248-0.86c-0.033-0.344-0.025-0.728,0.027-1.154c0.049-0.423,0.125-0.84,0.23-1.253
				c0.053-0.142,0.096-0.282,0.129-0.419c0.033-0.136,0.076-0.282,0.133-0.439c0.176-0.502,0.357-0.979,0.545-1.428
				c0.188-0.447,0.359-0.919,0.523-1.417c0.115-0.331,0.213-0.646,0.289-0.95C153.078,32.62,153.119,32.34,153.125,32.085z"/>
		</g>
	</g>
</g>
<polygon fill="#D72D27" points="117.28,120.684 116.911,112.917 119.504,114.813 118.575,120.438 "/>
<polygon fill="#D72D27" points="113.218,113.567 115.838,117.034 115.505,113.713 "/>
<polygon fill="#D72D27" points="113.584,117.891 113.873,120.338 116.773,120.846 "/>
<polygon fill="#D72D27" points="113.772,122.194 105.688,136.112 111.442,138.999 124.409,138.999 121.282,130.01 118.021,122.926 
	"/>
<g>
	<path fill="none" stroke="#000000" stroke-linecap="round" stroke-linejoin="round" stroke-miterlimit="10" d="M102.254,86.896
		c-6.572,4.178-8.319,11.937-6.718,17.251c1.98,6.58,10.014,10.102,15.449,9.498c14.421-1.604,16.85-19.522,7.29-26.343
		C114.868,84.875,108.825,82.716,102.254,86.896z"/>
	<path fill="none" stroke="#000000" stroke-linecap="round" stroke-linejoin="round" stroke-miterlimit="10" d="M97.438,107.749
		c5.867-3.186,9.564-15.362,5.947-21.349"/>
	<path fill="none" stroke="#000000" stroke-linecap="round" stroke-linejoin="round" stroke-miterlimit="10" d="M95.232,103.584
		c3.265-0.303,6.271-6.487,7.212-9.278c0.79-2.344,1.106-5.018,0.457-7.439"/>
	<path fill="none" stroke="#000000" stroke-linecap="round" stroke-linejoin="round" stroke-miterlimit="10" d="M94.909,100.409
		c3.508-1.348,7.982-9.448,7.008-13.229"/>
	<path fill="none" stroke="#000000" stroke-linecap="round" stroke-linejoin="round" stroke-miterlimit="10" d="M103.474,86.564
		c3.967,5.133,11.568,7.029,17.022,3.115"/>
	<path fill="none" stroke="#000000" stroke-linecap="round" stroke-linejoin="round" stroke-miterlimit="10" d="M103.929,86.636
		c5.131,2.525,11.037,2.891,16.514,2.547"/>
	<path fill="none" stroke="#000000" stroke-linecap="round" stroke-linejoin="round" stroke-miterlimit="10" d="M104.327,86.111
		c2.441,1.1,5.668,0.047,8.801,0.41c2.266,0.264,4.879,0.799,6.678,2.059"/>
	<path fill="none" stroke="#000000" stroke-linecap="round" stroke-linejoin="round" stroke-miterlimit="10" d="M120.258,107.915"/>
	<path fill="none" stroke="#000000" stroke-linecap="round" stroke-linejoin="round" stroke-miterlimit="10" d="M113.218,112.463"/>
	<path fill="none" stroke="#000000" stroke-linecap="round" stroke-linejoin="round" stroke-miterlimit="10" d="M95.232,103.584
		c-3.07-6.323-0.601-15.022,7.141-19.122c9.354-4.955,16.836,1.541,18.854,5.35"/>
	<path fill="none" stroke="#000000" stroke-linecap="round" stroke-linejoin="round" stroke-miterlimit="10" d="M118.847,86.771
		c-4.378-6.693-11.946-6.514-18.543-2.637c-7.371,4.328-8.465,12.584-7.455,16.513c0.974,3.785,3.137,7.834,5.076,11.061
		c2.27,3.777,1.295,6.07,0.483,8.73"/>
	<path fill="none" stroke="#000000" stroke-linecap="round" stroke-linejoin="round" stroke-miterlimit="10" d="M99.644,110.03
		c2.299,4.332,0.988,7.551,0.594,9.518"/>
	<path fill="none" stroke="#000000" stroke-linecap="round" stroke-linejoin="round" stroke-miterlimit="10" d="M101.938,111.575
		c0.686,1.197,1.004,2.965,0.938,4.348c-0.037,0.764-0.246,1.627-0.32,2.607"/>
	<path fill="none" stroke="#000000" stroke-linecap="round" stroke-linejoin="round" stroke-miterlimit="10" d="M106.749,113.467
		c0.314,1.193,0.355,2.365,0.172,3.166"/>
	<path fill="none" stroke="#000000" stroke-linecap="round" stroke-linejoin="round" stroke-miterlimit="10" d="M108.71,113.944
		c0.296,0.553,0.082,1.807,0.146,1.736"/>
	<path fill="none" stroke="#000000" stroke-linecap="round" stroke-linejoin="round" stroke-miterlimit="10" d="M122.347,106.024
		c0.356,0.6,1.253,0.777,1.848,0.756"/>
	<path fill="none" stroke="#000000" stroke-linecap="round" stroke-linejoin="round" stroke-miterlimit="10" d="M123.208,103.944
		c0.531,0.977,1.535,1.449,2.402,1.117"/>
	<path fill="none" stroke="#000000" stroke-linecap="round" stroke-linejoin="round" stroke-miterlimit="10" d="M123.992,100.475
		c1.231,1.996,3.065,3.105,5.944,2.225"/>
	<path fill="none" stroke="#000000" stroke-linecap="round" stroke-linejoin="round" stroke-miterlimit="10" d="M121.203,89.896
		c2.043,3.014,2.986,6.303,4.36,8.507c1.441,2.311,3.599,2.965,6.18,2.574"/>
	<g>
		<path fill="none" stroke="#000000" stroke-linecap="round" stroke-linejoin="round" stroke-miterlimit="10" d="M122.883,132.706
			c-0.487-1.223-1.874-4.539-2.983-6.668c-0.393-0.752-1.371-2.27-1.587-4.008c0.534-2.18,0.788-2.963,1.037-4.258
			c0.292-1.518,0.908-4.113-2.032-5.309c-0.33,0.578-1.617,1.543-3.883,0.732c0,0-1.384,0.582-0.877,2.727
			c0.168,0.711,0.825,2.055,1.109,3.189c0.416,1.662-0.139,2.688-0.139,2.688c-1.099,1.98-3.213,5.811-4.18,7.348
			c-1.312,2.084-3.053,4.4-4,7.152c2.84,1.639,4.811,2.867,7.928,3.244c2.025,0.246,5.601-0.221,7.67-0.463
			c0.844-0.098,3.08-0.062,3.928-0.092C124.874,138.989,123.769,134.936,122.883,132.706z"/>
	</g>
	<path fill="none" stroke="#000000" stroke-linecap="round" stroke-linejoin="round" stroke-miterlimit="10" d="M109.548,138.543
		c-0.081,1.641-0.515,2.75-0.676,4.363"/>
	<path fill="none" stroke="#000000" stroke-linecap="round" stroke-linejoin="round" stroke-miterlimit="10" d="M111.442,139.268
		c-0.428,1.805-0.823,2.998-1.211,4.055"/>
	<path fill="none" stroke="#000000" stroke-linecap="round" stroke-linejoin="round" stroke-miterlimit="10" d="M118.564,139.612
		c0.382,1.463,0.286,2.531,0.667,3.988"/>
	<path fill="none" stroke="#000000" stroke-linecap="round" stroke-linejoin="round" stroke-miterlimit="10" d="M120.258,139.163
		c0.168,1.113,0.339,3.236,0.339,4.438"/>
	<path fill="none" stroke="#000000" stroke-linecap="round" stroke-linejoin="round" stroke-miterlimit="10" d="M116.773,112.133
		c0.16,0.355,0.077,0.154,0.128,0.463"/>
	<path fill="none" stroke="#000000" stroke-linecap="round" stroke-linejoin="round" stroke-miterlimit="10" d="M115.838,109.915"/>
	<path fill="none" stroke="#000000" stroke-linecap="round" stroke-linejoin="round" stroke-miterlimit="10" d="M114.222,106.913"/>
	<path fill="none" stroke="#000000" stroke-linecap="round" stroke-linejoin="round" stroke-miterlimit="10" d="M112.947,110.502"/>
	<path fill="none" stroke="#000000" stroke-linecap="round" stroke-linejoin="round" stroke-miterlimit="10" d="M110.996,108.305"/>
	<path fill="none" stroke="#000000" stroke-linecap="round" stroke-linejoin="round" stroke-miterlimit="10" d="M119.627,106.542"/>
	<path fill="none" stroke="#000000" stroke-linecap="round" stroke-linejoin="round" stroke-miterlimit="10" d="M118.564,103.448"/>
	<path d="M117.433,102.938c1.322-3.008,3.867-1.754,3.536,0.742c-0.417,3.137-3.042,5.928-5.938,6.844
		c-1.902,0.602-7.995,1.598-8.273-1.535c-0.217-2.438,3.836-1.852,5.266-2.17C113.664,106.456,116.397,105.288,117.433,102.938z"/>
	<path fill="#FFFFFF" stroke="#000000" stroke-miterlimit="10" d="M120.044,105.991c-3.402-0.533-8.084,1.262-9.077,5.002
		c0,0,3.339,0.346,5.723-1.049C119.075,108.547,120.044,105.991,120.044,105.991z"/>
	<path fill="#FFFFFF" stroke="#000000" stroke-miterlimit="10" d="M109.11,107.209c0.062,0.451,0.434,1.127,0.71,1.197
		c2.289,0.578,8.112-2.287,8.607-4.549c0.046-0.209-0.277-0.617-0.786-1"/>
	<path fill="none" stroke="#000000" stroke-linecap="round" stroke-linejoin="round" stroke-miterlimit="10" d="M117.433,102.938
		c1.322-3.008,3.867-1.754,3.536,0.742c-0.417,3.137-3.042,5.928-5.938,6.844c-1.902,0.602-7.995,1.598-8.273-1.535
		c-0.217-2.438,3.836-1.852,5.266-2.17C113.664,106.456,116.397,105.288,117.433,102.938z"/>
	<path fill="none" stroke="#000000" stroke-linecap="round" stroke-linejoin="round" stroke-miterlimit="10" d="M100.462,105.245
		c0.276,0.811,0.578,1.1,1.721,0.826c1.394-0.33,1.31-2.496,2.818-3.584c1.242-0.895,2.803,0.24,3.863-0.6
		c1.219-0.969,0.957-2.875-0.074-3.576c-0.889-0.604-1.447-1.292-4.463-0.924"/>
	<path fill="none" stroke="#000000" stroke-linecap="round" stroke-linejoin="round" stroke-miterlimit="10" d="M112.715,91.796
		c-1.987,1.33-2.218,3.928-1.481,5.674c0.757,1.792,2.176,1.768,3.213,0.473c1.504-1.877,1.836-2.437,4.118-2.437
		c1.87,0,2.981-0.033,2.663-1.713c-0.229-1.213-1.601-2.508-3.197-2.781"/>
	<path fill="none" stroke="#000000" stroke-linecap="round" stroke-linejoin="round" stroke-miterlimit="10" d="M107.282,101.592
		c-0.514-0.172-0.62-1.381-0.417-1.939c0.416,0.398,0.536,1.445,0.323,1.895"/>
	<path fill="none" stroke="#000000" stroke-linecap="round" stroke-linejoin="round" stroke-miterlimit="10" d="M119.283,95.49
		c-0.369-0.385-0.524-1.553-0.231-2.09c0.303,0.455,0.375,1.105,0.417,1.674"/>
	<path fill="#FFFFFF" stroke="#000000" stroke-miterlimit="10" d="M112.584,114.01c-1.588,0.777,2.362,4.984,2.903,5.537
		c2.566,2.631,2.215-1.898,1.801-4.76c-0.184-1.279-0.774-3.447-0.774-3.447c0.086-1.055,0.405-2.408,0.036-3.303
		c-1.438-3.482-4.047-0.559-3.004,1.877c0.59,1.379,1.727,1.361,1.871,1.82c0,0,0.717,4.898,0.786,6.424
		c-0.864-1.426-1.223-1.77-2.149-3.105C114.054,115.053,113.208,113.706,112.584,114.01z"/>
	<path fill="none" stroke="#000000" stroke-linecap="round" stroke-linejoin="round" stroke-miterlimit="10" d="M118.259,112.79
		c3.018,0.434,6.024,0.902,9.037,1.363c0.787,0.119,2.64,0.242,3.717,0.223"/>
	<path fill="none" stroke="#000000" stroke-linecap="round" stroke-linejoin="round" stroke-miterlimit="10" d="M119.737,114.7
		c3.133,0.312,6.47,0.68,9.55,1.355c0.08,1.227,0.689,1.736,1.972,2.219"/>
	<path fill="none" stroke="#000000" stroke-miterlimit="10" d="M118.575,120.799c-1.49,0.418-3.639,0.275-4.991-0.461"/>
	<path fill="none" stroke="#000000" stroke-miterlimit="10" d="M118.021,122.372c-1.385,0.428-3.086,0.121-4.344-0.555"/>
</g>
<g id="Merchant_1_">
	<path fill="none" stroke="#000000" stroke-linecap="round" stroke-linejoin="round" stroke-miterlimit="10" d="M142.787,89.228
		c0.91,7.512-0.736,15.921,7.021,19.962c7.189,3.744,15.277,2.145,19.531-4.867c2.281-3.76,3.016-7.866,2.918-12.161"/>
	<path fill="none" stroke="#000000" stroke-linecap="round" stroke-linejoin="round" stroke-miterlimit="10" d="M143.402,89.228
		c-2.279,0-13.462,0-6.23-2.896c6.396-2.561,28.996-5.543,32.09-3.004c5.266,4.322,2.996,8.834,2.996,8.834
		c-2.672,0.527-7.873,0.479-10.586,0.387c-4.062-0.135-11.74,0.008-12.096-0.975c-0.355-0.979,5.785-2.504,7.637-2.838
		C157.212,88.736,147,89.228,143.402,89.228z"/>
	<path fill="none" stroke="#000000" stroke-linecap="round" stroke-linejoin="round" stroke-miterlimit="10" d="M140.753,94.896
		c0.076,3.153,1.301,6.548,4.852,7.099c3.201,0.494,5.6-1.977,6.066-4.952c0.113-0.727,0.104-1.475,0.172-2.208
		C148.593,94.835,144.265,94.835,140.753,94.896z"/>
	<path fill="none" stroke="#000000" stroke-linecap="round" stroke-linejoin="round" stroke-miterlimit="10" d="M154.984,94.896
		c0.078,3.153,2.346,6.786,5.914,7.216c4.561,0.547,7.023-2.287,7.58-4.258c0.344-1.221,0.424-2.286,0.492-3.019
		C165.72,94.835,158.496,94.835,154.984,94.896z"/>
	<path fill="none" stroke="#000000" stroke-linecap="round" stroke-linejoin="round" stroke-miterlimit="10" d="M151.904,96.006
		c1.229-0.848,1.99-0.371,3.08,0.307"/>
	<path fill="none" stroke="#000000" stroke-linecap="round" stroke-linejoin="round" stroke-miterlimit="10" d="M149.847,105.413
		c0.863,2.246,6.432,4.502,8.93,0H149.847z"/>
	<path fill="none" stroke="#000000" stroke-linecap="round" stroke-linejoin="round" stroke-miterlimit="10" d="M144.695,93.111
		c0.699-0.027,1.4,0.014,2.096,0.061"/>
	<path fill="none" stroke="#000000" stroke-linecap="round" stroke-linejoin="round" stroke-miterlimit="10" d="M158.064,93.417
		c0.689,0.105,1.395,0.061,2.096,0.061"/>
	<path fill="none" stroke="#000000" stroke-linecap="round" stroke-linejoin="round" stroke-miterlimit="10" d="M156.957,111.223
		c0,0.809-0.156,1.975,0.186,2.588"/>
	<path fill="none" stroke="#000000" stroke-linecap="round" stroke-linejoin="round" stroke-miterlimit="10" d="M158.681,111.223
		c0.02,0.848-0.066,1.91,0.061,2.711"/>
	<path fill="none" stroke="#000000" stroke-linecap="round" stroke-linejoin="round" stroke-miterlimit="10" d="M163.365,109.807
		c0,1.406-0.154,2.949,0.123,4.312"/>
	<path fill="none" stroke="#000000" stroke-linecap="round" stroke-linejoin="round" stroke-miterlimit="10" d="M165.582,108.635
		c-0.023,0.922-0.52,5.064-0.061,5.238"/>
	<path fill="none" stroke="#000000" stroke-linecap="round" stroke-linejoin="round" stroke-miterlimit="10" d="M163.308,113.993
		c0.812,0.127,1.592,0.051,2.393,0.146c-0.086,1.781-2.443,1.578-2.27-0.133"/>
	<path fill="none" stroke="#000000" stroke-linecap="round" stroke-linejoin="round" stroke-miterlimit="10" d="M156.714,114
		c0.82,0.057,1.592-0.086,2.396-0.061c0.066,1.783-2.299,1.781-2.271,0.064"/>
	<path fill="none" stroke="#000000" stroke-linecap="round" stroke-linejoin="round" stroke-miterlimit="10" d="M159.296,113.997
		c1.139,0.16,2.598,0.084,3.76,0.123"/>
	<path fill="none" stroke="#000000" stroke-linecap="round" stroke-linejoin="round" stroke-miterlimit="10" d="M156.648,113.997
		c0.334,7.795,0.389,15.621,1.012,23.402c0.084,1.053,0.082,6.301,0.254,7.342"/>
	<path fill="none" stroke="#000000" stroke-linecap="round" stroke-linejoin="round" stroke-miterlimit="10" d="M166.593,115.415
		c0,2.5,0.074,5.004,0.084,7.508c0.012,3.547,0.191,14.605,0.191,14.605c-2.062,0-6.232-0.121-9.111-0.121"/>
	<path fill="none" stroke="#000000" stroke-linecap="round" stroke-linejoin="round" stroke-miterlimit="10" d="M155.046,111.163
		c-0.23,1.109-0.539,2.48-0.309,3.572"/>
	<path fill="none" stroke="#000000" stroke-linecap="round" stroke-linejoin="round" stroke-miterlimit="10" d="M156.71,114.735
		c-0.693-0.023-1.346,0.053-2.033,0.062"/>
	<path fill="none" stroke="#000000" stroke-linecap="round" stroke-linejoin="round" stroke-miterlimit="10" d="M155.261,114.889
		c0.424,6.045-0.781,13.244,1.018,19.131"/>
	<path fill="none" stroke="#000000" stroke-linecap="round" stroke-linejoin="round" stroke-miterlimit="10" d="M157.386,137.807
		c-2.049-0.16-2.734-2.77-1.107-3.879"/>
	<path fill="none" stroke="#000000" stroke-linecap="round" stroke-linejoin="round" stroke-miterlimit="10" d="M158.126,119.788
		c1.447-0.148,4.035,0.338,5.268,0"/>
	<path fill="none" stroke="#000000" stroke-linecap="round" stroke-linejoin="round" stroke-miterlimit="10" d="M163.394,119.788
		c0.232,1.223,0.32,2.955-0.086,4.559c-0.9,0.709-3.395,0.678-4.637,0.107c-0.404-0.332-0.537-3.473-0.545-4.666"/>
	<path fill="none" stroke="#000000" stroke-linecap="round" stroke-linejoin="round" stroke-miterlimit="10" d="M169.679,111.657
		c0.721,7.072,0.449,18.188,0.543,25.316c0.014,1.162-0.262,6.398-0.264,7.768"/>
	<path fill="none" stroke="#000000" stroke-linecap="round" stroke-linejoin="round" stroke-miterlimit="10" d="M162.931,137.532
		c0.082,1.02-0.055,6.658,0,7.209"/>
	<path fill="none" stroke="#000000" stroke-linecap="round" stroke-linejoin="round" stroke-miterlimit="10" d="M166.869,125.651
		c0.367,0.053,2.973,0.012,3.365-0.041"/>
	<path fill="none" stroke="#000000" stroke-linecap="round" stroke-linejoin="round" stroke-miterlimit="10" d="M166.869,127.709
		c0.354,0.012,2.924-0.004,3.34-0.141"/>
	<path fill="#FFFFFF" stroke="#000000" stroke-miterlimit="10" d="M158.675,111.965c-3.346,0.531-3.688,0.613-7.084,0.613
		c-1.664,0-5.395-0.281-5.395-0.281c-0.939-1.043-1.926-1.312-3.127-1.201c-1.705,0.158-3.408,2.143-2.877,3.516
		c0.736,1.898,5.064,1.85,6.064-0.418c5.088,0.418,8.48,0.541,13.344-0.012"/>
	<path fill="#FFFFFF" stroke="#000000" stroke-miterlimit="10" d="M158.742,111.571c2.186-0.832,8.318-3.795,10.229-1.764
		c2.129,2.262-2.371,5.369-4.104,6.229c-1.275,0.633-2.488,1.025-4.008,1.781C159.841,115.934,158.742,111.571,158.742,111.571z"/>
	<path fill="none" stroke="#000000" stroke-width="0.8" stroke-linecap="round" stroke-linejoin="round" stroke-miterlimit="10" d="
		M132.031,113.983c0.012-0.561-0.006-1.531,0.004-2.256c3.244-0.053,6.65-0.27,9.883-0.516"/>
	<path fill="none" stroke="#000000" stroke-width="0.8" stroke-linecap="round" stroke-linejoin="round" stroke-miterlimit="10" d="
		M133.277,113.567c-0.088-0.268-0.057-0.635-0.041-0.916c2.477-0.365,5.066-0.242,7.527-0.607"/>
	<path fill="none" stroke="#000000" stroke-width="0.8" stroke-linecap="round" stroke-linejoin="round" stroke-miterlimit="10" d="
		M132.076,116.848c-0.654-0.992-0.984-2.035-1.062-2.473c0,0,1.285-0.24,2.312-0.445c2.303-0.461,4.609-0.852,6.93-1.195"/>
	<path fill="none" stroke="#000000" stroke-width="0.8" stroke-linecap="round" stroke-linejoin="round" stroke-miterlimit="10" d="
		M133.001,116.247c-0.439-0.531-0.787-1.357-0.787-1.357c1.338-0.312,6.344-1.115,7.693-1.367"/>
	<path fill="none" stroke="#000000" stroke-width="0.8" stroke-linecap="round" stroke-linejoin="round" stroke-miterlimit="10" d="
		M139.701,114.167c-3.385,1.031-5.617,1.885-8.42,3.281c0.828,1.492,1.252,2.828,2.318,4.166c1.941-1.301,3.744-2.469,4.916-3.24
		c1.117-0.738,3.17-1.646,4.271-2.404"/>
	<path fill="none" stroke="#000000" stroke-width="0.8" stroke-linecap="round" stroke-linejoin="round" stroke-miterlimit="10" d="
		M140.095,114.889c-2.168,0.787-4.785,1.357-7.055,2.879c0.365,0.713,0.9,1.385,1.391,1.998c2.078-1.498,4.992-2.918,6.887-3.889"/>
	<path fill="none" stroke="#000000" stroke-width="0.8" stroke-linecap="round" stroke-linejoin="round" stroke-miterlimit="10" d="
		M136.212,115.137c-0.479-0.762,1.189-1.289,1.455-0.508"/>
	<path fill="none" stroke="#000000" stroke-width="0.8" stroke-linecap="round" stroke-linejoin="round" stroke-miterlimit="10" d="
		M138.591,116.178c-0.309-0.449-1.189-0.234-1.115,0.383c0.105,0.867,1.564,0.43,1.162-0.408"/>
	<path fill="none" stroke="#000000" stroke-linecap="round" stroke-linejoin="round" stroke-miterlimit="10" d="M145.623,97.047
		c0.252-1.733,2.145-1.862,2.332-0.084"/>
	<path fill="none" stroke="#000000" stroke-linecap="round" stroke-linejoin="round" stroke-miterlimit="10" d="M159.623,96.713
		c-0.02-1.834,2.355-1.877,2.166,0.166"/>
</g>
<path fill="none" stroke="#000000" stroke-linecap="round" stroke-linejoin="round" stroke-miterlimit="10" d="M82.902,119.006
	c2.314,0,9.612,0,9.611,0"/>
<path fill="none" stroke="#000000" stroke-linecap="round" stroke-linejoin="round" stroke-miterlimit="10" d="M79.021,121.409
	c1.708,1.502,9.941,0.369,13.123,0.369"/>
<path fill="none" stroke="#000000" stroke-linecap="round" stroke-linejoin="round" stroke-miterlimit="10" d="M75.324,125.29
	c3.707,0.924,11.357-0.137,16.265-0.371"/>
<text transform="matrix(0.9617 -0.2741 0.2741 0.9617 66.1206 70.0645)" font-family="'Arabica-Italic'" font-size="15">แอร๊ยย</text>
<text transform="matrix(0.9617 -0.2741 0.2741 0.9617 22.5107 103.4458)"><tspan x="0" y="0" font-family="'Arabica-Italic'" font-size="15">งี้ลงอีกก็</tspan><tspan x="0" y="18" font-family="'Arabica-Italic'" font-size="15">ได้อีกอะดิ</tspan></text>
<text transform="matrix(0.9776 0.2106 -0.2106 0.9776 164.5054 61.3555)" font-family="'Arabica-Italic'" font-size="15">ค่าโฆษณาไง</text>
<text transform="matrix(0.9511 0.309 -0.309 0.9511 200.7095 93.3984)" font-family="'Arabica-Italic'" font-size="15">อือๆ</text>
<path fill="none" stroke="#000000" stroke-linecap="round" stroke-linejoin="round" stroke-miterlimit="10" d="M86.876,70.987
	c2.837,3.43,5.732,6.911,8.502,10.352"/>
<path fill="none" stroke="#000000" stroke-linecap="round" stroke-linejoin="round" stroke-miterlimit="10" d="M76.156,92.244
	c4.532,2.135,9.852,2.803,14.047,5.546"/>
<path fill="none" stroke="#000000" stroke-linecap="round" stroke-linejoin="round" stroke-miterlimit="10" d="M174.855,83.001
	c2.357-4.26,4.559-8.988,7.393-12.937"/>
<path fill="none" stroke="#000000" stroke-linecap="round" stroke-linejoin="round" stroke-miterlimit="10" d="M177.628,97.418
	c6.789-1.188,13.645-3.012,20.33-4.436"/>
</svg>
