<?xml version="1.0" encoding="UTF-8"?>
<svg width="762px" height="371px" viewBox="0 0 762 371" version="1.1" xmlns="http://www.w3.org/2000/svg" xmlns:xlink="http://www.w3.org/1999/xlink">
    <!-- Generator: Sketch 48.2 (47327) - http://www.bohemiancoding.com/sketch -->
    <title>shutterstock_232840987</title>
    <desc>Created with Sketch.</desc>
    <defs></defs>
    <g id="Page-1" stroke="none" stroke-width="1" fill="none" fill-rule="evenodd">
        <g id="shutterstock_232840987">
            <path d="M85.628,221.676 C85.628,221.676 90.995,179.635 92.212,175.467 C93.429,171.299 103.808,159.693 106.661,155.34 C109.513,150.988 116.67,127.996 116.67,127.996 C116.67,127.996 99.088,134.869 96.076,135.863 C93.064,136.859 88.993,131.815 88.993,131.815 C88.723,121.656 71.249,98.214 71.249,98.214 L66.029,85.533 L56.635,57.867 L52.261,59.422 C49.09,61.218 40.233,94.929 39.607,99.343 C38.981,103.758 48.567,138.924 49.649,142.143 C50.732,145.365 23.341,247.32 23.341,247.32 L85.628,221.676" id="Fill-2" fill="#E2BF98"></path>
            <path d="M114.792,33.191 C114.792,33.191 130.205,27.662 134.239,31.786 C137.287,34.899 137.656,41.134 131.686,44.325 C125.718,47.516 121.245,48.869 121.245,48.869 L114.792,33.191" id="Fill-3" fill="#E2BF98"></path>
            <path d="M147.998,102.627 C150.411,108.493 147.585,115.268 141.722,117.682 L98.908,135.309 C93.042,137.723 86.268,134.898 83.854,129.035 L44.705,33.939 C42.29,28.073 45.113,21.298 50.979,18.884 L93.792,1.258 C99.656,-1.157 106.433,1.667 108.848,7.533 L147.998,102.627" id="Fill-4" fill="#000105"></path>
            <polyline id="Fill-5" fill="#FFFFFE" points="140.81 98.749 86.253 121.207 48.393 29.238 102.946 6.778 140.81 98.749"></polyline>
            <path d="M126.711,50.447 C126.711,50.447 136.326,49.013 138.839,53.846 C141.349,58.682 143.966,65.67 141.727,67.814 C139.489,69.959 133.776,73.776 131.992,71.335 C130.205,68.891 127.321,60.871 129.898,58.588 L126.711,50.447" id="Fill-6" fill="#E2BF98"></path>
            <path d="M141.075,66.859 C141.075,66.859 146.372,68.381 147.933,70.883 C150.034,74.255 150.672,79.532 150.027,81.754 C149.38,83.975 149.336,86.925 145.196,88.875 C143.892,89.491 140.962,90.213 138.96,88.264 C134.566,83.983 129.902,71.949 141.075,66.859" id="Fill-7" fill="#E2BF98"></path>
            <path d="M147.98,85.529 C147.98,85.529 152.675,86.205 154.278,91.981 C155.589,96.715 153.903,101.181 151.27,102.997 C148.637,104.816 144.813,102.479 143.953,100.388 C143.091,98.296 139.169,89.4 143.123,88.263 C147.075,87.124 147.98,85.529 147.98,85.529" id="Fill-8" fill="#E2BF98"></path>
            <path d="M125.132,113.515 C125.44,114.264 124.626,115.31 123.322,115.848 L108.414,121.984 C107.111,122.52 105.792,122.35 105.484,121.602 C105.177,120.853 105.991,119.805 107.295,119.266 L122.203,113.129 C123.506,112.592 124.824,112.767 125.132,113.515" id="Fill-9" fill="#FFFFFE"></path>
            <polyline id="Fill-21" fill="#DB3E38" points="34.411 165.645 99.246 182.129 77.268 370.906 0.345 370.906 34.411 165.645"></polyline>
            <path d="M216.748,273.217 C216.748,273.217 218.507,227.98 217.96,223.373 C217.414,218.766 208.526,204.707 206.287,199.619 C204.049,194.529 200.563,169.043 200.563,169.043 C200.563,169.043 217.877,179.387 220.875,180.965 C223.872,182.545 229.052,177.945 229.052,177.945 C231.127,167.295 253.67,145.678 253.67,145.678 L261.408,133.238 L276.185,105.745 L280.517,108.155 C283.542,110.606 286.927,147.685 286.809,152.447 C286.691,157.207 270.389,192.566 268.681,195.768 C266.973,198.973 277.85,311.217 277.85,311.217 L216.748,273.217" id="Fill-22" fill="#E2BF98"></path>
            <path d="M219.262,69.491 C219.262,69.491 203.999,60.947 199.02,64.581 C195.26,67.322 193.772,73.827 199.498,78.242 C205.225,82.656 209.697,84.87 209.697,84.87 L219.262,69.491" id="Fill-23" fill="#E2BF98"></path>
            <path d="M172.033,136.791 C168.454,142.547 170.234,150.184 175.989,153.762 L217.988,179.881 C223.743,183.459 231.377,181.68 234.957,175.924 L292.973,82.639 C296.552,76.884 294.772,69.248 289.017,65.67 L247.018,39.55 C241.265,35.972 233.628,37.752 230.05,43.505 L172.033,136.791" id="Fill-24" fill="#000105"></path>
            <polyline id="Fill-25" fill="#FFFFFE" points="180.29 133.973 233.807 167.258 289.917 77.036 236.399 43.753 180.29 133.973"></polyline>
            <path d="M203.66,85.569 C203.66,85.569 193.782,82.363 190.283,87.014 C186.786,91.663 182.796,98.565 184.777,101.219 C186.757,103.873 192.101,108.902 194.413,106.644 C196.726,104.385 201.18,96.444 198.866,93.584 L203.66,85.569" id="Fill-26" fill="#E2BF98"></path>
            <path d="M185.632,100.329 C185.632,100.329 179.784,100.997 177.699,103.357 C174.889,106.539 173.285,111.987 173.575,114.44 C173.865,116.895 173.391,120.012 177.409,122.797 C178.674,123.674 181.633,124.951 184.085,123.252 C189.471,119.518 196.505,107.662 185.632,100.329" id="Fill-27" fill="#E2BF98"></path>
            <path d="M175.066,118.779 C175.066,118.779 169.999,118.664 167.292,124.467 C165.075,129.225 166.065,134.225 168.517,136.603 C170.972,138.982 175.412,137.195 176.687,135.144 C177.962,133.094 183.666,124.412 179.702,122.52 C175.738,120.621 175.066,118.779 175.066,118.779" id="Fill-28" fill="#E2BF98"></path>
            <path d="M194.203,152.293 C193.747,153.027 194.419,154.275 195.698,155.072 L210.323,164.168 C211.601,164.961 213.021,165.014 213.477,164.279 C213.933,163.547 213.259,162.295 211.98,161.5 L197.355,152.406 C196.078,151.611 194.659,151.56 194.203,152.293" id="Fill-29" fill="#FFFFFE"></path>
            <polyline id="Fill-30" fill="#B8BA9B" points="210.235 238.174 277.268 233.777 295.95 370.906 214.63 370.906 210.235 238.174"></polyline>
            <path d="M367.512,305.199 C367.512,305.199 385.136,266.656 387.537,263.039 C389.94,259.42 403.299,251.426 407.316,248.117 C411.334,244.81 425.004,224.986 425.004,224.986 C425.004,224.986 406.174,226.32 403.002,226.375 C399.83,226.43 397.443,220.402 397.443,220.402 C400.205,210.625 390.492,183.047 390.492,183.047 L389.277,169.387 L388.536,140.178 L383.898,140.363 C380.335,141.133 361.856,170.687 359.946,174.717 C358.035,178.744 356.732,215.17 356.807,218.566 C356.883,221.963 300.418,311.162 300.418,311.162 L367.512,305.199" id="Fill-40" fill="#E2BF98"></path>
            <path d="M451.398,133.91 C451.398,133.91 467.76,133.213 470.385,138.352 C472.369,142.228 470.867,148.293 464.219,149.564 C457.572,150.836 452.9,150.799 452.9,150.799 L451.398,133.91" id="Fill-41" fill="#E2BF98"></path>
            <path d="M462.457,210.08 C463.018,216.398 458.307,222.027 451.988,222.588 L405.871,226.687 C399.553,227.248 393.924,222.539 393.361,216.221 L384.259,113.785 C383.698,107.467 388.409,101.837 394.727,101.276 L440.844,97.178 C447.162,96.617 452.793,101.327 453.354,107.645 L462.457,210.08" id="Fill-42" fill="#000105"></path>
            <polyline id="Fill-43" fill="#FFFFFE" points="456.746 204.24 397.98 209.461 389.178 110.394 447.943 105.171 456.746 204.24"></polyline>
            <path d="M457.648,153.93 C457.648,153.93 467.256,155.422 468.217,160.783 C469.176,166.145 469.596,173.596 466.822,174.977 C464.047,176.359 457.457,178.305 456.481,175.443 C455.502,172.578 455.133,164.065 458.271,162.65 L457.648,153.93" id="Fill-44" fill="#E2BF98"></path>
            <path d="M466.482,173.871 C466.482,173.871 471.088,176.898 471.834,179.752 C472.838,183.596 471.879,188.824 470.602,190.754 C469.324,192.682 468.404,195.486 463.871,196.117 C462.443,196.316 459.432,196.135 458.102,193.68 C455.178,188.285 454.303,175.408 466.482,173.871" id="Fill-45" fill="#E2BF98"></path>
            <path d="M467.523,193.75 C467.523,193.75 471.807,195.791 471.619,201.783 C471.465,206.693 468.525,210.453 465.473,211.406 C462.418,212.359 459.461,208.99 459.262,206.74 C459.06,204.488 457.961,194.826 462.074,194.916 C466.185,195.004 467.523,193.75 467.523,193.75" id="Fill-46" fill="#E2BF98"></path>
            <path d="M437.389,213.676 C437.461,214.48 436.371,215.24 434.969,215.365 L418.908,216.793 C417.504,216.918 416.297,216.361 416.225,215.557 C416.154,214.752 417.244,213.988 418.648,213.865 L434.707,212.437 C436.111,212.312 437.318,212.871 437.389,213.676" id="Fill-47" fill="#FFFFFE"></path>
            <polyline id="Fill-48" fill="#52B8B7" points="340.804 227.23 402.414 255.432 356.912 370.906 268.155 370.906 340.804 227.23"></polyline>
            <g id="coins" transform="translate(397.000000, 130.000000)">
                <path d="M51.604,46.9 C52.168,51.312 43.4,55.682 31.844,57.158 C20.287,58.635 10.518,56.701 9.953,52.289 C9.838,51.377 9.34,47.674 9.482,47.58 C10.371,46.996 11.508,46.326 12.853,45.631 C12.853,45.631 22.965,53.461 29.842,52.582 C35.629,51.842 45.766,44.918 45.922,44.789 C47.734,43.334 50.957,42.344 50.957,42.344 C50.957,42.344 51.498,46.066 51.604,46.9" id="Fill-49" fill="#EA884A"></path>
                <path d="M51.158,42.896 C51.723,47.309 42.869,52.076 31.381,53.545 C19.897,55.012 10.129,52.627 9.565,48.213 C9,43.801 17.853,39.033 29.338,37.564 C40.826,36.096 50.594,38.484 51.158,42.896" id="Fill-50" fill="#F6BE46"></path>
                <path d="M46.867,38.742 C47.432,43.154 38.662,47.523 27.107,49 C15.553,50.478 5.781,48.541 5.219,44.131 C5.102,43.219 4.602,39.514 4.744,39.42 C5.635,38.838 6.77,38.168 8.115,37.473 C8.115,37.473 18.227,45.303 25.102,44.422 C30.891,43.684 41.027,36.758 41.184,36.633 C42.996,35.176 46.221,34.184 46.221,34.184 C46.221,34.184 46.76,37.906 46.867,38.742" id="Fill-51" fill="#EA884A"></path>
                <path d="M46.42,34.738 C46.984,39.15 38.131,43.918 26.645,45.385 C15.158,46.853 5.389,44.467 4.826,40.055 C4.262,35.643 13.115,30.875 24.602,29.406 C36.088,27.94 45.857,30.326 46.42,34.738" id="Fill-52" fill="#F6BE46"></path>
                <path d="M47.5,30.928 C48.064,35.34 39.295,39.709 27.738,41.188 C16.184,42.664 6.416,40.728 5.852,36.315 C5.736,35.402 5.236,31.699 5.377,31.607 C6.27,31.023 7.402,30.353 8.748,29.658 C8.748,29.658 18.859,37.488 25.736,36.609 C31.525,35.869 41.66,28.943 41.818,28.818 C43.629,27.361 46.853,26.369 46.853,26.369 C46.853,26.369 47.394,30.092 47.5,30.928" id="Fill-53" fill="#EA884A"></path>
                <path d="M47.053,26.924 C47.617,31.336 38.762,36.103 27.277,37.572 C15.791,39.041 6.023,36.654 5.459,32.24 C4.895,27.828 13.748,23.06 25.234,21.594 C36.721,20.125 46.488,22.512 47.053,26.924" id="Fill-54" fill="#F6BE46"></path>
                <path d="M49.652,23.563 C50.217,27.975 41.447,32.346 29.893,33.822 C18.336,35.299 8.566,33.363 8.004,28.951 C7.887,28.039 7.389,24.336 7.531,24.242 C8.422,23.66 9.555,22.99 10.9,22.295 C10.9,22.295 21.012,30.123 27.889,29.244 C33.676,28.504 43.813,21.58 43.969,21.455 C45.781,19.998 49.006,19.006 49.006,19.006 C49.006,19.006 49.545,22.728 49.652,23.563" id="Fill-55" fill="#EA884A"></path>
                <path d="M49.205,19.56 C49.77,23.973 40.916,28.74 29.43,30.207 C17.943,31.676 8.176,29.289 7.611,24.877 C7.049,20.465 15.902,15.697 27.389,14.228 C38.873,12.762 48.643,15.148 49.205,19.56" id="Fill-56" fill="#F6BE46"></path>
                <path d="M43.145,17.35 C43.709,21.762 34.939,26.131 23.385,27.607 C11.83,29.086 2.06,27.15 1.496,22.738 C1.379,21.826 0.879,18.123 1.022,18.029 C1.912,17.445 3.047,16.775 4.395,16.082 C4.395,16.082 14.504,23.91 21.381,23.031 C27.168,22.291 37.305,15.367 37.461,15.24 C39.273,13.785 42.498,12.791 42.498,12.791 C42.498,12.791 43.039,16.516 43.145,17.35" id="Fill-57" fill="#EA884A"></path>
                <path d="M42.699,13.346 C43.91,17.627 34.408,22.525 22.922,23.994 C11.437,25.461 1.666,23.076 1.103,18.664 C0.773,16.092 3.647,13.398 8.375,11.309 C8.375,11.309 9.336,16.012 11.645,15.426 C13.6,14.928 22.803,16.664 25,16.383 C36.486,14.914 41.994,10.859 42.699,13.346" id="Fill-58" fill="#F6BE46"></path>
                <path d="M49.537,10.045 C50.1,14.457 41.33,18.826 29.775,20.305 C18.219,21.781 8.451,19.846 7.887,15.434 C7.77,14.522 7.272,10.818 7.414,10.725 C8.303,10.143 9.437,9.473 10.785,8.777 C10.785,8.777 20.895,16.605 27.772,15.727 C33.56,14.988 43.695,8.062 43.853,7.935 C45.664,6.48 48.889,5.488 48.889,5.488 C48.889,5.488 49.43,9.211 49.537,10.045" id="Fill-59" fill="#EA884A"></path>
                <path d="M19.815,4.336 C19.107,4.676 15.197,7.922 15.197,7.922 L15.24,12.16 L22.098,15.029 L33.244,14.353 L42.693,10.15 L45.322,5.32 L39.629,1.803 L30.416,1.982 L19.815,4.336" id="Fill-60" fill="#FFFFFE"></path>
                <path d="M27.451,0.676 C27.326,0.691 27.201,0.703 27.078,0.719 C15.918,2.147 7.24,6.684 7.228,10.996 C7.228,11.133 7.236,11.272 7.254,11.408 C7.398,12.533 8.141,13.529 9.353,14.361 C9.471,14.441 9.592,14.519 9.717,14.598 C11.232,15.531 13.373,16.24 15.943,16.682 C16.518,16.779 17.115,16.865 17.73,16.935 C21.076,17.322 24.99,17.295 29.129,16.766 C29.252,16.75 29.377,16.73 29.5,16.715 C31.875,16.394 34.135,15.935 36.219,15.367 C36.51,15.287 36.801,15.203 37.088,15.119 C39.324,14.459 41.332,13.676 43.035,12.81 C43.143,12.756 43.248,12.699 43.353,12.644 C44.772,11.898 45.963,11.096 46.881,10.262 C48.369,8.908 49.133,7.475 48.953,6.078 C48.393,1.693 38.803,-0.697 27.451,0.676 Z M39.316,7.434 C39.315,8.117 38.609,8.824 37.199,9.551 L33.201,7.652 L33.51,7.494 C33.92,7.281 34.178,7.049 34.287,6.797 C34.397,6.543 34.244,6.316 33.832,6.121 C33.371,5.902 32.898,5.812 32.418,5.85 C31.938,5.883 31.539,5.984 31.225,6.145 C30.746,6.393 30.543,6.668 30.615,6.973 C30.685,7.277 30.883,7.603 31.205,7.953 C31.525,8.303 31.895,8.668 32.307,9.047 C32.697,9.404 32.984,9.781 33.18,10.172 L33.182,10.178 C33.191,10.199 33.205,10.219 33.215,10.24 C33.408,10.656 33.41,11.086 33.223,11.523 C33.168,11.648 33.082,11.775 32.973,11.9 C32.695,12.219 32.242,12.543 31.605,12.869 C30.209,13.59 28.77,13.93 27.289,13.891 C25.842,13.852 24.275,13.51 22.59,12.867 C22.525,12.865 22.463,12.863 22.4,12.861 L20.627,13.777 L18.512,12.773 L18.922,12.56 L20.357,11.82 C20.01,11.619 19.703,11.422 19.438,11.227 C19.418,11.213 19.404,11.201 19.385,11.187 C18.676,10.662 18.258,10.158 18.145,9.682 C17.992,9.02 18.563,8.353 19.863,7.682 L20.414,7.397 L24.553,9.359 L24.162,9.56 C23.547,9.879 23.254,10.158 23.281,10.402 C23.287,10.451 23.309,10.5 23.328,10.545 C23.334,10.545 23.334,10.549 23.33,10.551 C23.418,10.736 23.625,10.912 23.967,11.072 C24.412,11.283 24.881,11.379 25.379,11.357 C25.879,11.338 26.312,11.23 26.68,11.039 C27.147,10.801 27.35,10.531 27.293,10.232 C27.289,10.215 27.256,10.17 27.273,10.162 C27.203,9.887 27.037,9.592 26.76,9.279 C26.461,8.941 26.119,8.582 25.734,8.203 C25.352,7.824 25.07,7.435 24.895,7.031 C24.744,6.691 24.734,6.34 24.85,5.982 C24.869,5.92 24.887,5.855 24.914,5.791 C24.992,5.619 25.125,5.447 25.31,5.273 C25.578,5.02 25.955,4.766 26.451,4.51 C29.012,3.191 31.895,3.09 35.109,4.209 L36.299,3.596 L38.414,4.598 L38.27,4.674 L37.225,5.213 C38.086,5.705 38.678,6.174 39.006,6.623 C39.211,6.902 39.315,7.172 39.316,7.434 Z" id="Fill-61" fill="#F6BE46"></path>
            </g>
            <g id="coins" transform="translate(235.557996, 100.113164) rotate(40.000000) translate(-235.557996, -100.113164) translate(209.557996, 71.113164)">
                <path d="M51.604,46.9 C52.168,51.312 43.4,55.682 31.844,57.158 C20.287,58.635 10.518,56.701 9.953,52.289 C9.838,51.377 9.34,47.674 9.482,47.58 C10.371,46.996 11.508,46.326 12.853,45.631 C12.853,45.631 22.965,53.461 29.842,52.582 C35.629,51.842 45.766,44.918 45.922,44.789 C47.734,43.334 50.957,42.344 50.957,42.344 C50.957,42.344 51.498,46.066 51.604,46.9" id="Fill-49" fill="#EA884A"></path>
                <path d="M51.158,42.896 C51.723,47.309 42.869,52.076 31.381,53.545 C19.897,55.012 10.129,52.627 9.565,48.213 C9,43.801 17.853,39.033 29.338,37.564 C40.826,36.096 50.594,38.484 51.158,42.896" id="Fill-50" fill="#F6BE46"></path>
                <path d="M46.867,38.742 C47.432,43.154 38.662,47.523 27.107,49 C15.553,50.478 5.781,48.541 5.219,44.131 C5.102,43.219 4.602,39.514 4.744,39.42 C5.635,38.838 6.77,38.168 8.115,37.473 C8.115,37.473 18.227,45.303 25.102,44.422 C30.891,43.684 41.027,36.758 41.184,36.633 C42.996,35.176 46.221,34.184 46.221,34.184 C46.221,34.184 46.76,37.906 46.867,38.742" id="Fill-51" fill="#EA884A"></path>
                <path d="M46.42,34.738 C46.984,39.15 38.131,43.918 26.645,45.385 C15.158,46.853 5.389,44.467 4.826,40.055 C4.262,35.643 13.115,30.875 24.602,29.406 C36.088,27.94 45.857,30.326 46.42,34.738" id="Fill-52" fill="#F6BE46"></path>
                <path d="M47.5,30.928 C48.064,35.34 39.295,39.709 27.738,41.188 C16.184,42.664 6.416,40.728 5.852,36.315 C5.736,35.402 5.236,31.699 5.377,31.607 C6.27,31.023 7.402,30.353 8.748,29.658 C8.748,29.658 18.859,37.488 25.736,36.609 C31.525,35.869 41.66,28.943 41.818,28.818 C43.629,27.361 46.853,26.369 46.853,26.369 C46.853,26.369 47.394,30.092 47.5,30.928" id="Fill-53" fill="#EA884A"></path>
                <path d="M47.053,26.924 C47.617,31.336 38.762,36.103 27.277,37.572 C15.791,39.041 6.023,36.654 5.459,32.24 C4.895,27.828 13.748,23.06 25.234,21.594 C36.721,20.125 46.488,22.512 47.053,26.924" id="Fill-54" fill="#F6BE46"></path>
                <path d="M49.652,23.563 C50.217,27.975 41.447,32.346 29.893,33.822 C18.336,35.299 8.566,33.363 8.004,28.951 C7.887,28.039 7.389,24.336 7.531,24.242 C8.422,23.66 9.555,22.99 10.9,22.295 C10.9,22.295 21.012,30.123 27.889,29.244 C33.676,28.504 43.813,21.58 43.969,21.455 C45.781,19.998 49.006,19.006 49.006,19.006 C49.006,19.006 49.545,22.728 49.652,23.563" id="Fill-55" fill="#EA884A"></path>
                <path d="M49.205,19.56 C49.77,23.973 40.916,28.74 29.43,30.207 C17.943,31.676 8.176,29.289 7.611,24.877 C7.049,20.465 15.902,15.697 27.389,14.228 C38.873,12.762 48.643,15.148 49.205,19.56" id="Fill-56" fill="#F6BE46"></path>
                <path d="M43.145,17.35 C43.709,21.762 34.939,26.131 23.385,27.607 C11.83,29.086 2.06,27.15 1.496,22.738 C1.379,21.826 0.879,18.123 1.022,18.029 C1.912,17.445 3.047,16.775 4.395,16.082 C4.395,16.082 14.504,23.91 21.381,23.031 C27.168,22.291 37.305,15.367 37.461,15.24 C39.273,13.785 42.498,12.791 42.498,12.791 C42.498,12.791 43.039,16.516 43.145,17.35" id="Fill-57" fill="#EA884A"></path>
                <path d="M42.699,13.346 C43.91,17.627 34.408,22.525 22.922,23.994 C11.437,25.461 1.666,23.076 1.103,18.664 C0.773,16.092 3.647,13.398 8.375,11.309 C8.375,11.309 9.336,16.012 11.645,15.426 C13.6,14.928 22.803,16.664 25,16.383 C36.486,14.914 41.994,10.859 42.699,13.346" id="Fill-58" fill="#F6BE46"></path>
                <path d="M49.537,10.045 C50.1,14.457 41.33,18.826 29.775,20.305 C18.219,21.781 8.451,19.846 7.887,15.434 C7.77,14.522 7.272,10.818 7.414,10.725 C8.303,10.143 9.437,9.473 10.785,8.777 C10.785,8.777 20.895,16.605 27.772,15.727 C33.56,14.988 43.695,8.062 43.853,7.935 C45.664,6.48 48.889,5.488 48.889,5.488 C48.889,5.488 49.43,9.211 49.537,10.045" id="Fill-59" fill="#EA884A"></path>
                <path d="M19.815,4.336 C19.107,4.676 15.197,7.922 15.197,7.922 L15.24,12.16 L22.098,15.029 L33.244,14.353 L42.693,10.15 L45.322,5.32 L39.629,1.803 L30.416,1.982 L19.815,4.336" id="Fill-60" fill="#FFFFFE"></path>
                <path d="M27.451,0.676 C27.326,0.691 27.201,0.703 27.078,0.719 C15.918,2.147 7.24,6.684 7.228,10.996 C7.228,11.133 7.236,11.272 7.254,11.408 C7.398,12.533 8.141,13.529 9.353,14.361 C9.471,14.441 9.592,14.519 9.717,14.598 C11.232,15.531 13.373,16.24 15.943,16.682 C16.518,16.779 17.115,16.865 17.73,16.935 C21.076,17.322 24.99,17.295 29.129,16.766 C29.252,16.75 29.377,16.73 29.5,16.715 C31.875,16.394 34.135,15.935 36.219,15.367 C36.51,15.287 36.801,15.203 37.088,15.119 C39.324,14.459 41.332,13.676 43.035,12.81 C43.143,12.756 43.248,12.699 43.353,12.644 C44.772,11.898 45.963,11.096 46.881,10.262 C48.369,8.908 49.133,7.475 48.953,6.078 C48.393,1.693 38.803,-0.697 27.451,0.676 Z M39.316,7.434 C39.315,8.117 38.609,8.824 37.199,9.551 L33.201,7.652 L33.51,7.494 C33.92,7.281 34.178,7.049 34.287,6.797 C34.397,6.543 34.244,6.316 33.832,6.121 C33.371,5.902 32.898,5.812 32.418,5.85 C31.938,5.883 31.539,5.984 31.225,6.145 C30.746,6.393 30.543,6.668 30.615,6.973 C30.685,7.277 30.883,7.603 31.205,7.953 C31.525,8.303 31.895,8.668 32.307,9.047 C32.697,9.404 32.984,9.781 33.18,10.172 L33.182,10.178 C33.191,10.199 33.205,10.219 33.215,10.24 C33.408,10.656 33.41,11.086 33.223,11.523 C33.168,11.648 33.082,11.775 32.973,11.9 C32.695,12.219 32.242,12.543 31.605,12.869 C30.209,13.59 28.77,13.93 27.289,13.891 C25.842,13.852 24.275,13.51 22.59,12.867 C22.525,12.865 22.463,12.863 22.4,12.861 L20.627,13.777 L18.512,12.773 L18.922,12.56 L20.357,11.82 C20.01,11.619 19.703,11.422 19.438,11.227 C19.418,11.213 19.404,11.201 19.385,11.187 C18.676,10.662 18.258,10.158 18.145,9.682 C17.992,9.02 18.563,8.353 19.863,7.682 L20.414,7.397 L24.553,9.359 L24.162,9.56 C23.547,9.879 23.254,10.158 23.281,10.402 C23.287,10.451 23.309,10.5 23.328,10.545 C23.334,10.545 23.334,10.549 23.33,10.551 C23.418,10.736 23.625,10.912 23.967,11.072 C24.412,11.283 24.881,11.379 25.379,11.357 C25.879,11.338 26.312,11.23 26.68,11.039 C27.147,10.801 27.35,10.531 27.293,10.232 C27.289,10.215 27.256,10.17 27.273,10.162 C27.203,9.887 27.037,9.592 26.76,9.279 C26.461,8.941 26.119,8.582 25.734,8.203 C25.352,7.824 25.07,7.435 24.895,7.031 C24.744,6.691 24.734,6.34 24.85,5.982 C24.869,5.92 24.887,5.855 24.914,5.791 C24.992,5.619 25.125,5.447 25.31,5.273 C25.578,5.02 25.955,4.766 26.451,4.51 C29.012,3.191 31.895,3.09 35.109,4.209 L36.299,3.596 L38.414,4.598 L38.27,4.674 L37.225,5.213 C38.086,5.705 38.678,6.174 39.006,6.623 C39.211,6.902 39.315,7.172 39.316,7.434 Z" id="Fill-61" fill="#F6BE46"></path>
            </g>
            <g id="coins" transform="translate(90.545412, 56.105459) rotate(-13.000000) translate(-90.545412, -56.105459) translate(64.545412, 27.105459)">
                <path d="M51.604,46.9 C52.168,51.312 43.4,55.682 31.844,57.158 C20.287,58.635 10.518,56.701 9.953,52.289 C9.838,51.377 9.34,47.674 9.482,47.58 C10.371,46.996 11.508,46.326 12.853,45.631 C12.853,45.631 22.965,53.461 29.842,52.582 C35.629,51.842 45.766,44.918 45.922,44.789 C47.734,43.334 50.957,42.344 50.957,42.344 C50.957,42.344 51.498,46.066 51.604,46.9" id="Fill-49" fill="#EA884A"></path>
                <path d="M51.158,42.896 C51.723,47.309 42.869,52.076 31.381,53.545 C19.897,55.012 10.129,52.627 9.565,48.213 C9,43.801 17.853,39.033 29.338,37.564 C40.826,36.096 50.594,38.484 51.158,42.896" id="Fill-50" fill="#F6BE46"></path>
                <path d="M46.867,38.742 C47.432,43.154 38.662,47.523 27.107,49 C15.553,50.478 5.781,48.541 5.219,44.131 C5.102,43.219 4.602,39.514 4.744,39.42 C5.635,38.838 6.77,38.168 8.115,37.473 C8.115,37.473 18.227,45.303 25.102,44.422 C30.891,43.684 41.027,36.758 41.184,36.633 C42.996,35.176 46.221,34.184 46.221,34.184 C46.221,34.184 46.76,37.906 46.867,38.742" id="Fill-51" fill="#EA884A"></path>
                <path d="M46.42,34.738 C46.984,39.15 38.131,43.918 26.645,45.385 C15.158,46.853 5.389,44.467 4.826,40.055 C4.262,35.643 13.115,30.875 24.602,29.406 C36.088,27.94 45.857,30.326 46.42,34.738" id="Fill-52" fill="#F6BE46"></path>
                <path d="M47.5,30.928 C48.064,35.34 39.295,39.709 27.738,41.188 C16.184,42.664 6.416,40.728 5.852,36.315 C5.736,35.402 5.236,31.699 5.377,31.607 C6.27,31.023 7.402,30.353 8.748,29.658 C8.748,29.658 18.859,37.488 25.736,36.609 C31.525,35.869 41.66,28.943 41.818,28.818 C43.629,27.361 46.853,26.369 46.853,26.369 C46.853,26.369 47.394,30.092 47.5,30.928" id="Fill-53" fill="#EA884A"></path>
                <path d="M47.053,26.924 C47.617,31.336 38.762,36.103 27.277,37.572 C15.791,39.041 6.023,36.654 5.459,32.24 C4.895,27.828 13.748,23.06 25.234,21.594 C36.721,20.125 46.488,22.512 47.053,26.924" id="Fill-54" fill="#F6BE46"></path>
                <path d="M49.652,23.563 C50.217,27.975 41.447,32.346 29.893,33.822 C18.336,35.299 8.566,33.363 8.004,28.951 C7.887,28.039 7.389,24.336 7.531,24.242 C8.422,23.66 9.555,22.99 10.9,22.295 C10.9,22.295 21.012,30.123 27.889,29.244 C33.676,28.504 43.813,21.58 43.969,21.455 C45.781,19.998 49.006,19.006 49.006,19.006 C49.006,19.006 49.545,22.728 49.652,23.563" id="Fill-55" fill="#EA884A"></path>
                <path d="M49.205,19.56 C49.77,23.973 40.916,28.74 29.43,30.207 C17.943,31.676 8.176,29.289 7.611,24.877 C7.049,20.465 15.902,15.697 27.389,14.228 C38.873,12.762 48.643,15.148 49.205,19.56" id="Fill-56" fill="#F6BE46"></path>
                <path d="M43.145,17.35 C43.709,21.762 34.939,26.131 23.385,27.607 C11.83,29.086 2.06,27.15 1.496,22.738 C1.379,21.826 0.879,18.123 1.022,18.029 C1.912,17.445 3.047,16.775 4.395,16.082 C4.395,16.082 14.504,23.91 21.381,23.031 C27.168,22.291 37.305,15.367 37.461,15.24 C39.273,13.785 42.498,12.791 42.498,12.791 C42.498,12.791 43.039,16.516 43.145,17.35" id="Fill-57" fill="#EA884A"></path>
                <path d="M42.699,13.346 C43.91,17.627 34.408,22.525 22.922,23.994 C11.437,25.461 1.666,23.076 1.103,18.664 C0.773,16.092 3.647,13.398 8.375,11.309 C8.375,11.309 9.336,16.012 11.645,15.426 C13.6,14.928 22.803,16.664 25,16.383 C36.486,14.914 41.994,10.859 42.699,13.346" id="Fill-58" fill="#F6BE46"></path>
                <path d="M49.537,10.045 C50.1,14.457 41.33,18.826 29.775,20.305 C18.219,21.781 8.451,19.846 7.887,15.434 C7.77,14.522 7.272,10.818 7.414,10.725 C8.303,10.143 9.437,9.473 10.785,8.777 C10.785,8.777 20.895,16.605 27.772,15.727 C33.56,14.988 43.695,8.062 43.853,7.935 C45.664,6.48 48.889,5.488 48.889,5.488 C48.889,5.488 49.43,9.211 49.537,10.045" id="Fill-59" fill="#EA884A"></path>
                <path d="M19.815,4.336 C19.107,4.676 15.197,7.922 15.197,7.922 L15.24,12.16 L22.098,15.029 L33.244,14.353 L42.693,10.15 L45.322,5.32 L39.629,1.803 L30.416,1.982 L19.815,4.336" id="Fill-60" fill="#FFFFFE"></path>
                <path d="M27.451,0.676 C27.326,0.691 27.201,0.703 27.078,0.719 C15.918,2.147 7.24,6.684 7.228,10.996 C7.228,11.133 7.236,11.272 7.254,11.408 C7.398,12.533 8.141,13.529 9.353,14.361 C9.471,14.441 9.592,14.519 9.717,14.598 C11.232,15.531 13.373,16.24 15.943,16.682 C16.518,16.779 17.115,16.865 17.73,16.935 C21.076,17.322 24.99,17.295 29.129,16.766 C29.252,16.75 29.377,16.73 29.5,16.715 C31.875,16.394 34.135,15.935 36.219,15.367 C36.51,15.287 36.801,15.203 37.088,15.119 C39.324,14.459 41.332,13.676 43.035,12.81 C43.143,12.756 43.248,12.699 43.353,12.644 C44.772,11.898 45.963,11.096 46.881,10.262 C48.369,8.908 49.133,7.475 48.953,6.078 C48.393,1.693 38.803,-0.697 27.451,0.676 Z M39.316,7.434 C39.315,8.117 38.609,8.824 37.199,9.551 L33.201,7.652 L33.51,7.494 C33.92,7.281 34.178,7.049 34.287,6.797 C34.397,6.543 34.244,6.316 33.832,6.121 C33.371,5.902 32.898,5.812 32.418,5.85 C31.938,5.883 31.539,5.984 31.225,6.145 C30.746,6.393 30.543,6.668 30.615,6.973 C30.685,7.277 30.883,7.603 31.205,7.953 C31.525,8.303 31.895,8.668 32.307,9.047 C32.697,9.404 32.984,9.781 33.18,10.172 L33.182,10.178 C33.191,10.199 33.205,10.219 33.215,10.24 C33.408,10.656 33.41,11.086 33.223,11.523 C33.168,11.648 33.082,11.775 32.973,11.9 C32.695,12.219 32.242,12.543 31.605,12.869 C30.209,13.59 28.77,13.93 27.289,13.891 C25.842,13.852 24.275,13.51 22.59,12.867 C22.525,12.865 22.463,12.863 22.4,12.861 L20.627,13.777 L18.512,12.773 L18.922,12.56 L20.357,11.82 C20.01,11.619 19.703,11.422 19.438,11.227 C19.418,11.213 19.404,11.201 19.385,11.187 C18.676,10.662 18.258,10.158 18.145,9.682 C17.992,9.02 18.563,8.353 19.863,7.682 L20.414,7.397 L24.553,9.359 L24.162,9.56 C23.547,9.879 23.254,10.158 23.281,10.402 C23.287,10.451 23.309,10.5 23.328,10.545 C23.334,10.545 23.334,10.549 23.33,10.551 C23.418,10.736 23.625,10.912 23.967,11.072 C24.412,11.283 24.881,11.379 25.379,11.357 C25.879,11.338 26.312,11.23 26.68,11.039 C27.147,10.801 27.35,10.531 27.293,10.232 C27.289,10.215 27.256,10.17 27.273,10.162 C27.203,9.887 27.037,9.592 26.76,9.279 C26.461,8.941 26.119,8.582 25.734,8.203 C25.352,7.824 25.07,7.435 24.895,7.031 C24.744,6.691 24.734,6.34 24.85,5.982 C24.869,5.92 24.887,5.855 24.914,5.791 C24.992,5.619 25.125,5.447 25.31,5.273 C25.578,5.02 25.955,4.766 26.451,4.51 C29.012,3.191 31.895,3.09 35.109,4.209 L36.299,3.596 L38.414,4.598 L38.27,4.674 L37.225,5.213 C38.086,5.705 38.678,6.174 39.006,6.623 C39.211,6.902 39.315,7.172 39.316,7.434 Z" id="Fill-61" fill="#F6BE46"></path>
            </g>
            <path d="M280.722,108.281 C277.696,105.832 266.579,101.762 259.107,102.803 C259.107,102.803 258.031,102.702 254.906,101.328 C251.78,99.951 242.667,95.479 240.721,99.899 C237.97,106.151 243.103,111.617 250.357,116.412 C257.612,121.209 260.793,124.322 260.793,124.322 L261.613,133.363 L280.722,108.281" id="Fill-36" fill="#E2BF98"></path>
            <path d="M52.053,59.507 C55.226,57.714 66.119,55.674 72.856,57.789 C72.856,57.789 73.865,57.862 76.964,57.076 C80.062,56.289 89.165,53.569 90.278,57.95 C91.853,64.146 86.269,68.401 78.832,71.707 C71.391,75.013 67.976,77.399 67.976,77.399 L65.82,85.619 L52.053,59.507" id="Fill-20" fill="#E2BF98"></path>
            <path d="M383.673,140.383 C387.235,139.613 398.242,140.904 404.047,144.928 C404.047,144.928 404.986,145.297 408.18,145.467 C411.371,145.637 420.873,145.748 420.635,150.262 C420.293,156.645 413.697,159.047 405.613,159.992 C397.527,160.937 393.555,162.199 393.555,162.199 L389.053,169.406 L383.673,140.383" id="Fill-62" fill="#E2BF98"></path>
            <path d="M559.256,221.676 C559.256,221.676 564.621,179.635 565.84,175.467 C567.055,171.299 577.434,159.693 580.287,155.34 C583.139,150.988 590.297,127.996 590.297,127.996 C590.297,127.996 572.715,134.869 569.703,135.863 C566.69,136.859 562.619,131.815 562.619,131.815 C562.35,121.656 544.877,98.214 544.877,98.214 L539.656,85.533 L530.262,57.867 L525.887,59.422 C522.717,61.218 513.859,94.929 513.234,99.343 C512.607,103.758 522.193,138.924 523.275,142.143 C524.359,145.365 496.969,247.32 496.969,247.32 L559.256,221.676" id="Fill-63" fill="#E2BF98"></path>
            <path d="M588.418,33.191 C588.418,33.191 603.832,27.662 607.865,31.786 C610.914,34.899 611.283,41.134 605.312,44.325 C599.344,47.516 594.871,48.869 594.871,48.869 L588.418,33.191" id="Fill-64" fill="#E2BF98"></path>
            <path d="M621.625,102.627 C624.037,108.493 621.213,115.268 615.348,117.682 L572.535,135.309 C566.668,137.723 559.894,134.898 557.481,129.035 L518.332,33.939 C515.916,28.073 518.74,21.298 524.606,18.884 L567.42,1.258 C573.283,-1.157 580.059,1.667 582.475,7.533 L621.625,102.627" id="Fill-65" fill="#000105"></path>
            <polyline id="Fill-66" fill="#FFFFFE" points="614.435 98.749 559.881 121.207 522.019 29.238 576.572 6.778 614.435 98.749"></polyline>
            <path d="M600.338,50.447 C600.338,50.447 609.953,49.013 612.465,53.846 C614.975,58.682 617.592,65.67 615.354,67.814 C613.115,69.959 607.402,73.776 605.619,71.335 C603.832,68.891 600.947,60.871 603.525,58.588 L600.338,50.447" id="Fill-67" fill="#E2BF98"></path>
            <path d="M614.701,66.859 C614.701,66.859 619.998,68.381 621.559,70.883 C623.66,74.255 624.299,79.532 623.654,81.754 C623.008,83.975 622.963,86.925 618.822,88.875 C617.52,89.491 614.588,90.213 612.588,88.264 C608.193,83.983 603.529,71.949 614.701,66.859" id="Fill-68" fill="#E2BF98"></path>
            <path d="M621.606,85.529 C621.606,85.529 626.301,86.205 627.904,91.981 C629.215,96.715 627.529,101.181 624.896,102.997 C622.264,104.816 618.44,102.479 617.58,100.388 C616.719,98.296 612.797,89.4 616.75,88.263 C620.701,87.124 621.606,85.529 621.606,85.529" id="Fill-69" fill="#E2BF98"></path>
            <path d="M598.76,113.515 C599.066,114.264 598.252,115.31 596.949,115.848 L582.041,121.984 C580.738,122.52 579.42,122.35 579.111,121.602 C578.805,120.853 579.617,119.805 580.922,119.266 L595.83,113.129 C597.133,112.592 598.451,112.767 598.76,113.515" id="Fill-70" fill="#FFFFFE"></path>
            <polyline id="Fill-71" fill="#EE9A54" points="503.641 190.92 570.674 200.81 554.191 370.906 473.971 370.906 503.641 190.92"></polyline>
            <path d="M596.334518,64.2217777 L590.838518,66.5067777 C590.947518,66.6757777 591.045518,66.8547777 591.125518,67.0467777 C591.809518,68.6877777 591.031518,70.5757777 589.387518,71.2577777 C587.744518,71.9407777 585.859518,71.1617777 585.178518,69.5197777 C585.097518,69.3267777 585.039518,69.1307777 584.998518,68.9347777 L567.769518,76.0947777 C567.881518,76.2617777 567.978518,76.4417777 568.059518,76.6347777 C568.740518,78.2757777 567.963518,80.1617777 566.320518,80.8457777 C564.678518,81.5287777 562.791518,80.7477777 562.109518,79.1057777 C562.029518,78.9147777 561.972518,78.7187777 561.930518,78.5217777 L556.265518,80.8757777 C554.689518,81.5317777 554.224518,83.1927777 555.232518,84.5707777 L556.148518,85.8237777 C557.154518,87.2007777 559.265518,87.7907777 560.840518,87.1357777 L597.545518,71.8807777 C599.119518,71.2267777 600.191518,69.3127777 599.926518,67.6287777 L599.682518,66.0957777 C599.416518,64.4097777 597.910518,63.5677777 596.334518,64.2217777" id="Fill-72" fill="#F6BE46"></path>
            <path d="M603.225461,86.9688293 C603.793461,88.7138293 602.872461,90.7178293 601.176461,91.4228293 L573.368461,102.980829 C571.671461,103.685829 569.600461,102.925829 568.766461,101.289829 L560.713461,85.5188293 C559.879461,83.8838293 597.155461,68.3918293 597.723461,70.1368293 L603.225461,86.9688293" id="Fill-73" fill="#F6BE46"></path>
            <path d="M565.465056,79.0131755 C565.219056,79.1151755 564.936056,79.1421755 564.656056,79.0691755 C563.975056,78.8921755 563.565056,78.1971755 563.740056,77.5131755 L568.291056,59.9571755 C568.469056,59.2741755 569.166056,58.8641755 569.848056,59.0411755 C570.529056,59.2181755 570.939056,59.9141755 570.764056,60.5981755 L566.213056,78.1541755 C566.110056,78.5571755 565.822056,78.8641755 565.465056,79.0131755" id="Fill-74" fill="#424748"></path>
            <path d="M588.746492,69.2959279 C588.371492,69.4509279 587.930492,69.4269279 587.565492,69.1909279 L572.283492,59.3499279 C571.690492,58.9679279 571.522492,58.1779279 571.903492,57.5859279 C572.283492,56.9929279 573.074492,56.8219279 573.666492,57.2029279 L588.946492,67.0459279 C589.539492,67.4259279 589.709492,68.2149279 589.329492,68.8099279 C589.184492,69.0349279 588.977492,69.1999279 588.746492,69.2959279" id="Fill-75" fill="#424748"></path>
            <path d="M577.450449,95.575585 C577.982449,96.580585 577.558449,97.761585 576.507449,98.197585 L576.286449,98.290585 C575.234449,98.726585 573.941449,98.260585 573.409449,97.254585 L567.927449,86.879585 C567.398449,85.872585 567.822449,84.692585 568.872449,84.256585 L569.095449,84.163585 C570.144449,83.727585 571.439449,84.193585 571.970449,85.199585 L577.450449,95.575585" id="Fill-76" fill="#EA884A"></path>
            <path d="M583.909321,92.8113441 C584.394321,93.8383441 583.931321,95.0373441 582.880321,95.4753441 L582.659321,95.5663441 C581.608321,96.0023441 580.353321,95.5183441 579.868321,94.4903441 L574.892321,83.9173441 C574.407321,82.8883441 574.870321,81.6893441 575.919321,81.2533441 L576.142321,81.1603441 C577.192321,80.7243441 578.448321,81.2083441 578.933321,82.2383441 L583.909321,92.8113441" id="Fill-77" fill="#EA884A"></path>
            <path d="M590.847736,90.2916413 C591.235736,91.3606413 590.694736,92.5926413 589.644736,93.0286413 L589.421736,93.1206413 C588.370736,93.5576413 587.194736,93.0396413 586.808736,91.9716413 L582.825736,80.9856413 C582.436736,79.9166413 582.978736,78.6836413 584.028736,78.2476413 L584.251736,78.1546413 C585.300736,77.7186413 586.477736,78.2366413 586.866736,79.3056413 L590.847736,90.2916413" id="Fill-78" fill="#EA884A"></path>
            <path d="M597.324825,87.5370648 C597.662825,88.6230648 597.080825,89.8700648 596.029825,90.3060648 L595.807825,90.3990648 C594.758825,90.8350648 593.621825,90.3030648 593.283825,89.2170648 L589.795825,78.0130648 C589.457825,76.9270648 590.039825,75.6810648 591.088825,75.2460648 L591.311825,75.1530648 C592.361825,74.7160648 593.498825,75.2470648 593.834825,76.3350648 L597.324825,87.5370648" id="Fill-79" fill="#EA884A"></path>
            <path d="M567.089032,77.0872072 C567.462032,77.9852072 567.036032,79.0172072 566.138032,79.3902072 C565.239032,79.7642072 564.208032,79.3382072 563.835032,78.4402072 C563.462032,77.5402072 563.886032,76.5092072 564.786032,76.1352072 C565.683032,75.7622072 566.716032,76.1872072 567.089032,77.0872072" id="Fill-80" fill="#424748"></path>
            <path d="M590.090009,67.0876268 C590.464009,67.9856268 590.037009,69.0176268 589.138009,69.3906268 C588.240009,69.7646268 587.209009,69.3376268 586.836009,68.4406268 C586.461009,67.5406268 586.886009,66.5086268 587.787009,66.1356268 C588.685009,65.7616268 589.717009,66.1876268 590.090009,67.0876268" id="Fill-81" fill="#424748"></path>
            <path d="M595.959,90.511 C596.414,91.54 595.945,92.738 594.92,93.191 C593.893,93.644 592.691,93.18 592.238,92.151 C591.785,91.122 592.252,89.922 593.279,89.47 C594.307,89.018 595.508,89.482 595.959,90.511" id="Fill-92" fill="#FFFFFE"></path>
            <path d="M525.68,59.507 C528.852,57.714 539.746,55.674 546.482,57.789 C546.482,57.789 547.492,57.862 550.59,57.076 C553.69,56.289 562.791,53.569 563.904,57.95 C565.479,64.146 559.896,68.401 552.459,71.707 C545.018,75.013 541.604,77.399 541.604,77.399 L539.447,85.619 L525.68,59.507" id="Fill-94" fill="#E2BF98"></path>
            <path d="M682.682,273.217 C682.682,273.217 684.441,227.98 683.893,223.373 C683.348,218.766 674.459,204.707 672.221,199.619 C669.982,194.529 666.496,169.043 666.496,169.043 C666.496,169.043 683.81,179.387 686.809,180.965 C689.805,182.545 694.986,177.945 694.986,177.945 C697.06,167.295 719.604,145.678 719.604,145.678 L727.342,133.238 L742.119,105.745 L746.451,108.155 C749.475,110.606 752.861,147.685 752.742,152.447 C752.625,157.207 736.322,192.566 734.615,195.768 C732.906,198.973 743.783,311.217 743.783,311.217 L682.682,273.217" id="Fill-95" fill="#E2BF98"></path>
            <path d="M685.195,69.491 C685.195,69.491 669.932,60.947 664.953,64.581 C661.193,67.322 659.705,73.827 665.432,78.242 C671.158,82.656 675.631,84.87 675.631,84.87 L685.195,69.491" id="Fill-96" fill="#E2BF98"></path>
            <path d="M637.967,136.791 C634.387,142.547 636.168,150.184 641.922,153.762 L683.922,179.881 C689.676,183.459 697.31,181.68 700.891,175.924 L758.906,82.639 C762.486,76.884 760.705,69.248 754.951,65.67 L712.951,39.55 C707.199,35.972 699.562,37.752 695.984,43.505 L637.967,136.791" id="Fill-97" fill="#000105"></path>
            <polyline id="Fill-98" fill="#FFFFFE" points="646.225 133.973 699.74 167.258 755.85 77.036 702.332 43.753 646.225 133.973"></polyline>
            <path d="M669.594,85.569 C669.594,85.569 659.715,82.363 656.217,87.014 C652.719,91.663 648.731,98.565 650.711,101.219 C652.691,103.873 658.035,108.902 660.346,106.644 C662.66,104.385 667.113,96.444 664.799,93.584 L669.594,85.569" id="Fill-99" fill="#E2BF98"></path>
            <path d="M651.566,100.329 C651.566,100.329 645.717,100.997 643.633,103.357 C640.822,106.539 639.219,111.987 639.508,114.44 C639.799,116.895 639.324,120.012 643.342,122.797 C644.607,123.674 647.566,124.951 650.018,123.252 C655.404,119.518 662.44,107.662 651.566,100.329" id="Fill-100" fill="#E2BF98"></path>
            <path d="M641,118.779 C641,118.779 635.934,118.664 633.225,124.467 C631.008,129.225 631.998,134.225 634.451,136.603 C636.906,138.982 641.346,137.195 642.621,135.144 C643.896,133.094 649.6,124.412 645.635,122.52 C641.672,120.621 641,118.779 641,118.779" id="Fill-101" fill="#E2BF98"></path>
            <path d="M660.137,152.293 C659.68,153.027 660.354,154.275 661.631,155.072 L676.256,164.168 C677.535,164.961 678.955,165.014 679.41,164.279 C679.867,163.547 679.193,162.295 677.914,161.5 L663.289,152.406 C662.012,151.611 660.592,151.56 660.137,152.293" id="Fill-102" fill="#FFFFFE"></path>
            <polyline id="Fill-103" fill="#B8BA9B" points="676.168 238.174 743.201 233.777 761.883 370.906 680.565 370.906 676.168 238.174"></polyline>
            <path d="M716.432,128.943 C715.633,130.725 713.521,131.529 711.738,130.732 L674.877,114.224 C673.096,113.426 672.291,111.314 673.088,109.533 L683.068,87.246 C683.867,85.463 685.979,84.658 687.76,85.456 L724.621,101.964 C726.404,102.762 727.209,104.873 726.412,106.655 L716.432,128.943" id="Fill-104" fill="#40637F"></path>
            <polyline id="Fill-105" fill="#020F16" points="719.785 121.463 676.42 101.871 680.539 92.753 723.904 112.346 719.785 121.463"></polyline>
            <path d="M715.396,128.736 C715.396,130.69 713.801,132.287 711.848,132.287 L671.041,132.287 C669.088,132.287 667.49,130.69 667.49,128.736 L667.49,104.108 C667.49,102.156 669.088,100.558 671.041,100.558 L711.848,100.558 C713.801,100.558 715.396,102.156 715.396,104.108 L715.396,128.736" id="Fill-106" fill="#55C2E3"></path>
            <path d="M673.223,114.135 L673.223,113.536 L672.492,113.536 C672.629,113.833 672.896,114.059 673.223,114.135" id="Fill-107" fill="#F6BE46"></path>
            <path d="M674.959,110.038 C674.959,109.766 674.977,109.516 675.01,109.288 L672.398,109.288 L672.398,110.8 L675.012,110.8 C674.979,110.568 674.959,110.314 674.959,110.038" id="Fill-108" fill="#F6BE46"></path>
            <path d="M675.973,112.9 C675.953,112.874 675.924,112.842 675.885,112.804 C675.857,112.778 675.406,112.341 675.143,111.425 L672.398,111.425 L672.398,112.912 L675.842,112.912 C675.896,112.912 675.941,112.907 675.973,112.9" id="Fill-109" fill="#F6BE46"></path>
            <path d="M675.885,107.271 C675.924,107.232 675.953,107.199 675.973,107.173 C675.941,107.167 675.896,107.163 675.842,107.163 L672.398,107.163 L672.398,108.663 L675.141,108.663 C675.4,107.737 675.857,107.296 675.885,107.271" id="Fill-110" fill="#F6BE46"></path>
            <path d="M680.756,105.927 L680.756,106.539 L681.512,106.539 C681.375,106.229 681.096,105.998 680.756,105.927" id="Fill-111" fill="#F6BE46"></path>
            <path d="M673.223,105.932 C672.893,106.008 672.623,106.237 672.488,106.539 L673.223,106.539 L673.223,105.932" id="Fill-112" fill="#F6BE46"></path>
            <path d="M677.404,113.148 C677.348,113.004 677.309,112.708 677.69,112.349 C677.717,112.321 678.418,111.622 678.418,110.038 C678.418,108.431 677.695,107.732 677.69,107.726 C677.309,107.367 677.348,107.071 677.404,106.926 C677.463,106.781 677.637,106.539 678.16,106.539 L680.133,106.539 L680.133,105.905 L673.846,105.905 L673.846,106.539 L675.842,106.539 C676.363,106.539 676.539,106.781 676.598,106.926 C676.654,107.071 676.693,107.367 676.31,107.726 C676.283,107.753 675.582,108.452 675.582,110.038 C675.582,111.622 676.283,112.321 676.315,112.351 C676.693,112.708 676.654,113.004 676.598,113.148 C676.539,113.293 676.363,113.536 675.842,113.536 L673.846,113.536 L673.846,114.161 L680.133,114.161 L680.133,113.536 L678.16,113.536 C677.637,113.536 677.463,113.293 677.404,113.148" id="Fill-113" fill="#F6BE46"></path>
            <path d="M679.041,110.038 C679.041,110.314 679.021,110.568 678.99,110.8 L681.604,110.8 L681.604,109.288 L678.992,109.288 C679.023,109.516 679.041,109.766 679.041,110.038" id="Fill-114" fill="#F6BE46"></path>
            <path d="M678.027,107.173 C678.049,107.199 678.076,107.232 678.117,107.271 C678.143,107.296 678.6,107.737 678.863,108.663 L681.604,108.663 L681.604,107.163 L678.16,107.163 C678.106,107.163 678.06,107.167 678.027,107.173" id="Fill-115" fill="#F6BE46"></path>
            <path d="M678.117,112.804 C678.076,112.842 678.049,112.874 678.027,112.9 C678.06,112.907 678.106,112.912 678.16,112.912 L681.604,112.912 L681.604,111.425 L678.857,111.425 C678.594,112.341 678.143,112.778 678.117,112.804" id="Fill-116" fill="#F6BE46"></path>
            <path d="M680.756,114.14 C681.092,114.07 681.369,113.841 681.508,113.536 L680.756,113.536 L680.756,114.14" id="Fill-117" fill="#F6BE46"></path>
            <path d="M696.602,113.278 C696.418,113.364 696.062,113.432 695.623,113.432 C693.971,113.432 693.185,112.069 693.185,110.237 C693.185,107.8 694.539,106.851 695.795,106.851 C696.236,106.851 696.543,106.936 696.668,107.023 L696.455,108.079 C696.313,108.011 696.15,107.953 695.871,107.953 C695.162,107.953 694.518,108.567 694.518,110.17 C694.518,111.714 695.104,112.319 695.871,112.319 C696.084,112.319 696.322,112.271 696.477,112.223 L696.602,113.278" id="Fill-118" fill="#424748"></path>
            <path d="M698.473,111.897 L698.184,113.375 L696.965,113.375 L698.367,106.908 L699.871,106.908 L701.129,113.375 L699.91,113.375 L699.633,111.897 L698.473,111.897 Z M699.518,110.918 L699.307,109.565 C699.238,109.171 699.152,108.529 699.096,108.098 L699.066,108.098 C699,108.529 698.904,109.2 698.836,109.575 L698.596,110.918 L699.518,110.918 Z" id="Fill-119" fill="#424748"></path>
            <path d="M701.84,107.004 C702.234,106.927 702.732,106.879 703.211,106.879 C703.902,106.879 704.518,106.975 704.937,107.358 C705.332,107.714 705.447,108.145 705.447,108.702 C705.447,109.394 705.113,110.017 704.449,110.323 L704.449,110.342 C704.891,110.515 705.113,110.928 705.236,111.619 C705.361,112.338 705.533,113.134 705.648,113.375 L704.334,113.375 C704.258,113.192 704.115,112.54 704.018,111.83 C703.902,111.024 703.701,110.793 703.279,110.793 L703.096,110.793 L703.096,113.375 L701.84,113.375 L701.84,107.004 Z M703.096,109.825 L703.318,109.825 C703.863,109.825 704.182,109.384 704.182,108.817 C704.182,108.27 703.961,107.876 703.394,107.857 C703.287,107.857 703.162,107.867 703.096,107.896 L703.096,109.825 Z" id="Fill-120" fill="#424748"></path>
            <path d="M706.35,107.004 C706.666,106.927 707.127,106.879 707.627,106.879 C708.441,106.879 709.008,107.071 709.42,107.455 C709.977,107.953 710.264,108.807 710.264,110.064 C710.264,111.369 709.928,112.299 709.363,112.799 C708.93,113.22 708.289,113.422 707.387,113.422 C706.994,113.422 706.6,113.384 706.35,113.354 L706.35,107.004 Z M707.607,112.377 C707.664,112.396 707.76,112.396 707.826,112.396 C708.432,112.396 708.961,111.801 708.961,110.017 C708.961,108.692 708.615,107.886 707.857,107.886 C707.769,107.886 707.684,107.886 707.607,107.915 L707.607,112.377 Z" id="Fill-121" fill="#424748"></path>
            <path d="M674.043,128.004 C673.848,128.004 673.703,127.853 673.703,127.658 C673.703,127.457 673.873,127.326 674.043,127.326 L674.539,127.326 L674.539,125.174 L674.053,125.174 C673.896,125.174 673.713,125.049 673.713,124.828 C673.713,124.648 673.857,124.492 674.047,124.492 L675.215,124.492 L675.215,127.326 L675.356,127.326 L675.356,126.605 C675.356,126.441 675.504,126.266 675.695,126.266 C675.875,126.266 676.041,126.426 676.041,126.602 L676.041,127.662 C676.041,127.844 675.885,128.004 675.695,128.004 L674.043,128.004" id="Fill-122" fill="#424748"></path>
            <path d="M676.348,128.004 L676.348,126.445 C676.348,126.135 676.613,125.9 676.889,125.9 L678,125.9 L678,125.174 L676.674,125.174 C676.521,125.174 676.332,125.049 676.332,124.828 C676.332,124.639 676.482,124.492 676.674,124.492 L678.141,124.492 C678.43,124.492 678.682,124.744 678.682,125.029 L678.682,126.029 C678.682,126.361 678.416,126.582 678.141,126.582 L677.023,126.582 L677.023,127.326 L678.346,127.326 C678.5,127.326 678.682,127.463 678.682,127.658 C678.682,127.863 678.525,128.004 678.346,128.004 L676.348,128.004" id="Fill-123" fill="#424748"></path>
            <path d="M679.398,128.004 C679.232,128.004 679.057,127.879 679.057,127.662 C679.057,127.473 679.203,127.326 679.398,127.326 L680.707,127.326 L680.707,126.656 C680.707,126.621 680.67,126.582 680.635,126.582 L679.809,126.582 C679.633,126.582 679.469,126.416 679.469,126.24 C679.469,126.041 679.637,125.9 679.809,125.9 L680.644,125.9 C680.674,125.9 680.711,125.865 680.711,125.83 L680.711,125.174 L679.383,125.174 C679.232,125.174 679.041,125.049 679.041,124.828 C679.041,124.648 679.187,124.492 679.383,124.492 L680.846,124.492 C681.143,124.492 681.391,124.744 681.391,125.029 L681.391,125.805 C681.391,125.984 681.352,126.131 681.266,126.24 C681.352,126.365 681.391,126.502 681.391,126.656 L681.391,127.463 C681.391,127.742 681.156,128.004 680.846,128.004 L679.398,128.004" id="Fill-124" fill="#424748"></path>
            <path d="M682.908,126.938 L681.678,126.938 L681.678,124.834 C681.678,124.654 681.824,124.492 682.014,124.492 C682.19,124.492 682.359,124.643 682.359,124.834 L682.359,126.256 L682.908,126.256 L682.908,125.193 C682.908,125.019 683.035,124.848 683.244,124.848 C683.416,124.848 683.592,124.978 683.592,125.189 L683.592,126.285 C683.711,126.352 683.795,126.441 683.795,126.596 C683.795,126.717 683.723,126.867 683.592,126.912 L683.592,127.662 C683.592,127.859 683.44,128.004 683.25,128.004 C683.09,128.004 682.908,127.879 682.908,127.662 L682.908,126.938" id="Fill-125" fill="#424748"></path>
            <path d="M699.232,128.004 C699.037,128.004 698.891,127.853 698.891,127.658 C698.891,127.457 699.062,127.326 699.232,127.326 L699.727,127.326 L699.727,125.174 L699.242,125.174 C699.086,125.174 698.902,125.049 698.902,124.828 C698.902,124.648 699.047,124.492 699.236,124.492 L700.402,124.492 L700.402,127.326 L700.543,127.326 L700.543,126.605 C700.543,126.441 700.695,126.266 700.883,126.266 C701.065,126.266 701.229,126.426 701.229,126.602 L701.229,127.662 C701.229,127.844 701.074,128.004 700.883,128.004 L699.232,128.004" id="Fill-126" fill="#424748"></path>
            <path d="M701.537,128.004 L701.537,126.445 C701.537,126.135 701.803,125.9 702.078,125.9 L703.187,125.9 L703.187,125.174 L701.861,125.174 C701.711,125.174 701.521,125.049 701.521,124.828 C701.521,124.639 701.672,124.492 701.861,124.492 L703.328,124.492 C703.619,124.492 703.869,124.744 703.869,125.029 L703.869,126.029 C703.869,126.361 703.604,126.582 703.328,126.582 L702.211,126.582 L702.211,127.326 L703.533,127.326 C703.69,127.326 703.869,127.463 703.869,127.658 C703.869,127.863 703.713,128.004 703.533,128.004 L701.537,128.004" id="Fill-127" fill="#424748"></path>
            <path d="M704.588,128.004 C704.422,128.004 704.246,127.879 704.246,127.662 C704.246,127.473 704.393,127.326 704.588,127.326 L705.894,127.326 L705.894,126.656 C705.894,126.621 705.857,126.582 705.824,126.582 L704.996,126.582 C704.82,126.582 704.658,126.416 704.658,126.24 C704.658,126.041 704.828,125.9 704.996,125.9 L705.834,125.9 C705.863,125.9 705.898,125.865 705.898,125.83 L705.898,125.174 L704.572,125.174 C704.422,125.174 704.231,125.049 704.231,124.828 C704.231,124.648 704.377,124.492 704.572,124.492 L706.033,124.492 C706.328,124.492 706.58,124.744 706.58,125.029 L706.58,125.805 C706.58,125.984 706.539,126.131 706.453,126.24 C706.539,126.365 706.58,126.502 706.58,126.656 L706.58,127.463 C706.58,127.742 706.344,128.004 706.033,128.004 L704.588,128.004" id="Fill-128" fill="#424748"></path>
            <path d="M708.098,126.938 L706.865,126.938 L706.865,124.834 C706.865,124.654 707.012,124.492 707.203,124.492 C707.377,124.492 707.547,124.643 707.547,124.834 L707.547,126.256 L708.098,126.256 L708.098,125.193 C708.098,125.019 708.223,124.848 708.434,124.848 C708.604,124.848 708.779,124.978 708.779,125.189 L708.779,126.285 C708.9,126.352 708.984,126.441 708.984,126.596 C708.984,126.717 708.908,126.867 708.779,126.912 L708.779,127.662 C708.779,127.859 708.627,128.004 708.44,128.004 C708.279,128.004 708.098,127.879 708.098,127.662 L708.098,126.938" id="Fill-129" fill="#424748"></path>
            <path d="M687.281,128.004 C687.176,128.004 687.07,127.982 686.955,127.934 L686.65,127.809 C686.506,127.748 686.44,127.643 686.44,127.482 C686.44,127.326 686.58,127.146 686.762,127.146 C686.826,127.146 686.887,127.156 686.955,127.191 L687.281,127.326 L688.092,127.326 L688.092,126.582 L686.861,126.582 L686.861,124.844 L687.211,124.492 L688.432,124.492 C688.607,124.492 688.777,124.648 688.777,124.828 C688.777,125.01 688.623,125.174 688.432,125.174 L687.541,125.174 L687.541,125.904 L688.227,125.904 C688.527,125.904 688.777,126.176 688.777,126.445 L688.777,127.463 C688.777,127.742 688.543,128.004 688.227,128.004 L687.281,128.004" id="Fill-130" fill="#424748"></path>
            <path d="M689.496,128.004 C689.32,128.004 689.15,127.853 689.15,127.668 L689.15,124.828 C689.15,124.639 689.307,124.492 689.496,124.492 L689.701,124.492 C689.881,124.492 690.037,124.658 690.037,124.828 C690.037,124.969 689.932,125.109 689.836,125.145 L689.836,126.26 L691.143,126.26 C691.334,126.26 691.484,126.432 691.484,126.602 L691.484,127.662 C691.484,127.859 691.318,128.004 691.139,128.004 L689.496,128.004 Z M689.826,127.326 L690.799,127.326 L690.799,126.941 L689.826,126.941 L689.826,127.326 Z" id="Fill-131" fill="#424748"></path>
            <path d="M692.006,126.631 C692.006,126.506 692.045,126.41 692.125,126.34 L692.838,125.74 L692.838,125.174 L691.824,125.174 C691.76,125.285 691.66,125.344 691.525,125.344 C691.334,125.344 691.185,125.189 691.185,125.004 L691.185,124.834 C691.185,124.643 691.315,124.492 691.525,124.492 L693.518,124.492 L693.518,125.891 C693.518,125.99 693.479,126.08 693.393,126.156 L692.691,126.766 L692.691,127.658 C692.691,127.818 692.551,128.004 692.356,128.004 C692.176,128.004 692.006,127.867 692.006,127.668 L692.006,126.631" id="Fill-132" fill="#424748"></path>
            <path d="M694.17,128.004 C693.869,128.004 693.619,127.752 693.619,127.457 L693.619,126.445 C693.619,126.211 693.801,125.975 694.035,125.926 L694.035,124.828 C694.035,124.648 694.184,124.492 694.365,124.492 L695.213,124.492 C695.393,124.492 695.547,124.648 695.547,124.828 L695.547,125.926 C695.783,125.975 695.957,126.201 695.957,126.445 L695.957,127.463 C695.957,127.752 695.707,128.004 695.418,128.004 L694.17,128.004 Z M694.31,127.326 L695.281,127.326 L695.281,126.582 L694.31,126.582 L694.31,127.326 Z M694.711,125.904 L694.865,125.904 L694.865,125.174 L694.711,125.174 L694.711,125.904 Z" id="Fill-133" fill="#424748"></path>
            <path d="M746.656,108.281 C743.629,105.832 732.512,101.762 725.041,102.803 C725.041,102.803 723.965,102.702 720.84,101.328 C717.713,99.951 708.6,95.479 706.654,99.899 C703.904,106.151 709.037,111.617 716.291,116.412 C723.545,121.209 726.727,124.322 726.727,124.322 L727.547,133.363 L746.656,108.281" id="Fill-134" fill="#E2BF98"></path>
        </g>
    </g>
</svg>