<svg id="Layer_1" data-name="Layer 1" xmlns="http://www.w3.org/2000/svg" viewBox="0 0 314 363.8"><title>addimg</title><g style="isolation:isolate"><text x="-43" y="-27.12" style="isolation:isolate"></text><text x="-43" y="-27.12" style="isolation:isolate"></text><text x="-43" y="-27.12" style="isolation:isolate"></text><text x="-43" y="-27.12" style="isolation:isolate"></text></g><rect x="69.41" y="137.44" width="234.35" height="215.66" rx="5" ry="5" transform="translate(-150.81 309.29) rotate(-69.94)" style="fill:#898989"/><rect x="93.38" y="151.15" width="186.9" height="186.9" transform="translate(-150.02 309.08) rotate(-69.94)" style="fill:none;stroke:#fff;stroke-miterlimit:10;stroke-width:6px"/><path d="M244.34,242.84l-28,13a17.79,17.79,0,0,1-23.44-8.23L181.69,225a17.79,17.79,0,0,0-27.06-6L91.3,269.71a17.79,17.79,0,0,0,5.28,30.7l124.27,43.14a17.79,17.79,0,0,0,22.51-10.62l25.16-67.77C274.06,250.26,258.76,236.14,244.34,242.84Z" transform="translate(-43 -27.12)" style="fill:#ccc"/><text transform="translate(0 58.71) scale(0.91 1)" style="font-size:70px;fill:#7e7e7e;font-family:MyriadPro-Regular, Myriad Pro;width:100%;">ADD IMAGE</text></svg>