<svg id="Layer_1" data-name="Layer 1" xmlns="http://www.w3.org/2000/svg" viewBox="0 0 400 400"><defs><style>.cls-1{font-size:41.56px;font-family:MyriadPro-Regular, Myriad Pro;}.cls-1,.cls-4{fill:#898989;}.cls-2{letter-spacing:-0.01em;}.cls-3{letter-spacing:-0.02em;}.cls-5{fill:none;stroke:#fff;stroke-miterlimit:10;stroke-width:6px;}.cls-6{fill:#ccc;}</style></defs><title>Artboard 1</title><text class="cls-1" transform="translate(73.38 80.95)">ADD I<tspan class="cls-2" x="99.52" y="0">M</tspan><tspan class="cls-3" x="132.52" y="0">A</tspan><tspan x="157.33" y="0">GE</tspan></text><rect class="cls-4" x="78.78" y="128.09" width="215.66" height="234.35" rx="5" ry="5" transform="translate(95.42 -49.12) rotate(20.06)"/><rect class="cls-5" x="93.4" y="151.14" width="186.9" height="186.9" transform="translate(95.21 -49.24) rotate(20.06)"/><path class="cls-6" d="M244.34,242.84l-28,13a17.79,17.79,0,0,1-23.44-8.23L181.69,225a17.79,17.79,0,0,0-27.06-6L91.3,269.71a17.79,17.79,0,0,0,5.28,30.7l124.27,43.14a17.79,17.79,0,0,0,22.51-10.62l25.16-67.77C274.06,250.26,258.76,236.14,244.34,242.84Z"/></svg>