<?xml version="1.0" encoding="UTF-8"?>
<svg width="137px" height="156px" viewBox="0 0 137 156" version="1.1" xmlns="http://www.w3.org/2000/svg" xmlns:xlink="http://www.w3.org/1999/xlink">
    <!-- Generator: Sketch 48.2 (47327) - http://www.bohemiancoding.com/sketch -->
    <title>Group 2</title>
    <desc>Created with Sketch.</desc>
    <defs></defs>
    <g id="Page-1" stroke="none" stroke-width="1" fill="none" fill-rule="evenodd">
        <g id="Group-2" transform="translate(0.000000, -1.000000)" fill="#F16601">
            <g id="CoinSingle" transform="translate(0.000000, 12.000000)">
                <path d="M68.5,145 C30.6684946,145 0,114.327398 0,76.4908257 C0,38.6542535 30.6684946,7.98165138 68.5,7.98165138 C106.331505,7.98165138 137,38.6542535 137,76.4908257 C137,114.327398 106.331505,145 68.5,145 Z M68.8325243,139.013761 C103.174716,139.013761 131.014563,111.170186 131.014563,76.8233945 C131.014563,42.4766032 103.174716,14.6330275 68.8325243,14.6330275 C34.4903325,14.6330275 6.65048544,42.4766032 6.65048544,76.8233945 C6.65048544,111.170186 34.4903325,139.013761 68.8325243,139.013761 Z" id="Combined-Shape"></path>
            </g>
            <g id="Group" transform="translate(3.596774, 0.943548)">
                <path d="M72.5748482,41 C36.6140558,41 6.76199858,67.5961259 1.00344937,102.5 C0.343506387,98.4999358 0,94.3907602 0,90.2 C0,49.4413855 32.4928663,16.4 72.5748482,16.4 L72.5748482,-5.68434189e-14 L117.379032,28.95625 L72.5748482,57.9125 L72.5748482,41 Z" id="Combined-Shape"></path>
            </g>
        </g>
    </g>
</svg>