<?xml version="1.0" encoding="UTF-8"?>
<svg width="559px" height="315px" viewBox="0 0 559 315" version="1.1" xmlns="http://www.w3.org/2000/svg" xmlns:xlink="http://www.w3.org/1999/xlink">
    <!-- Generator: Sketch 49.2 (51160) - http://www.bohemiancoding.com/sketch -->
    <title>banner_2</title>
    <desc>Created with Sketch.</desc>
    <defs></defs>
    <g id="Page-1" stroke="none" stroke-width="1" fill="none" fill-rule="evenodd">
        <g id="banner_2">
            <ellipse id="Oval" fill="#3D3D3D" fill-rule="nonzero" opacity="0.12" cx="426.7" cy="283.8" rx="94.1" ry="4.2"></ellipse>
            <g id="Group" transform="translate(62.000000, 0.000000)" fill-rule="nonzero">
                <path d="M56.2,21.5 C55.8,24.2 53.3,26 50.7,25.6 C48,25.2 46.2,22.7 46.6,20.1 C47,17.4 49.5,15.6 52.1,16 C54.8,16.3 56.6,18.8 56.2,21.5 Z" id="Shape" fill="#FFD522"></path>
                <path d="M10,18.2 C9.6,20.9 7.1,22.7 4.5,22.3 C1.8,21.9 6.605827e-15,19.4 0.4,16.8 C0.8,14.1 3.3,12.3 5.9,12.7 C8.6,13 10.4,15.5 10,18.2 Z" id="Shape" fill="#0E314E"></path>
                <path d="M78,39.2 C77.8,40.8 76.3,41.8 74.7,41.6 C73.1,41.4 72.1,39.9 72.3,38.4 C72.5,36.8 74,35.8 75.5,36 C77.2,36.2 78.2,37.6 78,39.2 Z" id="Shape" fill="#FFD522"></path>
                <polygon id="Shape" fill="#FFFFFF" points="104.2 24.8 102.4 19.9 99.2 24 94.3 25.8 98.5 29 100.3 33.9 103.4 29.7 108.3 27.9"></polygon>
                <polygon id="Shape" fill="#FFFFFF" points="27 45.7 25.9 42.6 23.9 45.2 20.8 46.4 23.4 48.3 24.6 51.4 26.5 48.8 29.6 47.7"></polygon>
                <polygon id="Shape" fill="#0E314E" points="82 3.8 80.9 0.7 78.9 3.3 75.8 4.4 78.4 6.4 79.5 9.5 81.5 6.9 84.6 5.7"></polygon>
            </g>
            <g id="Group" transform="translate(0.000000, 218.000000)" fill-rule="nonzero">
                <path d="M21,45.2 C23.3,45.2 25.1,47 25.1,49.3 C25.1,51.6 23.3,53.4 21,53.4 C18.7,53.4 16.9,51.6 16.9,49.3 C16.9,47 18.7,45.2 21,45.2 Z" id="Shape" fill="#FFD522"></path>
                <path d="M24,84.2 C26.3,84.2 28.1,86 28.1,88.3 C28.1,90.6 26.3,92.4 24,92.4 C21.7,92.4 19.9,90.6 19.9,88.3 C19.9,86.1 21.7,84.2 24,84.2 Z" id="Shape" fill="#0E314E"></path>
                <path d="M33.1,24.7 C34.4,24.7 35.5,25.8 35.5,27.1 C35.5,28.4 34.4,29.5 33.1,29.5 C31.8,29.5 30.7,28.4 30.7,27.1 C30.7,25.8 31.7,24.7 33.1,24.7 Z" id="Shape" fill="#FFD522"></path>
                <polygon id="Shape" fill="#FFFFFF" points="17.8 4.6 13.9 6.7 17.8 8.9 19.9 12.7 22 8.9 25.9 6.7 22 4.6 19.9 0.7"></polygon>
                <polygon id="Shape" fill="#FFFFFF" points="44.9 66.5 42.5 67.9 44.9 69.2 46.2 71.7 47.6 69.2 50 67.9 47.6 66.5 46.2 64.1"></polygon>
                <polygon id="Shape" fill="#0E314E" points="3 25.8 0.5 27.1 3 28.5 4.3 30.9 5.6 28.5 8.1 27.1 5.6 25.8 4.3 23.4"></polygon>
            </g>
            <g id="Group" transform="translate(490.000000, 4.000000)" fill-rule="nonzero">
                <path d="M28.7,61.3 C31.8,61.3 34.4,63.8 34.4,67 C34.4,70.1 31.9,72.7 28.7,72.7 C25.6,72.7 23,70.2 23,67 C23.1,63.8 25.6,61.3 28.7,61.3 Z" id="Shape" fill="#FF902B"></path>
                <path d="M32.9,115.1 C36,115.1 38.6,117.6 38.6,120.8 C38.6,123.9 36.1,126.5 32.9,126.5 C29.8,126.5 27.2,124 27.2,120.8 C27.2,117.6 29.8,115.1 32.9,115.1 Z" id="Shape" fill="#0E314E"></path>
                <path d="M45.4,33.1 C47.2,33.1 48.7,34.6 48.7,36.4 C48.7,38.2 47.2,39.7 45.4,39.7 C43.6,39.7 42.1,38.2 42.1,36.4 C42.1,34.5 43.6,33.1 45.4,33.1 Z" id="Shape" fill="#FFD522"></path>
                <polygon id="Shape" fill="#FFFFFF" points="24.3 5.4 18.9 8.3 24.3 11.2 27.2 16.6 30.1 11.2 35.5 8.3 30.1 5.4 27.2 0"></polygon>
                <polygon id="Shape" fill="#FFFFFF" points="61.7 90.7 58.3 92.6 61.7 94.4 63.5 97.8 65.4 94.4 68.7 92.6 65.4 90.7 63.5 87.4"></polygon>
                <polygon id="Shape" fill="#0E314E" points="3.9 34.5 0.5 36.4 3.9 38.2 5.7 41.6 7.6 38.2 10.9 36.4 7.6 34.5 5.7 31.2"></polygon>
            </g>
            <g id="Group" transform="translate(423.000000, 74.000000)" fill-rule="nonzero">
                <g id="Shape">
                    <path d="M59.3,37.7 C55.1,53.7 38.7,63.3 22.6,59.1 C6.6,54.9 -3,38.5 1.2,22.4 C5.4,6.4 21.8,-3.2 37.9,1 C53.9,5.3 63.5,21.7 59.3,37.7 Z" fill="#FFD522"></path>
                    <g transform="translate(4.000000, 4.000000)">
                        <path d="M50,32.3 C46.5,45.4 33.1,53.3 20,49.8 C6.9,46.3 -1,32.9 2.5,19.8 C6,6.7 19.4,-1.2 32.5,2.3 C45.7,5.8 53.5,19.2 50,32.3 Z" fill="#FFD522"></path>
                        <path d="M19.7,51.2 C5.9,47.6 -2.4,33.3 1.2,19.5 C4.8,5.7 19.1,-2.6 32.9,1 C46.7,4.6 55,18.9 51.4,32.7 C47.7,46.5 33.5,54.8 19.7,51.2 Z M32.2,3.7 C19.9,0.4 7.2,7.8 3.9,20.2 C0.6,32.6 8,45.2 20.4,48.5 C32.7,51.8 45.4,44.4 48.7,32 C52,19.6 44.5,6.9 32.2,3.7 Z" fill="#E77800"></path>
                    </g>
                </g>
                <path d="M35.4,31 C37.2,30.8 38.9,29.3 39.4,27.3 C40.6,22.7 38.1,20.3 33.7,19.1 L32.7,18.8 L33.7,15.1 C33.8,14.7 33.6,14.2 33.1,14.1 L32.4,13.9 C32,13.8 31.5,14 31.4,14.5 L30.4,18.2 L24.3,16.6 L18.4,39 L24.5,40.6 L23.6,44 C23.5,44.4 23.7,44.9 24.2,45 L24.9,45.2 C25.3,45.3 25.8,45.1 25.9,44.6 L26.8,41.2 L28.2,41.6 C32.2,42.7 36.4,42.2 37.8,37.2 C38.4,34.8 37.2,32.2 35.4,31 Z M28.2,22.2 L32.8,23.4 C34.1,23.7 34.8,25 34.5,26.2 C34.2,27.4 33.2,28.5 31.5,28.1 L27,26.9 L28.2,22.2 Z M29.3,37.4 L24.5,36.1 L25.8,31 L30.5,32.2 C32.6,32.7 33.3,34.2 32.9,35.6 C32.6,37 31.3,38 29.3,37.4 Z" id="Shape" fill="#2F1200"></path>
            </g>
            <g id="Group" transform="translate(49.000000, 74.000000)">
                <ellipse id="Oval" fill="#3D3D3D" fill-rule="nonzero" opacity="0.12" cx="123.5" cy="198.3" rx="103.9" ry="15.7"></ellipse>
                <g>
                    <g fill-rule="nonzero">
                        <g>
                            <rect id="Rectangle-path" fill="#B5BCBC" x="83.2" y="156.5" width="74.2" height="31"></rect>
                            <rect id="Rectangle-path" fill="#DEDEDE" x="54.8" y="187.5" width="130.7" height="8.7"></rect>
                            <path d="M239.8,144.1 C239.8,156.9 229.4,167.4 216.5,167.4 L24.1,167.4 C11.3,167.4 0.8,157 0.8,144.1 L0.8,23.3 C0.8,10.5 11.2,0 24.1,0 L216.5,0 C229.3,0 239.8,10.4 239.8,23.3 L239.8,144.1 Z" id="Shape" fill="#DEDEDE"></path>
                            <path d="M216.5,0 L24.1,0 C11.3,0 0.8,10.4 0.8,23.3 L0.8,144.1 L239.700715,144.1 L239.7,23.3 C239.8,10.4 229.4,0 216.5,0 Z" id="Shape" fill="#0E314E"></path>
                            <path d="M124.5,152.4 C124.5,154.8 122.5,156.8 120.1,156.8 C117.7,156.8 115.7,154.8 115.7,152.4 C115.7,150 117.7,148 120.1,148 C122.6,148 124.5,150 124.5,152.4 Z" id="Shape" fill="#001335"></path>
                            <polygon id="Shape" fill="#001335" opacity="0.3" points="83.2 167.3 83.2 187.5 157.4 175.6 157.4 167.3"></polygon>
                        </g>
                        <path d="M216.5,0 L24.1,0 C11.3,0 0.8,10.4 0.8,23.3 L0.8,144.1 L239.700715,144.1 L239.7,23.3 C239.8,10.4 229.4,0 216.5,0 Z M232.8,137.1 L7.8,137.1 L7.8,23.3 C7.8,14.3 15.1,7 24.1,7 L216.5,7 C225.5,7 232.8,14.3 232.8,23.3 L232.8,137.1 Z" id="Shape" fill="#002242"></path>
                    </g>
                    <g transform="translate(50.000000, 20.000000)">
                        <rect id="Rectangle-path" fill="#EAEAEA" fill-rule="nonzero" x="11.5" y="16.1" width="117.5" height="77.9"></rect>
                        <rect id="Rectangle-path" fill="#888D8D" fill-rule="nonzero" x="21.1" y="38" width="61.2" height="47.3"></rect>
                        <rect id="Rectangle-path" fill="#FFFFFF" fill-rule="nonzero" x="23.8" y="40.8" width="55.8" height="41.8"></rect>
                        <rect id="Rectangle-path" fill="#89D8E5" fill-rule="nonzero" x="26.5" y="43.5" width="50.4" height="36.4"></rect>
                        <g transform="translate(24.000000, 39.000000)" id="Shape" stroke="#FFFFFF" stroke-width="1.3496">
                            <path d="M54.5,22.7 L0.9,22.7"></path>
                            <path d="M13.8,42.9 L13.8,0.1"></path>
                            <path d="M41.7,42.9 L41.7,0.1"></path>
                            <path d="M27.7,42.9 L27.7,0.1"></path>
                        </g>
                        <rect id="Rectangle-path" fill="#FFD522" fill-rule="nonzero" x="11.5" y="82.6" width="117.5" height="11.4"></rect>
                        <rect id="Rectangle-path" fill="#888D8D" fill-rule="nonzero" x="86" y="32.6" width="31.9" height="61.4"></rect>
                        <rect id="Rectangle-path" fill="#FFFFFF" fill-rule="nonzero" x="88.9" y="31.6" width="26" height="62.4"></rect>
                        <polygon id="Shape" fill="#89D8E5" fill-rule="nonzero" points="91.7 91.3 112.3 91.3 112.3 34.3 91.7 34.3"></polygon>
                        <path d="M129,50.9 L121.5,50.9 L112.2,50.9 L102.9,50.9 L93.6,50.9 L84.3,50.9 L75,50.9 L65.7,50.9 L56.4,50.9 L47.1,50.9 L37.8,50.9 L28.5,50.9 L19.2,50.9 L11.5,50.9 L11.5,58.3 C12.3,59 13.4,59.5 14.5,59.5 C17.1,59.5 19.2,57.4 19.2,54.8 C19.2,57.4 21.3,59.5 23.9,59.5 C26.5,59.5 28.6,57.4 28.6,54.8 C28.6,57.4 30.7,59.5 33.3,59.5 C35.9,59.5 38,57.4 38,54.8 C38,57.4 40.1,59.5 42.7,59.5 C45.3,59.5 47.4,57.4 47.4,54.8 C47.4,57.4 49.5,59.5 52.1,59.5 C54.7,59.5 56.8,57.4 56.8,54.8 C56.8,57.4 58.9,59.5 61.5,59.5 C64.1,59.5 66.2,57.4 66.2,54.8 C66.2,57.4 68.3,59.5 70.9,59.5 C73.5,59.5 75.6,57.4 75.6,54.8 C75.6,57.4 77.7,59.5 80.2,59.5 C82.8,59.5 84.8,57.4 84.8,54.8 C84.8,57.4 86.9,59.5 89.5,59.5 C92.1,59.5 94.2,57.4 94.2,54.8 C94.2,57.4 96.3,59.5 98.9,59.5 C101.5,59.5 103.5,57.4 103.5,54.8 C103.5,57.4 105.6,59.5 108.2,59.5 C110.8,59.5 112.9,57.4 112.9,54.8 C112.9,57.4 115,59.5 117.5,59.5 C120.1,59.5 122.2,57.4 122.2,54.8 C122.2,57.4 124.3,59.5 126.8,59.5 C127.9,59.5 128.9,59.1 129.7,58.5 L129.7,50.9 L129,50.9 Z" id="Shape" fill="#0E314E" fill-rule="nonzero" opacity="0.2"></path>
                        <rect id="Rectangle-path" fill="#FFFFFF" fill-rule="nonzero" x="88.9" y="64.8" width="26" height="5.4"></rect>
                        <path d="M97.2,67.3 C97.2,67.6 96.9,67.9 96.6,67.9 L91.2,67.9 C90.9,67.9 90.6,67.6 90.6,67.3 C90.6,67 90.9,66.7 91.2,66.7 L96.6,66.7 C97,66.7 97.2,67 97.2,67.3 Z" id="Shape" fill="#B5BCBC" fill-rule="nonzero"></path>
                        <rect id="Rectangle-path" fill="#CCCCCC" fill-rule="nonzero" x="11.5" y="20.2" width="117.5" height="9.8"></rect>
                        <rect id="Rectangle-path" fill="#EAEAEA" fill-rule="nonzero" x="8.3" y="16.1" width="124" height="11.4"></rect>
                        <g transform="translate(36.000000, 0.000000)" fill-rule="nonzero">
                            <rect id="Rectangle-path" fill="#FFFFFF" x="0.7" y="0.9" width="67.2" height="21"></rect>
                            <path d="M68.6,22.5 L0,22.5 L0,0.2 L68.6,0.2 L68.6,22.5 Z M1.4,21.2 L67.3,21.2 L67.3,1.6 L1.4,1.6 L1.4,21.2 Z" id="Shape" fill="#FFD522"></path>
                        </g>
                        <g transform="translate(0.000000, 31.000000)" fill-rule="nonzero" id="Shape">
                            <g>
                                <polygon fill="#FFFFFF" points="120.1 0.6 20.4 0.6 0.6 15.6 139.9 15.6"></polygon>
                                <g fill="#FFD522">
                                    <polygon points="120.1 0.6 113.4 0.6 130.6 15.6 139.9 15.6"></polygon>
                                    <polygon points="106.8 0.6 100.2 0.6 112.1 15.6 121.3 15.6"></polygon>
                                    <polygon points="93.5 0.6 86.9 0.6 93.5 15.6 102.8 15.6"></polygon>
                                    <polygon points="80.2 0.6 73.6 0.6 74.9 15.6 84.2 15.6"></polygon>
                                    <polygon points="60.3 0.6 56.3 15.6 65.6 15.6 66.9 0.6"></polygon>
                                    <polygon points="47 0.6 37.7 15.6 47 15.6 53.6 0.6"></polygon>
                                    <polygon points="33.7 0.6 19.1 15.6 28.4 15.6 40.3 0.6"></polygon>
                                    <polygon points="20.4 0.6 0.6 15.6 9.9 15.6 27 0.6"></polygon>
                                </g>
                            </g>
                            <g transform="translate(0.000000, 15.000000)">
                                <path d="M9.9,4.6 C9.9,7.2 7.8,9.2 5.2,9.2 C2.6,9.2 0.6,7.1 0.6,4.6 L0.6,0.6 L9.9,0.6 L9.9,4.6 Z" fill="#E77800"></path>
                                <path d="M19.2,4.6 C19.2,7.2 17.1,9.2 14.5,9.2 C11.9,9.2 9.8,7.1 9.8,4.6 L9.8,0.6 L19.1,0.6 L19.1,4.6 L19.2,4.6 Z" fill="#DBDBDB"></path>
                                <path d="M28.5,4.6 C28.5,7.2 26.4,9.2 23.8,9.2 C21.2,9.2 19.1,7.1 19.1,4.6 L19.1,0.6 L28.4,0.6 L28.4,4.6 L28.5,4.6 Z" fill="#E77800"></path>
                                <path d="M37.8,4.6 C37.8,7.2 35.7,9.2 33.1,9.2 C30.5,9.2 28.4,7.1 28.4,4.6 L28.4,0.6 L37.7,0.6 L37.7,4.6 L37.8,4.6 Z" fill="#DBDBDB"></path>
                                <path d="M47.1,4.6 C47.1,7.2 45,9.2 42.4,9.2 C39.8,9.2 37.7,7.1 37.7,4.6 L37.7,0.6 L47,0.6 L47,4.6 L47.1,4.6 Z" fill="#E77800"></path>
                                <path d="M56.4,4.6 C56.4,7.2 54.3,9.2 51.7,9.2 C49.1,9.2 47,7.1 47,4.6 L47,0.6 L56.3,0.6 L56.3,4.6 L56.4,4.6 Z" fill="#DBDBDB"></path>
                                <path d="M65.7,4.6 C65.7,7.2 63.6,9.2 61,9.2 C58.4,9.2 56.3,7.1 56.3,4.6 L56.3,0.6 L65.6,0.6 L65.6,4.6 L65.7,4.6 Z" fill="#E77800"></path>
                                <path d="M75,4.6 C75,7.2 72.9,9.2 70.3,9.2 C67.7,9.2 65.6,7.1 65.6,4.6 L65.6,0.6 L74.9,0.6 L74.9,4.6 L75,4.6 Z" fill="#DBDBDB"></path>
                                <path d="M84.3,4.6 C84.3,7.2 82.2,9.2 79.7,9.2 C77.1,9.2 75.1,7.1 75.1,4.6 L75.1,0.6 L84.4,0.6 L84.4,4.6 L84.3,4.6 Z" fill="#E77800"></path>
                                <path d="M93.6,4.6 C93.6,7.2 91.5,9.2 88.9,9.2 C86.3,9.2 84.2,7.1 84.2,4.6 L84.2,0.6 L93.5,0.6 L93.5,4.6 L93.6,4.6 Z" fill="#DBDBDB"></path>
                                <path d="M102.9,4.6 C102.9,7.2 100.8,9.2 98.3,9.2 C95.7,9.2 93.6,7.1 93.6,4.6 L93.6,0.6 L102.9,0.6 L102.9,4.6 Z" fill="#E77800"></path>
                                <path d="M112.2,4.6 C112.2,7.2 110.1,9.2 107.5,9.2 C104.9,9.2 102.8,7.1 102.8,4.6 L102.8,0.6 L112.1,0.6 L112.1,4.6 L112.2,4.6 Z" fill="#DBDBDB"></path>
                                <path d="M121.5,4.6 C121.5,7.2 119.4,9.2 116.8,9.2 C114.2,9.2 112.2,7.1 112.2,4.6 L112.2,0.6 L121.5,0.6 L121.5,4.6 Z" fill="#E77800"></path>
                                <path d="M130.8,4.6 C130.8,7.2 128.7,9.2 126.1,9.2 C123.5,9.2 121.5,7.1 121.5,4.6 L121.5,0.6 L130.8,0.6 L130.8,4.6 Z" fill="#DBDBDB"></path>
                                <path d="M140.1,4.6 C140.1,7.2 138,9.2 135.5,9.2 C133,9.2 130.8,7.1 130.8,4.6 L130.8,0.6 L140.1,0.6 L140.1,4.6 Z" fill="#E77800"></path>
                            </g>
                        </g>
                    </g>
                </g>
            </g>
            <polygon id="Shape" fill="#FFFFFF" fill-rule="nonzero" points="225.1 196.7 227.5 194.3 215.6 188.9 221 200.8 223.4 198.4 226.3 201.3 228 199.6"></polygon>
            <path d="M66.7,111.7 L19,84.6 L29.9,78.9 L63.5,98 C64,98.3 64.6,98.2 65,97.8 L88.4,75.9 C88.7,75.6 88.8,75.2 88.8,74.8 C88.8,74.4 88.5,74 88.2,73.8 L42.1,47.7 L45.7,38 C45.9,37.4 45.7,36.8 45.1,36.5 L36.8,31.8 C36.2,31.5 35.4,31.7 35.1,32.3 C34.8,32.9 35,33.7 35.6,34 L43,38.2 L28.8,76.5 L15.7,83.4 C15.3,83.6 15,84 15,84.5 C15,85 15.2,85.4 15.6,85.6 L17.5,86.7 C16.8,87.1 16.1,87.8 15.7,88.6 C14.3,91 15.2,94.1 17.6,95.5 C20,96.9 23.1,96 24.5,93.6 C25,92.8 25.2,91.9 25.2,91.1 L54.1,107.5 C53.4,107.9 52.7,108.6 52.3,109.4 C50.9,111.8 51.8,114.9 54.2,116.3 C56.6,117.7 59.7,116.8 61.1,114.4 C61.6,113.6 61.8,112.7 61.8,111.9 L65.5,114 C66.1,114.3 66.9,114.1 67.2,113.5 C67.5,112.8 67.3,112 66.7,111.7 Z M71.8,88 L66.8,85.1 L71.4,77.1 L78.9,81.4 L71.8,88 Z M64.5,83.9 L54,77.9 L58.6,69.9 L69.1,75.9 L64.5,83.9 Z M52.8,80.1 L63.3,86.1 L59.5,92.8 L49,86.8 L52.8,80.1 Z M46.8,85.6 L36.3,79.6 L40.1,72.9 L50.6,78.9 L46.8,85.6 Z M59.9,67.7 L62.9,62.4 L73.4,68.4 L70.4,73.7 L59.9,67.7 Z M57.7,66.4 L47.2,60.4 L50.2,55.1 L60.7,61.1 L57.7,66.4 Z M56.4,68.6 L51.8,76.6 L41.3,70.6 L45.9,62.6 L56.4,68.6 Z M39.1,69.5 L35,67.1 L38.2,58.3 L43.7,61.4 L39.1,69.5 Z M37.9,71.7 L34.1,78.4 L31.4,76.9 L34.1,69.6 L37.9,71.7 Z M63.9,95.3 L61.7,94 L65.5,87.3 L69.8,89.8 L63.9,95.3 Z M80.8,79.6 L72.6,74.9 L75.6,69.6 L85.5,75.2 L80.8,79.6 Z M47.9,54 L44.9,59.3 L39,56 L41.1,50.3 L47.9,54 Z M22.3,92.3 C21.6,93.5 20.1,93.9 18.9,93.2 C17.7,92.5 17.3,91 18,89.8 C18.7,88.6 20.2,88.2 21.4,88.9 C22.6,89.6 23,91.1 22.3,92.3 Z M58.8,113.1 C58.1,114.3 56.6,114.7 55.4,114 C54.2,113.3 53.8,111.8 54.5,110.6 C55.2,109.4 56.7,109 57.9,109.7 C59.1,110.3 59.5,111.9 58.8,113.1 Z" id="Shape" fill="#FF902B" fill-rule="nonzero"></path>
            <g id="Group" transform="translate(343.000000, 147.000000)" fill-rule="nonzero">
                <rect id="Rectangle-path" fill="#FF902B" x="0.9" y="0.2" width="104.9" height="114.6"></rect>
                <polygon id="Shape" fill="#0E314E" points="170.9 113 170.9 84.8 162.1 82.6 146.3 42.5 105.7 42.5 105.7 99.3 0.9 99.3 0.9 114.8 0.9 119.1 0.9 122.7 178 122.7 178 113"></polygon>
                <g transform="translate(9.000000, 105.000000)" id="Shape">
                    <path d="M17.9,0.2 C8.2,0.2 0.4,8 0.4,17.7 L35.4,17.7 C35.4,8.1 27.6,0.2 17.9,0.2 Z" fill="#00BDC9"></path>
                    <path d="M33.5,17.7 C33.5,26.3 26.5,33.3 17.9,33.3 C9.3,33.3 2.3,26.3 2.3,17.7 C2.3,9.1 9.3,2.1 17.9,2.1 C26.5,2.1 33.5,9.1 33.5,17.7 Z" fill="#0E314E"></path>
                    <path d="M26.1,17.7 C26.1,22.2 22.5,25.8 18,25.8 C13.5,25.8 9.9,22.2 9.9,17.7 C9.9,13.2 13.5,9.6 18,9.6 C22.4,9.6 26.1,13.2 26.1,17.7 Z" fill="#FFD522"></path>
                    <path d="M23.1,17.7 C23.1,20.6 20.8,22.9 17.9,22.9 C15,22.9 12.7,20.6 12.7,17.7 C12.7,14.8 15,12.5 17.9,12.5 C20.8,12.5 23.1,14.9 23.1,17.7 Z" fill="#00BDC9"></path>
                </g>
                <g transform="translate(119.000000, 105.000000)" id="Shape">
                    <path d="M17.7,0.2 C8,0.2 0.2,8 0.2,17.7 L35.2,17.7 C35.2,8.1 27.4,0.2 17.7,0.2 Z" fill="#00BDC9"></path>
                    <path d="M33.3,17.7 C33.3,26.3 26.3,33.3 17.7,33.3 C9.1,33.3 2.1,26.3 2.1,17.7 C2.1,9.1 9.1,2.1 17.7,2.1 C26.3,2.2 33.3,9.1 33.3,17.7 Z" fill="#0E314E"></path>
                    <path d="M25.9,17.7 C25.9,22.2 22.3,25.8 17.8,25.8 C13.3,25.8 9.7,22.2 9.7,17.7 C9.7,13.2 13.3,9.6 17.8,9.6 C22.2,9.6 25.9,13.2 25.9,17.7 Z" fill="#FFD522"></path>
                    <path d="M22.9,17.7 C22.9,20.6 20.6,22.9 17.7,22.9 C14.8,22.9 12.5,20.6 12.5,17.7 C12.5,14.8 14.8,12.5 17.7,12.5 C20.6,12.5 22.9,14.9 22.9,17.7 Z" fill="#00BDC9"></path>
                </g>
                <polygon id="Shape" fill="#00BDC9" points="152.5 79.4 141.9 49 110.2 49 110.2 79.4"></polygon>
                <path d="M26.1,29 C26.1,23.1 29.1,19.8 34.8,19.8 C40.5,19.8 43.5,23.1 43.5,29 L43.5,48 C43.5,53.9 40.5,57.2 34.8,57.2 C29.1,57.2 26.1,53.9 26.1,48 L26.1,29 Z M31.9,48.4 C31.9,51 33,52 34.9,52 C36.7,52 37.9,50.9 37.9,48.4 L37.9,28.7 C37.9,26.2 36.8,25.1 34.9,25.1 C33,25.1 31.9,26.2 31.9,28.7 L31.9,48.4 Z M57.6,20.2 L62.9,20.2 L40.2,77.8 L34.8,77.8 L57.6,20.2 Z M54.7,50.1 C54.7,44.2 57.7,40.9 63.4,40.9 C69.1,40.9 72.1,44.2 72.1,50.1 L72.1,69 C72.1,74.9 69.1,78.2 63.4,78.2 C57.7,78.2 54.7,74.9 54.7,69 L54.7,50.1 Z M60.4,69.4 C60.4,72 61.5,73 63.4,73 C65.2,73 66.4,71.9 66.4,69.4 L66.4,49.7 C66.4,47.1 65.3,46.1 63.4,46.1 C61.5,46.1 60.4,47.2 60.4,49.7 L60.4,69.4 Z" id="Shape" fill="#FFFFFF"></path>
            </g>
            <g id="Group" transform="translate(399.000000, 8.000000)" fill-rule="nonzero">
                <g id="Shape">
                    <path d="M47.6,21.5 C49.2,34.6 39.9,46.5 26.8,48.1 C13.7,49.7 1.8,40.4 0.2,27.3 C-1.4,14.2 7.9,2.3 21,0.7 C34.1,-0.9 46,8.4 47.6,21.5 Z" fill="#FFD522"></path>
                    <g transform="translate(3.000000, 3.000000)">
                        <path d="M40.3,19 C41.6,29.7 34,39.5 23.2,40.8 C12.4,42.1 2.7,34.5 1.4,23.7 C0.1,12.9 7.7,3.2 18.5,1.9 C29.3,0.7 39,8.3 40.3,19 Z" fill="#FFD522"></path>
                        <path d="M23.4,41.9 C12.1,43.3 1.8,35.2 0.4,23.9 C-1,12.6 7.1,2.3 18.4,0.9 C29.7,-0.5 40,7.6 41.4,18.9 C42.8,30.2 34.7,40.5 23.4,41.9 Z M18.7,3.1 C8.6,4.3 1.4,13.5 2.6,23.6 C3.8,33.7 13,40.9 23.1,39.7 C33.2,38.5 40.4,29.3 39.2,19.2 C38,9.1 28.8,1.9 18.7,3.1 Z" fill="#E77800"></path>
                    </g>
                </g>
                <path d="M28,23.6 C29.3,22.9 30.1,21.3 29.9,19.7 C29.4,15.9 26.9,14.9 23.3,15.3 L22.5,15.4 L22.1,12.4 C22.1,12.1 21.7,11.8 21.4,11.8 L20.8,11.9 C20.5,11.9 20.2,12.3 20.2,12.6 L20.6,15.6 L15.7,16.2 L17.9,34.5 L22.8,33.9 L23.1,36.7 C23.1,37 23.5,37.3 23.8,37.3 L24.4,37.2 C24.7,37.2 25,36.8 25,36.5 L24.7,33.7 L25.8,33.6 C29.1,33.2 32.1,31.6 31.6,27.5 C31.3,25.5 29.6,23.9 28,23.6 Z M20,19.1 L23.7,18.6 C24.8,18.5 25.7,19.2 25.8,20.2 C25.9,21.2 25.5,22.3 24.1,22.5 L20.4,22.9 L20,19.1 Z M25.3,30.1 L21.4,30.6 L20.9,26.4 L24.8,25.9 C26.5,25.7 27.4,26.6 27.6,27.7 C27.7,28.8 27,29.9 25.3,30.1 Z" id="Shape" fill="#2F1200"></path>
            </g>
            <g id="Group" transform="translate(201.000000, 36.000000)" fill-rule="nonzero">
                <path d="M16.6,32.6 C16.6,32.6 10.4,10.4 6.9,5.8 L10.5,3.9 C10.5,3.9 15.9,9.6 24.5,8.2 L27.8,31 L16.6,32.6 Z" id="Shape" fill="#FFD522"></path>
                <path d="M16.6,32.6 C16.6,32.6 6.5,34.1 13.1,71.6 C13.1,71.6 19.6,74.3 26.1,69.7 C26.1,69.7 31.3,71 33.6,70.2 L27.8,30.9 L16.6,32.6 Z" id="Shape" fill="#FFD522"></path>
                <path d="M6.9,5.8 C6.9,5.8 -0.7,6 1.2,12.6 L2.8,15.3 C2.8,15.3 7.4,12.4 10.7,14.1 C10.7,14.1 12.1,7.4 6.9,5.8 Z" id="Shape" fill="#E77800"></path>
                <path d="M39,29.3 C39,29.3 38.6,6.2 40.6,0.8 L36.6,0 C36.6,0 33.1,7 24.5,8.1 L27.8,30.9 L39,29.3 Z" id="Shape" fill="#FFD522"></path>
                <path d="M39,29.3 C39,29.3 49.1,27.8 53.5,65.6 C53.5,65.6 48.1,70.1 40.5,67.5 C40.5,67.5 35.9,70.3 33.5,70.2 L27.7,30.9 L39,29.3 Z" id="Shape" fill="#FFD522"></path>
                <path d="M40.6,0.8 C40.6,0.8 47.9,-1.1 48,5.7 L47.2,8.7 C47.2,8.7 41.9,7.2 39.3,9.9 C39.3,9.9 36.1,3.9 40.6,0.8 Z" id="Shape" fill="#E77800"></path>
                <polygon id="Shape" fill="#904993" points="39 29.3 16.6 32.6 15.8 30 39 26.6"></polygon>
                <path d="M23.9,70.9 C23.9,70.9 19.1,47.2 20.5,40.3 C20.5,40.3 26.2,61.7 26.6,69.7 C26.6,69.8 26.1,69.2 23.9,70.9 Z" id="Shape" fill="#E77800"></path>
                <path d="M42.8,68.2 C42.8,68.2 40.9,44.1 37.7,37.9 C37.7,37.9 38.1,60 39.9,67.9 C39.9,67.8 40.3,67.1 42.8,68.2 Z" id="Shape" fill="#E77800"></path>
            </g>
            <g id="Group" transform="translate(206.000000, 244.000000)" fill-rule="nonzero">
                <path d="M7.4,1.2 C7.4,1.2 16.8,7.8 22.1,14.8 C22.1,14.8 28.2,24.1 29.4,25.6 C29.4,25.6 33.8,35.2 43.1,31.1 C43.1,31.1 38,37.4 30.9,32.4 C30.9,32.4 23.3,29.4 22.7,22.1 C22.7,22.1 8,5.7 7.4,1.2 Z" id="Shape" fill="#79A175"></path>
                <path d="M8.1,0.5 C8.1,0.5 -2.8,6.9 1.9,21 C1.9,21 4,27.9 4.4,47 L8.1,47 C8.1,47 6.9,28.3 7.3,24.7 C7.3,24.7 8.2,20.5 11.7,23.8 C11.7,23.8 17.9,29.5 21.9,36.6 C21.9,36.6 25,46.9 30.1,47.7 C30.1,47.7 45.6,49.5 52.3,45.3 C52.3,45.3 58.1,34.7 52.9,34.4 C52.9,34.4 44,31.6 42.8,31.5 C42.8,31.5 35.7,38.8 27.9,29.9 C27.9,29.9 19.8,16 19,15.1 C19,15.2 15.7,8.5 8.1,0.5 Z" id="Shape" fill="#2BFF90"></path>
                <path d="M24.8,42.3 C24.8,42.3 42.1,45.4 54.4,40.9 L52.9,44.5 C52.9,44.5 48.9,48.3 30.8,47.5 C30.8,47.6 27.9,47.5 24.8,42.3 Z" id="Shape" fill="#799076"></path>
                <path d="M4.1,44 C4.1,44 5.3,44.9 7.7,43.9 L8,47.6 L4.3,47.7 L4.1,44 Z" id="Shape" fill="#799076"></path>
            </g>
            <g id="Group" transform="translate(254.000000, 261.000000)" fill-rule="nonzero">
                <path d="M49.5,0.8 C49.5,0.8 39.8,8.2 34.3,16 C34.3,16 28,26.4 26.7,28.1 C26.7,28.1 22.2,38.8 12.4,34.3 C12.4,34.3 17.7,41.3 25,35.7 C25,35.7 32.8,32.3 33.5,24.2 C33.6,24.2 48.8,5.9 49.5,0.8 Z" id="Shape" fill="#79A175"></path>
                <path d="M48.8,0.1 C48.8,0.1 60.1,7.2 55.2,23 C55.2,23 53,30.7 52.6,52 L48.8,52 C48.8,52 50,31.1 49.6,27.1 C49.6,27.1 48.6,22.5 45,26.1 C45,26.1 38.6,32.4 34.4,40.4 C34.4,40.4 31.1,51.9 25.9,52.8 C25.9,52.8 9.8,54.8 2.9,50.1 C2.9,50.1 -3.1,38.3 2.3,38 C2.3,38 11.5,34.9 12.8,34.8 C12.8,34.8 20.1,42.9 28.3,33 C28.3,33 36.7,17.5 37.5,16.5 C37.4,16.5 40.9,9 48.8,0.1 Z" id="Shape" fill="#2BFF90"></path>
                <path d="M31.4,46.8 C31.4,46.8 13.5,50.3 0.7,45.3 L2.3,49.4 C2.3,49.4 6.4,53.6 25.3,52.8 C25.2,52.7 28.2,52.6 31.4,46.8 Z" id="Shape" fill="#799076"></path>
                <path d="M52.9,48.7 C52.9,48.7 51.7,49.7 49.2,48.6 L48.9,52.8 L52.7,52.9 L52.9,48.7 Z" id="Shape" fill="#799076"></path>
            </g>
            <g id="Group" transform="translate(306.000000, 8.000000)" fill-rule="nonzero">
                <path d="M4.3,24.8 C4.3,25.7 4.8,28.9 6.1,28.9 C7.1,28.9 8.4,26.7 8.8,25.8 C9.5,24 9.5,21.8 9.8,19.9 C10.7,15.2 14.4,7.9 18.9,5.6 C18.9,5.6 22.5,3.7 24.6,3.7 L24,1.1 C23.9,0.6 18.1,3.3 17.7,3.5 C11.8,7.1 8.4,13.8 5.8,20 C5.2,21.4 4.3,23.2 4.3,24.8 Z" id="Shape" fill="#E77800"></path>
                <path d="M69.4,46.9 C59.2,20.4 52.4,18.2 52.4,18.2 C49.2,17.5 45,27 45,27 C44.1,29.1 40.2,29.5 38.3,29.8 C34.5,30.4 30.8,30.3 27.2,31.7 C24.5,32.7 21.5,33.7 18.7,33.9 C17.7,34 16.2,34.1 15.4,33.3 C15.4,33.3 7.7,26.3 5,28.3 C5,28.3 -0.3,33 1.3,61.4 C1.3,61.4 0.8,76 16.7,73.1 L38.4,68.4 L60.1,63.7 C75.8,60 69.4,46.9 69.4,46.9 Z" id="Shape" fill="#FFD522"></path>
                <path d="M51.7,14.7 C52,15.5 52.9,18.7 51.8,19.1 C50.9,19.5 48.7,18 48.1,17.4 C46.8,16 45.9,14 44.7,12.4 C41.9,8.5 35.6,3.3 30.6,3 C30.6,3 26.5,2.8 24.6,3.6 L24,1 C23.9,0.5 30.3,0.6 30.7,0.6 C37.6,1.5 43.4,6.2 48.3,10.8 C49.5,11.9 51,13.2 51.7,14.7 Z" id="Shape" fill="#E77800"></path>
                <path d="M17.2,34 C17.2,34 21.2,34.2 25.2,32.5 C25.2,32.5 31.2,30 35.5,30.2 C35.5,30.2 42.4,29.5 43.6,28.4 C43.6,28.4 43.4,45.8 36.7,49.3 L31,50.5 C31,50.5 22.1,47.7 17.2,34 Z" id="Shape" fill="#E77800"></path>
                <g transform="translate(21.000000, 40.000000)" id="Shape">
                    <path d="M11.3,8.2 C11.3,8.2 7.4,4.9 3.6,4.2 C3.6,4.2 -2.3,11.9 7,20.1 C7,20.1 11,17.3 12.9,13.1 L11.3,8.2 Z" fill="#E3D0BA"></path>
                    <path d="M14.7,7.5 C14.7,7.5 16.9,2.9 20.1,0.7 C20.1,0.7 28.6,5.3 23.5,16.6 C23.5,16.6 18.7,15.7 15.2,12.6 L14.7,7.5 Z" fill="#E3D0BA"></path>
                    <path d="M14.7,7.3 C14.7,7.3 18.3,2.2 24.1,1.2 C24.1,1.2 26.8,5.6 27.1,8.8 L27.5,14.4 C27.5,14.4 17.4,14.5 15.8,12.6 L14.7,7.3 Z" fill="#FFEDD6"></path>
                    <path d="M24.1,5.1 C24.1,5.1 18.4,6.2 16.2,9.1 C16.2,9.1 15.8,9.6 16.5,10.4 C16.5,10.4 17.3,11.1 17.1,9.7 C17.1,9.7 16.9,8.1 20.1,6.9 C20.1,6.9 27,4.2 24.1,5.1 Z" fill="#999999"></path>
                    <path d="M11.1,8.1 C11.1,8.1 12.8,7.2 14.7,7.3 L15.8,12.5 C15.8,12.5 14.4,13.6 12.2,13.3 L11.1,8.1 Z" fill="#BEAD9D"></path>
                    <path d="M11.3,8 C11.3,8 5.9,4.8 0.2,6.3 C0.2,6.3 -0.4,11.5 0.6,14.5 L2.5,19.8 C2.5,19.8 11.7,15.7 12.5,13.3 L11.3,8 Z" fill="#FFEDD6"></path>
                    <path d="M1.7,9.9 C1.7,9.9 7.3,8.6 10.6,10.3 C10.6,10.3 11.2,10.6 10.9,11.6 C10.9,11.6 10.5,12.6 10.1,11.3 C10.1,11.3 9.6,9.7 6.2,10 C6.2,9.8 -1.2,10.3 1.7,9.9 Z" fill="#999999"></path>
                </g>
            </g>
            <g id="Group" transform="translate(270.000000, 107.000000)" fill-rule="nonzero">
                <path d="M29.3,70.4 L4.7,62.3 C1.8,61.4 0.2,58.2 1.2,55.4 L18.2,3.8 C19.1,0.9 22.3,-0.7 25.1,0.3 L49.7,8.4 C52.6,9.3 54.2,12.5 53.2,15.3 L36.2,66.9 C35.3,69.8 32.2,71.4 29.3,70.4 Z" id="Shape" fill="#454C53"></path>
                <rect id="Rectangle-path" fill="#FF902B" transform="translate(27.928735, 33.252005) rotate(18.221160) translate(-27.928735, -33.252005) " x="12.0280092" y="10.4009619" width="31.8014516" height="45.7020862"></rect>
                <polygon id="Shape" fill="#000000" opacity="0.38" points="35.9 60 5.7 50.1 50.2 16.5"></polygon>
                <rect id="Rectangle-path" fill="#FFFFFF" transform="translate(35.103470, 11.612510) rotate(18.221160) translate(-35.103470, -11.612510) " x="19.2027442" y="10.2124461" width="31.8014516" height="2.80012782"></rect>
                <circle id="Oval" fill="#000000" transform="translate(19.094619, 60.193587) rotate(-4.426803) translate(-19.094619, -60.193587) " cx="19.0946186" cy="60.1935872" r="3.89993446"></circle>
                <circle id="Oval" fill="#454C53" cx="19.1" cy="60.2" r="1.8"></circle>
                <path d="M39.6,9.3 L32.7,7 C32.3,6.9 32,6.4 32.2,5.9 C32.3,5.5 32.8,5.2 33.3,5.4 L40.2,7.7 C40.6,7.8 40.9,8.3 40.7,8.8 C40.5,9.2 40.1,9.4 39.6,9.3 Z" id="Shape" fill="#000000"></path>
            </g>
        </g>
    </g>
</svg>