<?xml version="1.0" encoding="UTF-8"?>
<svg width="52px" height="50px" viewBox="0 0 52 50" version="1.1" xmlns="http://www.w3.org/2000/svg" xmlns:xlink="http://www.w3.org/1999/xlink">
    <!-- Generator: Sketch 47.1 (45422) - http://www.bohemiancoding.com/sketch -->
    <title>Star</title>
    <desc>Created with Sketch.</desc>
    <defs></defs>
    <g id="Symbols" stroke="none" stroke-width="1" fill="none" fill-rule="evenodd">
        <g id="Star" fill="#F6EB61">
            <path d="M25.886896,39.8389474 L12.8827429,49.4224981 L12.8827429,49.4224981 C11.7692507,50.2430982 10.2013591,50.0056622 9.38075896,48.89217 C8.94161513,48.296285 8.78856064,47.5366626 8.9626808,46.8172125 L12.6780622,31.4655651 L0.961693365,22.2821336 L0.961693365,22.2821336 C-0.126949479,21.4288422 -0.317739511,19.8545935 0.535551899,18.7659506 C0.969334551,18.2125238 1.61578732,17.8669444 2.31693614,17.813662 L16.6156148,16.7270627 L23.6342019,1.45003763 L23.6342019,1.45003763 C24.2116493,0.19313513 25.6986838,-0.357671997 26.9555863,0.219775477 C27.493429,0.466871733 27.9263786,0.896467793 28.1776495,1.43237284 L35.5166601,17.0848498 L49.6402083,17.9143909 L49.6402083,17.9143909 C51.0210312,17.995493 52.0746631,19.1806174 51.993561,20.5614403 C51.9514526,21.2783673 51.603607,21.942723 51.0383807,22.3857542 L39.4542127,31.4655651 L42.9500185,46.9507096 L42.9500185,46.9507096 C43.2546143,48.2999578 42.4077562,49.6406633 41.0585079,49.9452591 C40.3496232,50.1052914 39.6061809,49.9495221 39.0211605,49.5183851 L25.886896,39.8389474 Z"></path>
        </g>
    </g>
</svg>