<?xml version="1.0" encoding="UTF-8"?>
<svg width="50px" height="50px" viewBox="0 0 50 50" version="1.1" xmlns="http://www.w3.org/2000/svg" xmlns:xlink="http://www.w3.org/1999/xlink">
    <!-- Generator: Sketch 47.1 (45422) - http://www.bohemiancoding.com/sketch -->
    <title>Star Copy</title>
    <desc>Created with Sketch.</desc>
    <defs></defs>
    <g id="Symbols" stroke="none" stroke-width="1" fill="none" fill-rule="evenodd">
        <g id="NoStar" stroke-width="4.5" stroke="#F8E71C">
            <g id="Star-Copy">
                <path d="M11.2434994,47.1933098 L24.8912462,36.7906881 L38.6667377,47.2906797 C38.7261109,47.3359353 38.8023596,47.3528411 38.8752965,47.3369211 C39.0126252,47.3069463 39.0996528,47.1713201 39.069678,47.0339914 L35.4428433,30.4177343 L47.6656358,20.5089615 C47.7210574,20.4640323 47.755076,20.3979036 47.7594021,20.3266893 C47.7679253,20.186386 47.6610963,20.0657384 47.5207931,20.0572152 L32.6610886,19.1545188 L25.1463131,2.57778163 C25.1205579,2.52096854 25.0748352,2.47559226 25.0178278,2.4502699 C24.8893688,2.39320908 24.7389753,2.45108875 24.6819144,2.57954776 L17.4888159,18.7731175 L2.47331916,19.9533042 C2.40376023,19.9587713 2.33949611,19.9925559 2.29555693,20.0467563 C2.20703938,20.1559456 2.22379712,20.3162186 2.33298639,20.4047362 L14.7024677,30.4324267 L10.8413989,46.9329073 C10.8240861,47.0068947 10.8407375,47.0847479 10.8868005,47.1451803 C10.9720096,47.2569705 11.1317091,47.2785189 11.2434994,47.1933098 Z" id="Star"></path>
            </g>
        </g>
    </g>
</svg>