<?xml version="1.0" encoding="utf-8"?>
<!-- Generator: Adobe Illustrator 22.0.1, SVG Export Plug-In . SVG Version: 6.00 Build 0)  -->
<svg version="1.1" id="Layer_1" xmlns="http://www.w3.org/2000/svg" xmlns:xlink="http://www.w3.org/1999/xlink" x="0px" y="0px"
	 viewBox="0 0 587 347" style="enable-background:new 0 0 587 347;" xml:space="preserve">
<style type="text/css">
	.st0{fill:url(#SVGID_1_);}
	.st1{opacity:0.12;fill:#3D3D3D;}
	.st2{fill:#454C53;}
	.st3{fill:#FFD01F;}
	.st4{opacity:0.38;}
	.st5{fill:#FFFFFF;}
	.st6{fill:#FF9800;}
	.st7{fill:#FFD522;}
	.st8{fill:#0E314E;}
	.st9{fill:#E77800;}
	.st10{fill:#2F1200;}
	.st11{fill:#CE7D13;}
	.st12{fill:#FFC50D;}
	.st13{opacity:0.43;}
	.st14{fill:#FFFC8F;}
	.st15{fill:#F19D00;}
	.st16{fill:#FFD400;}
	.st17{opacity:0.72;fill:#9C86B7;}
	.st18{fill:#47752F;}
	.st19{fill:#4E8436;}
	.st20{fill:#ADE069;}
	.st21{fill:#70A33C;}
	.st22{fill:#607700;}
	.st23{fill:#9FD65E;}
	.st24{opacity:0.44;fill:#48842F;}
	.st25{fill:#FF895A;}
	.st26{opacity:0.29;fill:#846E56;}
</style>
<linearGradient id="SVGID_1_" gradientUnits="userSpaceOnUse" x1="293.5" y1="0" x2="293.5" y2="347">
	<stop  offset="0" style="stop-color:#FF9966"/>
	<stop  offset="1" style="stop-color:#FF5E62"/>
</linearGradient>
<rect class="st0" width="587" height="347"/>
<ellipse class="st1" cx="143.8" cy="299.7" rx="94.2" ry="14.3"/>
<g>
	<path class="st2" d="M187.4,302.1H94.7c-10.9,0-19.7-8.8-19.7-19.7V88.2c0-10.9,8.8-19.7,19.7-19.7h92.7c10.9,0,19.7,8.8,19.7,19.7
		v194.2C207,293.3,198.2,302.1,187.4,302.1z"/>
	<rect x="84.3" y="95.8" class="st3" width="113.6" height="163.5"/>
	<polygon class="st4" points="197.9,259.3 84.3,259.3 197.9,95.8 	"/>
	<rect x="84.3" y="90.8" class="st5" width="113.6" height="10"/>
	<ellipse transform="matrix(0.9229 -0.3851 0.3851 0.9229 -96.4845 75.8142)" cx="141.1" cy="278.8" rx="14.1" ry="14.1"/>
	<circle class="st2" cx="141.1" cy="278.8" r="6.3"/>
	<path d="M154,82.9h-25.8c-1.6,0-3-1.3-3-3v-0.1c0-1.6,1.3-3,3-3H154c1.6,0,3,1.3,3,3v0.1C157,81.6,155.6,82.9,154,82.9z"/>
	<g>
		<path class="st6" d="M174.9,191.6h-67.5c-9.5,0-17.2-7.7-17.2-17.2v-4.1c0-9.5,7.7-17.2,17.2-17.2h67.5c9.5,0,17.2,7.7,17.2,17.2
			v4.1C192.1,183.8,184.4,191.6,174.9,191.6z"/>
		<path class="st4" d="M174.5,153.1h-0.4c2.9,1.8,5.2,4.5,6.2,8.2c2,7.1-2.4,16-10,17.6c-20.5,4.3-41.1,8.4-61.6,12.7h65.8
			c9.7,0,17.6-7.9,17.6-17.6v-3.4C192.1,161,184.2,153.1,174.5,153.1z"/>
		<g>
			<path class="st5" d="M118,175.6h-4.9v7.4c0,1.1-0.3,1.9-0.8,2.4c-0.5,0.5-1.1,0.8-1.9,0.8c-0.8,0-1.4-0.3-1.9-0.8
				c-0.5-0.5-0.7-1.3-0.7-2.4v-20.2c0-1.2,0.3-2,0.8-2.5s1.4-0.8,2.6-0.8h6.8c2,0,3.6,0.2,4.7,0.5c1.1,0.3,2,0.8,2.8,1.5
				s1.4,1.5,1.8,2.5c0.4,1,0.6,2.1,0.6,3.4c0,2.7-0.8,4.7-2.5,6.1C123.7,174.9,121.2,175.6,118,175.6z M116.7,163.6h-3.6v8h3.6
				c1.3,0,2.3-0.1,3.1-0.4s1.5-0.7,1.9-1.3c0.4-0.6,0.7-1.4,0.7-2.3c0-1.2-0.3-2.1-1-2.8C120.6,163.9,119,163.6,116.7,163.6z"/>
			<path class="st5" d="M148.4,182.8l-1.3-3.3h-10.7l-1.3,3.4c-0.5,1.3-0.9,2.2-1.3,2.7c-0.3,0.5-0.9,0.7-1.7,0.7
				c-0.7,0-1.3-0.2-1.8-0.7c-0.5-0.5-0.8-1-0.8-1.7c0-0.4,0.1-0.7,0.2-1.1c0.1-0.4,0.3-0.9,0.6-1.6l6.7-17c0.2-0.5,0.4-1.1,0.7-1.8
				c0.3-0.7,0.6-1.3,0.9-1.7c0.3-0.5,0.7-0.8,1.2-1.1c0.5-0.3,1.1-0.4,1.8-0.4c0.7,0,1.4,0.1,1.9,0.4c0.5,0.3,0.9,0.6,1.2,1.1
				c0.3,0.4,0.6,0.9,0.8,1.4c0.2,0.5,0.5,1.2,0.8,2l6.9,16.9c0.5,1.3,0.8,2.2,0.8,2.8c0,0.6-0.3,1.2-0.8,1.7s-1.1,0.8-1.8,0.8
				c-0.4,0-0.8-0.1-1.1-0.2c-0.3-0.1-0.5-0.4-0.8-0.6c-0.2-0.3-0.4-0.6-0.7-1.2C148.7,183.7,148.5,183.2,148.4,182.8z M137.9,175.5
				h7.8l-4-10.8L137.9,175.5z"/>
			<path class="st5" d="M163.5,183v-8.3l-6.4-9.9c-0.6-0.9-1-1.6-1.2-2.1c-0.2-0.5-0.3-0.9-0.3-1.3c0-0.6,0.2-1.1,0.7-1.6
				c0.5-0.4,1.1-0.7,1.7-0.7c0.7,0,1.3,0.2,1.7,0.6c0.4,0.4,0.9,1.2,1.7,2.5l4.9,8l5-8c0.3-0.5,0.5-0.9,0.8-1.2s0.4-0.6,0.7-0.9
				c0.2-0.3,0.5-0.5,0.8-0.7c0.3-0.2,0.7-0.2,1.1-0.2c0.7,0,1.2,0.2,1.7,0.7s0.7,0.9,0.7,1.5c0,0.5-0.1,0.9-0.3,1.4
				c-0.2,0.5-0.6,1.1-1.2,1.9l-6.6,10.1v8.3c0,1.1-0.3,1.9-0.8,2.4c-0.5,0.5-1.1,0.8-1.9,0.8c-0.8,0-1.4-0.3-1.9-0.8
				C163.7,184.9,163.5,184.1,163.5,183z"/>
		</g>
	</g>
</g>
<path class="st7" d="M73.5,38.4c0,2.6-2.1,4.7-4.7,4.7c-2.6,0-4.7-2.1-4.7-4.7c0-2.6,2.1-4.7,4.7-4.7C71.4,33.7,73.5,35.8,73.5,38.4
	z"/>
<path class="st8" d="M28.9,41.8c0,2.6-2.1,4.7-4.7,4.7c-2.6,0-4.7-2.1-4.7-4.7c0-2.6,2.1-4.7,4.7-4.7C26.8,37.1,28.9,39.2,28.9,41.8
	z"/>
<path class="st7" d="M96.9,52.1c0,1.5-1.2,2.8-2.8,2.8c-1.5,0-2.8-1.2-2.8-2.8c0-1.5,1.2-2.8,2.8-2.8C95.6,49.4,96.9,50.6,96.9,52.1
	z"/>
<polygon class="st5" points="119.8,34.7 117.4,30.2 114.9,34.7 110.5,37.1 114.9,39.5 117.4,44 119.8,39.5 124.2,37.1 "/>
<polygon class="st5" points="49.1,65.6 47.6,62.9 46.1,65.6 43.3,67.2 46.1,68.7 47.6,71.5 49.1,68.7 51.9,67.2 "/>
<path class="st7" d="M520.4,68.3c2.9,0,5.3,2.4,5.3,5.3c0,2.9-2.4,5.3-5.3,5.3c-2.9,0-5.3-2.4-5.3-5.3
	C515.1,70.6,517.5,68.3,520.4,68.3z"/>
<path class="st8" d="M524.3,118.7c2.9,0,5.3,2.4,5.3,5.3c0,2.9-2.4,5.3-5.3,5.3c-2.9,0-5.3-2.4-5.3-5.3
	C519,121.1,521.4,118.7,524.3,118.7z"/>
<path class="st7" d="M536,41.9c1.7,0,3.1,1.4,3.1,3.1c0,1.7-1.4,3.1-3.1,3.1c-1.7,0-3.1-1.4-3.1-3.1C532.9,43.3,534.3,41.9,536,41.9
	z"/>
<polygon class="st5" points="516.3,15.9 511.2,18.7 516.3,21.4 519,26.4 521.7,21.4 526.8,18.7 521.7,15.9 519,10.9 "/>
<polygon class="st5" points="551.3,95.9 548.2,97.6 551.3,99.3 553,102.5 554.7,99.3 557.9,97.6 554.7,95.9 553,92.7 "/>
<polygon class="st8" points="497.2,43.3 494,45 497.2,46.7 498.9,49.8 500.6,46.7 503.7,45 500.6,43.3 498.9,40.1 "/>
<polygon class="st8" points="95.6,17.8 94.1,15 92.6,17.8 89.8,19.3 92.6,20.8 94.1,23.6 95.6,20.8 98.4,19.3 "/>
<g>
	<g>
		<g>
			<path class="st7" d="M246.6,113.8c1.9,16-9.5,30.6-25.5,32.5c-16,1.9-30.6-9.5-32.5-25.5c-1.9-16,9.5-30.6,25.5-32.5
				C230.1,86.4,244.6,97.8,246.6,113.8z"/>
		</g>
		<g>
			<g>
				<path class="st7" d="M241.3,114.5c1.6,13.1-7.8,25.1-20.9,26.6s-25.1-7.8-26.6-20.9c-1.6-13.1,7.8-25.1,20.9-26.6
					C227.8,92,239.7,101.3,241.3,114.5z"/>
				<path class="st9" d="M220.6,142.5c-13.9,1.7-26.5-8.2-28.2-22.1c-1.7-13.9,8.2-26.5,22.1-28.2c13.9-1.7,26.5,8.2,28.2,22.1
					C244.3,128.2,234.4,140.8,220.6,142.5z M214.8,94.9c-12.4,1.5-21.2,12.8-19.7,25.1s12.8,21.2,25.1,19.7s21.2-12.8,19.7-25.1
					S227.2,93.4,214.8,94.9z"/>
			</g>
		</g>
	</g>
	<path class="st10" d="M222.5,116.3c1.6-0.9,2.5-2.8,2.3-4.8c-0.6-4.6-3.7-5.9-8.1-5.3l-1,0.1l-0.4-3.7c-0.1-0.4-0.4-0.7-0.9-0.7
		l-0.7,0.1c-0.4,0.1-0.7,0.4-0.7,0.9l0.4,3.7l-6.1,0.7l2.7,22.4l6.1-0.7l0.4,3.4c0.1,0.4,0.4,0.7,0.9,0.7l0.7-0.1
		c0.4-0.1,0.7-0.4,0.7-0.9l-0.4-3.4l1.4-0.2c4.1-0.5,7.7-2.5,7.1-7.5C226.6,118.7,224.6,116.8,222.5,116.3z M212.8,110.9l4.6-0.6
		c1.3-0.2,2.4,0.8,2.6,1.9c0.1,1.2-0.3,2.6-2,2.8l-4.5,0.5L212.8,110.9z M219.3,124.4l-4.8,0.6l-0.6-5.1l4.7-0.6
		c2.1-0.3,3.2,0.8,3.4,2.2C222.2,122.8,221.3,124.1,219.3,124.4z"/>
</g>
<g>
	<g>
		<g>
			<path class="st7" d="M323.1,75.7c-5.2,19.6-25.3,31.3-44.9,26.2C258.6,96.7,246.8,76.6,252,57c5.2-19.6,25.3-31.3,44.9-26.2
				C316.5,36,328.2,56.1,323.1,75.7z"/>
		</g>
		<g>
			<g>
				<path class="st7" d="M316.6,74c-4.2,16.1-20.7,25.7-36.8,21.4s-25.7-20.7-21.4-36.8c4.2-16.1,20.7-25.7,36.8-21.4
					S320.9,57.9,316.6,74z"/>
				<path class="st9" d="M279.4,97.1c-17-4.5-27.1-21.9-22.6-38.9c4.5-17,21.9-27.1,38.9-22.6c17,4.5,27.1,21.9,22.7,38.9
					C313.8,91.4,296.4,101.6,279.4,97.1z M294.8,38.9c-15.1-4-30.7,5.1-34.7,20.2s5.1,30.7,20.2,34.7S311,88.7,315,73.6
					S309.9,42.9,294.8,38.9z"/>
			</g>
		</g>
	</g>
	<path class="st10" d="M293.8,67.5c2.2-0.3,4.2-2.1,4.9-4.6c1.5-5.6-1.6-8.6-6.9-10l-1.2-0.3l1.2-4.5c0.1-0.5-0.2-1.1-0.7-1.2
		l-0.9-0.2c-0.5-0.1-1.1,0.2-1.2,0.7l-1.2,4.5l-7.4-2l-7.2,27.5l7.4,2l-1.1,4.2c-0.1,0.5,0.2,1.1,0.7,1.2L281,85
		c0.5,0.1,1.1-0.2,1.2-0.7l1.1-4.2l1.7,0.4c5,1.3,10.1,0.7,11.7-5.4C297.5,72.1,296,69,293.8,67.5z M285,56.6l5.6,1.5
		c1.6,0.4,2.5,2,2.1,3.4c-0.4,1.4-1.6,2.8-3.7,2.3l-5.6-1.5L285,56.6z M286.4,75.4l-5.9-1.6l1.6-6.2l5.8,1.5c2.6,0.7,3.4,2.5,3,4.1
		C290.4,74.8,288.8,76,286.4,75.4z"/>
</g>
<g>
	<g>
		<g>
			<g>
				<g>
					<ellipse class="st11" cx="443.7" cy="207.3" rx="20.2" ry="8.6"/>
				</g>
				<g>
					<path class="st12" d="M423.5,202.4v4.1c0,3.5,5,6.5,12.1,7.8c1.7,0.3,3.5,0.5,5.4,0.6c0.9,0,1.8,0.1,2.7,0.1
						c2.9,0,5.6-0.2,8-0.7c7.1-1.3,10.9-4.4,10.9-7.9l1.3-4.5c-2.9-3.2-11.6-4-20.2-4C436.9,197.9,427.2,200.2,423.5,202.4z"/>
				</g>
				<g class="st13">
					<path class="st14" d="M435.7,206.8v7.5c1.7,0.3,3.5,0.5,5.4,0.6v-8.2H435.7z"/>
				</g>
				<g>
					<path class="st15" d="M450.9,214.5v-16.3c5.8,0.4,10.9,1.5,13,3.8v4.5C463.9,210.1,458.5,213.2,450.9,214.5z"/>
				</g>
				<g>
					<ellipse class="st16" cx="443.7" cy="202.4" rx="20.2" ry="8.6"/>
				</g>
				<g>
					<path class="st14" d="M432.2,209.1c-3.4-1.1-6-2.6-7.3-4.2l16.3-10.7c0.9-0.1,1.9-0.1,2.8-0.1c3.3,0,6.6,0.4,9.5,1L432.2,209.1
						z"/>
				</g>
				<g>
					<path class="st14" d="M441.1,210.6c-1.6-0.1-3.2-0.3-4.7-0.5l21-13.8c1.2,0.5,2.3,1,3.2,1.6L441.1,210.6z"/>
				</g>
			</g>
		</g>
		<g>
			<g>
				<g>
					<ellipse class="st11" cx="443.7" cy="201.4" rx="20.2" ry="8.6"/>
				</g>
				<g>
					<path class="st12" d="M423.5,196.4v4.1c0,3.5,5,6.5,12.1,7.8c1.7,0.3,3.5,0.5,5.4,0.6c0.9,0,1.8,0.1,2.7,0.1
						c2.9,0,5.6-0.2,8-0.7c7.1-1.3,10.9-4.4,10.9-7.9l1.3-4.5c-2.9-3.2-11.6-4-20.2-4C436.9,192,427.2,194.2,423.5,196.4z"/>
				</g>
				<g class="st13">
					<path class="st14" d="M435.7,200.8v7.5c1.7,0.3,3.5,0.5,5.4,0.6v-8.2H435.7z"/>
				</g>
				<g>
					<path class="st15" d="M450.9,208.5v-16.3c5.8,0.4,10.9,1.5,13,3.8v4.5C463.9,204.2,458.5,207.3,450.9,208.5z"/>
				</g>
				<g>
					<ellipse class="st16" cx="443.7" cy="196.4" rx="20.2" ry="8.6"/>
				</g>
				<g>
					<path class="st14" d="M432.2,203.1c-3.4-1.1-6-2.6-7.3-4.2l16.3-10.7c0.9-0.1,1.9-0.1,2.8-0.1c3.3,0,6.6,0.4,9.5,1L432.2,203.1
						z"/>
				</g>
				<g>
					<path class="st14" d="M441.1,204.7c-1.6-0.1-3.2-0.3-4.7-0.5l21-13.8c1.2,0.5,2.3,1,3.2,1.6L441.1,204.7z"/>
				</g>
			</g>
		</g>
		<g>
			<g>
				<g>
					<ellipse class="st11" cx="443.7" cy="195.5" rx="20.2" ry="8.6"/>
				</g>
				<g>
					<path class="st12" d="M423.5,190.5v4.1c0,3.5,5,6.5,12.1,7.8c1.7,0.3,3.5,0.5,5.4,0.6c0.9,0,1.8,0.1,2.7,0.1
						c2.9,0,5.6-0.2,8-0.7c7.1-1.3,10.9-4.4,10.9-7.9l1.3-4.5c-2.9-3.2-11.6-4-20.2-4C436.9,186,427.2,188.3,423.5,190.5z"/>
				</g>
				<g class="st13">
					<path class="st14" d="M435.7,194.9v7.5c1.7,0.3,3.5,0.5,5.4,0.6v-8.2H435.7z"/>
				</g>
				<g>
					<path class="st15" d="M450.9,202.6v-16.3c5.8,0.4,10.9,1.5,13,3.8v4.5C463.9,198.2,458.5,201.4,450.9,202.6z"/>
				</g>
				<g>
					<ellipse class="st16" cx="443.7" cy="190.5" rx="20.2" ry="8.6"/>
				</g>
				<g>
					<path class="st14" d="M432.2,197.2c-3.4-1.1-6-2.6-7.3-4.2l16.3-10.7c0.9-0.1,1.9-0.1,2.8-0.1c3.3,0,6.6,0.4,9.5,1L432.2,197.2
						z"/>
				</g>
				<g>
					<path class="st14" d="M441.1,198.7c-1.6-0.1-3.2-0.3-4.7-0.5l21-13.8c1.2,0.5,2.3,1,3.2,1.6L441.1,198.7z"/>
				</g>
			</g>
		</g>
		<g>
			<g>
				<g>
					<ellipse class="st11" cx="443.7" cy="189.5" rx="20.2" ry="8.6"/>
				</g>
				<g>
					<path class="st12" d="M423.5,184.6v4.1c0,3.5,5,6.5,12.1,7.8c1.7,0.3,3.5,0.5,5.4,0.6c0.9,0,1.8,0.1,2.7,0.1
						c2.9,0,5.6-0.2,8-0.7c7.1-1.3,10.9-4.4,10.9-7.9l1.3-4.5c-2.9-3.2-11.6-4-20.2-4C436.9,180.1,427.2,182.4,423.5,184.6z"/>
				</g>
				<g class="st13">
					<path class="st14" d="M435.7,189v7.5c1.7,0.3,3.5,0.5,5.4,0.6V189H435.7z"/>
				</g>
				<g>
					<path class="st15" d="M450.9,196.6v-16.3c5.8,0.4,10.9,1.5,13,3.8v4.5C463.9,192.3,458.5,195.4,450.9,196.6z"/>
				</g>
				<g>
					<ellipse class="st16" cx="443.7" cy="184.6" rx="20.2" ry="8.6"/>
				</g>
				<g>
					<path class="st14" d="M432.2,191.3c-3.4-1.1-6-2.6-7.3-4.2l16.3-10.7c0.9-0.1,1.9-0.1,2.8-0.1c3.3,0,6.6,0.4,9.5,1L432.2,191.3
						z"/>
				</g>
				<g>
					<path class="st14" d="M441.1,192.8c-1.6-0.1-3.2-0.3-4.7-0.5l21-13.8c1.2,0.5,2.3,1,3.2,1.6L441.1,192.8z"/>
				</g>
			</g>
		</g>
		<g>
			<g>
				<g>
					<ellipse class="st11" cx="443.7" cy="183.6" rx="20.2" ry="8.6"/>
				</g>
				<g>
					<path class="st12" d="M423.5,178.6v4.1c0,3.5,5,6.5,12.1,7.8c1.7,0.3,3.5,0.5,5.4,0.6c0.9,0,1.8,0.1,2.7,0.1
						c2.9,0,5.6-0.2,8-0.7c7.1-1.3,10.9-4.4,10.9-7.9l1.3-4.5c-2.9-3.2-11.6-4-20.2-4C436.9,174.2,427.2,176.4,423.5,178.6z"/>
				</g>
				<g class="st13">
					<path class="st14" d="M435.7,183v7.5c1.7,0.3,3.5,0.5,5.4,0.6V183H435.7z"/>
				</g>
				<g>
					<path class="st15" d="M450.9,190.7v-16.3c5.8,0.4,10.9,1.5,13,3.8v4.5C463.9,186.4,458.5,189.5,450.9,190.7z"/>
				</g>
				<g>
					<ellipse class="st16" cx="443.7" cy="178.6" rx="20.2" ry="8.6"/>
				</g>
				<g>
					<path class="st14" d="M432.2,185.3c-3.4-1.1-6-2.6-7.3-4.2l16.3-10.7c0.9-0.1,1.9-0.1,2.8-0.1c3.3,0,6.6,0.4,9.5,1L432.2,185.3
						z"/>
				</g>
				<g>
					<path class="st14" d="M441.1,186.9c-1.6-0.1-3.2-0.3-4.7-0.5l21-13.8c1.2,0.5,2.3,1,3.2,1.6L441.1,186.9z"/>
				</g>
			</g>
		</g>
		<g>
			<g>
				<g>
					<ellipse class="st11" cx="443.7" cy="177.7" rx="20.2" ry="8.6"/>
				</g>
				<g>
					<path class="st12" d="M423.5,172.7v4.1c0,3.5,5,6.5,12.1,7.8c1.7,0.3,3.5,0.5,5.4,0.6c0.9,0,1.8,0.1,2.7,0.1
						c2.9,0,5.6-0.2,8-0.7c7.1-1.3,10.9-4.4,10.9-7.9l1.3-4.5c-2.9-3.2-11.6-4-20.2-4C436.9,168.2,427.2,170.5,423.5,172.7z"/>
				</g>
				<g class="st13">
					<path class="st14" d="M435.7,177.1v7.5c1.7,0.3,3.5,0.5,5.4,0.6v-8.2H435.7z"/>
				</g>
				<g>
					<path class="st15" d="M450.9,184.8v-16.3c5.8,0.4,10.9,1.5,13,3.8v4.5C463.9,180.4,458.5,183.5,450.9,184.8z"/>
				</g>
				<g>
					<ellipse class="st16" cx="443.7" cy="172.7" rx="20.2" ry="8.6"/>
				</g>
				<g>
					<path class="st14" d="M432.2,179.4c-3.4-1.1-6-2.6-7.3-4.2l16.3-10.7c0.9-0.1,1.9-0.1,2.8-0.1c3.3,0,6.6,0.4,9.5,1L432.2,179.4
						z"/>
				</g>
				<g>
					<path class="st14" d="M441.1,180.9c-1.6-0.1-3.2-0.3-4.7-0.5l21-13.8c1.2,0.5,2.3,1,3.2,1.6L441.1,180.9z"/>
				</g>
			</g>
		</g>
		<g>
			<g>
				<g>
					<ellipse class="st11" cx="443.7" cy="171.7" rx="20.2" ry="8.6"/>
				</g>
				<g>
					<path class="st12" d="M423.5,166.7v4.1c0,3.5,5,6.5,12.1,7.8c1.7,0.3,3.5,0.5,5.4,0.6c0.9,0,1.8,0.1,2.7,0.1
						c2.9,0,5.6-0.2,8-0.7c7.1-1.3,10.9-4.4,10.9-7.9l1.3-4.5c-2.9-3.2-11.6-4-20.2-4C436.9,162.3,427.2,164.6,423.5,166.7z"/>
				</g>
				<g class="st13">
					<path class="st14" d="M435.7,171.2v7.5c1.7,0.3,3.5,0.5,5.4,0.6v-8.2H435.7z"/>
				</g>
				<g>
					<path class="st15" d="M450.9,178.8v-16.3c5.8,0.4,10.9,1.5,13,3.8v4.5C463.9,174.5,458.5,177.6,450.9,178.8z"/>
				</g>
				<g>
					<ellipse class="st16" cx="443.7" cy="166.8" rx="20.2" ry="8.6"/>
				</g>
				<g>
					<path class="st14" d="M432.2,173.5c-3.4-1.1-6-2.6-7.3-4.2l16.3-10.7c0.9-0.1,1.9-0.1,2.8-0.1c3.3,0,6.6,0.4,9.5,1L432.2,173.5
						z"/>
				</g>
				<g>
					<path class="st14" d="M441.1,175c-1.6-0.1-3.2-0.3-4.7-0.5l21-13.8c1.2,0.5,2.3,1,3.2,1.6L441.1,175z"/>
				</g>
			</g>
		</g>
		<g>
			<g>
				<g>
					<ellipse class="st11" cx="443.7" cy="165.8" rx="20.2" ry="8.6"/>
				</g>
				<g>
					<path class="st12" d="M423.5,160.8v4.1c0,3.5,5,6.5,12.1,7.8c1.7,0.3,3.5,0.5,5.4,0.6c0.9,0,1.8,0.1,2.7,0.1
						c2.9,0,5.6-0.2,8-0.7c7.1-1.3,10.9-4.4,10.9-7.9l1.3-4.5c-2.9-3.2-11.6-4-20.2-4C436.9,156.4,427.2,158.6,423.5,160.8z"/>
				</g>
				<g class="st13">
					<path class="st14" d="M435.7,165.2v7.5c1.7,0.3,3.5,0.5,5.4,0.6v-8.2H435.7z"/>
				</g>
				<g>
					<path class="st15" d="M450.9,172.9v-16.3c5.8,0.4,10.9,1.5,13,3.8v4.5C463.9,168.6,458.5,171.7,450.9,172.9z"/>
				</g>
				<g>
					<ellipse class="st16" cx="443.7" cy="160.8" rx="20.2" ry="8.6"/>
				</g>
				<g>
					<path class="st14" d="M432.2,167.5c-3.4-1.1-6-2.6-7.3-4.2l16.3-10.7c0.9-0.1,1.9-0.1,2.8-0.1c3.3,0,6.6,0.4,9.5,1L432.2,167.5
						z"/>
				</g>
				<g>
					<path class="st14" d="M441.1,169c-1.6-0.1-3.2-0.3-4.7-0.5l21-13.8c1.2,0.5,2.3,1,3.2,1.6L441.1,169z"/>
				</g>
			</g>
		</g>
		<g>
			<g>
				<g>
					<ellipse class="st11" cx="443.7" cy="159.9" rx="20.2" ry="8.6"/>
				</g>
				<g>
					<path class="st12" d="M423.5,154.9v4.1c0,3.5,5,6.5,12.1,7.8c1.7,0.3,3.5,0.5,5.4,0.6c0.9,0,1.8,0.1,2.7,0.1
						c2.9,0,5.6-0.2,8-0.7c7.1-1.3,10.9-4.4,10.9-7.9l1.3-4.5c-2.9-3.2-11.6-4-20.2-4C436.9,150.4,427.2,152.7,423.5,154.9z"/>
				</g>
				<g class="st13">
					<path class="st14" d="M435.7,159.3v7.5c1.7,0.3,3.5,0.5,5.4,0.6v-8.2H435.7z"/>
				</g>
				<g>
					<path class="st15" d="M450.9,167v-16.3c5.8,0.4,10.9,1.5,13,3.8v4.5C463.9,162.6,458.5,165.7,450.9,167z"/>
				</g>
				<g>
					<ellipse class="st16" cx="443.7" cy="154.9" rx="20.2" ry="8.6"/>
				</g>
				<g>
					<path class="st14" d="M432.2,161.6c-3.4-1.1-6-2.6-7.3-4.2l16.3-10.7c0.9-0.1,1.9-0.1,2.8-0.1c3.3,0,6.6,0.4,9.5,1L432.2,161.6
						z"/>
				</g>
				<g>
					<path class="st14" d="M441.1,163.1c-1.6-0.1-3.2-0.3-4.7-0.5l21-13.8c1.2,0.5,2.3,1,3.2,1.6L441.1,163.1z"/>
				</g>
			</g>
		</g>
		<g>
			<g>
				<g>
					<ellipse class="st11" cx="443.7" cy="153.9" rx="20.2" ry="8.6"/>
				</g>
				<g>
					<path class="st12" d="M423.5,148.9v4.1c0,3.5,5,6.5,12.1,7.8c1.7,0.3,3.5,0.5,5.4,0.6c0.9,0,1.8,0.1,2.7,0.1
						c2.9,0,5.6-0.2,8-0.7c7.1-1.3,10.9-4.4,10.9-7.9l1.3-4.5c-2.9-3.2-11.6-4-20.2-4C436.9,144.5,427.2,146.7,423.5,148.9z"/>
				</g>
				<g class="st13">
					<path class="st14" d="M435.7,153.4v7.5c1.7,0.3,3.5,0.5,5.4,0.6v-8.2H435.7z"/>
				</g>
				<g>
					<path class="st15" d="M450.9,161v-16.3c5.8,0.4,10.9,1.5,13,3.8v4.5C463.9,156.7,458.5,159.8,450.9,161z"/>
				</g>
				<g>
					<ellipse class="st16" cx="443.7" cy="148.9" rx="20.2" ry="8.6"/>
				</g>
				<g>
					<path class="st14" d="M432.2,155.7c-3.4-1.1-6-2.6-7.3-4.2l16.3-10.7c0.9-0.1,1.9-0.1,2.8-0.1c3.3,0,6.6,0.4,9.5,1L432.2,155.7
						z"/>
				</g>
				<g>
					<path class="st14" d="M441.1,157.2c-1.6-0.1-3.2-0.3-4.7-0.5l21-13.8c1.2,0.5,2.3,1,3.2,1.6L441.1,157.2z"/>
				</g>
			</g>
		</g>
		<g>
			<g>
				<g>
					<ellipse class="st11" cx="443.7" cy="148" rx="20.2" ry="8.6"/>
				</g>
				<g>
					<path class="st12" d="M423.5,143v4.1c0,3.5,5,6.5,12.1,7.8c1.7,0.3,3.5,0.5,5.4,0.6c0.9,0,1.8,0.1,2.7,0.1c2.9,0,5.6-0.2,8-0.7
						c7.1-1.3,10.9-4.4,10.9-7.9l1.3-4.5c-2.9-3.2-11.6-4-20.2-4C436.9,138.6,427.2,140.8,423.5,143z"/>
				</g>
				<g class="st13">
					<path class="st14" d="M435.7,147.4v7.5c1.7,0.3,3.5,0.5,5.4,0.6v-8.2H435.7z"/>
				</g>
				<g>
					<path class="st15" d="M450.9,155.1v-16.3c5.8,0.4,10.9,1.5,13,3.8v4.5C463.9,150.8,458.5,153.9,450.9,155.1z"/>
				</g>
				<g>
					<ellipse class="st16" cx="443.7" cy="143" rx="20.2" ry="8.6"/>
				</g>
				<g>
					<path class="st14" d="M432.2,149.7c-3.4-1.1-6-2.6-7.3-4.2l16.3-10.7c0.9-0.1,1.9-0.1,2.8-0.1c3.3,0,6.6,0.4,9.5,1L432.2,149.7
						z"/>
				</g>
				<g>
					<path class="st14" d="M441.1,151.2c-1.6-0.1-3.2-0.3-4.7-0.5l21-13.8c1.2,0.5,2.3,1,3.2,1.6L441.1,151.2z"/>
				</g>
			</g>
		</g>
		<g>
			<g>
				<g>
					<ellipse class="st11" cx="443.7" cy="142.1" rx="20.2" ry="8.6"/>
				</g>
				<g>
					<path class="st12" d="M423.5,137.1v4.1c0,3.5,5,6.5,12.1,7.8c1.7,0.3,3.5,0.5,5.4,0.6c0.9,0,1.8,0.1,2.7,0.1
						c2.9,0,5.6-0.2,8-0.7c7.1-1.3,10.9-4.4,10.9-7.9l1.3-4.5c-2.9-3.2-11.6-4-20.2-4C436.9,132.6,427.2,134.9,423.5,137.1z"/>
				</g>
				<g class="st13">
					<path class="st14" d="M435.7,141.5v7.5c1.7,0.3,3.5,0.5,5.4,0.6v-8.2H435.7z"/>
				</g>
				<g>
					<path class="st15" d="M450.9,149.2v-16.3c5.8,0.4,10.9,1.5,13,3.8v4.5C463.9,144.8,458.5,147.9,450.9,149.2z"/>
				</g>
				<g>
					<ellipse class="st16" cx="443.7" cy="137.1" rx="20.2" ry="8.6"/>
				</g>
				<g>
					<path class="st14" d="M432.2,143.8c-3.4-1.1-6-2.6-7.3-4.2l16.3-10.7c0.9-0.1,1.9-0.1,2.8-0.1c3.3,0,6.6,0.4,9.5,1L432.2,143.8
						z"/>
				</g>
				<g>
					<path class="st14" d="M441.1,145.3c-1.6-0.1-3.2-0.3-4.7-0.5l21-13.8c1.2,0.5,2.3,1,3.2,1.6L441.1,145.3z"/>
				</g>
			</g>
		</g>
		<g>
			<g>
				<g>
					<ellipse class="st11" cx="443.7" cy="136.1" rx="20.2" ry="8.6"/>
				</g>
				<g>
					<path class="st12" d="M423.5,131.1v4.1c0,3.5,5,6.5,12.1,7.8c1.7,0.3,3.5,0.5,5.4,0.6c0.9,0,1.8,0.1,2.7,0.1
						c2.9,0,5.6-0.2,8-0.7c7.1-1.3,10.9-4.4,10.9-7.9l1.3-4.5c-2.9-3.2-11.6-4-20.2-4C436.9,126.7,427.2,128.9,423.5,131.1z"/>
				</g>
				<g class="st13">
					<path class="st14" d="M435.7,135.6v7.5c1.7,0.3,3.5,0.5,5.4,0.6v-8.2H435.7z"/>
				</g>
				<g>
					<path class="st15" d="M450.9,143.2v-16.3c5.8,0.4,10.9,1.5,13,3.8v4.5C463.9,138.9,458.5,142,450.9,143.2z"/>
				</g>
				<g>
					<ellipse class="st16" cx="443.7" cy="131.1" rx="20.2" ry="8.6"/>
				</g>
				<g>
					<path class="st14" d="M432.2,137.9c-3.4-1.1-6-2.6-7.3-4.2l16.3-10.7c0.9-0.1,1.9-0.1,2.8-0.1c3.3,0,6.6,0.4,9.5,1L432.2,137.9
						z"/>
				</g>
				<g>
					<path class="st14" d="M441.1,139.4c-1.6-0.1-3.2-0.3-4.7-0.5l21-13.8c1.2,0.5,2.3,1,3.2,1.6L441.1,139.4z"/>
				</g>
			</g>
		</g>
	</g>
	<g>
		<g>
			<g>
				<g>
					<path class="st11" d="M341,215.4c0,4.7,9,8.6,20.2,8.6c11.1,0,20.2-3.8,20.2-8.6c0-4.7-9-8.6-20.2-8.6
						C350,206.8,341,210.7,341,215.4z"/>
				</g>
				<g>
					<path class="st12" d="M341,210.4v4.1c0,3.5,5,6.5,12.1,7.8c1.7,0.3,3.5,0.5,5.4,0.6c0.9,0,1.8,0.1,2.7,0.1c2.9,0,5.6-0.2,8-0.7
						c7.1-1.3,10.9-4.4,10.9-7.9l1.3-4.5c-2.9-3.2-11.6-4-20.2-4C354.3,205.9,344.6,208.2,341,210.4z"/>
				</g>
				<g class="st13">
					<path class="st14" d="M353.1,214.8v7.5c1.7,0.3,3.5,0.5,5.4,0.6v-8.2H353.1z"/>
				</g>
				<g>
					<path class="st15" d="M368.4,222.5v-16.3c5.8,0.4,10.9,1.5,13,3.8v4.5C381.3,218.1,375.9,221.3,368.4,222.5z"/>
				</g>
				<g>
					<ellipse class="st16" cx="361.2" cy="210.4" rx="20.2" ry="8.6"/>
				</g>
				<g>
					<path class="st14" d="M349.7,217.1c-3.4-1.1-6-2.6-7.3-4.2l16.3-10.7c0.9-0.1,1.9-0.1,2.8-0.1c3.3,0,6.6,0.4,9.5,1L349.7,217.1
						z"/>
				</g>
				<g>
					<path class="st14" d="M358.6,218.6c-1.6-0.1-3.2-0.3-4.7-0.5l21-13.8c1.2,0.5,2.3,1,3.2,1.6L358.6,218.6z"/>
				</g>
			</g>
		</g>
		<g>
			<g>
				<g>
					<path class="st11" d="M341,209.4c0,4.7,9,8.6,20.2,8.6c11.1,0,20.2-3.8,20.2-8.6c0-4.7-9-8.6-20.2-8.6
						C350,200.9,341,204.7,341,209.4z"/>
				</g>
				<g>
					<path class="st12" d="M341,204.4v4.1c0,3.5,5,6.5,12.1,7.8c1.7,0.3,3.5,0.5,5.4,0.6c0.9,0,1.8,0.1,2.7,0.1c2.9,0,5.6-0.2,8-0.7
						c7.1-1.3,10.9-4.4,10.9-7.9l1.3-4.5c-2.9-3.2-11.6-4-20.2-4C354.3,200,344.6,202.3,341,204.4z"/>
				</g>
				<g class="st13">
					<path class="st14" d="M353.1,208.9v7.5c1.7,0.3,3.5,0.5,5.4,0.6v-8.2H353.1z"/>
				</g>
				<g>
					<path class="st15" d="M368.4,216.5v-16.3c5.8,0.4,10.9,1.5,13,3.8v4.5C381.3,212.2,375.9,215.3,368.4,216.5z"/>
				</g>
				<g>
					<ellipse class="st16" cx="361.2" cy="204.5" rx="20.2" ry="8.6"/>
				</g>
				<g>
					<path class="st14" d="M349.7,211.2c-3.4-1.1-6-2.6-7.3-4.2l16.3-10.7c0.9-0.1,1.9-0.1,2.8-0.1c3.3,0,6.6,0.4,9.5,1L349.7,211.2
						z"/>
				</g>
				<g>
					<path class="st14" d="M358.6,212.7c-1.6-0.1-3.2-0.3-4.7-0.5l21-13.8c1.2,0.5,2.3,1,3.2,1.6L358.6,212.7z"/>
				</g>
			</g>
		</g>
		<g>
			<g>
				<g>
					<path class="st11" d="M341,203.5c0,4.7,9,8.6,20.2,8.6c11.1,0,20.2-3.8,20.2-8.6c0-4.7-9-8.6-20.2-8.6
						C350,195,341,198.8,341,203.5z"/>
				</g>
				<g>
					<path class="st12" d="M341,198.5v4.1c0,3.5,5,6.5,12.1,7.8c1.7,0.3,3.5,0.5,5.4,0.6c0.9,0,1.8,0.1,2.7,0.1c2.9,0,5.6-0.2,8-0.7
						c7.1-1.3,10.9-4.4,10.9-7.9l1.3-4.5c-2.9-3.2-11.6-4-20.2-4C354.3,194.1,344.6,196.3,341,198.5z"/>
				</g>
				<g class="st13">
					<path class="st14" d="M353.1,202.9v7.5c1.7,0.3,3.5,0.5,5.4,0.6v-8.2H353.1z"/>
				</g>
				<g>
					<path class="st15" d="M368.4,210.6v-16.3c5.8,0.4,10.9,1.5,13,3.8v4.5C381.3,206.3,375.9,209.4,368.4,210.6z"/>
				</g>
				<g>
					<ellipse class="st16" cx="361.2" cy="198.5" rx="20.2" ry="8.6"/>
				</g>
				<g>
					<path class="st14" d="M349.7,205.2c-3.4-1.1-6-2.6-7.3-4.2l16.3-10.7c0.9-0.1,1.9-0.1,2.8-0.1c3.3,0,6.6,0.4,9.5,1L349.7,205.2
						z"/>
				</g>
				<g>
					<path class="st14" d="M358.6,206.8c-1.6-0.1-3.2-0.3-4.7-0.5l21-13.8c1.2,0.5,2.3,1,3.2,1.6L358.6,206.8z"/>
				</g>
			</g>
		</g>
		<g>
			<g>
				<g>
					<path class="st11" d="M341,197.6c0,4.7,9,8.6,20.2,8.6c11.1,0,20.2-3.8,20.2-8.6c0-4.7-9-8.6-20.2-8.6
						C350,189,341,192.9,341,197.6z"/>
				</g>
				<g>
					<path class="st12" d="M341,192.6v4.1c0,3.5,5,6.5,12.1,7.8c1.7,0.3,3.5,0.5,5.4,0.6c0.9,0,1.8,0.1,2.7,0.1c2.9,0,5.6-0.2,8-0.7
						c7.1-1.3,10.9-4.4,10.9-7.9l1.3-4.5c-2.9-3.2-11.6-4-20.2-4C354.3,188.1,344.6,190.4,341,192.6z"/>
				</g>
				<g class="st13">
					<path class="st14" d="M353.1,197v7.5c1.7,0.3,3.5,0.5,5.4,0.6V197H353.1z"/>
				</g>
				<g>
					<path class="st15" d="M368.4,204.7v-16.3c5.8,0.4,10.9,1.5,13,3.8v4.5C381.3,200.3,375.9,203.4,368.4,204.7z"/>
				</g>
				<g>
					<ellipse class="st16" cx="361.2" cy="192.6" rx="20.2" ry="8.6"/>
				</g>
				<g>
					<path class="st14" d="M349.7,199.3c-3.4-1.1-6-2.6-7.3-4.2l16.3-10.7c0.9-0.1,1.9-0.1,2.8-0.1c3.3,0,6.6,0.4,9.5,1L349.7,199.3
						z"/>
				</g>
				<g>
					<path class="st14" d="M358.6,200.8c-1.6-0.1-3.2-0.3-4.7-0.5l21-13.8c1.2,0.5,2.3,1,3.2,1.6L358.6,200.8z"/>
				</g>
			</g>
		</g>
		<g>
			<g>
				<g>
					<path class="st11" d="M341,191.6c0,4.7,9,8.6,20.2,8.6c11.1,0,20.2-3.8,20.2-8.6c0-4.7-9-8.6-20.2-8.6
						C350,183.1,341,186.9,341,191.6z"/>
				</g>
				<g>
					<path class="st12" d="M341,186.6v4.1c0,3.5,5,6.5,12.1,7.8c1.7,0.3,3.5,0.5,5.4,0.6c0.9,0,1.8,0.1,2.7,0.1c2.9,0,5.6-0.2,8-0.7
						c7.1-1.3,10.9-4.4,10.9-7.9l1.3-4.5c-2.9-3.2-11.6-4-20.2-4C354.3,182.2,344.6,184.5,341,186.6z"/>
				</g>
				<g class="st13">
					<path class="st14" d="M353.1,191.1v7.5c1.7,0.3,3.5,0.5,5.4,0.6v-8.2H353.1z"/>
				</g>
				<g>
					<path class="st15" d="M368.4,198.7v-16.3c5.8,0.4,10.9,1.5,13,3.8v4.5C381.3,194.4,375.9,197.5,368.4,198.7z"/>
				</g>
				<g>
					<ellipse class="st16" cx="361.2" cy="186.7" rx="20.2" ry="8.6"/>
				</g>
				<g>
					<path class="st14" d="M349.7,193.4c-3.4-1.1-6-2.6-7.3-4.2l16.3-10.7c0.9-0.1,1.9-0.1,2.8-0.1c3.3,0,6.6,0.4,9.5,1L349.7,193.4
						z"/>
				</g>
				<g>
					<path class="st14" d="M358.6,194.9c-1.6-0.1-3.2-0.3-4.7-0.5l21-13.8c1.2,0.5,2.3,1,3.2,1.6L358.6,194.9z"/>
				</g>
			</g>
		</g>
		<g>
			<g>
				<g>
					<path class="st11" d="M341,185.7c0,4.7,9,8.6,20.2,8.6c11.1,0,20.2-3.8,20.2-8.6c0-4.7-9-8.6-20.2-8.6
						C350,177.2,341,181,341,185.7z"/>
				</g>
				<g>
					<path class="st12" d="M341,180.7v4.1c0,3.5,5,6.5,12.1,7.8c1.7,0.3,3.5,0.5,5.4,0.6c0.9,0,1.8,0.1,2.7,0.1c2.9,0,5.6-0.2,8-0.7
						c7.1-1.3,10.9-4.4,10.9-7.9l1.3-4.5c-2.9-3.2-11.6-4-20.2-4C354.3,176.3,344.6,178.5,341,180.7z"/>
				</g>
				<g class="st13">
					<path class="st14" d="M353.1,185.1v7.5c1.7,0.3,3.5,0.5,5.4,0.6v-8.2H353.1z"/>
				</g>
				<g>
					<path class="st15" d="M368.4,192.8v-16.3c5.8,0.4,10.9,1.5,13,3.8v4.5C381.3,188.5,375.9,191.6,368.4,192.8z"/>
				</g>
				<g>
					<ellipse class="st16" cx="361.2" cy="180.7" rx="20.2" ry="8.6"/>
				</g>
				<g>
					<path class="st14" d="M349.7,187.4c-3.4-1.1-6-2.6-7.3-4.2l16.3-10.7c0.9-0.1,1.9-0.1,2.8-0.1c3.3,0,6.6,0.4,9.5,1L349.7,187.4
						z"/>
				</g>
				<g>
					<path class="st14" d="M358.6,188.9c-1.6-0.1-3.2-0.3-4.7-0.5l21-13.8c1.2,0.5,2.3,1,3.2,1.6L358.6,188.9z"/>
				</g>
			</g>
		</g>
		<g>
			<g>
				<g>
					<path class="st11" d="M341,179.8c0,4.7,9,8.6,20.2,8.6c11.1,0,20.2-3.8,20.2-8.6c0-4.7-9-8.6-20.2-8.6
						C350,171.2,341,175,341,179.8z"/>
				</g>
				<g>
					<path class="st12" d="M341,174.8v4.1c0,3.5,5,6.5,12.1,7.8c1.7,0.3,3.5,0.5,5.4,0.6c0.9,0,1.8,0.1,2.7,0.1c2.9,0,5.6-0.2,8-0.7
						c7.1-1.3,10.9-4.4,10.9-7.9l1.3-4.5c-2.9-3.2-11.6-4-20.2-4C354.3,170.3,344.6,172.6,341,174.8z"/>
				</g>
				<g class="st13">
					<path class="st14" d="M353.1,179.2v7.5c1.7,0.3,3.5,0.5,5.4,0.6v-8.2H353.1z"/>
				</g>
				<g>
					<path class="st15" d="M368.4,186.9v-16.3c5.8,0.4,10.9,1.5,13,3.8v4.5C381.3,182.5,375.9,185.6,368.4,186.9z"/>
				</g>
				<g>
					<ellipse class="st16" cx="361.2" cy="174.8" rx="20.2" ry="8.6"/>
				</g>
				<g>
					<path class="st14" d="M349.7,181.5c-3.4-1.1-6-2.6-7.3-4.2l16.3-10.7c0.9-0.1,1.9-0.1,2.8-0.1c3.3,0,6.6,0.4,9.5,1L349.7,181.5
						z"/>
				</g>
				<g>
					<path class="st14" d="M358.6,183c-1.6-0.1-3.2-0.3-4.7-0.5l21-13.8c1.2,0.5,2.3,1,3.2,1.6L358.6,183z"/>
				</g>
			</g>
		</g>
		<g>
			<g>
				<g>
					<path class="st11" d="M341,173.8c0,4.7,9,8.6,20.2,8.6c11.1,0,20.2-3.8,20.2-8.6c0-4.7-9-8.6-20.2-8.6
						C350,165.3,341,169.1,341,173.8z"/>
				</g>
				<g>
					<path class="st12" d="M341,168.8v4.1c0,3.5,5,6.5,12.1,7.8c1.7,0.3,3.5,0.5,5.4,0.6c0.9,0,1.8,0.1,2.7,0.1c2.9,0,5.6-0.2,8-0.7
						c7.1-1.3,10.9-4.4,10.9-7.9l1.3-4.5c-2.9-3.2-11.6-4-20.2-4C354.3,164.4,344.6,166.6,341,168.8z"/>
				</g>
				<g class="st13">
					<path class="st14" d="M353.1,173.3v7.5c1.7,0.3,3.5,0.5,5.4,0.6v-8.2H353.1z"/>
				</g>
				<g>
					<path class="st15" d="M368.4,180.9v-16.3c5.8,0.4,10.9,1.5,13,3.8v4.5C381.3,176.6,375.9,179.7,368.4,180.9z"/>
				</g>
				<g>
					<ellipse class="st16" cx="361.2" cy="168.8" rx="20.2" ry="8.6"/>
				</g>
				<g>
					<path class="st14" d="M349.7,175.6c-3.4-1.1-6-2.6-7.3-4.2l16.3-10.7c0.9-0.1,1.9-0.1,2.8-0.1c3.3,0,6.6,0.4,9.5,1L349.7,175.6
						z"/>
				</g>
				<g>
					<path class="st14" d="M358.6,177.1c-1.6-0.1-3.2-0.3-4.7-0.5l21-13.8c1.2,0.5,2.3,1,3.2,1.6L358.6,177.1z"/>
				</g>
			</g>
		</g>
		<g>
			<g>
				<g>
					<path class="st11" d="M341,167.9c0,4.7,9,8.6,20.2,8.6c11.1,0,20.2-3.8,20.2-8.6c0-4.7-9-8.6-20.2-8.6
						C350,159.4,341,163.2,341,167.9z"/>
				</g>
				<g>
					<path class="st12" d="M341,162.9v4.1c0,3.5,5,6.5,12.1,7.8c1.7,0.3,3.5,0.5,5.4,0.6c0.9,0,1.8,0.1,2.7,0.1c2.9,0,5.6-0.2,8-0.7
						c7.1-1.3,10.9-4.4,10.9-7.9l1.3-4.5c-2.9-3.2-11.6-4-20.2-4C354.3,158.5,344.6,160.7,341,162.9z"/>
				</g>
				<g class="st13">
					<path class="st14" d="M353.1,167.3v7.5c1.7,0.3,3.5,0.5,5.4,0.6v-8.2H353.1z"/>
				</g>
				<g>
					<path class="st15" d="M368.4,175v-16.3c5.8,0.4,10.9,1.5,13,3.8v4.5C381.3,170.7,375.9,173.8,368.4,175z"/>
				</g>
				<g>
					<ellipse class="st16" cx="361.2" cy="162.9" rx="20.2" ry="8.6"/>
				</g>
				<g>
					<path class="st14" d="M349.7,169.6c-3.4-1.1-6-2.6-7.3-4.2l16.3-10.7c0.9-0.1,1.9-0.1,2.8-0.1c3.3,0,6.6,0.4,9.5,1L349.7,169.6
						z"/>
				</g>
				<g>
					<path class="st14" d="M358.6,171.1c-1.6-0.1-3.2-0.3-4.7-0.5l21-13.8c1.2,0.5,2.3,1,3.2,1.6L358.6,171.1z"/>
				</g>
			</g>
		</g>
		<g>
			<g>
				<g>
					<path class="st11" d="M341,162c0,4.7,9,8.6,20.2,8.6c11.1,0,20.2-3.8,20.2-8.6c0-4.7-9-8.6-20.2-8.6
						C350,153.4,341,157.2,341,162z"/>
				</g>
				<g>
					<path class="st12" d="M341,157v4.1c0,3.5,5,6.5,12.1,7.8c1.7,0.3,3.5,0.5,5.4,0.6c0.9,0,1.8,0.1,2.7,0.1c2.9,0,5.6-0.2,8-0.7
						c7.1-1.3,10.9-4.4,10.9-7.9l1.3-4.5c-2.9-3.2-11.6-4-20.2-4C354.3,152.5,344.6,154.8,341,157z"/>
				</g>
				<g class="st13">
					<path class="st14" d="M353.1,161.4v7.5c1.7,0.3,3.5,0.5,5.4,0.6v-8.2H353.1z"/>
				</g>
				<g>
					<path class="st15" d="M368.4,169.1v-16.3c5.8,0.4,10.9,1.5,13,3.8v4.5C381.3,164.7,375.9,167.8,368.4,169.1z"/>
				</g>
				<g>
					<ellipse class="st16" cx="361.2" cy="157" rx="20.2" ry="8.6"/>
				</g>
				<g>
					<path class="st14" d="M349.7,163.7c-3.4-1.1-6-2.6-7.3-4.2l16.3-10.7c0.9-0.1,1.9-0.1,2.8-0.1c3.3,0,6.6,0.4,9.5,1L349.7,163.7
						z"/>
				</g>
				<g>
					<path class="st14" d="M358.6,165.2c-1.6-0.1-3.2-0.3-4.7-0.5l21-13.8c1.2,0.5,2.3,1,3.2,1.6L358.6,165.2z"/>
				</g>
			</g>
		</g>
		<g>
			<g>
				<g>
					<path class="st11" d="M341,156c0,4.7,9,8.6,20.2,8.6c11.1,0,20.2-3.8,20.2-8.6c0-4.7-9-8.6-20.2-8.6
						C350,147.5,341,151.3,341,156z"/>
				</g>
				<g>
					<path class="st12" d="M341,151v4.1c0,3.5,5,6.5,12.1,7.8c1.7,0.3,3.5,0.5,5.4,0.6c0.9,0,1.8,0.1,2.7,0.1c2.9,0,5.6-0.2,8-0.7
						c7.1-1.3,10.9-4.4,10.9-7.9l1.3-4.5c-2.9-3.2-11.6-4-20.2-4C354.3,146.6,344.6,148.8,341,151z"/>
				</g>
				<g class="st13">
					<path class="st14" d="M353.1,155.5v7.5c1.7,0.3,3.5,0.5,5.4,0.6v-8.2H353.1z"/>
				</g>
				<g>
					<path class="st15" d="M368.4,163.1v-16.3c5.8,0.4,10.9,1.5,13,3.8v4.5C381.3,158.8,375.9,161.9,368.4,163.1z"/>
				</g>
				<g>
					<ellipse class="st16" cx="361.2" cy="151" rx="20.2" ry="8.6"/>
				</g>
				<g>
					<path class="st14" d="M349.7,157.8c-3.4-1.1-6-2.6-7.3-4.2l16.3-10.7c0.9-0.1,1.9-0.1,2.8-0.1c3.3,0,6.6,0.4,9.5,1L349.7,157.8
						z"/>
				</g>
				<g>
					<path class="st14" d="M358.6,159.3c-1.6-0.1-3.2-0.3-4.7-0.5l21-13.8c1.2,0.5,2.3,1,3.2,1.6L358.6,159.3z"/>
				</g>
			</g>
		</g>
		<g>
			<g>
				<g>
					<path class="st11" d="M341,150.1c0,4.7,9,8.6,20.2,8.6c11.1,0,20.2-3.8,20.2-8.6c0-4.7-9-8.6-20.2-8.6
						C350,141.5,341,145.4,341,150.1z"/>
				</g>
				<g>
					<path class="st12" d="M341,145.1v4.1c0,3.5,5,6.5,12.1,7.8c1.7,0.3,3.5,0.5,5.4,0.6c0.9,0,1.8,0.1,2.7,0.1c2.9,0,5.6-0.2,8-0.7
						c7.1-1.3,10.9-4.4,10.9-7.9l1.3-4.5c-2.9-3.2-11.6-4-20.2-4C354.3,140.7,344.6,142.9,341,145.1z"/>
				</g>
				<g class="st13">
					<path class="st14" d="M353.1,149.5v7.5c1.7,0.3,3.5,0.5,5.4,0.6v-8.2H353.1z"/>
				</g>
				<g>
					<path class="st15" d="M368.4,157.2v-16.3c5.8,0.4,10.9,1.5,13,3.8v4.5C381.3,152.9,375.9,156,368.4,157.2z"/>
				</g>
				<g>
					<ellipse class="st16" cx="361.2" cy="145.1" rx="20.2" ry="8.6"/>
				</g>
				<g>
					<path class="st14" d="M349.7,151.8c-3.4-1.1-6-2.6-7.3-4.2l16.3-10.7c0.9-0.1,1.9-0.1,2.8-0.1c3.3,0,6.6,0.4,9.5,1L349.7,151.8
						z"/>
				</g>
				<g>
					<path class="st14" d="M358.6,153.3c-1.6-0.1-3.2-0.3-4.7-0.5l21-13.8c1.2,0.5,2.3,1,3.2,1.6L358.6,153.3z"/>
				</g>
			</g>
		</g>
		<g>
			<g>
				<g>
					<path class="st11" d="M341,144.2c0,4.7,9,8.6,20.2,8.6c11.1,0,20.2-3.8,20.2-8.6c0-4.7-9-8.6-20.2-8.6
						C350,135.6,341,139.4,341,144.2z"/>
				</g>
				<g>
					<path class="st12" d="M341,139.2v4.1c0,3.5,5,6.5,12.1,7.8c1.7,0.3,3.5,0.5,5.4,0.6c0.9,0,1.8,0.1,2.7,0.1c2.9,0,5.6-0.2,8-0.7
						c7.1-1.3,10.9-4.4,10.9-7.9l1.3-4.5c-2.9-3.2-11.6-4-20.2-4C354.3,134.7,344.6,137,341,139.2z"/>
				</g>
				<g class="st13">
					<path class="st14" d="M353.1,143.6v7.5c1.7,0.3,3.5,0.5,5.4,0.6v-8.2H353.1z"/>
				</g>
				<g>
					<path class="st15" d="M368.4,151.3V135c5.8,0.4,10.9,1.5,13,3.8v4.5C381.3,146.9,375.9,150,368.4,151.3z"/>
				</g>
				<g>
					<ellipse class="st16" cx="361.2" cy="139.2" rx="20.2" ry="8.6"/>
				</g>
				<g>
					<path class="st14" d="M349.7,145.9c-3.4-1.1-6-2.6-7.3-4.2l16.3-10.7c0.9-0.1,1.9-0.1,2.8-0.1c3.3,0,6.6,0.4,9.5,1L349.7,145.9
						z"/>
				</g>
				<g>
					<path class="st14" d="M358.6,147.4c-1.6-0.1-3.2-0.3-4.7-0.5l21-13.8c1.2,0.5,2.3,1,3.2,1.6L358.6,147.4z"/>
				</g>
			</g>
		</g>
		<g>
			<g>
				<g>
					<path class="st11" d="M341,138.2c0,4.7,9,8.6,20.2,8.6c11.1,0,20.2-3.8,20.2-8.6c0-4.7-9-8.6-20.2-8.6
						C350,129.7,341,133.5,341,138.2z"/>
				</g>
				<g>
					<path class="st12" d="M341,133.2v4.1c0,3.5,5,6.5,12.1,7.8c1.7,0.3,3.5,0.5,5.4,0.6c0.9,0,1.8,0.1,2.7,0.1c2.9,0,5.6-0.2,8-0.7
						c7.1-1.3,10.9-4.4,10.9-7.9l1.3-4.5c-2.9-3.2-11.6-4-20.2-4C354.3,128.8,344.6,131,341,133.2z"/>
				</g>
				<g class="st13">
					<path class="st14" d="M353.1,137.7v7.5c1.7,0.3,3.5,0.5,5.4,0.6v-8.2H353.1z"/>
				</g>
				<g>
					<path class="st15" d="M368.4,145.3V129c5.8,0.4,10.9,1.5,13,3.8v4.5C381.3,141,375.9,144.1,368.4,145.3z"/>
				</g>
				<g>
					<ellipse class="st16" cx="361.2" cy="133.2" rx="20.2" ry="8.6"/>
				</g>
				<g>
					<path class="st14" d="M349.7,140c-3.4-1.1-6-2.6-7.3-4.2l16.3-10.7c0.9-0.1,1.9-0.1,2.8-0.1c3.3,0,6.6,0.4,9.5,1L349.7,140z"/>
				</g>
				<g>
					<path class="st14" d="M358.6,141.5c-1.6-0.1-3.2-0.3-4.7-0.5l21-13.8c1.2,0.5,2.3,1,3.2,1.6L358.6,141.5z"/>
				</g>
			</g>
		</g>
		<g>
			<g>
				<g>
					<path class="st11" d="M341,132.3c0,4.7,9,8.6,20.2,8.6c11.1,0,20.2-3.8,20.2-8.6c0-4.7-9-8.6-20.2-8.6
						C350,123.7,341,127.6,341,132.3z"/>
				</g>
				<g>
					<path class="st12" d="M341,127.3v4.1c0,3.5,5,6.5,12.1,7.8c1.7,0.3,3.5,0.5,5.4,0.6c0.9,0,1.8,0.1,2.7,0.1c2.9,0,5.6-0.2,8-0.7
						c7.1-1.3,10.9-4.4,10.9-7.9l1.3-4.5c-2.9-3.2-11.6-4-20.2-4C354.3,122.9,344.6,125.1,341,127.3z"/>
				</g>
				<g class="st13">
					<path class="st14" d="M353.1,131.7v7.5c1.7,0.3,3.5,0.5,5.4,0.6v-8.2H353.1z"/>
				</g>
				<g>
					<path class="st15" d="M368.4,139.4v-16.3c5.8,0.4,10.9,1.5,13,3.8v4.5C381.3,135.1,375.9,138.2,368.4,139.4z"/>
				</g>
				<g>
					<ellipse class="st16" cx="361.2" cy="127.3" rx="20.2" ry="8.6"/>
				</g>
				<g>
					<path class="st14" d="M349.7,134c-3.4-1.1-6-2.6-7.3-4.2l16.3-10.7c0.9-0.1,1.9-0.1,2.8-0.1c3.3,0,6.6,0.4,9.5,1L349.7,134z"/>
				</g>
				<g>
					<path class="st14" d="M358.6,135.5c-1.6-0.1-3.2-0.3-4.7-0.5l21-13.8c1.2,0.5,2.3,1,3.2,1.6L358.6,135.5z"/>
				</g>
			</g>
		</g>
		<g>
			<g>
				<g>
					<path class="st11" d="M341,126.4c0,4.7,9,8.6,20.2,8.6c11.1,0,20.2-3.8,20.2-8.6c0-4.7-9-8.6-20.2-8.6
						C350,117.8,341,121.6,341,126.4z"/>
				</g>
				<g>
					<path class="st12" d="M341,121.4v4.1c0,3.5,5,6.5,12.1,7.8c1.7,0.3,3.5,0.5,5.4,0.6c0.9,0,1.8,0.1,2.7,0.1c2.9,0,5.6-0.2,8-0.7
						c7.1-1.3,10.9-4.4,10.9-7.9l1.3-4.5c-2.9-3.2-11.6-4-20.2-4C354.3,116.9,344.6,119.2,341,121.4z"/>
				</g>
				<g class="st13">
					<path class="st14" d="M353.1,125.8v7.5c1.7,0.3,3.5,0.5,5.4,0.6v-8.2H353.1z"/>
				</g>
				<g>
					<path class="st15" d="M368.4,133.5v-16.3c5.8,0.4,10.9,1.5,13,3.8v4.5C381.3,129.1,375.9,132.2,368.4,133.5z"/>
				</g>
				<g>
					<ellipse class="st16" cx="361.2" cy="121.4" rx="20.2" ry="8.6"/>
				</g>
				<g>
					<path class="st14" d="M349.7,128.1c-3.4-1.1-6-2.6-7.3-4.2l16.3-10.7c0.9-0.1,1.9-0.1,2.8-0.1c3.3,0,6.6,0.4,9.5,1L349.7,128.1
						z"/>
				</g>
				<g>
					<path class="st14" d="M358.6,129.6c-1.6-0.1-3.2-0.3-4.7-0.5l21-13.8c1.2,0.5,2.3,1,3.2,1.6L358.6,129.6z"/>
				</g>
			</g>
		</g>
	</g>
	<g>
		<g>
			<g>
				<g>
					<ellipse class="st11" cx="398.6" cy="191.4" rx="20.2" ry="8.6"/>
				</g>
				<g>
					<path class="st12" d="M378.4,186.4v4.1c0,3.5,5,6.5,12.1,7.8c1.7,0.3,3.5,0.5,5.4,0.6c0.9,0,1.8,0.1,2.7,0.1
						c2.9,0,5.6-0.2,8-0.7c7.1-1.3,10.9-4.4,10.9-7.9l1.3-4.5c-2.9-3.2-11.6-4-20.2-4C391.8,181.9,382.1,184.2,378.4,186.4z"/>
				</g>
				<g class="st13">
					<path class="st14" d="M390.5,190.8v7.5c1.7,0.3,3.5,0.5,5.4,0.6v-8.2H390.5z"/>
				</g>
				<g>
					<path class="st15" d="M405.8,198.5v-16.3c5.8,0.4,10.9,1.5,13,3.8v4.5C418.8,194.1,413.4,197.2,405.8,198.5z"/>
				</g>
				<g>
					<ellipse class="st16" cx="398.6" cy="186.4" rx="20.2" ry="8.6"/>
				</g>
				<g>
					<path class="st14" d="M387.1,193.1c-3.4-1.1-6-2.6-7.3-4.2l16.3-10.7c0.9-0.1,1.9-0.1,2.8-0.1c3.3,0,6.6,0.4,9.5,1L387.1,193.1
						z"/>
				</g>
				<g>
					<path class="st14" d="M396,194.6c-1.6-0.1-3.2-0.3-4.7-0.5l21-13.8c1.2,0.5,2.3,1,3.2,1.5L396,194.6z"/>
				</g>
			</g>
		</g>
		<g>
			<g>
				<g>
					<ellipse class="st11" cx="398.6" cy="185.4" rx="20.2" ry="8.6"/>
				</g>
				<g>
					<path class="st12" d="M378.4,180.4v4.1c0,3.5,5,6.5,12.1,7.8c1.7,0.3,3.5,0.5,5.4,0.6c0.9,0,1.8,0.1,2.7,0.1
						c2.9,0,5.6-0.2,8-0.7c7.1-1.3,10.9-4.4,10.9-7.9l1.3-4.5c-2.9-3.2-11.6-4-20.2-4C391.8,176,382.1,178.2,378.4,180.4z"/>
				</g>
				<g class="st13">
					<path class="st14" d="M390.5,184.8v7.5c1.7,0.3,3.5,0.5,5.4,0.6v-8.2H390.5z"/>
				</g>
				<g>
					<path class="st15" d="M405.8,192.5v-16.3c5.8,0.4,10.9,1.5,13,3.8v4.5C418.8,188.2,413.4,191.3,405.8,192.5z"/>
				</g>
				<g>
					<ellipse class="st16" cx="398.6" cy="180.4" rx="20.2" ry="8.6"/>
				</g>
				<g>
					<path class="st14" d="M387.1,187.1c-3.4-1.1-6-2.6-7.3-4.2l16.3-10.7c0.9-0.1,1.9-0.1,2.8-0.1c3.3,0,6.6,0.4,9.5,1L387.1,187.1
						z"/>
				</g>
				<g>
					<path class="st14" d="M396,188.7c-1.6-0.1-3.2-0.3-4.7-0.5l21-13.8c1.2,0.5,2.3,1,3.2,1.5L396,188.7z"/>
				</g>
			</g>
		</g>
		<g>
			<g>
				<g>
					<ellipse class="st11" cx="398.6" cy="179.5" rx="20.2" ry="8.6"/>
				</g>
				<g>
					<path class="st12" d="M378.4,174.5v4.1c0,3.5,5,6.5,12.1,7.8c1.7,0.3,3.5,0.5,5.4,0.6c0.9,0,1.8,0.1,2.7,0.1
						c2.9,0,5.6-0.2,8-0.7c7.1-1.3,10.9-4.4,10.9-7.9l1.3-4.5c-2.9-3.2-11.6-4-20.2-4C391.8,170.1,382.1,172.3,378.4,174.5z"/>
				</g>
				<g class="st13">
					<path class="st14" d="M390.5,178.9v7.5c1.7,0.3,3.5,0.5,5.4,0.6v-8.2H390.5z"/>
				</g>
				<g>
					<path class="st15" d="M405.8,186.6v-16.3c5.8,0.4,10.9,1.5,13,3.8v4.5C418.8,182.2,413.4,185.4,405.8,186.6z"/>
				</g>
				<g>
					<ellipse class="st16" cx="398.6" cy="174.5" rx="20.2" ry="8.6"/>
				</g>
				<g>
					<path class="st14" d="M387.1,181.2c-3.4-1.1-6-2.6-7.3-4.2l16.3-10.7c0.9-0.1,1.9-0.1,2.8-0.1c3.3,0,6.6,0.4,9.5,1L387.1,181.2
						z"/>
				</g>
				<g>
					<path class="st14" d="M396,182.7c-1.6-0.1-3.2-0.3-4.7-0.5l21-13.8c1.2,0.5,2.3,1,3.2,1.5L396,182.7z"/>
				</g>
			</g>
		</g>
		<g>
			<g>
				<g>
					<ellipse class="st11" cx="398.6" cy="173.6" rx="20.2" ry="8.6"/>
				</g>
				<g>
					<path class="st12" d="M378.4,168.6v4.1c0,3.5,5,6.5,12.1,7.8c1.7,0.3,3.5,0.5,5.4,0.6c0.9,0,1.8,0.1,2.7,0.1
						c2.9,0,5.6-0.2,8-0.7c7.1-1.3,10.9-4.4,10.9-7.9l1.3-4.5c-2.9-3.2-11.6-4-20.2-4C391.8,164.1,382.1,166.4,378.4,168.6z"/>
				</g>
				<g class="st13">
					<path class="st14" d="M390.5,173v7.5c1.7,0.3,3.5,0.5,5.4,0.6V173H390.5z"/>
				</g>
				<g>
					<path class="st15" d="M405.8,180.7v-16.3c5.8,0.4,10.9,1.5,13,3.8v4.5C418.8,176.3,413.4,179.4,405.8,180.7z"/>
				</g>
				<g>
					<ellipse class="st16" cx="398.6" cy="168.6" rx="20.2" ry="8.6"/>
				</g>
				<g>
					<path class="st14" d="M387.1,175.3c-3.4-1.1-6-2.6-7.3-4.2l16.3-10.7c0.9-0.1,1.9-0.1,2.8-0.1c3.3,0,6.6,0.4,9.5,1L387.1,175.3
						z"/>
				</g>
				<g>
					<path class="st14" d="M396,176.8c-1.6-0.1-3.2-0.3-4.7-0.5l21-13.8c1.2,0.5,2.3,1,3.2,1.5L396,176.8z"/>
				</g>
			</g>
		</g>
		<g>
			<g>
				<g>
					<ellipse class="st11" cx="398.6" cy="167.6" rx="20.2" ry="8.6"/>
				</g>
				<g>
					<path class="st12" d="M378.4,162.6v4.1c0,3.5,5,6.5,12.1,7.8c1.7,0.3,3.5,0.5,5.4,0.6c0.9,0,1.8,0.1,2.7,0.1
						c2.9,0,5.6-0.2,8-0.7c7.1-1.3,10.9-4.4,10.9-7.9l1.3-4.5c-2.9-3.2-11.6-4-20.2-4C391.8,158.2,382.1,160.4,378.4,162.6z"/>
				</g>
				<g class="st13">
					<path class="st14" d="M390.5,167v7.5c1.7,0.3,3.5,0.5,5.4,0.6V167H390.5z"/>
				</g>
				<g>
					<path class="st15" d="M405.8,174.7v-16.3c5.8,0.4,10.9,1.5,13,3.8v4.5C418.8,170.4,413.4,173.5,405.8,174.7z"/>
				</g>
				<g>
					<ellipse class="st16" cx="398.6" cy="162.6" rx="20.2" ry="8.6"/>
				</g>
				<g>
					<path class="st14" d="M387.1,169.3c-3.4-1.1-6-2.6-7.3-4.2l16.3-10.7c0.9-0.1,1.9-0.1,2.8-0.1c3.3,0,6.6,0.4,9.5,1L387.1,169.3
						z"/>
				</g>
				<g>
					<path class="st14" d="M396,170.9c-1.6-0.1-3.2-0.3-4.7-0.5l21-13.8c1.2,0.5,2.3,1,3.2,1.5L396,170.9z"/>
				</g>
			</g>
		</g>
		<g>
			<g>
				<g>
					<ellipse class="st11" cx="398.6" cy="161.7" rx="20.2" ry="8.6"/>
				</g>
				<g>
					<path class="st12" d="M378.4,156.7v4.1c0,3.5,5,6.5,12.1,7.8c1.7,0.3,3.5,0.5,5.4,0.6c0.9,0,1.8,0.1,2.7,0.1
						c2.9,0,5.6-0.2,8-0.7c7.1-1.3,10.9-4.4,10.9-7.9l1.3-4.5c-2.9-3.2-11.6-4-20.2-4C391.8,152.2,382.1,154.5,378.4,156.7z"/>
				</g>
				<g class="st13">
					<path class="st14" d="M390.5,161.1v7.5c1.7,0.3,3.5,0.5,5.4,0.6v-8.2H390.5z"/>
				</g>
				<g>
					<path class="st15" d="M405.8,168.8v-16.3c5.8,0.4,10.9,1.5,13,3.8v4.5C418.8,164.4,413.4,167.6,405.8,168.8z"/>
				</g>
				<g>
					<ellipse class="st16" cx="398.6" cy="156.7" rx="20.2" ry="8.6"/>
				</g>
				<g>
					<path class="st14" d="M387.1,163.4c-3.4-1.1-6-2.6-7.3-4.2l16.3-10.7c0.9-0.1,1.9-0.1,2.8-0.1c3.3,0,6.6,0.4,9.5,1L387.1,163.4
						z"/>
				</g>
				<g>
					<path class="st14" d="M396,164.9c-1.6-0.1-3.2-0.3-4.7-0.5l21-13.8c1.2,0.5,2.3,1,3.2,1.5L396,164.9z"/>
				</g>
			</g>
		</g>
		<g>
			<g>
				<g>
					<ellipse class="st11" cx="398.6" cy="155.8" rx="20.2" ry="8.6"/>
				</g>
				<g>
					<path class="st12" d="M378.4,150.8v4.1c0,3.5,5,6.5,12.1,7.8c1.7,0.3,3.5,0.5,5.4,0.6c0.9,0,1.8,0.1,2.7,0.1
						c2.9,0,5.6-0.2,8-0.7c7.1-1.3,10.9-4.4,10.9-7.9l1.3-4.5c-2.9-3.2-11.6-4-20.2-4C391.8,146.3,382.1,148.6,378.4,150.8z"/>
				</g>
				<g class="st13">
					<path class="st14" d="M390.5,155.2v7.5c1.7,0.3,3.5,0.5,5.4,0.6v-8.2H390.5z"/>
				</g>
				<g>
					<path class="st15" d="M405.8,162.9v-16.3c5.8,0.4,10.9,1.5,13,3.8v4.5C418.8,158.5,413.4,161.6,405.8,162.9z"/>
				</g>
				<g>
					<ellipse class="st16" cx="398.6" cy="150.8" rx="20.2" ry="8.6"/>
				</g>
				<g>
					<path class="st14" d="M387.1,157.5c-3.4-1.1-6-2.6-7.3-4.2l16.3-10.7c0.9-0.1,1.9-0.1,2.8-0.1c3.3,0,6.6,0.4,9.5,1L387.1,157.5
						z"/>
				</g>
				<g>
					<path class="st14" d="M396,159c-1.6-0.1-3.2-0.3-4.7-0.5l21-13.8c1.2,0.5,2.3,1,3.2,1.5L396,159z"/>
				</g>
			</g>
		</g>
		<g>
			<g>
				<g>
					<ellipse class="st11" cx="398.6" cy="149.8" rx="20.2" ry="8.6"/>
				</g>
				<g>
					<path class="st12" d="M378.4,144.8v4.1c0,3.5,5,6.5,12.1,7.8c1.7,0.3,3.5,0.5,5.4,0.6c0.9,0,1.8,0.1,2.7,0.1
						c2.9,0,5.6-0.2,8-0.7c7.1-1.3,10.9-4.4,10.9-7.9l1.3-4.5c-2.9-3.2-11.6-4-20.2-4C391.8,140.4,382.1,142.6,378.4,144.8z"/>
				</g>
				<g class="st13">
					<path class="st14" d="M390.5,149.2v7.5c1.7,0.3,3.5,0.5,5.4,0.6v-8.2H390.5z"/>
				</g>
				<g>
					<path class="st15" d="M405.8,156.9v-16.3c5.8,0.4,10.9,1.5,13,3.8v4.5C418.8,152.6,413.4,155.7,405.8,156.9z"/>
				</g>
				<g>
					<ellipse class="st16" cx="398.6" cy="144.8" rx="20.2" ry="8.6"/>
				</g>
				<g>
					<path class="st14" d="M387.1,151.5c-3.4-1.1-6-2.6-7.3-4.2l16.3-10.7c0.9-0.1,1.9-0.1,2.8-0.1c3.3,0,6.6,0.4,9.5,1L387.1,151.5
						z"/>
				</g>
				<g>
					<path class="st14" d="M396,153.1c-1.6-0.1-3.2-0.3-4.7-0.5l21-13.8c1.2,0.5,2.3,1,3.2,1.5L396,153.1z"/>
				</g>
			</g>
		</g>
		<g>
			<g>
				<g>
					<ellipse class="st11" cx="398.6" cy="143.9" rx="20.2" ry="8.6"/>
				</g>
				<g>
					<path class="st12" d="M378.4,138.9v4.1c0,3.5,5,6.5,12.1,7.8c1.7,0.3,3.5,0.5,5.4,0.6c0.9,0,1.8,0.1,2.7,0.1
						c2.9,0,5.6-0.2,8-0.7c7.1-1.3,10.9-4.4,10.9-7.9l1.3-4.5c-2.9-3.2-11.6-4-20.2-4C391.8,134.4,382.1,136.7,378.4,138.9z"/>
				</g>
				<g class="st13">
					<path class="st14" d="M390.5,143.3v7.5c1.7,0.3,3.5,0.5,5.4,0.6v-8.2H390.5z"/>
				</g>
				<g>
					<path class="st15" d="M405.8,151v-16.3c5.8,0.4,10.9,1.5,13,3.8v4.5C418.8,146.6,413.4,149.8,405.8,151z"/>
				</g>
				<g>
					<ellipse class="st16" cx="398.6" cy="138.9" rx="20.2" ry="8.6"/>
				</g>
				<g>
					<path class="st14" d="M387.1,145.6c-3.4-1.1-6-2.6-7.3-4.2l16.3-10.7c0.9-0.1,1.9-0.1,2.8-0.1c3.3,0,6.6,0.4,9.5,1L387.1,145.6
						z"/>
				</g>
				<g>
					<path class="st14" d="M396,147.1c-1.6-0.1-3.2-0.3-4.7-0.5l21-13.8c1.2,0.5,2.3,1,3.2,1.5L396,147.1z"/>
				</g>
			</g>
		</g>
		<g>
			<g>
				<g>
					<ellipse class="st11" cx="398.6" cy="137.9" rx="20.2" ry="8.6"/>
				</g>
				<g>
					<path class="st12" d="M378.4,133v4.1c0,3.5,5,6.5,12.1,7.8c1.7,0.3,3.5,0.5,5.4,0.6c0.9,0,1.8,0.1,2.7,0.1c2.9,0,5.6-0.2,8-0.7
						c7.1-1.3,10.9-4.4,10.9-7.9l1.3-4.5c-2.9-3.2-11.6-4-20.2-4C391.8,128.5,382.1,130.8,378.4,133z"/>
				</g>
				<g class="st13">
					<path class="st14" d="M390.5,137.4v7.5c1.7,0.3,3.5,0.5,5.4,0.6v-8.2H390.5z"/>
				</g>
				<g>
					<path class="st15" d="M405.8,145v-16.3c5.8,0.4,10.9,1.5,13,3.8v4.5C418.8,140.7,413.4,143.8,405.8,145z"/>
				</g>
				<g>
					<ellipse class="st16" cx="398.6" cy="133" rx="20.2" ry="8.6"/>
				</g>
				<g>
					<path class="st14" d="M387.1,139.7c-3.4-1.1-6-2.6-7.3-4.2l16.3-10.7c0.9-0.1,1.9-0.1,2.8-0.1c3.3,0,6.6,0.4,9.5,1L387.1,139.7
						z"/>
				</g>
				<g>
					<path class="st14" d="M396,141.2c-1.6-0.1-3.2-0.3-4.7-0.5l21-13.8c1.2,0.5,2.3,1,3.2,1.5L396,141.2z"/>
				</g>
			</g>
		</g>
		<g>
			<g>
				<g>
					<ellipse class="st11" cx="398.6" cy="132" rx="20.2" ry="8.6"/>
				</g>
				<g>
					<path class="st12" d="M378.4,127v4.1c0,3.5,5,6.5,12.1,7.8c1.7,0.3,3.5,0.5,5.4,0.6c0.9,0,1.8,0.1,2.7,0.1c2.9,0,5.6-0.2,8-0.7
						c7.1-1.3,10.9-4.4,10.9-7.9l1.3-4.5c-2.9-3.2-11.6-4-20.2-4C391.8,122.6,382.1,124.8,378.4,127z"/>
				</g>
				<g class="st13">
					<path class="st14" d="M390.5,131.4v7.5c1.7,0.3,3.5,0.5,5.4,0.6v-8.2H390.5z"/>
				</g>
				<g>
					<path class="st15" d="M405.8,139.1v-16.3c5.8,0.4,10.9,1.5,13,3.8v4.5C418.8,134.8,413.4,137.9,405.8,139.1z"/>
				</g>
				<g>
					<ellipse class="st16" cx="398.6" cy="127" rx="20.2" ry="8.6"/>
				</g>
				<g>
					<path class="st14" d="M387.1,133.7c-3.4-1.1-6-2.6-7.3-4.2l16.3-10.7c0.9-0.1,1.9-0.1,2.8-0.1c3.3,0,6.6,0.4,9.5,1L387.1,133.7
						z"/>
				</g>
				<g>
					<path class="st14" d="M396,135.3c-1.6-0.1-3.2-0.3-4.7-0.5l21-13.8c1.2,0.5,2.3,1,3.2,1.5L396,135.3z"/>
				</g>
			</g>
		</g>
		<g>
			<g>
				<g>
					<ellipse class="st11" cx="398.6" cy="126.1" rx="20.2" ry="8.6"/>
				</g>
				<g>
					<path class="st12" d="M378.4,121.1v4.1c0,3.5,5,6.5,12.1,7.8c1.7,0.3,3.5,0.5,5.4,0.6c0.9,0,1.8,0.1,2.7,0.1
						c2.9,0,5.6-0.2,8-0.7c7.1-1.3,10.9-4.4,10.9-7.9l1.3-4.5c-2.9-3.2-11.6-4-20.2-4C391.8,116.6,382.1,118.9,378.4,121.1z"/>
				</g>
				<g class="st13">
					<path class="st14" d="M390.5,125.5v7.5c1.7,0.3,3.5,0.5,5.4,0.6v-8.2H390.5z"/>
				</g>
				<g>
					<path class="st15" d="M405.8,133.2v-16.3c5.8,0.4,10.9,1.5,13,3.8v4.5C418.8,128.8,413.4,132,405.8,133.2z"/>
				</g>
				<g>
					<ellipse class="st16" cx="398.6" cy="121.1" rx="20.2" ry="8.6"/>
				</g>
				<g>
					<path class="st14" d="M387.1,127.8c-3.4-1.1-6-2.6-7.3-4.2l16.3-10.7c0.9-0.1,1.9-0.1,2.8-0.1c3.3,0,6.6,0.4,9.5,1L387.1,127.8
						z"/>
				</g>
				<g>
					<path class="st14" d="M396,129.3c-1.6-0.1-3.2-0.3-4.7-0.5l21-13.8c1.2,0.5,2.3,1,3.2,1.5L396,129.3z"/>
				</g>
			</g>
		</g>
		<g>
			<g>
				<g>
					<ellipse class="st11" cx="398.6" cy="120.1" rx="20.2" ry="8.6"/>
				</g>
				<g>
					<path class="st12" d="M378.4,115.1v4.1c0,3.5,5,6.5,12.1,7.8c1.7,0.3,3.5,0.5,5.4,0.6c0.9,0,1.8,0.1,2.7,0.1
						c2.9,0,5.6-0.2,8-0.7c7.1-1.3,10.9-4.4,10.9-7.9l1.3-4.5c-2.9-3.2-11.6-4-20.2-4C391.8,110.7,382.1,113,378.4,115.1z"/>
				</g>
				<g class="st13">
					<path class="st14" d="M390.5,119.6v7.5c1.7,0.3,3.5,0.5,5.4,0.6v-8.2H390.5z"/>
				</g>
				<g>
					<path class="st15" d="M405.8,127.2v-16.3c5.8,0.4,10.9,1.5,13,3.8v4.5C418.8,122.9,413.4,126,405.8,127.2z"/>
				</g>
				<g>
					<ellipse class="st16" cx="398.6" cy="115.2" rx="20.2" ry="8.6"/>
				</g>
				<g>
					<path class="st14" d="M387.1,121.9c-3.4-1.1-6-2.6-7.3-4.2l16.3-10.7c0.9-0.1,1.9-0.1,2.8-0.1c3.3,0,6.6,0.4,9.5,1L387.1,121.9
						z"/>
				</g>
				<g>
					<path class="st14" d="M396,123.4c-1.6-0.1-3.2-0.3-4.7-0.5l21-13.8c1.2,0.5,2.3,1,3.2,1.5L396,123.4z"/>
				</g>
			</g>
		</g>
		<g>
			<g>
				<g>
					<ellipse class="st11" cx="398.6" cy="114.2" rx="20.2" ry="8.6"/>
				</g>
				<g>
					<path class="st12" d="M378.4,109.2v4.1c0,3.5,5,6.5,12.1,7.8c1.7,0.3,3.5,0.5,5.4,0.6c0.9,0,1.8,0.1,2.7,0.1
						c2.9,0,5.6-0.2,8-0.7c7.1-1.3,10.9-4.4,10.9-7.9l1.3-4.5c-2.9-3.2-11.6-4-20.2-4C391.8,104.8,382.1,107,378.4,109.2z"/>
				</g>
				<g class="st13">
					<path class="st14" d="M390.5,113.6v7.5c1.7,0.3,3.5,0.5,5.4,0.6v-8.2H390.5z"/>
				</g>
				<g>
					<path class="st15" d="M405.8,121.3V105c5.8,0.4,10.9,1.5,13,3.8v4.5C418.8,117,413.4,120.1,405.8,121.3z"/>
				</g>
				<g>
					<ellipse class="st16" cx="398.6" cy="109.2" rx="20.2" ry="8.6"/>
				</g>
				<g>
					<path class="st14" d="M387.1,115.9c-3.4-1.1-6-2.6-7.3-4.2L396,101c0.9-0.1,1.9-0.1,2.8-0.1c3.3,0,6.6,0.4,9.5,1L387.1,115.9z"
						/>
				</g>
				<g>
					<path class="st14" d="M396,117.4c-1.6-0.1-3.2-0.3-4.7-0.5l21-13.8c1.2,0.5,2.3,1,3.2,1.5L396,117.4z"/>
				</g>
			</g>
		</g>
		<g>
			<g>
				<g>
					<ellipse class="st11" cx="398.6" cy="108.3" rx="20.2" ry="8.6"/>
				</g>
				<g>
					<path class="st12" d="M378.4,103.3v4.1c0,3.5,5,6.5,12.1,7.8c1.7,0.3,3.5,0.5,5.4,0.6c0.9,0,1.8,0.1,2.7,0.1
						c2.9,0,5.6-0.2,8-0.7c7.1-1.3,10.9-4.4,10.9-7.9l1.3-4.5c-2.9-3.2-11.6-4-20.2-4C391.8,98.8,382.1,101.1,378.4,103.3z"/>
				</g>
				<g class="st13">
					<path class="st14" d="M390.5,107.7v7.5c1.7,0.3,3.5,0.5,5.4,0.6v-8.2H390.5z"/>
				</g>
				<g>
					<path class="st15" d="M405.8,115.4V99.1c5.8,0.4,10.9,1.5,13,3.8v4.5C418.8,111,413.4,114.1,405.8,115.4z"/>
				</g>
				<g>
					<ellipse class="st16" cx="398.6" cy="103.3" rx="20.2" ry="8.6"/>
				</g>
				<g>
					<path class="st14" d="M387.1,110c-3.4-1.1-6-2.6-7.3-4.2L396,95.1c0.9-0.1,1.9-0.1,2.8-0.1c3.3,0,6.6,0.4,9.5,1L387.1,110z"/>
				</g>
				<g>
					<path class="st14" d="M396,111.5c-1.6-0.1-3.2-0.3-4.7-0.5l21-13.8c1.2,0.5,2.3,1,3.2,1.5L396,111.5z"/>
				</g>
			</g>
		</g>
	</g>
	<path class="st17" d="M408.9,146.9l10,3.7v49.1l-18.7-2.1l2.5,2.5c0,0-4.8-28.7-4.8-30.1C397.9,168.6,408.9,146.9,408.9,146.9z"/>
	<g>
		<g>
			<g>
				<polygon class="st18" points="385.9,262.9 409,235.3 409,250 385.9,277.5 385.9,277.7 288.1,277.7 288.1,262.9 				"/>
				<polygon class="st19" points="409,247.7 409,233 385.9,260.6 385.9,275.3 				"/>
				<g>
					<polygon class="st20" points="311.5,233.5 289.2,260.1 385.6,260.1 407.9,233.5 					"/>
					<polygon class="st21" points="288.1,275.4 385.9,275.4 385.9,260.6 288.1,260.6 					"/>
					<path class="st21" d="M311.4,233.4l-21.9,26.5H386l21.9-26.5H311.4z M301.9,251.3l7.6-9.1c5,0,11.3-2.7,14.1-6h67.8
						c-2.7,3.3-0.9,5.9,4,6l-7.6,9.2c-5,0-11.1,2.6-13.8,5.8h-67.8C308.6,254,306.8,251.4,301.9,251.3z"/>
					<path class="st22" d="M340.2,246.7c-2.5,3.1-0.8,5.5,3.9,5.5s10.5-2.5,13-5.5c2.5-3.1,0.8-5.5-3.9-5.5S342.8,243.6,340.2,246.7
						z"/>
					<path class="st5" d="M364.2,246.7c-1.4,1.7-0.4,3,2.1,3c2.5,0,5.7-1.3,7.1-3c1.4-1.7,0.4-3-2.1-3
						C368.7,243.7,365.6,245,364.2,246.7z"/>
					<path class="st5" d="M324,246.7c-1.4,1.7-0.4,3,2.1,3c2.5,0,5.7-1.3,7.1-3c1.4-1.7,0.4-3-2.1-3
						C328.6,243.7,325.4,245,324,246.7z"/>
					<path class="st23" d="M311.3,233H409l-23.1,27.6h-97.7L311.3,233z M406.8,234h-95.1l-21.4,25.6h95.1L406.8,234z"/>
					<polygon class="st24" points="356,233 369.6,233 346.5,260.6 346.5,275.4 332.9,275.4 332.9,260.6 					"/>
					<polygon class="st5" points="330.1,260.6 330.1,275.4 343.7,275.4 343.7,260.6 343.7,260.6 366.8,233 353.2,233 330.1,260.6 
											"/>
					<g>
						<polygon class="st25" points="365.3,233 368,233 344.9,260.6 344.9,275.4 342.2,275.4 342.2,260.6 						"/>
					</g>
					<g>
						<polygon class="st25" points="352,233 354.7,233 331.6,260.6 331.6,275.4 328.8,275.4 328.8,260.6 						"/>
					</g>
					<polygon class="st26" points="328.9,260.6 328.9,275.4 344.9,275.4 344.9,260.6 344.9,260.6 331.4,260.6 					"/>
				</g>
			</g>
		</g>
		<g>
			<g>
				<polygon class="st18" points="385.9,245.1 409,217.5 409,232.2 385.9,259.7 385.9,259.9 288.1,259.9 288.1,245.1 				"/>
				<polygon class="st19" points="409,229.9 409,215.2 385.9,242.8 385.9,257.5 				"/>
				<g>
					<polygon class="st20" points="311.5,215.7 289.2,242.3 385.6,242.3 407.9,215.7 					"/>
					<polygon class="st21" points="288.1,257.6 385.9,257.6 385.9,242.8 288.1,242.8 					"/>
					<path class="st21" d="M311.4,215.6l-21.9,26.5H386l21.9-26.5H311.4z M301.9,233.5l7.6-9.1c5,0,11.3-2.7,14.1-6h67.8
						c-2.7,3.3-0.9,5.9,4,6l-7.6,9.2c-5,0-11.1,2.6-13.8,5.8h-67.8C308.6,236.2,306.8,233.6,301.9,233.5z"/>
					<path class="st22" d="M340.2,228.9c-2.5,3.1-0.8,5.5,3.9,5.5s10.5-2.5,13-5.5c2.5-3.1,0.8-5.5-3.9-5.5S342.8,225.8,340.2,228.9
						z"/>
					<path class="st5" d="M364.2,228.9c-1.4,1.7-0.4,3,2.1,3c2.5,0,5.7-1.3,7.1-3c1.4-1.7,0.4-3-2.1-3
						C368.7,225.9,365.6,227.2,364.2,228.9z"/>
					<path class="st5" d="M324,228.9c-1.4,1.7-0.4,3,2.1,3c2.5,0,5.7-1.3,7.1-3c1.4-1.7,0.4-3-2.1-3
						C328.6,225.9,325.4,227.2,324,228.9z"/>
					<path class="st23" d="M311.3,215.2H409l-23.1,27.6h-97.7L311.3,215.2z M406.8,216.2h-95.1l-21.4,25.6h95.1L406.8,216.2z"/>
					<polygon class="st24" points="356,215.2 369.6,215.2 346.5,242.8 346.5,257.6 332.9,257.6 332.9,242.8 					"/>
					<polygon class="st5" points="330.1,242.8 330.1,257.6 343.7,257.6 343.7,242.8 343.7,242.8 366.8,215.2 353.2,215.2 
						330.1,242.8 					"/>
					<g>
						<polygon class="st25" points="365.3,215.2 368,215.2 344.9,242.8 344.9,257.6 342.2,257.6 342.2,242.8 						"/>
					</g>
					<g>
						<polygon class="st25" points="352,215.2 354.7,215.2 331.6,242.8 331.6,257.6 328.8,257.6 328.8,242.8 						"/>
					</g>
					<polygon class="st26" points="328.9,242.8 328.9,257.6 344.9,257.6 344.9,242.8 344.9,242.8 331.4,242.8 					"/>
				</g>
			</g>
		</g>
		<g>
			<g>
				<polygon class="st18" points="385.9,227.3 409,199.7 409,214.4 385.9,241.9 385.9,242.1 288.1,242.1 288.1,227.3 				"/>
				<polygon class="st19" points="409,212.1 409,197.4 385.9,225 385.9,239.7 				"/>
				<g>
					<polygon class="st20" points="311.5,197.9 289.2,224.5 385.6,224.5 407.9,197.9 					"/>
					<polygon class="st21" points="288.1,239.8 385.9,239.8 385.9,225 288.1,225 					"/>
					<path class="st21" d="M311.4,197.8l-21.9,26.5H386l21.9-26.5H311.4z M301.9,215.7l7.6-9.1c5,0,11.3-2.7,14.1-6h67.8
						c-2.7,3.3-0.9,5.9,4,6l-7.6,9.2c-5,0-11.1,2.6-13.8,5.8h-67.8C308.6,218.4,306.8,215.8,301.9,215.7z"/>
					<path class="st22" d="M340.2,211.1c-2.5,3.1-0.8,5.5,3.9,5.5s10.5-2.5,13-5.5c2.5-3.1,0.8-5.5-3.9-5.5S342.8,208,340.2,211.1z"
						/>
					<path class="st5" d="M364.2,211.1c-1.4,1.7-0.4,3,2.1,3c2.5,0,5.7-1.3,7.1-3c1.4-1.7,0.4-3-2.1-3
						C368.7,208.1,365.6,209.4,364.2,211.1z"/>
					<path class="st5" d="M324,211.1c-1.4,1.7-0.4,3,2.1,3c2.5,0,5.7-1.3,7.1-3c1.4-1.7,0.4-3-2.1-3
						C328.6,208.1,325.4,209.4,324,211.1z"/>
					<path class="st23" d="M311.3,197.4H409L385.9,225h-97.7L311.3,197.4z M406.8,198.4h-95.1L290.3,224h95.1L406.8,198.4z"/>
					<polygon class="st24" points="356,197.4 369.6,197.4 346.5,225 346.5,239.8 332.9,239.8 332.9,225 					"/>
					<polygon class="st5" points="330.1,225 330.1,239.8 343.7,239.8 343.7,225 343.7,225 366.8,197.4 353.2,197.4 330.1,225 					
						"/>
					<g>
						<polygon class="st25" points="365.3,197.4 368,197.4 344.9,225 344.9,239.8 342.2,239.8 342.2,225 						"/>
					</g>
					<g>
						<polygon class="st25" points="352,197.4 354.7,197.4 331.6,225 331.6,239.8 328.8,239.8 328.8,225 						"/>
					</g>
					<polygon class="st26" points="328.9,225 328.9,239.8 344.9,239.8 344.9,225 344.9,225 331.4,225 					"/>
				</g>
			</g>
		</g>
		<g>
			<g>
				<polygon class="st18" points="385.9,209.5 409,181.9 409,196.6 385.9,224.1 385.9,224.3 288.1,224.3 288.1,209.5 				"/>
				<polygon class="st19" points="409,194.3 409,179.6 385.9,207.2 385.9,221.9 				"/>
				<g>
					<polygon class="st20" points="311.5,180.1 289.2,206.7 385.6,206.7 407.9,180.1 					"/>
					<polygon class="st21" points="288.1,222 385.9,222 385.9,207.2 288.1,207.2 					"/>
					<path class="st21" d="M311.4,180l-21.9,26.5H386l21.9-26.5H311.4z M301.9,197.9l7.6-9.1c5,0,11.3-2.7,14.1-6h67.8
						c-2.7,3.3-0.9,5.9,4,6l-7.6,9.2c-5,0-11.1,2.6-13.8,5.8h-67.8C308.6,200.6,306.8,198,301.9,197.9z"/>
					<path class="st22" d="M340.2,193.3c-2.5,3.1-0.8,5.5,3.9,5.5s10.5-2.5,13-5.5c2.5-3.1,0.8-5.5-3.9-5.5S342.8,190.2,340.2,193.3
						z"/>
					<path class="st5" d="M364.2,193.3c-1.4,1.7-0.4,3,2.1,3c2.5,0,5.7-1.3,7.1-3c1.4-1.7,0.4-3-2.1-3
						C368.7,190.3,365.6,191.6,364.2,193.3z"/>
					<path class="st5" d="M324,193.3c-1.4,1.7-0.4,3,2.1,3c2.5,0,5.7-1.3,7.1-3c1.4-1.7,0.4-3-2.1-3
						C328.6,190.3,325.4,191.6,324,193.3z"/>
					<path class="st23" d="M311.3,179.6H409l-23.1,27.6h-97.7L311.3,179.6z M406.8,180.6h-95.1l-21.4,25.6h95.1L406.8,180.6z"/>
					<polygon class="st24" points="356,179.6 369.6,179.6 346.5,207.2 346.5,222 332.9,222 332.9,207.2 					"/>
					<polygon class="st5" points="330.1,207.2 330.1,222 343.7,222 343.7,207.2 343.7,207.2 366.8,179.6 353.2,179.6 330.1,207.2 
											"/>
					<g>
						<polygon class="st25" points="365.3,179.6 368,179.6 344.9,207.2 344.9,222 342.2,222 342.2,207.2 						"/>
					</g>
					<g>
						<polygon class="st25" points="352,179.6 354.7,179.6 331.6,207.2 331.6,222 328.8,222 328.8,207.2 						"/>
					</g>
					<polygon class="st26" points="328.9,207.2 328.9,222 344.9,222 344.9,207.2 344.9,207.2 331.4,207.2 					"/>
				</g>
			</g>
		</g>
		<g>
			<g>
				<polygon class="st18" points="385.9,191.7 409,164.1 409,178.8 385.9,206.3 385.9,206.5 288.1,206.5 288.1,191.7 				"/>
				<polygon class="st19" points="409,176.5 409,161.8 385.9,189.4 385.9,204.1 				"/>
				<g>
					<polygon class="st20" points="311.5,162.3 289.2,188.9 385.6,188.9 407.9,162.3 					"/>
					<polygon class="st21" points="288.1,204.2 385.9,204.2 385.9,189.4 288.1,189.4 					"/>
					<path class="st21" d="M311.4,162.2l-21.9,26.5H386l21.9-26.5H311.4z M301.9,180.1l7.6-9.1c5,0,11.3-2.7,14.1-6h67.8
						c-2.7,3.3-0.9,5.9,4,6l-7.6,9.2c-5,0-11.1,2.6-13.8,5.8h-67.8C308.6,182.7,306.8,180.2,301.9,180.1z"/>
					<path class="st22" d="M340.2,175.5c-2.5,3.1-0.8,5.5,3.9,5.5s10.5-2.5,13-5.5c2.5-3.1,0.8-5.5-3.9-5.5S342.8,172.4,340.2,175.5
						z"/>
					<path class="st5" d="M364.2,175.5c-1.4,1.7-0.4,3,2.1,3c2.5,0,5.7-1.3,7.1-3c1.4-1.7,0.4-3-2.1-3
						C368.7,172.5,365.6,173.8,364.2,175.5z"/>
					<path class="st5" d="M324,175.5c-1.4,1.7-0.4,3,2.1,3c2.5,0,5.7-1.3,7.1-3c1.4-1.7,0.4-3-2.1-3
						C328.6,172.5,325.4,173.8,324,175.5z"/>
					<path class="st23" d="M311.3,161.8H409l-23.1,27.6h-97.7L311.3,161.8z M406.8,162.8h-95.1l-21.4,25.6h95.1L406.8,162.8z"/>
					<polygon class="st24" points="356,161.8 369.6,161.8 346.5,189.4 346.5,204.2 332.9,204.2 332.9,189.4 					"/>
					<polygon class="st5" points="330.1,189.4 330.1,204.2 343.7,204.2 343.7,189.4 343.7,189.4 366.8,161.8 353.2,161.8 
						330.1,189.4 					"/>
					<g>
						<polygon class="st25" points="365.3,161.8 368,161.8 344.9,189.4 344.9,204.2 342.2,204.2 342.2,189.4 						"/>
					</g>
					<g>
						<polygon class="st25" points="352,161.8 354.7,161.8 331.6,189.4 331.6,204.2 328.8,204.2 328.8,189.4 						"/>
					</g>
					<polygon class="st26" points="328.9,189.4 328.9,204.2 344.9,204.2 344.9,189.4 344.9,189.4 331.4,189.4 					"/>
				</g>
			</g>
		</g>
		<g>
			<g>
				<polygon class="st18" points="385.9,173.9 409,146.3 409,161 385.9,188.5 385.9,188.7 288.1,188.7 288.1,173.9 				"/>
				<polygon class="st19" points="409,158.7 409,144 385.9,171.6 385.9,186.3 				"/>
				<g>
					<polygon class="st20" points="311.5,144.5 289.2,171.1 385.6,171.1 407.9,144.5 					"/>
					<polygon class="st21" points="288.1,186.4 385.9,186.4 385.9,171.6 288.1,171.6 					"/>
					<path class="st21" d="M311.4,144.4l-21.9,26.5H386l21.9-26.5H311.4z M301.9,162.3l7.6-9.1c5,0,11.3-2.7,14.1-6h67.8
						c-2.7,3.3-0.9,5.9,4,6l-7.6,9.2c-5,0-11.1,2.6-13.8,5.8h-67.8C308.6,164.9,306.8,162.4,301.9,162.3z"/>
					<path class="st22" d="M340.2,157.7c-2.5,3.1-0.8,5.5,3.9,5.5s10.5-2.5,13-5.5c2.5-3.1,0.8-5.5-3.9-5.5S342.8,154.6,340.2,157.7
						z"/>
					<path class="st5" d="M364.2,157.7c-1.4,1.7-0.4,3,2.1,3c2.5,0,5.7-1.3,7.1-3c1.4-1.7,0.4-3-2.1-3
						C368.7,154.7,365.6,156,364.2,157.7z"/>
					<path class="st5" d="M324,157.7c-1.4,1.7-0.4,3,2.1,3c2.5,0,5.7-1.3,7.1-3c1.4-1.7,0.4-3-2.1-3
						C328.6,154.7,325.4,156,324,157.7z"/>
					<path class="st23" d="M311.3,144H409l-23.1,27.6h-97.7L311.3,144z M406.8,145h-95.1l-21.4,25.6h95.1L406.8,145z"/>
					<polygon class="st24" points="356,144 369.6,144 346.5,171.6 346.5,186.4 332.9,186.4 332.9,171.6 					"/>
					<polygon class="st5" points="330.1,171.6 330.1,186.4 343.7,186.4 343.7,171.6 343.7,171.6 366.8,144 353.2,144 330.1,171.6 
											"/>
					<g>
						<polygon class="st25" points="365.3,144 368,144 344.9,171.6 344.9,186.4 342.2,186.4 342.2,171.6 						"/>
					</g>
					<g>
						<polygon class="st25" points="352,144 354.7,144 331.6,171.6 331.6,186.4 328.8,186.4 328.8,171.6 						"/>
					</g>
					<polygon class="st26" points="328.9,171.6 328.9,186.4 344.9,186.4 344.9,171.6 344.9,171.6 331.4,171.6 					"/>
				</g>
			</g>
		</g>
	</g>
	<g>
		<g>
			<g>
				<polygon class="st18" points="496.9,257.6 520,230 520,244.7 496.9,272.3 496.9,272.4 399.2,272.4 399.2,257.6 				"/>
				<polygon class="st19" points="520,242.5 520,227.8 496.9,255.4 496.9,270.1 				"/>
				<g>
					<polygon class="st20" points="422.5,228.3 400.2,254.9 496.6,254.9 518.9,228.3 					"/>
					<polygon class="st21" points="399.2,270.2 496.9,270.2 496.9,255.4 399.2,255.4 					"/>
					<path class="st21" d="M422.4,228.2l-21.9,26.5H497l21.9-26.5H422.4z M413,246.1l7.6-9.1c5,0,11.3-2.7,14.1-6h67.8
						c-2.7,3.3-0.9,5.9,4,6l-7.6,9.2c-5,0-11.1,2.6-13.8,5.8h-67.8C419.7,248.7,417.8,246.1,413,246.1z"/>
					<path class="st22" d="M451.3,241.4c-2.5,3.1-0.8,5.5,3.9,5.5s10.5-2.5,13-5.5c2.5-3.1,0.8-5.5-3.9-5.5S453.8,238.4,451.3,241.4
						z"/>
					<path class="st5" d="M475.2,241.4c-1.4,1.7-0.4,3,2.1,3s5.7-1.3,7.1-3c1.4-1.7,0.4-3-2.1-3
						C479.7,238.4,476.6,239.8,475.2,241.4z"/>
					<path class="st5" d="M435.1,241.4c-1.4,1.7-0.4,3,2.1,3s5.7-1.3,7.1-3c1.4-1.7,0.4-3-2.1-3
						C439.6,238.4,436.4,239.8,435.1,241.4z"/>
					<path class="st23" d="M422.3,227.8H520l-23.1,27.6h-97.7L422.3,227.8z M517.8,228.8h-95.1l-21.4,25.6h95.1L517.8,228.8z"/>
					<polygon class="st24" points="467.1,227.8 480.6,227.8 457.5,255.4 457.5,270.2 443.9,270.2 443.9,255.4 					"/>
					<polygon class="st5" points="441.1,255.4 441.1,270.2 454.7,270.2 454.7,255.4 454.7,255.3 477.8,227.8 464.3,227.8 
						441.2,255.3 					"/>
					<g>
						<polygon class="st25" points="476.3,227.8 479.1,227.8 455.9,255.4 455.9,270.2 453.2,270.2 453.2,255.4 						"/>
					</g>
					<g>
						<polygon class="st25" points="463,227.8 465.7,227.8 442.6,255.4 442.6,270.2 439.9,270.2 439.9,255.4 						"/>
					</g>
					<polygon class="st26" points="439.9,255.4 439.9,270.2 455.9,270.2 455.9,255.4 456,255.3 442.4,255.3 					"/>
				</g>
			</g>
		</g>
		<g>
			<g>
				<polygon class="st18" points="496.9,239.8 520,212.2 520,226.9 496.9,254.5 496.9,254.6 399.2,254.6 399.2,239.8 				"/>
				<polygon class="st19" points="520,224.7 520,210 496.9,237.6 496.9,252.3 				"/>
				<g>
					<polygon class="st20" points="422.5,210.5 400.2,237.1 496.6,237.1 518.9,210.5 					"/>
					<polygon class="st21" points="399.2,252.4 496.9,252.4 496.9,237.6 399.2,237.6 					"/>
					<path class="st21" d="M422.4,210.4l-21.9,26.5H497l21.9-26.5H422.4z M413,228.3l7.6-9.1c5,0,11.3-2.7,14.1-6h67.8
						c-2.7,3.3-0.9,5.9,4,6l-7.6,9.2c-5,0-11.1,2.6-13.8,5.8h-67.8C419.7,230.9,417.8,228.3,413,228.3z"/>
					<path class="st22" d="M451.3,223.6c-2.5,3.1-0.8,5.5,3.9,5.5s10.5-2.5,13-5.5c2.5-3.1,0.8-5.5-3.9-5.5S453.8,220.6,451.3,223.6
						z"/>
					<path class="st5" d="M475.2,223.6c-1.4,1.7-0.4,3,2.1,3s5.7-1.3,7.1-3c1.4-1.7,0.4-3-2.1-3C479.7,220.6,476.6,222,475.2,223.6z
						"/>
					<path class="st5" d="M435.1,223.6c-1.4,1.7-0.4,3,2.1,3s5.7-1.3,7.1-3c1.4-1.7,0.4-3-2.1-3C439.6,220.6,436.4,222,435.1,223.6z
						"/>
					<path class="st23" d="M422.3,210H520l-23.1,27.6h-97.7L422.3,210z M517.8,211h-95.1l-21.4,25.6h95.1L517.8,211z"/>
					<polygon class="st24" points="467.1,210 480.6,210 457.5,237.6 457.5,252.4 443.9,252.4 443.9,237.6 					"/>
					<polygon class="st5" points="441.1,237.6 441.1,252.4 454.7,252.4 454.7,237.6 454.7,237.5 477.8,210 464.3,210 441.2,237.5 
											"/>
					<g>
						<polygon class="st25" points="476.3,210 479.1,210 455.9,237.6 455.9,252.4 453.2,252.4 453.2,237.6 						"/>
					</g>
					<g>
						<polygon class="st25" points="463,210 465.7,210 442.6,237.6 442.6,252.4 439.9,252.4 439.9,237.6 						"/>
					</g>
					<polygon class="st26" points="439.9,237.6 439.9,252.4 455.9,252.4 455.9,237.6 456,237.5 442.4,237.5 					"/>
				</g>
			</g>
		</g>
		<g>
			<g>
				<polygon class="st18" points="496.9,222 520,194.4 520,209.1 496.9,236.7 496.9,236.8 399.2,236.8 399.2,222 				"/>
				<polygon class="st19" points="520,206.9 520,192.2 496.9,219.8 496.9,234.5 				"/>
				<g>
					<polygon class="st20" points="422.5,192.7 400.2,219.2 496.6,219.2 518.9,192.7 					"/>
					<polygon class="st21" points="399.2,234.6 496.9,234.6 496.9,219.8 399.2,219.8 					"/>
					<path class="st21" d="M422.4,192.6l-21.9,26.5H497l21.9-26.5H422.4z M413,210.5l7.6-9.1c5,0,11.3-2.7,14.1-6h67.8
						c-2.7,3.3-0.9,5.9,4,6l-7.6,9.2c-5,0-11.1,2.6-13.8,5.8h-67.8C419.7,213.1,417.8,210.5,413,210.5z"/>
					<path class="st22" d="M451.3,205.8c-2.5,3.1-0.8,5.5,3.9,5.5s10.5-2.5,13-5.5c2.5-3.1,0.8-5.5-3.9-5.5S453.8,202.8,451.3,205.8
						z"/>
					<path class="st5" d="M475.2,205.8c-1.4,1.7-0.4,3,2.1,3s5.7-1.3,7.1-3c1.4-1.7,0.4-3-2.1-3
						C479.7,202.8,476.6,204.2,475.2,205.8z"/>
					<path class="st5" d="M435.1,205.8c-1.4,1.7-0.4,3,2.1,3s5.7-1.3,7.1-3c1.4-1.7,0.4-3-2.1-3
						C439.6,202.8,436.4,204.2,435.1,205.8z"/>
					<path class="st23" d="M422.3,192.2H520l-23.1,27.6h-97.7L422.3,192.2z M517.8,193.2h-95.1l-21.4,25.6h95.1L517.8,193.2z"/>
					<polygon class="st24" points="467.1,192.2 480.6,192.2 457.5,219.8 457.5,234.6 443.9,234.6 443.9,219.8 					"/>
					<polygon class="st5" points="441.1,219.7 441.1,234.6 454.7,234.6 454.7,219.7 454.7,219.7 477.8,192.2 464.3,192.2 
						441.2,219.7 					"/>
					<g>
						<polygon class="st25" points="476.3,192.2 479.1,192.2 455.9,219.8 455.9,234.6 453.2,234.6 453.2,219.8 						"/>
					</g>
					<g>
						<polygon class="st25" points="463,192.2 465.7,192.2 442.6,219.8 442.6,234.6 439.9,234.6 439.9,219.8 						"/>
					</g>
					<polygon class="st26" points="439.9,219.7 439.9,234.6 455.9,234.6 455.9,219.7 456,219.7 442.4,219.7 					"/>
				</g>
			</g>
		</g>
		<g>
			<g>
				<polygon class="st18" points="496.9,204.2 520,176.6 520,191.3 496.9,218.9 496.9,219 399.2,219 399.2,204.2 				"/>
				<polygon class="st19" points="520,189.1 520,174.4 496.9,201.9 496.9,216.6 				"/>
				<g>
					<polygon class="st20" points="422.5,174.9 400.2,201.4 496.6,201.4 518.9,174.9 					"/>
					<polygon class="st21" points="399.2,216.8 496.9,216.8 496.9,201.9 399.2,201.9 					"/>
					<path class="st21" d="M422.4,174.8l-21.9,26.5H497l21.9-26.5H422.4z M413,192.7l7.6-9.1c5,0,11.3-2.7,14.1-6h67.8
						c-2.7,3.3-0.9,5.9,4,6l-7.6,9.2c-5,0-11.1,2.6-13.8,5.8h-67.8C419.7,195.3,417.8,192.7,413,192.7z"/>
					<path class="st22" d="M451.3,188c-2.5,3.1-0.8,5.5,3.9,5.5s10.5-2.5,13-5.5c2.5-3.1,0.8-5.5-3.9-5.5S453.8,185,451.3,188z"/>
					<path class="st5" d="M475.2,188c-1.4,1.7-0.4,3,2.1,3s5.7-1.3,7.1-3c1.4-1.7,0.4-3-2.1-3C479.7,185,476.6,186.4,475.2,188z"/>
					<path class="st5" d="M435.1,188c-1.4,1.7-0.4,3,2.1,3s5.7-1.3,7.1-3c1.4-1.7,0.4-3-2.1-3C439.6,185,436.4,186.4,435.1,188z"/>
					<path class="st23" d="M422.3,174.4H520l-23.1,27.6h-97.7L422.3,174.4z M517.8,175.4h-95.1l-21.4,25.6h95.1L517.8,175.4z"/>
					<polygon class="st24" points="467.1,174.4 480.6,174.4 457.5,201.9 457.5,216.8 443.9,216.8 443.9,201.9 					"/>
					<polygon class="st5" points="441.1,201.9 441.1,216.8 454.7,216.8 454.7,201.9 454.7,201.9 477.8,174.4 464.3,174.4 
						441.2,201.9 					"/>
					<g>
						<polygon class="st25" points="476.3,174.4 479.1,174.4 455.9,201.9 455.9,216.8 453.2,216.8 453.2,201.9 						"/>
					</g>
					<g>
						<polygon class="st25" points="463,174.4 465.7,174.4 442.6,201.9 442.6,216.8 439.9,216.8 439.9,201.9 						"/>
					</g>
					<polygon class="st26" points="439.9,201.9 439.9,216.8 455.9,216.8 455.9,201.9 456,201.9 442.4,201.9 					"/>
				</g>
			</g>
		</g>
	</g>
	<polygon class="st17" points="441.1,280 461.3,276.3 461.3,235.7 374.4,235.7 374.4,285 	"/>
	<g>
		<g>
			<g>
				<g>
					<path class="st11" d="M292,288.1c-0.1,4.7,8.9,8.7,20,9c11.1,0.2,20.3-3.4,20.4-8.1c0.1-4.7-8.9-8.7-20-9
						C301.2,279.8,292.1,283.4,292,288.1z"/>
				</g>
				<g>
					<path class="st12" d="M292.1,283.1l-0.1,4.1c-0.1,3.5,4.9,6.6,12,8.1c1.7,0.3,3.5,0.6,5.4,0.7c0.9,0.1,1.8,0.1,2.7,0.1
						c2.9,0.1,5.6-0.1,8.1-0.5c7.2-1.2,10.9-4.2,11-7.7l1.4-4.5c-2.8-3.3-11.5-4.2-20.1-4.4C305.5,279,295.8,281,292.1,283.1z"/>
				</g>
				<g class="st13">
					<path class="st14" d="M304.1,287.8l-0.2,7.5c1.7,0.3,3.5,0.6,5.4,0.7l0.2-8.2L304.1,287.8z"/>
				</g>
				<g>
					<path class="st15" d="M319.2,295.8l0.3-16.3c5.8,0.5,10.9,1.7,12.9,4l-0.1,4.5C332.3,291.7,326.8,294.7,319.2,295.8z"/>
				</g>
				<g>
					
						<ellipse transform="matrix(2.091796e-02 -0.9998 0.9998 2.091796e-02 22.205 589.8247)" class="st16" cx="312.2" cy="283.6" rx="8.6" ry="20.2"/>
				</g>
				<g>
					<path class="st14" d="M300.6,290c-3.4-1.1-6-2.7-7.2-4.4l16.5-10.4c0.6,0,1.2,0,1.8,0c0.3,0,0.6,0,1,0c3.3,0.1,6.6,0.5,9.5,1.2
						L300.6,290z"/>
				</g>
				<g>
					<path class="st14" d="M309.5,291.7c-1.6-0.1-3.2-0.3-4.7-0.6l21.3-13.4c1.2,0.5,2.2,1,3.1,1.6L309.5,291.7z"/>
				</g>
			</g>
		</g>
		<g>
			<g>
				<g>
					<path class="st11" d="M292,282.2c-0.1,4.7,8.9,8.7,20,9c11.1,0.2,20.3-3.4,20.4-8.1c0.1-4.7-8.9-8.7-20-9
						C301.2,273.8,292.1,277.5,292,282.2z"/>
				</g>
				<g>
					<path class="st12" d="M292.1,277.2l-0.1,4.1c-0.1,3.5,4.9,6.6,12,8.1c1.7,0.3,3.5,0.6,5.4,0.7c0.9,0.1,1.8,0.1,2.7,0.1
						c2.9,0.1,5.6-0.1,8.1-0.5c7.2-1.2,10.9-4.2,11-7.7l1.4-4.5c-2.8-3.3-11.5-4.2-20.1-4.4C305.5,273.1,295.8,275.1,292.1,277.2z"
						/>
				</g>
				<g class="st13">
					<path class="st14" d="M304.1,281.9l-0.2,7.5c1.7,0.3,3.5,0.6,5.4,0.7l0.2-8.2L304.1,281.9z"/>
				</g>
				<g>
					<path class="st15" d="M319.2,289.9l0.3-16.3c5.8,0.5,10.9,1.7,12.9,4l-0.1,4.5C332.3,285.8,326.8,288.8,319.2,289.9z"/>
				</g>
				<g>
					
						<ellipse transform="matrix(2.091796e-02 -0.9998 0.9998 2.091796e-02 28.138 584.0145)" class="st16" cx="312.2" cy="277.6" rx="8.6" ry="20.2"/>
				</g>
				<g>
					<path class="st14" d="M300.6,284.1c-3.4-1.1-6-2.7-7.2-4.4l16.5-10.4c0.6,0,1.2,0,1.8,0c0.3,0,0.6,0,1,0
						c3.3,0.1,6.6,0.5,9.5,1.2L300.6,284.1z"/>
				</g>
				<g>
					<path class="st14" d="M309.5,285.8c-1.6-0.1-3.2-0.3-4.7-0.6l21.3-13.4c1.2,0.5,2.2,1,3.1,1.6L309.5,285.8z"/>
				</g>
			</g>
		</g>
		<g>
			<g>
				<g>
					<path class="st11" d="M292,276.3c-0.1,4.7,8.9,8.7,20,9c11.1,0.2,20.3-3.4,20.4-8.1c0.1-4.7-8.9-8.7-20-9
						C301.2,267.9,292.1,271.5,292,276.3z"/>
				</g>
				<g>
					<path class="st12" d="M292.1,271.3l-0.1,4.1c-0.1,3.5,4.9,6.6,12,8.1c1.7,0.3,3.5,0.6,5.4,0.7c0.9,0.1,1.8,0.1,2.7,0.1
						c2.9,0.1,5.6-0.1,8.1-0.5c7.2-1.2,10.9-4.2,11-7.7l1.4-4.5c-2.8-3.3-11.5-4.2-20.1-4.4C305.5,267.1,295.8,269.2,292.1,271.3z"
						/>
				</g>
				<g class="st13">
					<path class="st14" d="M304.1,275.9l-0.2,7.5c1.7,0.3,3.5,0.6,5.4,0.7l0.2-8.2L304.1,275.9z"/>
				</g>
				<g>
					<path class="st15" d="M319.2,283.9l0.3-16.3c5.8,0.5,10.9,1.7,12.9,4l-0.1,4.5C332.3,279.9,326.8,282.9,319.2,283.9z"/>
				</g>
				<g>
					
						<ellipse transform="matrix(2.091796e-02 -0.9998 0.9998 2.091796e-02 34.0711 578.2042)" class="st16" cx="312.2" cy="271.7" rx="8.6" ry="20.2"/>
				</g>
				<g>
					<path class="st14" d="M300.6,278.2c-3.4-1.1-6-2.7-7.2-4.4l16.5-10.4c0.6,0,1.2,0,1.8,0c0.3,0,0.6,0,1,0
						c3.3,0.1,6.6,0.5,9.5,1.2L300.6,278.2z"/>
				</g>
				<g>
					<path class="st14" d="M309.5,279.9c-1.6-0.1-3.2-0.3-4.7-0.6l21.3-13.4c1.2,0.5,2.2,1,3.1,1.6L309.5,279.9z"/>
				</g>
			</g>
		</g>
		<g>
			<g>
				<g>
					<path class="st11" d="M292,270.3c-0.1,4.7,8.9,8.7,20,9c11.1,0.2,20.3-3.4,20.4-8.1c0.1-4.7-8.9-8.7-20-9
						C301.2,262,292.1,265.6,292,270.3z"/>
				</g>
				<g>
					<path class="st12" d="M292.1,265.3l-0.1,4.1c-0.1,3.5,4.9,6.6,12,8.1c1.7,0.3,3.5,0.6,5.4,0.7c0.9,0.1,1.8,0.1,2.7,0.1
						c2.9,0.1,5.6-0.1,8.1-0.5c7.2-1.2,10.9-4.2,11-7.7l1.4-4.5c-2.8-3.3-11.5-4.2-20.1-4.4C305.5,261.2,295.8,263.2,292.1,265.3z"
						/>
				</g>
				<g class="st13">
					<path class="st14" d="M304.1,270l-0.2,7.5c1.7,0.3,3.5,0.6,5.4,0.7l0.2-8.2L304.1,270z"/>
				</g>
				<g>
					<path class="st15" d="M319.2,278l0.3-16.3c5.8,0.5,10.9,1.7,12.9,4l-0.1,4.5C332.3,273.9,326.8,276.9,319.2,278z"/>
				</g>
				<g>
					
						<ellipse transform="matrix(2.091796e-02 -0.9998 0.9998 2.091796e-02 40.0042 572.394)" class="st16" cx="312.2" cy="265.8" rx="8.6" ry="20.2"/>
				</g>
				<g>
					<path class="st14" d="M300.6,272.2c-3.4-1.1-6-2.7-7.2-4.4l16.5-10.4c0.6,0,1.2,0,1.8,0c0.3,0,0.6,0,1,0
						c3.3,0.1,6.6,0.5,9.5,1.2L300.6,272.2z"/>
				</g>
				<g>
					<path class="st14" d="M309.5,273.9c-1.6-0.1-3.2-0.3-4.7-0.6l21.3-13.4c1.2,0.5,2.2,1,3.1,1.6L309.5,273.9z"/>
				</g>
			</g>
		</g>
	</g>
	<g>
		<g>
			<g>
				<polygon class="st18" points="421.6,296.8 444.7,269.2 444.7,283.9 421.6,311.5 421.6,311.6 323.9,311.6 323.9,296.8 				"/>
				<polygon class="st19" points="444.7,281.7 444.7,267 421.6,294.5 421.6,309.2 				"/>
				<g>
					<polygon class="st20" points="347.2,267.5 325,294 421.4,294 443.7,267.5 					"/>
					<polygon class="st21" points="323.9,309.3 421.6,309.3 421.6,294.5 323.9,294.5 					"/>
					<path class="st21" d="M347.1,267.4l-21.9,26.5h96.5l21.9-26.5H347.1z M337.7,285.2l7.6-9.1c5,0,11.3-2.7,14.1-6h67.8
						c-2.7,3.3-0.9,5.9,4,6l-7.6,9.2c-5,0-11.1,2.6-13.8,5.8h-67.8C344.4,287.9,342.6,285.3,337.7,285.2z"/>
					<path class="st22" d="M376,280.6c-2.5,3.1-0.8,5.5,3.9,5.5s10.5-2.5,13-5.5c2.5-3.1,0.8-5.5-3.9-5.5S378.5,277.5,376,280.6z"/>
					<path class="st5" d="M400,280.6c-1.4,1.7-0.4,3,2.1,3c2.5,0,5.7-1.3,7.1-3c1.4-1.7,0.4-3-2.1-3
						C404.5,277.6,401.3,278.9,400,280.6z"/>
					<path class="st5" d="M359.8,280.6c-1.4,1.7-0.4,3,2.1,3c2.5,0,5.7-1.3,7.1-3c1.4-1.7,0.4-3-2.1-3
						C364.3,277.6,361.2,278.9,359.8,280.6z"/>
					<path class="st23" d="M347,267h97.7l-23.1,27.6h-97.7L347,267z M442.6,268h-95.1L326,293.5h95.1L442.6,268z"/>
					<polygon class="st24" points="391.8,267 405.4,267 382.2,294.5 382.2,309.3 368.7,309.3 368.7,294.5 					"/>
					<polygon class="st5" points="365.9,294.5 365.9,309.3 379.4,309.3 379.4,294.5 379.4,294.5 402.5,267 389,267 365.9,294.5 
											"/>
					<g>
						<polygon class="st25" points="401.1,267 403.8,267 380.7,294.5 380.7,309.3 377.9,309.3 377.9,294.5 						"/>
					</g>
					<g>
						<polygon class="st25" points="387.7,267 390.4,267 367.3,294.5 367.3,309.3 364.6,309.3 364.6,294.5 						"/>
					</g>
					<polygon class="st26" points="364.6,294.5 364.6,309.3 380.7,309.3 380.7,294.5 380.7,294.5 367.1,294.5 					"/>
				</g>
			</g>
		</g>
		<g>
			<g>
				<polygon class="st18" points="421.6,279 444.7,251.4 444.7,266.1 421.6,293.7 421.6,293.8 323.9,293.8 323.9,279 				"/>
				<polygon class="st19" points="444.7,263.8 444.7,249.1 421.6,276.7 421.6,291.4 				"/>
				<g>
					<polygon class="st20" points="347.2,249.6 325,276.2 421.4,276.2 443.7,249.6 					"/>
					<polygon class="st21" points="323.9,291.5 421.6,291.5 421.6,276.7 323.9,276.7 					"/>
					<path class="st21" d="M347.1,249.5L325.2,276h96.5l21.9-26.5H347.1z M337.7,267.4l7.6-9.1c5,0,11.3-2.7,14.1-6h67.8
						c-2.7,3.3-0.9,5.9,4,6l-7.6,9.2c-5,0-11.1,2.6-13.8,5.8h-67.8C344.4,270.1,342.6,267.5,337.7,267.4z"/>
					<path class="st22" d="M376,262.8c-2.5,3.1-0.8,5.5,3.9,5.5s10.5-2.5,13-5.5c2.5-3.1,0.8-5.5-3.9-5.5S378.5,259.7,376,262.8z"/>
					<path class="st5" d="M400,262.8c-1.4,1.7-0.4,3,2.1,3c2.5,0,5.7-1.3,7.1-3c1.4-1.7,0.4-3-2.1-3
						C404.5,259.8,401.3,261.1,400,262.8z"/>
					<path class="st5" d="M359.8,262.8c-1.4,1.7-0.4,3,2.1,3c2.5,0,5.7-1.3,7.1-3c1.4-1.7,0.4-3-2.1-3
						C364.3,259.8,361.2,261.1,359.8,262.8z"/>
					<path class="st23" d="M347,249.1h97.7l-23.1,27.6h-97.7L347,249.1z M442.6,250.2h-95.1L326,275.7h95.1L442.6,250.2z"/>
					<polygon class="st24" points="391.8,249.1 405.4,249.1 382.2,276.7 382.2,291.5 368.7,291.5 368.7,276.7 					"/>
					<polygon class="st5" points="365.9,276.7 365.9,291.5 379.4,291.5 379.4,276.7 379.4,276.7 402.5,249.1 389,249.1 365.9,276.7 
											"/>
					<g>
						<polygon class="st25" points="401.1,249.1 403.8,249.1 380.7,276.7 380.7,291.5 377.9,291.5 377.9,276.7 						"/>
					</g>
					<g>
						<polygon class="st25" points="387.7,249.1 390.4,249.1 367.3,276.7 367.3,291.5 364.6,291.5 364.6,276.7 						"/>
					</g>
					<polygon class="st26" points="364.6,276.7 364.6,291.5 380.7,291.5 380.7,276.7 380.7,276.7 367.1,276.7 					"/>
				</g>
			</g>
		</g>
		<g>
			<g>
				<polygon class="st18" points="421.6,261.2 444.7,233.6 444.7,248.3 421.6,275.9 421.6,276 323.9,276 323.9,261.2 				"/>
				<polygon class="st19" points="444.7,246 444.7,231.3 421.6,258.9 421.6,273.6 				"/>
				<g>
					<polygon class="st20" points="347.2,231.8 325,258.4 421.4,258.4 443.7,231.8 					"/>
					<polygon class="st21" points="323.9,273.7 421.6,273.7 421.6,258.9 323.9,258.9 					"/>
					<path class="st21" d="M347.1,231.7l-21.9,26.5h96.5l21.9-26.5H347.1z M337.7,249.6l7.6-9.1c5,0,11.3-2.7,14.1-6h67.8
						c-2.7,3.3-0.9,5.9,4,6l-7.6,9.2c-5,0-11.1,2.6-13.8,5.8h-67.8C344.4,252.3,342.6,249.7,337.7,249.6z"/>
					<path class="st22" d="M376,245c-2.5,3.1-0.8,5.5,3.9,5.5s10.5-2.5,13-5.5c2.5-3.1,0.8-5.5-3.9-5.5S378.5,241.9,376,245z"/>
					<path class="st5" d="M400,245c-1.4,1.7-0.4,3,2.1,3c2.5,0,5.7-1.3,7.1-3c1.4-1.7,0.4-3-2.1-3C404.5,242,401.3,243.3,400,245z"
						/>
					<path class="st5" d="M359.8,245c-1.4,1.7-0.4,3,2.1,3c2.5,0,5.7-1.3,7.1-3c1.4-1.7,0.4-3-2.1-3
						C364.3,242,361.2,243.3,359.8,245z"/>
					<path class="st23" d="M347,231.3h97.7l-23.1,27.6h-97.7L347,231.3z M442.6,232.3h-95.1L326,257.9h95.1L442.6,232.3z"/>
					<polygon class="st24" points="391.8,231.3 405.4,231.3 382.2,258.9 382.2,273.7 368.7,273.7 368.7,258.9 					"/>
					<polygon class="st5" points="365.9,258.9 365.9,273.7 379.4,273.7 379.4,258.9 379.4,258.9 402.5,231.3 389,231.3 365.9,258.9 
											"/>
					<g>
						<polygon class="st25" points="401.1,231.3 403.8,231.3 380.7,258.9 380.7,273.7 377.9,273.7 377.9,258.9 						"/>
					</g>
					<g>
						<polygon class="st25" points="387.7,231.3 390.4,231.3 367.3,258.9 367.3,273.7 364.6,273.7 364.6,258.9 						"/>
					</g>
					<polygon class="st26" points="364.6,258.9 364.6,273.7 380.7,273.7 380.7,258.9 380.7,258.9 367.1,258.9 					"/>
				</g>
			</g>
		</g>
	</g>
	<g>
		<g>
			<g>
				<g>
					<ellipse class="st11" cx="461.4" cy="292.2" rx="20.2" ry="8.6"/>
				</g>
				<g>
					<path class="st12" d="M441.2,287.2v4.1c0,3.5,5,6.5,12.1,7.8c1.7,0.3,3.5,0.5,5.4,0.6c0.9,0,1.8,0.1,2.7,0.1
						c2.9,0,5.6-0.2,8-0.7c7.1-1.3,10.9-4.4,10.9-7.9l1.3-4.5c-2.9-3.2-11.6-4-20.2-4C454.5,282.8,444.9,285,441.2,287.2z"/>
				</g>
				<g class="st13">
					<path class="st14" d="M453.3,291.6v7.5c1.7,0.3,3.5,0.5,5.4,0.6v-8.2H453.3z"/>
				</g>
				<g>
					<path class="st15" d="M468.6,299.3V283c5.8,0.4,10.9,1.5,13,3.8v4.5C481.6,295,476.2,298.1,468.6,299.3z"/>
				</g>
				<g>
					<ellipse class="st16" cx="461.4" cy="287.2" rx="20.2" ry="8.6"/>
				</g>
				<g>
					<path class="st14" d="M449.9,293.9c-3.4-1.1-6-2.6-7.3-4.2l16.3-10.7c0.9-0.1,1.9-0.1,2.8-0.1c3.3,0,6.6,0.4,9.5,1L449.9,293.9
						z"/>
				</g>
				<g>
					<path class="st14" d="M458.8,295.5c-1.6-0.1-3.2-0.3-4.7-0.5l21-13.8c1.2,0.5,2.3,1,3.2,1.6L458.8,295.5z"/>
				</g>
			</g>
		</g>
		<g>
			<g>
				<g>
					<ellipse class="st11" cx="461.4" cy="286.3" rx="20.2" ry="8.6"/>
				</g>
				<g>
					<path class="st12" d="M441.2,281.3v4.1c0,3.5,5,6.5,12.1,7.8c1.7,0.3,3.5,0.5,5.4,0.6c0.9,0,1.8,0.1,2.7,0.1
						c2.9,0,5.6-0.2,8-0.7c7.1-1.3,10.9-4.4,10.9-7.9l1.3-4.5c-2.9-3.2-11.6-4-20.2-4C454.5,276.8,444.9,279.1,441.2,281.3z"/>
				</g>
				<g class="st13">
					<path class="st14" d="M453.3,285.7v7.5c1.7,0.3,3.5,0.5,5.4,0.6v-8.2H453.3z"/>
				</g>
				<g>
					<path class="st15" d="M468.6,293.4v-16.3c5.8,0.4,10.9,1.5,13,3.8v4.5C481.6,289,476.2,292.2,468.6,293.4z"/>
				</g>
				<g>
					<ellipse class="st16" cx="461.4" cy="281.3" rx="20.2" ry="8.6"/>
				</g>
				<g>
					<path class="st14" d="M449.9,288c-3.4-1.1-6-2.6-7.3-4.2l16.3-10.7c0.9-0.1,1.9-0.1,2.8-0.1c3.3,0,6.6,0.4,9.5,1L449.9,288z"/>
				</g>
				<g>
					<path class="st14" d="M458.8,289.5c-1.6-0.1-3.2-0.3-4.7-0.5l21-13.8c1.2,0.5,2.3,1,3.2,1.6L458.8,289.5z"/>
				</g>
			</g>
		</g>
		<g>
			<g>
				<g>
					<ellipse class="st11" cx="461.4" cy="280.4" rx="20.2" ry="8.6"/>
				</g>
				<g>
					<path class="st12" d="M441.2,275.4v4.1c0,3.5,5,6.5,12.1,7.8c1.7,0.3,3.5,0.5,5.4,0.6c0.9,0,1.8,0.1,2.7,0.1
						c2.9,0,5.6-0.2,8-0.7c7.1-1.3,10.9-4.4,10.9-7.9l1.3-4.5c-2.9-3.2-11.6-4-20.2-4C454.5,270.9,444.9,273.2,441.2,275.4z"/>
				</g>
				<g class="st13">
					<path class="st14" d="M453.3,279.8v7.5c1.7,0.3,3.5,0.5,5.4,0.6v-8.2H453.3z"/>
				</g>
				<g>
					<path class="st15" d="M468.6,287.5v-16.3c5.8,0.4,10.9,1.5,13,3.8v4.5C481.6,283.1,476.2,286.2,468.6,287.5z"/>
				</g>
				<g>
					<ellipse class="st16" cx="461.4" cy="275.4" rx="20.2" ry="8.6"/>
				</g>
				<g>
					<path class="st14" d="M449.9,282.1c-3.4-1.1-6-2.6-7.3-4.2l16.3-10.7c0.9-0.1,1.9-0.1,2.8-0.1c3.3,0,6.6,0.4,9.5,1L449.9,282.1
						z"/>
				</g>
				<g>
					<path class="st14" d="M458.8,283.6c-1.6-0.1-3.2-0.3-4.7-0.5l21-13.8c1.2,0.5,2.3,1,3.2,1.6L458.8,283.6z"/>
				</g>
			</g>
		</g>
		<g>
			<g>
				<g>
					<ellipse class="st11" cx="461.4" cy="274.4" rx="20.2" ry="8.6"/>
				</g>
				<g>
					<path class="st12" d="M441.2,269.4v4.1c0,3.5,5,6.5,12.1,7.8c1.7,0.3,3.5,0.5,5.4,0.6c0.9,0,1.8,0.1,2.7,0.1
						c2.9,0,5.6-0.2,8-0.7c7.1-1.3,10.9-4.4,10.9-7.9l1.3-4.5c-2.9-3.2-11.6-4-20.2-4C454.5,265,444.9,267.2,441.2,269.4z"/>
				</g>
				<g class="st13">
					<path class="st14" d="M453.3,273.8v7.5c1.7,0.3,3.5,0.5,5.4,0.6v-8.2H453.3z"/>
				</g>
				<g>
					<path class="st15" d="M468.6,281.5v-16.3c5.8,0.4,10.9,1.5,13,3.8v4.5C481.6,277.2,476.2,280.3,468.6,281.5z"/>
				</g>
				<g>
					<ellipse class="st16" cx="461.4" cy="269.4" rx="20.2" ry="8.6"/>
				</g>
				<g>
					<path class="st14" d="M449.9,276.1c-3.4-1.1-6-2.6-7.3-4.2l16.3-10.7c0.9-0.1,1.9-0.1,2.8-0.1c3.3,0,6.6,0.4,9.5,1L449.9,276.1
						z"/>
				</g>
				<g>
					<path class="st14" d="M458.8,277.7c-1.6-0.1-3.2-0.3-4.7-0.5l21-13.8c1.2,0.5,2.3,1,3.2,1.6L458.8,277.7z"/>
				</g>
			</g>
		</g>
		<g>
			<g>
				<g>
					<ellipse class="st11" cx="461.4" cy="268.5" rx="20.2" ry="8.6"/>
				</g>
				<g>
					<path class="st12" d="M441.2,263.5v4.1c0,3.5,5,6.5,12.1,7.8c1.7,0.3,3.5,0.5,5.4,0.6c0.9,0,1.8,0.1,2.7,0.1
						c2.9,0,5.6-0.2,8-0.7c7.1-1.3,10.9-4.4,10.9-7.9l1.3-4.5c-2.9-3.2-11.6-4-20.2-4C454.5,259,444.9,261.3,441.2,263.5z"/>
				</g>
				<g class="st13">
					<path class="st14" d="M453.3,267.9v7.5c1.7,0.3,3.5,0.5,5.4,0.6v-8.2H453.3z"/>
				</g>
				<g>
					<path class="st15" d="M468.6,275.6v-16.3c5.8,0.4,10.9,1.5,13,3.8v4.5C481.6,271.2,476.2,274.4,468.6,275.6z"/>
				</g>
				<g>
					<ellipse class="st16" cx="461.4" cy="263.5" rx="20.2" ry="8.6"/>
				</g>
				<g>
					<path class="st14" d="M449.9,270.2c-3.4-1.1-6-2.6-7.3-4.2l16.3-10.7c0.9-0.1,1.9-0.1,2.8-0.1c3.3,0,6.6,0.4,9.5,1L449.9,270.2
						z"/>
				</g>
				<g>
					<path class="st14" d="M458.8,271.7c-1.6-0.1-3.2-0.3-4.7-0.5l21-13.8c1.2,0.5,2.3,1,3.2,1.6L458.8,271.7z"/>
				</g>
			</g>
		</g>
		<g>
			<g>
				<g>
					<ellipse class="st11" cx="461.4" cy="262.5" rx="20.2" ry="8.6"/>
				</g>
				<g>
					<path class="st12" d="M441.2,257.6v4.1c0,3.5,5,6.5,12.1,7.8c1.7,0.3,3.5,0.5,5.4,0.6c0.9,0,1.8,0.1,2.7,0.1
						c2.9,0,5.6-0.2,8-0.7c7.1-1.3,10.9-4.4,10.9-7.9l1.3-4.5c-2.9-3.2-11.6-4-20.2-4C454.5,253.1,444.9,255.4,441.2,257.6z"/>
				</g>
				<g class="st13">
					<path class="st14" d="M453.3,262v7.5c1.7,0.3,3.5,0.5,5.4,0.6V262H453.3z"/>
				</g>
				<g>
					<path class="st15" d="M468.6,269.7v-16.3c5.8,0.4,10.9,1.5,13,3.8v4.5C481.6,265.3,476.2,268.4,468.6,269.7z"/>
				</g>
				<g>
					<ellipse class="st16" cx="461.4" cy="257.6" rx="20.2" ry="8.6"/>
				</g>
				<g>
					<path class="st14" d="M449.9,264.3c-3.4-1.1-6-2.6-7.3-4.2l16.3-10.7c0.9-0.1,1.9-0.1,2.8-0.1c3.3,0,6.6,0.4,9.5,1L449.9,264.3
						z"/>
				</g>
				<g>
					<path class="st14" d="M458.8,265.8c-1.6-0.1-3.2-0.3-4.7-0.5l21-13.8c1.2,0.5,2.3,1,3.2,1.6L458.8,265.8z"/>
				</g>
			</g>
		</g>
	</g>
</g>
<g>
	<g>
		<g>
			<path class="st5" d="M447.4,61.2c0,7.9-5,12-10.5,12c-5.7,0-10.3-4.3-10.3-11.4c0-6.7,4.1-11.8,10.6-11.8
				C443.8,50,447.4,54.8,447.4,61.2z M433.3,61.6c0,3.9,1.3,6.8,3.9,6.8c2.5,0,3.7-2.5,3.7-6.8c0-3.8-1-6.8-3.8-6.8
				C434.5,54.8,433.3,57.8,433.3,61.6z M437.4,89l21.6-39h4.8l-21.7,39H437.4z M474.6,76.9c0,7.9-5,12-10.4,12
				c-5.7,0-10.2-4.3-10.3-11.4c0-6.7,4.1-11.8,10.6-11.8C470.9,65.7,474.6,70.4,474.6,76.9z M460.5,77.3c-0.1,3.9,1.3,6.8,3.8,6.8
				c2.5,0,3.7-2.5,3.7-6.8c0-3.8-1-6.8-3.7-6.8C461.6,70.5,460.5,73.5,460.5,77.3z"/>
		</g>
	</g>
</g>
</svg>
