<?xml version="1.0" encoding="utf-8"?>
<!-- Generator: Adobe Illustrator 22.0.1, SVG Export Plug-In . SVG Version: 6.00 Build 0)  -->
<svg version="1.1" id="Layer_1" xmlns="http://www.w3.org/2000/svg" xmlns:xlink="http://www.w3.org/1999/xlink" x="0px" y="0px"
	 viewBox="0 0 587 347" style="enable-background:new 0 0 587 347;" xml:space="preserve">
<style type="text/css">
	.st0{fill:url(#SVGID_1_);}
	.st1{opacity:0.12;fill:#3D3D3D;}
	.st2{fill:#FFD522;}
	.st3{fill:#0E314E;}
	.st4{fill:#FFFFFF;}
	.st5{fill:#E77800;}
	.st6{fill:#2F1200;}
	.st7{fill:#B5BCBC;}
	.st8{fill:#DEDEDE;}
	.st9{fill:#001335;}
	.st10{opacity:0.3;fill:#001335;}
	.st11{fill:#002242;}
	.st12{fill:#EAEAEA;}
	.st13{fill:#888D8D;}
	.st14{fill:#89D8E5;}
	.st15{fill:none;stroke:#FFFFFF;stroke-width:1.3496;stroke-miterlimit:10;}
	.st16{opacity:0.2;fill:#0E314E;}
	.st17{fill:#CCCCCC;}
	.st18{fill:#DBDBDB;}
	.st19{fill:#00BDC9;}
	.st20{fill:#904993;}
	.st21{fill:#79A175;}
	.st22{fill:#87BC84;}
	.st23{fill:#799076;}
	.st24{fill:#E3D0BA;}
	.st25{fill:#FFEDD6;}
	.st26{fill:#999999;}
	.st27{fill:#BEAD9D;}
	.st28{fill:#454C53;}
	.st29{fill:#FFD01F;}
	.st30{opacity:0.38;}
</style>
<linearGradient id="SVGID_1_" gradientUnits="userSpaceOnUse" x1="293.5" y1="0" x2="293.5" y2="347">
	<stop  offset="0" style="stop-color:#FF9966"/>
	<stop  offset="1" style="stop-color:#FF5E62"/>
</linearGradient>
<rect class="st0" width="587" height="347"/>
<ellipse class="st1" cx="440.7" cy="300.8" rx="94.1" ry="4.2"/>
<g>
	<path class="st2" d="M132.2,38.5c-0.4,2.7-2.9,4.5-5.5,4.1c-2.7-0.4-4.5-2.9-4.1-5.5c0.4-2.7,2.9-4.5,5.5-4.1
		C130.8,33.3,132.6,35.8,132.2,38.5z"/>
	<path class="st3" d="M86,35.2c-0.4,2.7-2.9,4.5-5.5,4.1c-2.7-0.4-4.5-2.9-4.1-5.5c0.4-2.7,2.9-4.5,5.5-4.1
		C84.6,30,86.4,32.5,86,35.2z"/>
	<path class="st2" d="M154,56.2c-0.2,1.6-1.7,2.6-3.3,2.4c-1.6-0.2-2.6-1.7-2.4-3.2c0.2-1.6,1.7-2.6,3.2-2.4
		C153.2,53.2,154.2,54.6,154,56.2z"/>
	<polygon class="st4" points="180.2,41.8 178.4,36.9 175.2,41 170.3,42.8 174.5,46 176.3,50.9 179.4,46.7 184.3,44.9 	"/>
	<polygon class="st4" points="103,62.7 101.9,59.6 99.9,62.2 96.8,63.4 99.4,65.3 100.6,68.4 102.5,65.8 105.6,64.7 	"/>
	<polygon class="st3" points="158,20.8 156.9,17.7 154.9,20.3 151.8,21.4 154.4,23.4 155.5,26.5 157.5,23.9 160.6,22.7 	"/>
</g>
<g>
	<path class="st2" d="M35,280.2c2.3,0,4.1,1.8,4.1,4.1c0,2.3-1.8,4.1-4.1,4.1c-2.3,0-4.1-1.8-4.1-4.1C30.9,282,32.7,280.2,35,280.2z
		"/>
	<path class="st3" d="M38,319.2c2.3,0,4.1,1.8,4.1,4.1c0,2.3-1.8,4.1-4.1,4.1c-2.3,0-4.1-1.8-4.1-4.1
		C33.9,321.1,35.7,319.2,38,319.2z"/>
	<path class="st2" d="M47.1,259.7c1.3,0,2.4,1.1,2.4,2.4c0,1.3-1.1,2.4-2.4,2.4c-1.3,0-2.4-1.1-2.4-2.4
		C44.7,260.8,45.7,259.7,47.1,259.7z"/>
	<polygon class="st4" points="31.8,239.6 27.9,241.7 31.8,243.9 33.9,247.7 36,243.9 39.9,241.7 36,239.6 33.9,235.7 	"/>
	<polygon class="st4" points="58.9,301.5 56.5,302.9 58.9,304.2 60.2,306.7 61.6,304.2 64,302.9 61.6,301.5 60.2,299.1 	"/>
	<polygon class="st3" points="17,260.8 14.5,262.1 17,263.5 18.3,265.9 19.6,263.5 22.1,262.1 19.6,260.8 18.3,258.4 	"/>
</g>
<g>
	<path class="st2" d="M532.7,82.3c3.1,0,5.7,2.5,5.7,5.7c0,3.1-2.5,5.7-5.7,5.7c-3.1,0-5.7-2.5-5.7-5.7
		C527.1,84.8,529.6,82.3,532.7,82.3z"/>
	<path class="st3" d="M536.9,136.1c3.1,0,5.7,2.5,5.7,5.7c0,3.1-2.5,5.7-5.7,5.7c-3.1,0-5.7-2.5-5.7-5.7
		C531.2,138.6,533.8,136.1,536.9,136.1z"/>
	<path class="st2" d="M549.4,54.1c1.8,0,3.3,1.5,3.3,3.3c0,1.8-1.5,3.3-3.3,3.3c-1.8,0-3.3-1.5-3.3-3.3
		C546.1,55.5,547.6,54.1,549.4,54.1z"/>
	<polygon class="st4" points="528.3,26.4 522.9,29.3 528.3,32.2 531.2,37.6 534.1,32.2 539.5,29.3 534.1,26.4 531.2,21 	"/>
	<polygon class="st4" points="565.7,111.7 562.3,113.6 565.7,115.4 567.5,118.8 569.4,115.4 572.7,113.6 569.4,111.7 567.5,108.4 	
		"/>
	<polygon class="st3" points="507.9,55.5 504.5,57.4 507.9,59.2 509.7,62.6 511.6,59.2 514.9,57.4 511.6,55.5 509.7,52.2 	"/>
</g>
<g>
	<g>
		<g>
			<path class="st2" d="M496.3,128.7c-4.2,16-20.6,25.6-36.7,21.4c-16-4.2-25.6-20.6-21.4-36.7c4.2-16,20.6-25.6,36.7-21.4
				C490.9,96.3,500.5,112.7,496.3,128.7z"/>
		</g>
		<g>
			<g>
				<path class="st2" d="M491,127.3c-3.5,13.1-16.9,21-30,17.5s-21-16.9-17.5-30s16.9-21,30-17.5C486.7,100.8,494.5,114.2,491,127.3
					z"/>
				<path class="st5" d="M460.7,146.2c-13.8-3.6-22.1-17.9-18.5-31.7c3.6-13.8,17.9-22.1,31.7-18.5c13.8,3.6,22.1,17.9,18.5,31.7
					C488.7,141.5,474.5,149.8,460.7,146.2z M473.2,98.7c-12.3-3.3-25,4.1-28.3,16.5s4.1,25,16.5,28.3c12.3,3.3,25-4.1,28.3-16.5
					S485.5,101.9,473.2,98.7z"/>
			</g>
		</g>
	</g>
	<path class="st6" d="M472.4,122c1.8-0.2,3.5-1.7,4-3.7c1.2-4.6-1.3-7-5.7-8.2l-1-0.3l1-3.7c0.1-0.4-0.1-0.9-0.6-1l-0.7-0.2
		c-0.4-0.1-0.9,0.1-1,0.6l-1,3.7l-6.1-1.6l-5.9,22.4l6.1,1.6l-0.9,3.4c-0.1,0.4,0.1,0.9,0.6,1l0.7,0.2c0.4,0.1,0.9-0.1,1-0.6
		l0.9-3.4l1.4,0.4c4,1.1,8.2,0.6,9.6-4.4C475.4,125.8,474.2,123.2,472.4,122z M465.2,113.2l4.6,1.2c1.3,0.3,2,1.6,1.7,2.8
		c-0.3,1.2-1.3,2.3-3,1.9l-4.5-1.2L465.2,113.2z M466.3,128.4l-4.8-1.3l1.3-5.1l4.7,1.2c2.1,0.5,2.8,2,2.4,3.4
		C469.6,128,468.3,129,466.3,128.4z"/>
</g>
<g>
	<ellipse class="st1" cx="186.5" cy="289.3" rx="103.9" ry="15.7"/>
	<g>
		<g>
			<g>
				<rect x="146.2" y="247.5" class="st7" width="74.2" height="31"/>
				<rect x="117.8" y="278.5" class="st8" width="130.7" height="8.7"/>
				<path class="st8" d="M302.8,235.1c0,12.8-10.4,23.3-23.3,23.3H87.1c-12.8,0-23.3-10.4-23.3-23.3V114.3
					c0-12.8,10.4-23.3,23.3-23.3h192.4c12.8,0,23.3,10.4,23.3,23.3V235.1z"/>
				<path class="st3" d="M279.5,91H87.1c-12.8,0-23.3,10.4-23.3,23.3v120.8h238.9V114.3C302.8,101.4,292.4,91,279.5,91z"/>
				<path class="st9" d="M187.5,243.4c0,2.4-2,4.4-4.4,4.4c-2.4,0-4.4-2-4.4-4.4c0-2.4,2-4.4,4.4-4.4
					C185.6,239,187.5,241,187.5,243.4z"/>
				<polygon class="st10" points="146.2,258.3 146.2,278.5 220.4,266.6 220.4,258.3 				"/>
			</g>
			<path class="st11" d="M279.5,91H87.1c-12.8,0-23.3,10.4-23.3,23.3v120.8h238.9V114.3C302.8,101.4,292.4,91,279.5,91z
				 M295.8,228.1h-225V114.3c0-9,7.3-16.3,16.3-16.3h192.4c9,0,16.3,7.3,16.3,16.3V228.1z"/>
		</g>
		<g>
			<rect x="124.5" y="127.1" class="st12" width="117.5" height="77.9"/>
			<rect x="134.1" y="149" class="st13" width="61.2" height="47.3"/>
			<rect x="136.8" y="151.8" class="st4" width="55.8" height="41.8"/>
			<rect x="139.5" y="154.5" class="st14" width="50.4" height="36.4"/>
			<g>
				<line class="st15" x1="191.5" y1="172.7" x2="137.9" y2="172.7"/>
				<line class="st15" x1="150.8" y1="192.9" x2="150.8" y2="150.1"/>
				<line class="st15" x1="178.7" y1="192.9" x2="178.7" y2="150.1"/>
				<line class="st15" x1="164.7" y1="192.9" x2="164.7" y2="150.1"/>
			</g>
			<rect x="124.5" y="193.6" class="st2" width="117.5" height="11.4"/>
			<rect x="199" y="143.6" class="st13" width="31.9" height="61.4"/>
			<rect x="201.9" y="142.6" class="st4" width="26" height="62.4"/>
			<g>
				<path class="st14" d="M204.7,202.3h20.6v-57h-20.6V202.3z"/>
			</g>
			<path class="st16" d="M242,161.9h-7.5h-9.3h-9.3h-9.3h-9.3H188h-9.3h-9.3h-9.3h-9.3h-9.3h-9.3h-7.7v7.4c0.8,0.7,1.9,1.2,3,1.2
				c2.6,0,4.7-2.1,4.7-4.7c0,2.6,2.1,4.7,4.7,4.7c2.6,0,4.7-2.1,4.7-4.7c0,2.6,2.1,4.7,4.7,4.7s4.7-2.1,4.7-4.7
				c0,2.6,2.1,4.7,4.7,4.7c2.6,0,4.7-2.1,4.7-4.7c0,2.6,2.1,4.7,4.7,4.7c2.6,0,4.7-2.1,4.7-4.7c0,2.6,2.1,4.7,4.7,4.7
				c2.6,0,4.7-2.1,4.7-4.7c0,2.6,2.1,4.7,4.7,4.7c2.6,0,4.7-2.1,4.7-4.7c0,2.6,2.1,4.7,4.6,4.7c2.6,0,4.6-2.1,4.6-4.7
				c0,2.6,2.1,4.7,4.7,4.7c2.6,0,4.7-2.1,4.7-4.7c0,2.6,2.1,4.7,4.7,4.7c2.6,0,4.6-2.1,4.6-4.7c0,2.6,2.1,4.7,4.7,4.7
				s4.7-2.1,4.7-4.7c0,2.6,2.1,4.7,4.6,4.7c2.6,0,4.7-2.1,4.7-4.7c0,2.6,2.1,4.7,4.6,4.7c1.1,0,2.1-0.4,2.9-1V161.9z"/>
			<g>
				<rect x="201.9" y="175.8" class="st4" width="26" height="5.4"/>
			</g>
			<path class="st7" d="M210.2,178.3c0,0.3-0.3,0.6-0.6,0.6h-5.4c-0.3,0-0.6-0.3-0.6-0.6l0,0c0-0.3,0.3-0.6,0.6-0.6h5.4
				C210,177.7,210.2,178,210.2,178.3L210.2,178.3z"/>
			<rect x="124.5" y="131.2" class="st17" width="117.5" height="9.8"/>
			<rect x="121.3" y="127.1" class="st12" width="124" height="11.4"/>
			<g>
				<g>
					<rect x="149.7" y="111.9" class="st4" width="67.2" height="21"/>
				</g>
				<g>
					<path class="st2" d="M217.6,133.5h-68.6v-22.3h68.6V133.5z M150.4,132.2h65.9v-19.6h-65.9V132.2z"/>
				</g>
			</g>
			<g>
				<g>
					<polygon class="st4" points="233.1,142.6 133.4,142.6 113.6,157.6 252.9,157.6 					"/>
					<g>
						<polygon class="st2" points="233.1,142.6 226.4,142.6 243.6,157.6 252.9,157.6 						"/>
						<polygon class="st2" points="219.8,142.6 213.2,142.6 225.1,157.6 234.3,157.6 						"/>
						<polygon class="st2" points="206.5,142.6 199.9,142.6 206.5,157.6 215.8,157.6 						"/>
						<polygon class="st2" points="193.2,142.6 186.6,142.6 187.9,157.6 197.2,157.6 						"/>
						<polygon class="st2" points="173.3,142.6 169.3,157.6 178.6,157.6 179.9,142.6 						"/>
						<polygon class="st2" points="160,142.6 150.7,157.6 160,157.6 166.6,142.6 						"/>
						<polygon class="st2" points="146.7,142.6 132.1,157.6 141.4,157.6 153.3,142.6 						"/>
						<polygon class="st2" points="133.4,142.6 113.6,157.6 122.9,157.6 140,142.6 						"/>
					</g>
				</g>
				<g>
					<path class="st5" d="M122.9,161.6c0,2.6-2.1,4.6-4.7,4.6c-2.6,0-4.6-2.1-4.6-4.6v-4h9.3V161.6z"/>
					<path class="st18" d="M132.2,161.6c0,2.6-2.1,4.6-4.7,4.6s-4.7-2.1-4.7-4.6v-4h9.3V161.6z"/>
					<path class="st5" d="M141.5,161.6c0,2.6-2.1,4.6-4.7,4.6c-2.6,0-4.7-2.1-4.7-4.6v-4h9.3V161.6z"/>
					<path class="st18" d="M150.8,161.6c0,2.6-2.1,4.6-4.7,4.6s-4.7-2.1-4.7-4.6v-4h9.3V161.6z"/>
					<path class="st5" d="M160.1,161.6c0,2.6-2.1,4.6-4.7,4.6c-2.6,0-4.7-2.1-4.7-4.6v-4h9.3V161.6z"/>
					<path class="st18" d="M169.4,161.6c0,2.6-2.1,4.6-4.7,4.6c-2.6,0-4.7-2.1-4.7-4.6v-4h9.3V161.6z"/>
					<path class="st5" d="M178.7,161.6c0,2.6-2.1,4.6-4.7,4.6c-2.6,0-4.7-2.1-4.7-4.6v-4h9.3V161.6z"/>
					<path class="st18" d="M188,161.6c0,2.6-2.1,4.6-4.7,4.6c-2.6,0-4.7-2.1-4.7-4.6v-4h9.3V161.6z"/>
					<path class="st5" d="M197.3,161.6c0,2.6-2.1,4.6-4.6,4.6c-2.6,0-4.6-2.1-4.6-4.6v-4h9.3V161.6z"/>
					<path class="st18" d="M206.6,161.6c0,2.6-2.1,4.6-4.7,4.6c-2.6,0-4.7-2.1-4.7-4.6v-4h9.3V161.6z"/>
					<path class="st5" d="M215.9,161.6c0,2.6-2.1,4.6-4.6,4.6c-2.6,0-4.7-2.1-4.7-4.6v-4h9.3V161.6z"/>
					<path class="st18" d="M225.2,161.6c0,2.6-2.1,4.6-4.7,4.6s-4.7-2.1-4.7-4.6v-4h9.3V161.6z"/>
					<path class="st5" d="M234.5,161.6c0,2.6-2.1,4.6-4.7,4.6c-2.6,0-4.6-2.1-4.6-4.6v-4h9.3V161.6z"/>
					<path class="st18" d="M243.8,161.6c0,2.6-2.1,4.6-4.7,4.6c-2.6,0-4.6-2.1-4.6-4.6v-4h9.3V161.6z"/>
					<path class="st5" d="M253.1,161.6c0,2.6-2.1,4.6-4.6,4.6s-4.7-2.1-4.7-4.6v-4h9.3V161.6z"/>
				</g>
			</g>
		</g>
	</g>
</g>
<g>
	<polygon class="st4" points="239.1,213.7 241.5,211.3 229.6,205.9 235,217.8 237.4,215.4 240.3,218.3 242,216.6 	"/>
</g>
<path class="st4" d="M80.7,128.7L33,101.6l10.9-5.7L77.5,115c0.5,0.3,1.1,0.2,1.5-0.2l23.4-21.9c0.3-0.3,0.4-0.7,0.4-1.1
	c0-0.4-0.3-0.8-0.6-1L56.1,64.7l3.6-9.7c0.2-0.6,0-1.2-0.6-1.5l-8.3-4.7c-0.6-0.3-1.4-0.1-1.7,0.5s-0.1,1.4,0.5,1.7l7.4,4.2
	L42.8,93.5l-13.1,6.9c-0.4,0.2-0.7,0.6-0.7,1.1c0,0.5,0.2,0.9,0.6,1.1l1.9,1.1c-0.7,0.4-1.4,1.1-1.8,1.9c-1.4,2.4-0.5,5.5,1.9,6.9
	c2.4,1.4,5.5,0.5,6.9-1.9c0.5-0.8,0.7-1.7,0.7-2.5l28.9,16.4c-0.7,0.4-1.4,1.1-1.8,1.9c-1.4,2.4-0.5,5.5,1.9,6.9
	c2.4,1.4,5.5,0.5,6.9-1.9c0.5-0.8,0.7-1.7,0.7-2.5l3.7,2.1c0.6,0.3,1.4,0.1,1.7-0.5C81.5,129.8,81.3,129,80.7,128.7z M85.8,105
	l-5-2.9l4.6-8l7.5,4.3L85.8,105z M78.5,100.9l-10.5-6l4.6-8l10.5,6L78.5,100.9z M66.8,97.1l10.5,6l-3.8,6.7l-10.5-6L66.8,97.1z
	 M60.8,102.6l-10.5-6l3.8-6.7l10.5,6L60.8,102.6z M73.9,84.7l3-5.3l10.5,6l-3,5.3L73.9,84.7z M71.7,83.4l-10.5-6l3-5.3l10.5,6
	L71.7,83.4z M70.4,85.6l-4.6,8l-10.5-6l4.6-8L70.4,85.6z M53.1,86.5L49,84.1l3.2-8.8l5.5,3.1L53.1,86.5z M51.9,88.7l-3.8,6.7
	l-2.7-1.5l2.7-7.3L51.9,88.7z M77.9,112.3l-2.2-1.3l3.8-6.7l4.3,2.5L77.9,112.3z M94.8,96.6l-8.2-4.7l3-5.3l9.9,5.6L94.8,96.6z
	 M61.9,71l-3,5.3l-5.9-3.3l2.1-5.7L61.9,71z M36.3,109.3c-0.7,1.2-2.2,1.6-3.4,0.9c-1.2-0.7-1.6-2.2-0.9-3.4
	c0.7-1.2,2.2-1.6,3.4-0.9C36.6,106.6,37,108.1,36.3,109.3z M72.8,130.1c-0.7,1.2-2.2,1.6-3.4,0.9c-1.2-0.7-1.6-2.2-0.9-3.4
	c0.7-1.2,2.2-1.6,3.4-0.9C73.1,127.3,73.5,128.9,72.8,130.1z"/>
<g>
	<rect x="357.9" y="164.2" class="st2" width="104.9" height="114.6"/>
	<polygon class="st3" points="527.9,277 527.9,248.8 519.1,246.6 503.3,206.5 462.7,206.5 462.7,263.3 357.9,263.3 357.9,278.8 
		357.9,283.1 357.9,286.7 535,286.7 535,277 	"/>
	<g>
		<path class="st19" d="M383.9,269.2c-9.7,0-17.5,7.8-17.5,17.5h35C401.4,277.1,393.6,269.2,383.9,269.2z"/>
		<path class="st3" d="M399.5,286.7c0,8.6-7,15.6-15.6,15.6s-15.6-7-15.6-15.6c0-8.6,7-15.6,15.6-15.6S399.5,278.1,399.5,286.7z"/>
		<path class="st2" d="M392.1,286.7c0,4.5-3.6,8.1-8.1,8.1c-4.5,0-8.1-3.6-8.1-8.1c0-4.5,3.6-8.1,8.1-8.1
			C388.4,278.6,392.1,282.2,392.1,286.7z"/>
		<path class="st19" d="M389.1,286.7c0,2.9-2.3,5.2-5.2,5.2c-2.9,0-5.2-2.3-5.2-5.2c0-2.9,2.3-5.2,5.2-5.2
			C386.8,281.5,389.1,283.9,389.1,286.7z"/>
	</g>
	<g>
		<path class="st19" d="M493.7,269.2c-9.7,0-17.5,7.8-17.5,17.5h35C511.2,277.1,503.4,269.2,493.7,269.2z"/>
		<path class="st3" d="M509.3,286.7c0,8.6-7,15.6-15.6,15.6c-8.6,0-15.6-7-15.6-15.6c0-8.6,7-15.6,15.6-15.6
			C502.3,271.2,509.3,278.1,509.3,286.7z"/>
		<path class="st2" d="M501.9,286.7c0,4.5-3.6,8.1-8.1,8.1c-4.5,0-8.1-3.6-8.1-8.1c0-4.5,3.6-8.1,8.1-8.1
			C498.2,278.6,501.9,282.2,501.9,286.7z"/>
		<path class="st19" d="M498.9,286.7c0,2.9-2.3,5.2-5.2,5.2c-2.9,0-5.2-2.3-5.2-5.2c0-2.9,2.3-5.2,5.2-5.2
			C496.6,281.5,498.9,283.9,498.9,286.7z"/>
	</g>
	<polygon class="st19" points="509.5,243.4 498.9,213 467.2,213 467.2,243.4 	"/>
	<g>
		<path class="st4" d="M383.1,193c0-5.9,3-9.2,8.7-9.2c5.7,0,8.7,3.3,8.7,9.2V212c0,5.9-3,9.2-8.7,9.2c-5.7,0-8.7-3.3-8.7-9.2V193z
			 M388.9,212.4c0,2.6,1.1,3.6,3,3.6c1.8,0,3-1.1,3-3.6v-19.7c0-2.5-1.1-3.6-3-3.6c-1.9,0-3,1.1-3,3.6V212.4z M414.6,184.2h5.3
			l-22.7,57.6h-5.4L414.6,184.2z M411.7,214.1c0-5.9,3-9.2,8.7-9.2c5.7,0,8.7,3.3,8.7,9.2V233c0,5.9-3,9.2-8.7,9.2
			c-5.7,0-8.7-3.3-8.7-9.2V214.1z M417.4,233.4c0,2.6,1.1,3.6,3,3.6c1.8,0,3-1.1,3-3.6v-19.7c0-2.6-1.1-3.6-3-3.6
			c-1.9,0-3,1.1-3,3.6V233.4z"/>
	</g>
</g>
<g>
	<g>
		<g>
			<path class="st2" d="M460.6,46.5c1.6,13.1-7.7,25-20.8,26.6c-13.1,1.6-25-7.7-26.6-20.8c-1.6-13.1,7.7-25,20.8-26.6
				C447.1,24.1,459,33.4,460.6,46.5z"/>
		</g>
		<g>
			<g>
				<path class="st2" d="M456.3,47c1.3,10.7-6.3,20.5-17.1,21.8s-20.5-6.3-21.8-17.1s6.3-20.5,17.1-21.8
					C445.3,28.7,455,36.3,456.3,47z"/>
				<path class="st5" d="M439.4,69.9c-11.3,1.4-21.6-6.7-23-18c-1.4-11.3,6.7-21.6,18-23c11.3-1.4,21.6,6.7,23,18
					C458.8,58.2,450.7,68.5,439.4,69.9z M434.7,31.1c-10.1,1.2-17.3,10.4-16.1,20.5c1.2,10.1,10.4,17.3,20.5,16.1
					c10.1-1.2,17.3-10.4,16.1-20.5C454,37.1,444.8,29.9,434.7,31.1z"/>
			</g>
		</g>
	</g>
	<path class="st6" d="M441,48.6c1.3-0.7,2.1-2.3,1.9-3.9c-0.5-3.8-3-4.8-6.6-4.4l-0.8,0.1l-0.4-3c0-0.3-0.4-0.6-0.7-0.6l-0.6,0.1
		c-0.3,0-0.6,0.4-0.6,0.7l0.4,3l-4.9,0.6l2.2,18.3l4.9-0.6l0.3,2.8c0,0.3,0.4,0.6,0.7,0.6l0.6-0.1c0.3,0,0.6-0.4,0.6-0.7l-0.3-2.8
		l1.1-0.1c3.3-0.4,6.3-2,5.8-6.1C444.3,50.5,442.6,48.9,441,48.6z M433,44.1l3.7-0.5c1.1-0.1,2,0.6,2.1,1.6c0.1,1-0.3,2.1-1.7,2.3
		l-3.7,0.4L433,44.1z M438.3,55.1l-3.9,0.5l-0.5-4.2l3.9-0.5c1.7-0.2,2.6,0.7,2.8,1.8C440.7,53.8,440,54.9,438.3,55.1z"/>
</g>
<g>
	<path class="st2" d="M231.6,85.6c0,0-6.2-22.2-9.7-26.8l3.6-1.9c0,0,5.4,5.7,14,4.3l3.3,22.8L231.6,85.6z"/>
	<path class="st2" d="M231.6,85.6c0,0-10.1,1.5-3.5,39c0,0,6.5,2.7,13-1.9c0,0,5.2,1.3,7.5,0.5l-5.8-39.3L231.6,85.6z"/>
	<path class="st5" d="M221.9,58.8c0,0-7.6,0.2-5.7,6.8l1.6,2.7c0,0,4.6-2.9,7.9-1.2C225.7,67.1,227.1,60.4,221.9,58.8z"/>
	<path class="st2" d="M254,82.3c0,0-0.4-23.1,1.6-28.5l-4-0.8c0,0-3.5,7-12.1,8.1l3.3,22.8L254,82.3z"/>
	<path class="st2" d="M254,82.3c0,0,10.1-1.5,14.5,36.3c0,0-5.4,4.5-13,1.9c0,0-4.6,2.8-7,2.7l-5.8-39.3L254,82.3z"/>
	<path class="st5" d="M255.6,53.8c0,0,7.3-1.9,7.4,4.9l-0.8,3c0,0-5.3-1.5-7.9,1.2C254.3,62.9,251.1,56.9,255.6,53.8z"/>
	<polygon class="st20" points="254,82.3 231.6,85.6 230.8,83 254,79.6 	"/>
	<path class="st5" d="M238.9,123.9c0,0-4.8-23.7-3.4-30.6c0,0,5.7,21.4,6.1,29.4C241.6,122.8,241.1,122.2,238.9,123.9z"/>
	<path class="st5" d="M257.8,121.2c0,0-1.9-24.1-5.1-30.3c0,0,0.4,22.1,2.2,30C254.9,120.8,255.3,120.1,257.8,121.2z"/>
</g>
<g>
	<path class="st21" d="M227.4,262.2c0,0,9.4,6.6,14.7,13.6c0,0,6.1,9.3,7.3,10.8c0,0,4.4,9.6,13.7,5.5c0,0-5.1,6.3-12.2,1.3
		c0,0-7.6-3-8.2-10.3C242.7,283.1,228,266.7,227.4,262.2z"/>
	<path class="st22" d="M228.1,261.5c0,0-10.9,6.4-6.2,20.5c0,0,2.1,6.9,2.5,26h3.7c0,0-1.2-18.7-0.8-22.3c0,0,0.9-4.2,4.4-0.9
		c0,0,6.2,5.7,10.2,12.8c0,0,3.1,10.3,8.2,11.1c0,0,15.5,1.8,22.2-2.4c0,0,5.8-10.6,0.6-10.9c0,0-8.9-2.8-10.1-2.9
		c0,0-7.1,7.3-14.9-1.6c0,0-8.1-13.9-8.9-14.8C239,276.2,235.7,269.5,228.1,261.5z"/>
	<path class="st23" d="M244.8,303.3c0,0,17.3,3.1,29.6-1.4l-1.5,3.6c0,0-4,3.8-22.1,3C250.8,308.6,247.9,308.5,244.8,303.3z"/>
	<path class="st23" d="M224.1,305c0,0,1.2,0.9,3.6-0.1l0.3,3.7l-3.7,0.1L224.1,305z"/>
</g>
<g>
	<path class="st21" d="M317.5,278.8c0,0-9.7,7.4-15.2,15.2c0,0-6.3,10.4-7.6,12.1c0,0-4.5,10.7-14.3,6.2c0,0,5.3,7,12.6,1.4
		c0,0,7.8-3.4,8.5-11.5C301.6,302.2,316.8,283.9,317.5,278.8z"/>
	<path class="st22" d="M316.8,278.1c0,0,11.3,7.1,6.4,22.9c0,0-2.2,7.7-2.6,29h-3.8c0,0,1.2-20.9,0.8-24.9c0,0-1-4.6-4.6-1
		c0,0-6.4,6.3-10.6,14.3c0,0-3.3,11.5-8.5,12.4c0,0-16.1,2-23-2.7c0,0-6-11.8-0.6-12.1c0,0,9.2-3.1,10.5-3.2c0,0,7.3,8.1,15.5-1.8
		c0,0,8.4-15.5,9.2-16.5C305.4,294.5,308.9,287,316.8,278.1z"/>
	<path class="st23" d="M299.4,324.8c0,0-17.9,3.5-30.7-1.5l1.6,4.1c0,0,4.1,4.2,23,3.4C293.2,330.7,296.2,330.6,299.4,324.8z"/>
	<path class="st23" d="M320.9,326.7c0,0-1.2,1-3.7-0.1l-0.3,4.2l3.8,0.1L320.9,326.7z"/>
</g>
<g>
	<path class="st5" d="M324.3,49.8c0,0.9,0.5,4.1,1.8,4.1c1,0,2.3-2.2,2.7-3.1c0.7-1.8,0.7-4,1-5.9c0.9-4.7,4.6-12,9.1-14.3
		c0,0,3.6-1.9,5.7-1.9l-0.6-2.6c-0.1-0.5-5.9,2.2-6.3,2.4c-5.9,3.6-9.3,10.3-11.9,16.5C325.2,46.4,324.3,48.2,324.3,49.8z"/>
	<path class="st2" d="M389.4,71.9c-10.2-26.5-17-28.7-17-28.7c-3.2-0.7-7.4,8.8-7.4,8.8c-0.9,2.1-4.8,2.5-6.7,2.8
		c-3.8,0.6-7.5,0.5-11.1,1.9c-2.7,1-5.7,2-8.5,2.2c-1,0.1-2.5,0.2-3.3-0.6c0,0-7.7-7-10.4-5c0,0-5.3,4.7-3.7,33.1
		c0,0-0.5,14.6,15.4,11.7l21.7-4.7l21.7-4.7C395.8,85,389.4,71.9,389.4,71.9z"/>
	<path class="st5" d="M371.7,39.7c0.3,0.8,1.2,4,0.1,4.4c-0.9,0.4-3.1-1.1-3.7-1.7c-1.3-1.4-2.2-3.4-3.4-5
		c-2.8-3.9-9.1-9.1-14.1-9.4c0,0-4.1-0.2-6,0.6l-0.6-2.6c-0.1-0.5,6.3-0.4,6.7-0.4c6.9,0.9,12.7,5.6,17.6,10.2
		C369.5,36.9,371,38.2,371.7,39.7z"/>
	<path class="st5" d="M337.2,59c0,0,4,0.2,8-1.5c0,0,6-2.5,10.3-2.3c0,0,6.9-0.7,8.1-1.8c0,0-0.2,17.4-6.9,20.9l-5.7,1.2
		C351,75.5,342.1,72.7,337.2,59z"/>
	<g>
		<path class="st24" d="M352.3,73.2c0,0-3.9-3.3-7.7-4c0,0-5.9,7.7,3.4,15.9c0,0,4-2.8,5.9-7L352.3,73.2z"/>
		<path class="st24" d="M355.7,72.5c0,0,2.2-4.6,5.4-6.8c0,0,8.5,4.6,3.4,15.9c0,0-4.8-0.9-8.3-4L355.7,72.5z"/>
		<path class="st25" d="M355.7,72.3c0,0,3.6-5.1,9.4-6.1c0,0,2.7,4.4,3,7.6l0.4,5.6c0,0-10.1,0.1-11.7-1.8L355.7,72.3z"/>
		<path class="st26" d="M365.1,70.1c0,0-5.7,1.1-7.9,4c0,0-0.4,0.5,0.3,1.3c0,0,0.8,0.7,0.6-0.7c0,0-0.2-1.6,3-2.8
			C361.1,71.9,368,69.2,365.1,70.1z"/>
		<path class="st27" d="M352.1,73.1c0,0,1.7-0.9,3.6-0.8l1.1,5.2c0,0-1.4,1.1-3.6,0.8L352.1,73.1z"/>
		<path class="st25" d="M352.3,73c0,0-5.4-3.2-11.1-1.7c0,0-0.6,5.2,0.4,8.2l1.9,5.3c0,0,9.2-4.1,10-6.5L352.3,73z"/>
		<path class="st26" d="M342.7,74.9c0,0,5.6-1.3,8.9,0.4c0,0,0.6,0.3,0.3,1.3c0,0-0.4,1-0.8-0.3c0,0-0.5-1.6-3.9-1.3
			C347.2,74.8,339.8,75.3,342.7,74.9z"/>
	</g>
</g>
<g>
	<path class="st28" d="M313.3,194.4l-24.6-8.1c-2.9-0.9-4.5-4.1-3.5-6.9l17-51.6c0.9-2.9,4.1-4.5,6.9-3.5l24.6,8.1
		c2.9,0.9,4.5,4.1,3.5,6.9l-17,51.6C319.3,193.8,316.2,195.4,313.3,194.4z"/>
	
		<rect x="296" y="134.4" transform="matrix(0.9499 0.3127 -0.3127 0.9499 64.827 -89.6509)" class="st29" width="31.8" height="45.7"/>
	<polygon class="st30" points="319.9,184 289.7,174.1 334.2,140.5 	"/>
	
		<rect x="303.2" y="134.2" transform="matrix(0.9499 0.3127 -0.3127 0.9499 58.3925 -92.9765)" class="st4" width="31.8" height="2.8"/>
	<ellipse transform="matrix(0.997 -7.718414e-02 7.718414e-02 0.997 -13.3134 23.9407)" cx="303.1" cy="184.2" rx="3.9" ry="3.9"/>
	<circle class="st28" cx="303.1" cy="184.2" r="1.8"/>
	<path d="M323.6,133.3l-6.9-2.3c-0.4-0.1-0.7-0.6-0.5-1.1l0,0c0.1-0.4,0.6-0.7,1.1-0.5l6.9,2.3c0.4,0.1,0.7,0.6,0.5,1.1l0,0
		C324.5,133.2,324.1,133.4,323.6,133.3z"/>
</g>
</svg>
