<?xml version="1.0" encoding="utf-8"?>
<!-- Generator: Adobe Illustrator 16.0.0, SVG Export Plug-In . SVG Version: 6.00 Build 0)  -->
<!DOCTYPE svg PUBLIC "-//W3C//DTD SVG 1.1//EN" "http://www.w3.org/Graphics/SVG/1.1/DTD/svg11.dtd">
<svg version="1.1" id="Layer_2" xmlns="http://www.w3.org/2000/svg" xmlns:xlink="http://www.w3.org/1999/xlink" x="0px" y="0px"
	 width="253.174px" height="128.345px" viewBox="0 0 253.174 128.345" enable-background="new 0 0 253.174 128.345"
	 xml:space="preserve">
<g id="Post_2_">
	<path fill="none" stroke="#000000" stroke-linecap="round" stroke-linejoin="round" stroke-miterlimit="10" d="M163.804,34.696
		c1.814,23.197,1.898,46.701,2.213,69.967c0.041,3.035,0.143,0.947,0.143,5.012"/>
	<path fill="none" stroke="#000000" stroke-linecap="round" stroke-linejoin="round" stroke-miterlimit="10" d="M227.57,24.161
		c-8.133,1.109-13.564,2.8-19.605,3.763c-7.027,1.121-14.021,2.475-21.023,3.744c-8.568,1.552-14.023,2.354-23.137,3.028"/>
	<path fill="none" stroke="#000000" stroke-linecap="round" stroke-linejoin="round" stroke-miterlimit="10" d="M229.417,111.862
		c-0.48-13.105-0.217-26.656-0.951-38.91c-0.768-12.793-0.686-19.537-0.896-32.341c-0.072-4.444-0.074-12.005,0-16.45"/>
	<path fill="none" stroke="#000000" stroke-linecap="round" stroke-linejoin="round" stroke-miterlimit="10" d="M169.041,49.421
		c0,9.856,0.512,23.345,0.863,32.405c0.33,8.49,0.396,12.895,0.633,21.387c0.086,3.055,0.215,4.305,0.219,7.354"/>
	<path fill="none" stroke="#000000" stroke-linecap="round" stroke-linejoin="round" stroke-miterlimit="10" d="M221.41,40.81
		c-5.35,1.438-11.504,2.339-17.191,3.3c-4.867,0.822-11.127,1.772-16.018,2.451c-6.629,0.92-12.525,2.18-19.16,2.86"/>
	<path fill="none" stroke="#000000" stroke-linecap="round" stroke-linejoin="round" stroke-miterlimit="10" d="M221.41,40.81
		c0.787,21.509,2.037,50.382,2.711,56.296c0.322,2.828,0.609,10.891,0.674,13.461"/>
	<path fill="none" stroke="#000000" stroke-linecap="round" stroke-linejoin="round" stroke-miterlimit="10" d="M186.291,34.635
		c-2.814-0.766-7.609,1.185-4.006,3.786c1.359,0.979,8.182,2.848,4.148,5.934c-1.586,1.213-4.215-0.121-5.07-1.588"/>
	<path fill="none" stroke="#000000" stroke-linecap="round" stroke-linejoin="round" stroke-miterlimit="10" d="M188.263,33.526
		c-0.041,3.539,0.463,7.868,1.109,11.214"/>
	<path fill="none" stroke="#000000" stroke-linecap="round" stroke-linejoin="round" stroke-miterlimit="10" d="M191.835,33.033
		c0.449,3.384,0.326,8.243,1.232,11.089"/>
	<path fill="none" stroke="#000000" stroke-linecap="round" stroke-linejoin="round" stroke-miterlimit="10" d="M188.878,39.07
		c1.07-0.344,2.217-0.591,3.326-0.739"/>
	<path fill="none" stroke="#000000" stroke-linecap="round" stroke-linejoin="round" stroke-miterlimit="10" d="M197.875,32.91
		c-5.486-0.831-5.355,9.718-1.555,9.921c3.676,0.195,4.32-8.483,1.555-10.045"/>
	<path fill="none" stroke="#000000" stroke-linecap="round" stroke-linejoin="round" stroke-miterlimit="10" d="M201.201,31.923
		c0.471,2.664,0.312,5.5,0.484,8.206c0.049,0.749,0.014,3.839,0.254,2.761"/>
	<path fill="none" stroke="#000000" stroke-linecap="round" stroke-linejoin="round" stroke-miterlimit="10" d="M201.939,37.521
		c7.025-2.825,4.143-7.977-0.861-5.845"/>
</g>
<polygon fill="#D72D27" points="73.4,77.61 73.4,83.36 70.258,93.528 75.925,103.235 84.534,102.922 80.03,84.372 80.597,77.915 "/>
<path fill="#FFFFFF" stroke="#000000" stroke-linecap="round" stroke-linejoin="round" stroke-miterlimit="10" d="M73.019,98.002
	c0.093-0.756,0.055-1.488,0.193-1.967c1.569-5.469,2.263-8.703,2.194-11.031c-0.085-2.902-0.081-8.443-1.561-8.174
	c-2.821,0.516-0.839,6.143-1.066,9.061c-0.268,3.439-0.553,4.695-1.793,8.881"/>
<polygon fill="#D72D27" points="61.472,86.317 61.227,79.922 67.353,80.088 67.947,86.766 "/>
<polygon fill="#D72D27" points="61.472,89.829 58.064,103.797 54.393,104.778 57.016,91.942 50.722,105.975 59.661,108.547 
	75.755,105.975 67.947,89.829 "/>
<polygon fill="#D72D27" points="36.347,80.725 42.722,80.678 43.136,86.497 37.785,86.95 "/>
<polygon fill="#D72D27" points="37.472,89.829 33.971,102.743 30.798,102.047 34.312,91.483 25.873,106.506 35.724,108.547 
	49.055,107.422 49.679,103.383 42.847,89.622 "/>
<path fill="none" stroke="#000000" stroke-linecap="round" stroke-linejoin="round" stroke-miterlimit="10" d="M59.903,79.067
	c-4.339-0.191-11.189-4.82-11.189-10.684c0-6.947,3.229-14.4,12.934-15.206c13.643-1.133,15.734,10.39,14.108,16.745
	c-1.746,6.826-9.154,9.145-9.154,9.145"/>
<path fill="none" stroke="#000000" stroke-linecap="round" stroke-linejoin="round" stroke-miterlimit="10" d="M54.559,85.405"/>
<path fill="none" stroke="#000000" stroke-linecap="round" stroke-linejoin="round" stroke-miterlimit="10" d="M25.502,106.471
	c3.258-7.59,6.061-10.5,9.094-17.518c0.433-1.002-0.796-3.014-0.797-5.545c-0.001-2.766,2.214-3.08,2.214-3.08
	c-5.059-0.803-11.25-6.359-11.25-11.281c0-3.417,1.859-9.878,6.542-13.167c5.686-3.994,14.463-3.03,19.417,2.292"/>
<path fill="none" stroke="#000000" stroke-linecap="round" stroke-linejoin="round" stroke-miterlimit="10" d="M51.078,52.85
	c1.067-0.468,3.436-1.224,5.031-0.209"/>
<path fill="none" stroke="#000000" stroke-linecap="round" stroke-linejoin="round" stroke-miterlimit="10" d="M63.404,51.559
	c1.833-1.102,4.322-1.12,6.183-0.104"/>
<path fill="none" stroke="#000000" stroke-linecap="round" stroke-linejoin="round" stroke-miterlimit="10" d="M70.985,53.426
	c5.241-2.291,13.116-1.595,16.533,4.997"/>
<path fill="none" stroke="#000000" stroke-linecap="round" stroke-linejoin="round" stroke-miterlimit="10" d="M77.955,31.143
	c-7.71-4.22-17.693-4.896-22.111,3.922"/>
<path fill="none" stroke="#000000" stroke-linecap="round" stroke-linejoin="round" stroke-miterlimit="10" d="M69.771,34.382
	c-1.559-2.002-5.679-13.73-6.551-13.686"/>
<path fill="none" stroke="#000000" stroke-linecap="round" stroke-linejoin="round" stroke-miterlimit="10" d="M65.403,33.119
	c-1.67-1.769-6-10.509-6.913-10.377"/>
<path fill="none" stroke="#000000" stroke-linecap="round" stroke-linejoin="round" stroke-miterlimit="10" d="M62.784,34.189
	c-3.404-1.432-7.179-5.663-10.045-8.003"/>
<g id="Merchant_2_">
	<path fill="none" stroke="#000000" stroke-linecap="round" stroke-linejoin="round" stroke-miterlimit="10" d="M179.755,57.774
		c0.91,7.512-0.736,15.922,7.023,19.961c7.189,3.742,15.277,2.145,19.531-4.867c2.279-3.758,3.016-7.865,2.916-12.16"/>
	<path fill="none" stroke="#000000" stroke-linecap="round" stroke-linejoin="round" stroke-miterlimit="10" d="M180.371,57.774
		c-2.279,0-13.461,0-6.23-2.895c6.398-2.562,28.996-5.546,32.092-3.006c5.266,4.324,2.994,8.834,2.994,8.834
		c-2.67,0.526-7.871,0.48-10.584,0.389c-4.061-0.137-11.74,0.006-12.096-0.975s5.785-2.504,7.635-2.84
		C194.181,57.282,183.968,57.774,180.371,57.774z"/>
	<path fill="none" stroke="#000000" stroke-linecap="round" stroke-linejoin="round" stroke-miterlimit="10" d="M177.722,63.442
		c0.078,3.154,1.303,6.548,4.854,7.097c3.201,0.496,5.598-1.975,6.064-4.949c0.115-0.729,0.104-1.479,0.172-2.211
		C185.564,63.38,181.234,63.38,177.722,63.442z"/>
	<path fill="none" stroke="#000000" stroke-linecap="round" stroke-linejoin="round" stroke-miterlimit="10" d="M191.955,63.442
		c0.078,3.154,2.346,6.785,5.914,7.212c4.561,0.551,7.023-2.283,7.578-4.253c0.344-1.223,0.426-2.289,0.492-3.021
		C202.691,63.38,195.466,63.38,191.955,63.442z"/>
	<path fill="none" stroke="#000000" stroke-linecap="round" stroke-linejoin="round" stroke-miterlimit="10" d="M188.875,64.552
		c1.227-0.848,1.99-0.371,3.08,0.309"/>
	<path fill="none" stroke="#000000" stroke-linecap="round" stroke-linejoin="round" stroke-miterlimit="10" d="M187.994,74.209
		c0.088,3.783,6.582,4.539,6.891,0H187.994z"/>
	<path fill="none" stroke="#000000" stroke-linecap="round" stroke-linejoin="round" stroke-miterlimit="10" d="M181.666,59.4
		c0.256-0.77,1.602-0.937,2.094,0.063"/>
	<path fill="none" stroke="#000000" stroke-linecap="round" stroke-linejoin="round" stroke-miterlimit="10" d="M181.974,63.567
		c-0.031,0.76-0.217,1.48,0.285,1.969c0.367-0.428,0.268-1.186,0.268-1.908"/>
	<path fill="none" stroke="#000000" stroke-linecap="round" stroke-linejoin="round" stroke-miterlimit="10" d="M196.39,63.813
		c0.041,0.543,0,1.51,0.432,1.723c0.309-0.367,0.129-1.287,0.123-1.846"/>
	<path fill="none" stroke="#000000" stroke-linecap="round" stroke-linejoin="round" stroke-miterlimit="10" d="M193.925,79.768
		c0.002,0.811-0.154,1.975,0.186,2.588"/>
	<path fill="none" stroke="#000000" stroke-linecap="round" stroke-linejoin="round" stroke-miterlimit="10" d="M195.652,79.768
		c0.02,0.848-0.066,1.912,0.061,2.711"/>
	<path fill="none" stroke="#000000" stroke-linecap="round" stroke-linejoin="round" stroke-miterlimit="10" d="M200.333,78.352
		c0,1.406-0.152,2.951,0.123,4.312"/>
	<path fill="none" stroke="#000000" stroke-linecap="round" stroke-linejoin="round" stroke-miterlimit="10" d="M202.552,77.182
		c-0.023,0.918-0.52,5.064-0.062,5.236"/>
	<path fill="none" stroke="#000000" stroke-linecap="round" stroke-linejoin="round" stroke-miterlimit="10" d="M200.279,82.538
		c0.812,0.127,1.592,0.053,2.391,0.146c-0.086,1.781-2.441,1.576-2.268-0.133"/>
	<path fill="none" stroke="#000000" stroke-linecap="round" stroke-linejoin="round" stroke-miterlimit="10" d="M193.685,82.545
		c0.82,0.057,1.592-0.086,2.396-0.061c0.064,1.781-2.299,1.781-2.271,0.062"/>
	<path fill="none" stroke="#000000" stroke-linecap="round" stroke-linejoin="round" stroke-miterlimit="10" d="M196.267,82.542
		c1.139,0.16,2.598,0.084,3.758,0.123"/>
	<path fill="none" stroke="#000000" stroke-linecap="round" stroke-linejoin="round" stroke-miterlimit="10" d="M193.619,82.542
		c0.332,7.797,0.389,15.621,1.012,23.402c0.084,1.053-0.002,1.066,0.172,2.107"/>
	<path fill="none" stroke="#000000" stroke-linecap="round" stroke-linejoin="round" stroke-miterlimit="10" d="M205.388,105.674
		c-3.092,0.688-7.854,0.277-10.662,0.277"/>
	<path fill="none" stroke="#000000" stroke-linecap="round" stroke-linejoin="round" stroke-miterlimit="10" d="M204.031,76.256
		c3.449,0.432,2.658,5.533,3.695,7.395"/>
	<path fill="none" stroke="#000000" stroke-linecap="round" stroke-linejoin="round" stroke-miterlimit="10" d="M192.017,79.708
		c-0.23,1.109-0.539,2.48-0.309,3.572"/>
	<path fill="none" stroke="#000000" stroke-linecap="round" stroke-linejoin="round" stroke-miterlimit="10" d="M193.679,83.28
		c-0.691-0.023-1.344,0.055-2.033,0.062"/>
	<path fill="none" stroke="#000000" stroke-linecap="round" stroke-linejoin="round" stroke-miterlimit="10" d="M195.097,88.333
		c1.447-0.148,3.85-0.018,5.268,0"/>
	<path fill="none" stroke="#000000" stroke-linecap="round" stroke-linejoin="round" stroke-miterlimit="10" d="M206.742,83.897
		c0.721,7.072,0.355,14.494,0.449,21.621c0.016,1.162,0.018,0.758,0.014,2.129"/>
	<path fill="none" stroke="#000000" stroke-linecap="round" stroke-linejoin="round" stroke-miterlimit="10" d="M199.902,106.077
		c0.082,1.018,0.082,1.018,0.139,1.57"/>
	<path fill="none" stroke="#000000" stroke-linecap="round" stroke-linejoin="round" stroke-miterlimit="10" d="M205.759,94.155
		c0.369,0.053,1.051,0.051,1.443,0"/>
	<path fill="none" stroke="#000000" stroke-linecap="round" stroke-linejoin="round" stroke-miterlimit="10" d="M205.759,96.188
		c0.354,0.012,1.004,0.062,1.42-0.076"/>
	<path fill="none" stroke="#000000" stroke-linecap="round" stroke-linejoin="round" stroke-miterlimit="10" d="M192.664,83.342
		c0.115,0.697-0.008,0.898-0.023,1.68c-1.721,0.047-2.844,0.109-4.568,0.109c-1.834,0-2.309-0.041-2.309-0.041
		c-0.766-1.439-1.07-6.146-2.219-5.887c-2.203,0.496-1.629,3.307-1.316,5.531c0.238,1.701,1.586,1.797,2.459,1.906
		c0,0,1.588,0.041,3.156,0.115c2.154,0.102,3.119,0.084,5.836,0.084"/>
	<path fill="#FFFFFF" d="M196.341,92.063c0,0-4.615-3.104-10.729-3.277c0,0-1.188,1.596-2.01,5.068c0,0,0.771,3.385,1.137,3.631
		c0,0,7.303-1.955,8.691-1.252c0,0-2.109-0.512-0.279-2.525l1.332-0.891L196.341,92.063z"/>
	<path fill="#FFFFFF" stroke="#000000" stroke-miterlimit="10" d="M203.664,83.831c0.219,1.135-0.318,4.141-2.463,6.154
		c-1.133,1.062-3.766,2.479-3.766,2.479c-6.709-0.666-6.125,6.291,0.955,1.646c0,0,2.68-0.84,4.529-2.375
		c1.525-1.268,1.92-1.895,2.523-3.062c0.326-0.633,0.316-3.248,0.316-4.785"/>
	<path fill="none" stroke="#000000" stroke-linecap="round" stroke-linejoin="round" stroke-miterlimit="10" d="M202.919,82.418
		c0.027,0.395,0.193,0.879,0.258,1.283c1.434,0.033,2.877,0.07,4.303,0.072"/>
	<path fill="none" stroke="#000000" stroke-linecap="round" stroke-linejoin="round" stroke-miterlimit="10" d="M189.556,100.028"/>
	<path fill="none" stroke="#000000" stroke-linecap="round" stroke-linejoin="round" stroke-miterlimit="10" d="M188.078,100.028"/>
	<path fill="none" stroke="#000000" stroke-linecap="round" stroke-linejoin="round" stroke-miterlimit="10" d="M205.443,88.672
		c-0.051,2.055-0.055,4.018-0.055,7.58c0,2.643,0.121,6.535,0,9.422"/>
	<path fill="none" stroke="#000000" stroke-linecap="round" stroke-linejoin="round" stroke-miterlimit="10" d="M194.826,92.577
		c-2.602-0.961-5.758-0.557-8.27-0.07c-0.658,1.264-1.729,4.885-1.729,4.885c3.213-0.928,4.842-1.402,8.217-1.514"/>
	<path fill="none" stroke="#000000" stroke-width="0.6" stroke-linecap="round" stroke-linejoin="round" stroke-miterlimit="10" d="
		M183.544,93.387c0.693-2.025,1.363-3.445,2.068-4.602c0,0,6.404,0.324,10.654,3.207"/>
	<path fill="none" stroke="#000000" stroke-width="0.4" stroke-linecap="round" stroke-linejoin="round" stroke-miterlimit="10" d="
		M183.839,95.081c0.357-1.256,1.527-4.209,2.143-5.543c0,0,1.82,0.033,4.035,0.623"/>
	<path fill="none" stroke="#000000" stroke-width="0.4" stroke-linecap="round" stroke-linejoin="round" stroke-miterlimit="10" d="
		M184.126,96.395c0.508-1.793,1.475-4.344,2.188-5.963c0,0,3.385,0.143,5.703,0.654"/>
	<path fill="none" stroke="#000000" stroke-width="0.5" stroke-linecap="round" stroke-linejoin="round" stroke-miterlimit="10" d="
		M193.451,93.188c-1.434-0.066-1.922-0.113-3.623,0.109c-0.271,0.035-2.377,0.469-2.377,0.469c-0.244,0.439-0.668,1.531-0.75,1.953
		c0,0,2.066-0.621,3.771-0.857c0.5-0.07,1.916-0.17,2.26-0.17"/>
	<path fill="none" stroke="#000000" stroke-width="0.5" stroke-linecap="round" stroke-linejoin="round" stroke-miterlimit="10" d="
		M191.263,93.485c-0.436-0.438-1.102,0.279-0.986,0.752c0.227,0.947,1.793-0.115,0.877-0.799"/>
	
		<path fill="#FFFFFF" stroke="#000000" stroke-width="0.9" stroke-linecap="round" stroke-linejoin="round" stroke-miterlimit="10" d="
		M184.126,84.579c0.221-0.598,0.496-0.898,0.57-1.531c0.064-0.537-0.115-1.434,0.627-1.553c0.518,0.939,0.797,2.855,0.254,3.848"/>
</g>
<path fill="none" stroke="#000000" stroke-linecap="round" stroke-linejoin="round" stroke-miterlimit="10" d="M49.48,106.077
	c3.276-7.654,5.569-11.146,10.181-18.209c-1.897-3.713-0.695-7.246,1.278-8.664"/>
<path fill="none" stroke="#000000" stroke-linecap="round" stroke-linejoin="round" stroke-miterlimit="10" d="M76.938,106.506
	c-3.788-7.756-3.964-8.367-6.68-12.979c-1.126-1.912-2.57-4.465-2.269-5.941c0.938-4.592,0.899-6.893-1.851-8.373"/>
<path fill="none" stroke="#000000" stroke-linecap="round" stroke-linejoin="round" stroke-miterlimit="10" d="M49.679,106.34
	c3.915,2.25,6.764,2.627,12.848,2.799c5.3,0.152,9.364-1.863,14.411-2.633"/>
<path fill="none" stroke="#000000" stroke-linecap="round" stroke-linejoin="round" stroke-miterlimit="10" d="M67.947,86.766
	c-3.016,0.672-5.643,0.609-8.286,0"/>
<path fill="none" stroke="#000000" stroke-linecap="round" stroke-linejoin="round" stroke-miterlimit="10" d="M59.663,88.643
	c2.393,0.967,6.185,1.379,8.284,0"/>
<path fill="none" stroke="#000000" stroke-linecap="round" stroke-linejoin="round" stroke-miterlimit="10" d="M60.139,79.086
	c2.149,0.361,4.336,0.373,6.458-0.02"/>
<path fill="none" stroke="#000000" stroke-linecap="round" stroke-linejoin="round" stroke-miterlimit="10" d="M74.597,77.051
	c2.799,1.455,6.471,1.174,10.338-1.963"/>
<path fill="none" stroke="#000000" stroke-linecap="round" stroke-linejoin="round" stroke-miterlimit="10" d="M80.659,77.61
	c1.463,1.457-0.403,4.188-0.326,5.75c0.224,4.494,5.167,9.281,4.789,19.562"/>
<path fill="none" stroke="#000000" stroke-linecap="round" stroke-linejoin="round" stroke-miterlimit="10" d="M75.925,83.739
	c1.123,0.156,2.283,0.094,3.42-0.141"/>
<path fill="none" stroke="#000000" stroke-linecap="round" stroke-linejoin="round" stroke-miterlimit="10" d="M42.347,80.329
	c2.583,3.594,0.25,4.633,0.875,7.818c0.81,4.127,5.333,12.072,7.5,15.65"/>
<path fill="none" stroke="#000000" stroke-linecap="round" stroke-linejoin="round" stroke-miterlimit="10" d="M34.972,86.903
	c2.531,0.781,6.469,0.656,7.531,0"/>
<path fill="none" stroke="#000000" stroke-linecap="round" stroke-linejoin="round" stroke-miterlimit="10" d="M34.972,88.672
	c2.132,0.922,5.597,1.217,7.75,0.125"/>
<path fill="none" stroke="#000000" stroke-linecap="round" stroke-linejoin="round" stroke-miterlimit="10" d="M26.597,107.422
	c7.521,1.998,15.254,1.604,22.875,0.75"/>
<path fill="none" stroke="#000000" stroke-linecap="round" stroke-linejoin="round" stroke-miterlimit="10" d="M48.388,79.213
	c2.167,1.814,0.218,3.9,0.193,6.32c-0.022,2.113,2.701,6.545,3.516,7.889"/>
<path fill="none" stroke="#000000" stroke-linecap="round" stroke-linejoin="round" stroke-miterlimit="10" d="M53.472,78.797
	c-1.792,1.516-0.645,3.893-0.873,5.971c-0.167,1.523-0.964,2.844-1.377,4.279"/>
<path fill="none" stroke="#000000" stroke-linecap="round" stroke-linejoin="round" stroke-miterlimit="10" d="M42.347,80.329
	c2.38-0.066,6.367-2.719,7.525-6.359"/>
<path fill="none" stroke="#000000" stroke-linecap="round" stroke-linejoin="round" stroke-miterlimit="10" d="M36.237,80.329
	c1.787,0.977,4.019,0.871,5.784,0.053"/>
<path fill="none" stroke="#000000" stroke-linecap="round" stroke-linejoin="round" stroke-miterlimit="10" d="M28.138,79.838
	c-0.871,2.893,0.94,5.1,0.981,7.779c0.037,2.391-2.204,5.1-3.272,7.098c-1.685,3.154-3.672,6.121-4.292,9.707"/>
<path fill="none" stroke="#000000" stroke-linecap="round" stroke-linejoin="round" stroke-miterlimit="10" d="M24.972,105.952
	c-0.738,0.062-2.192,0.014-2.875-0.25"/>
<path fill="#FFFFFF" stroke="#000000" stroke-miterlimit="10" d="M59.661,79.686c-2.821,0.516-1.046,6.582-1.229,9.504
	c-0.292,4.645-0.292,4.645-1.772,8.898c-0.314,0.902-1.215,2.91-1.449,3.562c-0.717,1.988-0.32,3.875,2.646,1.312
	c1.323-1.143,0.897-3.115,1.171-4.072c1.569-5.469,2.263-8.703,2.194-11.031C61.136,84.958,61.141,79.417,59.661,79.686z"/>
<path fill="#FFFFFF" stroke="#000000" stroke-miterlimit="10" d="M35.716,80.508c-2.844,0.363-0.405,6.205-0.745,9.113
	c-0.54,4.621-1.126,5.293-2.833,9.463c-0.362,0.885-1.775,2.479-2.044,3.117c-0.823,1.949-0.528,3.854,2.572,1.453
	c1.382-1.07,1.97-3.631,2.295-4.57c1.86-5.379,2.37-7.709,2.426-10.037C37.459,86.145,37.208,80.317,35.716,80.508z"/>
<path fill="none" stroke="#000000" stroke-linecap="round" stroke-linejoin="round" stroke-miterlimit="10" d="M87.097,112.797"/>
<path fill="none" stroke="#000000" stroke-linecap="round" stroke-linejoin="round" stroke-miterlimit="10" d="M87.097,108.047"/>
<path fill="none" stroke="#000000" stroke-linecap="round" stroke-linejoin="round" stroke-miterlimit="10" d="M61.472,109.297
	c0.424,1.451,1.125,3.859,1.875,4.625"/>
<path fill="none" stroke="#000000" stroke-linecap="round" stroke-linejoin="round" stroke-miterlimit="10" d="M64.472,109.422
	c0.159,1.369,0.662,3.721,0.875,4.625"/>
<path fill="none" stroke="#000000" stroke-linecap="round" stroke-linejoin="round" stroke-miterlimit="10" d="M67.097,109.172
	c-0.261,1.359-1.013,2.627-1.625,3.875"/>
<path fill="none" stroke="#000000" stroke-linecap="round" stroke-linejoin="round" stroke-miterlimit="10" d="M34.347,109.297
	c-0.159,1.299-0.395,4.205-0.375,4.75"/>
<path fill="none" stroke="#000000" stroke-linecap="round" stroke-linejoin="round" stroke-miterlimit="10" d="M36.972,108.922
	c-0.323,1.422-0.562,2.91-0.75,4.375"/>
<path fill="none" stroke="#000000" stroke-linecap="round" stroke-linejoin="round" stroke-miterlimit="10" d="M40.722,109.297
	c0.074,1.02,0.319,2.162,0.75,3"/>
<path fill="none" stroke="#000000" stroke-linecap="round" stroke-linejoin="round" stroke-miterlimit="10" d="M42.847,108.922
	c0.244,1.146,0.527,2.34,0.75,3.5"/>
<path fill="none" stroke="#000000" stroke-linecap="round" stroke-linejoin="round" stroke-miterlimit="10" d="M57.227,52.535
	c-1.233-3.104-1.068-3.309-2.069-6.493c-2.167,0.409-3.946-3.688-1.806-4.675c2.308-1.067,3.075,2.221,3.496,3.568
	c0.634,2.034,1.257,3.919,2.453,8.164"/>
<path fill="none" stroke="#000000" stroke-linecap="round" stroke-linejoin="round" stroke-miterlimit="10" d="M79.766,51.135
	c-0.3-2.772-0.514-4.838-1.085-7.579c-1.58-0.071-2.376-4.406-0.059-4.836c2.5-0.467,2.049,3.104,2.125,4.515
	c0.113,2.127,0.639,3.912,0.752,8.321"/>
<path fill="#FFFFFF" d="M28.972,114.297l0.73-78.367l-19.23-2.781c0,0,2.333,80.439,2,81.648S28.972,114.297,28.972,114.297z"/>
<path fill="none" stroke="#000000" stroke-linecap="round" stroke-linejoin="round" stroke-miterlimit="10" d="M29.138,38.672
	c-0.034,16.553-0.167,73.75-0.167,73.75"/>
<polyline fill="none" stroke="#000000" stroke-linecap="round" stroke-linejoin="round" stroke-miterlimit="10" points="
	29.138,38.672 46.701,42.29 47.104,52.494 "/>
<path fill="none" stroke="#000000" stroke-linecap="round" stroke-linejoin="round" stroke-miterlimit="10" d="M76.06,103.61
	c2.188,0.035,6.533,0.154,9-0.375"/>
<path fill="none" stroke="#000000" stroke-linecap="round" stroke-linejoin="round" stroke-miterlimit="10" d="M70.685,107.838
	c-0.671,1.395-1.061,2.777-1.167,4.334"/>
<path fill="none" stroke="#000000" stroke-linecap="round" stroke-linejoin="round" stroke-miterlimit="10" d="M73.852,107.807
	c-0.765,1.811-1.627,3.527-2.25,5.334"/>
<path fill="none" stroke="#000000" stroke-linecap="round" stroke-linejoin="round" stroke-miterlimit="10" d="M78.185,103.838
	c0.438,2.238,0.575,4.309,1.667,8.5"/>
<path fill="none" stroke="#000000" stroke-linecap="round" stroke-linejoin="round" stroke-miterlimit="10" d="M80.518,103.754
	c0.214,2.754,1.408,5.727,1.75,8.387"/>
<path fill="none" stroke="#000000" stroke-linecap="round" stroke-linejoin="round" stroke-miterlimit="10" d="M117.688,111.293
	c0.203-6.631,0.769-10.648,1.837-17.244c0.619-3.814,1.556-10.412,2.686-14.844c0,0-8.326-3.838-6.924-12.154
	c2.542-15.124,21.906-15.69,25.97-3.455c1.578,4.759,0.77,10.099-2.648,14.763"/>
<path fill="none" stroke="#000000" stroke-linecap="round" stroke-linejoin="round" stroke-miterlimit="10" d="M139.759,83.836
	c1.834,9.938,2.299,17.406,3.436,28.305"/>
<path fill="none" stroke="#000000" stroke-linecap="round" stroke-linejoin="round" stroke-miterlimit="10" d="M137.193,79.915
	c5.889-6.342,9.924-14.81,13.309-22.767c-4.363-2.52,0.301-9.437,3.881-6.057c2.654,2.51,0.699,6.796-2.467,7.362
	c-2.498,9.333-8.244,20.654-14.297,28.246"/>
<path fill="none" stroke="#000000" stroke-linecap="round" stroke-linejoin="round" stroke-miterlimit="10" d="M99.689,112.141
	c0.134-4.719,1.072-9.303,2.329-17.061c0.402-2.49,1.129-8.555,1.676-12.195"/>
<path fill="none" stroke="#000000" stroke-linecap="round" stroke-linejoin="round" stroke-miterlimit="10" d="M118.677,58.961
	C104.26,47.545,87.723,65.64,98.027,78.604c1.529,1.926,3.573,3.449,5.67,4.285c0.107,0.043,0.215,0.084,0.323,0.123"/>
<path fill="none" stroke="#000000" stroke-linecap="round" stroke-linejoin="round" stroke-miterlimit="10" d="M120.516,57.723
	c1.834-6.717,3.577-11.289,4.54-14.333c-4.187-3.475,1.075-7.015,4.577-4.537c2.281,1.613-1.654,4.522-2.088,4.997
	c0,0-1.033,3.005-1.447,4.686c-0.647,2.646-1.042,4.663-1.907,7.351"/>
<path fill="none" stroke="#000000" stroke-linecap="round" stroke-linejoin="round" stroke-miterlimit="10" d="M86.609,75.52
	c1.039,2.543,2.655,4.662,5.192,5.83c-1.251,4.217-4.056,13.73-5.532,30.48"/>
<path fill="none" stroke="#000000" stroke-linecap="round" stroke-linejoin="round" stroke-miterlimit="10" d="M103.694,55.886
	c-11.832-4.781-21.554,8.691-17.085,19.634"/>
<path fill="none" stroke="#000000" stroke-linecap="round" stroke-linejoin="round" stroke-miterlimit="10" d="M105.426,54.882
	c1.847-2.48,7.278-9.472,7.278-9.472c0.162-2.349-0.354-5.515,2.615-5.515c3.216,0,3.896,3.333,2.103,4.794
	c-1.186,0.964-2.809,1.713-2.809,1.713c-1.403,2.225-4.015,6.823-5.596,8.928"/>
<path fill="none" stroke="#000000" stroke-width="0.6" stroke-linecap="round" stroke-linejoin="round" stroke-miterlimit="10" d="
	M149.56,50.939c-0.248-4.426-2.254-7.903-3.557-11.801c3.154-1.412,5.504-2.883,8.99-3.175c-0.111,5.302-0.066,10.592-0.059,15.894"
	/>
<path fill="none" stroke="#000000" stroke-width="0.6" stroke-linecap="round" stroke-linejoin="round" stroke-miterlimit="10" d="
	M150.976,50.232c-0.287-1.856-0.768-3.666-1.307-5.465c-0.311-1.031-1.748-3.958-1.797-4.871c0,0,3.416-1.588,4.93-1.401
	c0.125,3.828,0.035,8.631,1.084,12.316c0.074-0.185,0.119-0.377,0.129-0.579"/>
<path fill="none" stroke="#000000" stroke-width="0.6" stroke-linecap="round" stroke-linejoin="round" stroke-miterlimit="10" d="
	M151.964,44.153c-1.268-0.737-2.227,1.19-1.135,1.928c1.229,0.828,2.295-1.468,0.922-1.928"/>
<path fill="none" stroke="#000000" stroke-width="0.6" stroke-linecap="round" stroke-linejoin="round" stroke-miterlimit="10" d="
	M156.306,41.28c1.053,0.688,3.326,2.207,3.74,2.709c0,0-1.041,1.699-1.791,2.85c-1.119,1.719-1.918,3.128-2.967,4.878"/>
<path fill="none" stroke="#000000" stroke-width="0.6" stroke-linecap="round" stroke-linejoin="round" stroke-miterlimit="10" d="
	M161.994,43.87c-1.883-1.997-3.443-3.115-5.688-4.731l-1.236,2.142"/>
<path fill="none" stroke="#000000" stroke-width="0.6" stroke-linecap="round" stroke-linejoin="round" stroke-miterlimit="10" d="
	M155.851,53.838c2.297-3.132,3.598-6.988,6.143-9.969"/>
<path fill="none" stroke="#000000" stroke-width="0.6" stroke-linecap="round" stroke-linejoin="round" stroke-miterlimit="10" d="
	M155.07,46.566c0.619-0.469,2.328,1.614,0.219,2.362"/>
<path fill="none" stroke="#000000" stroke-width="0.6" stroke-linecap="round" stroke-linejoin="round" stroke-miterlimit="10" d="
	M154.99,43.684c0.449-0.784,0.859-1.611,1.273-2.404"/>
<path fill="none" stroke="#000000" stroke-width="0.6" stroke-linecap="round" stroke-linejoin="round" stroke-miterlimit="10" d="
	M129.419,28.052c-0.041,3.498-0.395,6.453,0.094,9.882"/>
<path fill="none" stroke="#000000" stroke-width="0.6" stroke-linecap="round" stroke-linejoin="round" stroke-miterlimit="10" d="
	M124.333,38.595c-0.498-2.755-0.82-6.629-1.398-10.173"/>
<path fill="none" stroke="#000000" stroke-width="0.6" stroke-linecap="round" stroke-linejoin="round" stroke-miterlimit="10" d="
	M125.122,38.03c-0.133-3.726-0.473-5.637-0.686-8.299c1.094-0.172,2.228-0.426,3.368-0.361c0.066,2.503,0.393,6.587,0.486,8.281"/>
<path fill="none" stroke="#000000" stroke-width="0.6" stroke-linecap="round" stroke-linejoin="round" stroke-miterlimit="10" d="
	M129.609,29.171c1.73,0.3,3.775,0.262,5.545,0.674c-1.004,3.16-3.521,6.322-4.51,9.22"/>
<path fill="none" stroke="#000000" stroke-width="0.6" stroke-linecap="round" stroke-linejoin="round" stroke-miterlimit="10" d="
	M129.419,30.678c1.109,0.188,2.275,0.223,3.381,0.391c-0.771,2.142-1.799,4.826-2.908,6.771"/>
<path fill="none" stroke="#000000" stroke-width="0.6" stroke-linecap="round" stroke-linejoin="round" stroke-miterlimit="10" d="
	M129.419,33.765c1.203-0.441,1.855,2.021,0.283,2.568"/>
<path fill="none" stroke="#000000" stroke-width="0.6" stroke-linecap="round" stroke-linejoin="round" stroke-miterlimit="10" d="
	M127.347,34.542c-0.781-0.787-2.171,0.551-1.375,1.429c0.91,1,1.924-0.749,1.375-1.617"/>
<path fill="none" stroke="#000000" stroke-width="0.6" stroke-linecap="round" stroke-linejoin="round" stroke-miterlimit="10" d="
	M113.601,39.851c0.13-2.678-0.131-6.326-0.084-9.408c2.345,0.117,4.716,0.403,7.041,0.378c-0.28,3.526-1.3,7.028-1.774,10.537"/>
<path fill="none" stroke="#000000" stroke-width="0.6" stroke-linecap="round" stroke-linejoin="round" stroke-miterlimit="10" d="
	M115.108,39.571c0.005-1.221-0.186-6.614,0.095-7.635c0,0,2.531,0.461,3.565,0.579c-0.011,2.448-0.427,5.344-0.929,7.713"/>
<path fill="none" stroke="#000000" stroke-width="0.6" stroke-linecap="round" stroke-linejoin="round" stroke-miterlimit="10" d="
	M117.464,37.403c-0.69-0.92-2.335-0.02-1.621,1.11c0.791,1.249,1.953-0.229,1.716-1.204"/>
<path fill="none" stroke="#000000" stroke-width="0.6" stroke-linecap="round" stroke-linejoin="round" stroke-miterlimit="10" d="
	M114.548,29.217c2.128-0.115,4.501-0.077,6.575,0.475c-0.206,0.829-0.468,1.692-0.644,2.527"/>
<path fill="none" stroke="#000000" stroke-width="0.6" stroke-linecap="round" stroke-linejoin="round" stroke-miterlimit="10" d="
	M114.448,30.242c0.014,0.07,0.121-0.759,0.1-1.024"/>
<path fill="none" stroke="#000000" stroke-width="0.6" stroke-linecap="round" stroke-linejoin="round" stroke-miterlimit="10" d="
	M122.934,28.297c2.193,0.079,4.372-0.241,6.376-0.5"/>
</svg>
