<?xml version="1.0" encoding="UTF-8"?>
<svg width="357px" height="309px" viewBox="0 0 357 309" version="1.1" xmlns="http://www.w3.org/2000/svg" xmlns:xlink="http://www.w3.org/1999/xlink">
    <!-- Generator: Sketch 49.3 (51167) - http://www.bohemiancoding.com/sketch -->
    <title>CardPayment</title>
    <desc>Created with Sketch.</desc>
    <defs></defs>
    <g id="Page-1" stroke="none" stroke-width="1" fill="none" fill-rule="evenodd">
        <g id="CardPayment">
            <g id="CardPhoto">
                <path d="M215.373,170.465 C215.373,170.465 202.119,270.352 212.362,308.333 L353.838,308.333 C361.512,261.956 351.29,175.171 351.29,175.171 L302.886,66.104 L215.373,170.465" id="Fill-405" fill="#F0AC7C"></path>
                <path d="M314.134,270.619 C314.134,281.629 305.125,290.638 294.115,290.638 L192.422,290.638 C181.411,290.638 172.403,281.629 172.403,270.619 L172.403,20.854 C172.403,9.844 181.411,0.835 192.422,0.835 L294.115,0.835 C305.125,0.835 314.134,9.844 314.134,20.854 L314.134,270.619" id="Fill-406" fill="#2C2C28"></path>
                <path d="M292.609,5.792 L193.926,5.792 C185,5.792 177.736,13.055 177.736,21.981 C177.736,21.981 179.785,7.827 193.926,7.048 L292.609,7.048 C306.751,7.827 308.799,21.981 308.799,21.981 C308.799,13.055 301.536,5.792 292.609,5.792" id="Fill-407" fill="#7A7B77"></path>
                <polygon id="Fill-408" fill="#F6BF41" points="186.867 266.642 299.67 266.642 299.67 24.832 186.867 24.832"></polygon>
                <polygon id="Fill-409" fill="#E5E5E0" points="217.445 98.09 287.148 98.09 287.148 57.205 217.445 57.205"></polygon>
                <path d="M223.195,91.89 L281.396,91.89 L281.396,63.4 L223.195,63.4 L223.195,91.89 Z M220.32,94.759 L284.268,94.759 L284.268,60.523 L220.32,60.523 L220.32,94.759 Z" id="Fill-410" fill="#79BB43"></path>
                <path d="M263.807,77.645 C263.807,83.999 258.654,89.152 252.296,89.152 C245.936,89.152 240.784,83.999 240.784,77.645 C240.784,71.292 245.936,66.129 252.296,66.129 C258.654,66.129 263.807,71.292 263.807,77.645" id="Fill-411" fill="#79BB43"></path>
                <path d="M275.808,77.729 C275.808,79.645 274.251,81.2 272.337,81.2 C270.419,81.2 268.863,79.645 268.863,77.729 C268.863,75.814 270.419,74.258 272.337,74.258 C274.251,74.258 275.808,75.814 275.808,77.729" id="Fill-412" fill="#79BB43"></path>
                <path d="M228.784,77.729 C228.784,79.645 230.337,81.2 232.254,81.2 C234.172,81.2 235.728,79.645 235.728,77.729 C235.728,75.814 234.172,74.258 232.254,74.258 C230.337,74.258 228.784,75.814 228.784,77.729" id="Fill-413" fill="#79BB43"></path>
                <path d="M256.36,74.781 C256.209,74.277 256.062,73.819 255.909,73.412 C255.761,73.002 255.566,72.656 255.328,72.356 C255.09,72.067 254.786,71.843 254.419,71.688 C254.052,71.531 253.581,71.45 253.011,71.45 C252.655,71.45 252.302,71.487 251.948,71.553 C251.594,71.619 251.275,71.73 250.988,71.88 C250.702,72.029 250.473,72.23 250.296,72.47 C250.116,72.721 250.027,73.025 250.027,73.39 C250.027,73.759 250.13,74.077 250.337,74.352 C250.539,74.623 250.812,74.865 251.153,75.076 C251.491,75.286 251.886,75.482 252.336,75.661 C252.786,75.837 253.249,76.016 253.723,76.194 C254.298,76.393 254.861,76.627 255.419,76.884 C255.977,77.142 256.478,77.448 256.922,77.805 C257.365,78.156 257.725,78.58 258.003,79.061 C258.282,79.542 258.421,80.118 258.421,80.785 C258.421,81.64 258.198,82.378 257.758,82.99 C257.315,83.598 256.748,84.102 256.052,84.49 C255.359,84.877 254.592,85.167 253.755,85.349 C252.918,85.532 252.104,85.626 251.315,85.626 C250.84,85.626 250.301,85.575 249.704,85.471 C249.104,85.369 248.541,85.2 248.016,84.971 C247.494,84.742 247.055,84.434 246.701,84.05 C246.346,83.672 246.168,83.197 246.168,82.644 C246.168,81.976 246.392,81.496 246.844,81.191 C247.292,80.894 247.864,80.742 248.561,80.742 C248.708,80.742 248.836,80.747 248.944,80.757 C249.055,80.757 249.185,80.78 249.333,80.803 L249.333,81.149 C249.333,82.051 249.549,82.738 249.978,83.224 C250.407,83.709 251.118,83.948 252.112,83.948 C252.479,83.948 252.831,83.91 253.165,83.827 C253.498,83.742 253.791,83.626 254.04,83.457 C254.292,83.293 254.499,83.084 254.654,82.836 C254.812,82.588 254.888,82.29 254.888,81.948 C254.888,81.527 254.784,81.169 254.571,80.874 C254.36,80.583 254.081,80.327 253.737,80.098 C253.388,79.875 252.989,79.673 252.542,79.496 C252.09,79.323 251.631,79.136 251.153,78.949 C250.596,78.744 250.037,78.519 249.479,78.271 C248.916,78.029 248.419,77.733 247.978,77.383 C247.535,77.033 247.173,76.618 246.895,76.127 C246.614,75.636 246.476,75.048 246.476,74.352 C246.476,73.506 246.697,72.795 247.141,72.217 C247.581,71.636 248.14,71.17 248.816,70.806 C249.488,70.446 250.219,70.189 251.008,70.029 C251.798,69.876 252.542,69.796 253.234,69.796 C253.901,69.796 254.547,69.838 255.174,69.917 C255.802,70.002 256.421,70.142 257.034,70.33 C257.141,70.357 257.194,70.408 257.194,70.494 C257.225,70.722 257.249,71.039 257.268,71.441 C257.288,71.843 257.306,72.254 257.32,72.679 C257.332,73.1 257.342,73.501 257.351,73.87 C257.355,74.244 257.36,74.521 257.36,74.698 L256.36,74.781" id="Fill-414" fill="#FFFFFE"></path>
                <polygon id="Fill-415" fill="#FFFFFE" points="251.431 87.316 253.866 87.316 253.866 67.969 251.431 67.969"></polygon>
                <polygon id="Fill-416" fill="#FDFCFB" points="199.388 83.513 269.09 83.513 269.09 42.634 199.388 42.634"></polygon>
                <path d="M205.14,77.323 L263.342,77.323 L263.342,48.829 L205.14,48.829 L205.14,77.323 Z M202.267,80.191 L266.215,80.191 L266.215,45.955 L202.267,45.955 L202.267,80.191 Z" id="Fill-417" fill="#79BB43"></path>
                <path d="M245.75,63.078 C245.75,69.433 240.596,74.585 234.241,74.585 C227.883,74.585 222.729,69.433 222.729,63.078 C222.729,56.716 227.883,51.562 234.241,51.562 C240.596,51.562 245.75,56.716 245.75,63.078" id="Fill-418" fill="#79BB43"></path>
                <path d="M257.752,63.158 C257.752,65.077 256.2,66.629 254.282,66.629 C252.36,66.629 250.81,65.077 250.81,63.158 C250.81,61.241 252.36,59.686 254.282,59.686 C256.2,59.686 257.752,61.241 257.752,63.158" id="Fill-419" fill="#79BB43"></path>
                <path d="M210.727,63.158 C210.727,65.077 212.283,66.629 214.204,66.629 C216.118,66.629 217.673,65.077 217.673,63.158 C217.673,61.241 216.118,59.686 214.204,59.686 C212.283,59.686 210.727,61.241 210.727,63.158" id="Fill-420" fill="#79BB43"></path>
                <path d="M238.303,60.21 C238.155,59.705 238.004,59.251 237.854,58.841 C237.706,58.434 237.511,58.083 237.273,57.79 C237.035,57.5 236.73,57.275 236.364,57.117 C235.995,56.962 235.527,56.883 234.955,56.883 C234.601,56.883 234.248,56.916 233.893,56.985 C233.539,57.051 233.221,57.163 232.935,57.308 C232.649,57.462 232.415,57.659 232.238,57.902 C232.063,58.15 231.974,58.458 231.974,58.821 C231.974,59.187 232.078,59.508 232.278,59.783 C232.485,60.056 232.756,60.299 233.097,60.504 C233.436,60.714 233.832,60.91 234.283,61.087 C234.732,61.266 235.195,61.443 235.671,61.62 C236.24,61.821 236.808,62.054 237.363,62.312 C237.922,62.569 238.423,62.877 238.868,63.228 C239.308,63.588 239.67,64.004 239.948,64.489 C240.225,64.975 240.367,65.545 240.367,66.214 C240.367,67.073 240.146,67.811 239.702,68.423 C239.261,69.03 238.691,69.531 237.999,69.922 C237.304,70.31 236.54,70.596 235.699,70.778 C234.861,70.96 234.05,71.057 233.26,71.057 C232.783,71.057 232.245,71.003 231.647,70.903 C231.047,70.801 230.484,70.629 229.965,70.399 C229.439,70.169 228.998,69.862 228.646,69.483 C228.291,69.101 228.116,68.629 228.116,68.078 C228.116,67.409 228.337,66.923 228.789,66.62 C229.238,66.326 229.809,66.172 230.504,66.172 C230.652,66.172 230.783,66.18 230.89,66.185 C231.001,66.19 231.128,66.208 231.278,66.237 L231.278,66.582 C231.278,67.479 231.493,68.171 231.921,68.652 C232.353,69.138 233.063,69.375 234.057,69.375 C234.425,69.375 234.773,69.34 235.107,69.254 C235.442,69.176 235.735,69.053 235.986,68.886 C236.238,68.726 236.441,68.517 236.598,68.267 C236.755,68.016 236.833,67.718 236.833,67.376 C236.833,66.956 236.729,66.596 236.518,66.306 C236.309,66.011 236.026,65.755 235.68,65.527 C235.334,65.302 234.935,65.101 234.484,64.924 C234.037,64.751 233.574,64.568 233.097,64.377 C232.538,64.172 231.979,63.947 231.421,63.704 C230.863,63.456 230.363,63.163 229.921,62.812 C229.48,62.465 229.118,62.049 228.837,61.56 C228.561,61.069 228.419,60.476 228.419,59.783 C228.419,58.939 228.642,58.224 229.083,57.645 C229.527,57.065 230.083,56.603 230.759,56.238 C231.431,55.879 232.163,55.622 232.954,55.458 C233.744,55.309 234.484,55.224 235.18,55.224 C235.847,55.224 236.496,55.266 237.12,55.35 C237.746,55.429 238.366,55.57 238.979,55.757 C239.088,55.785 239.142,55.842 239.142,55.921 C239.167,56.149 239.193,56.473 239.213,56.874 C239.235,57.275 239.25,57.686 239.263,58.107 C239.277,58.527 239.289,58.924 239.293,59.299 C239.3,59.677 239.307,59.952 239.307,60.13 L238.303,60.21" id="Fill-421" fill="#FFFFFE"></path>
                <polygon id="Fill-422" fill="#FFFFFE" points="233.373 72.745 235.816 72.745 235.816 53.402 233.373 53.402"></polygon>
                <polygon id="Fill-423" fill="#FDFCFB" points="222.044 168.045 228.106 168.045 228.106 141.167 222.044 141.167"></polygon>
                <polygon id="Fill-424" fill="#FDFCFB" points="234.172 168.045 240.235 168.045 240.235 141.167 234.172 141.167"></polygon>
                <polygon id="Fill-425" fill="#FDFCFB" points="246.302 168.045 252.365 168.045 252.365 141.167 246.302 141.167"></polygon>
                <polygon id="Fill-426" fill="#FDFCFB" points="258.43 168.045 264.493 168.045 264.493 141.167 258.43 141.167"></polygon>
                <polygon id="Fill-427" fill="#FDFCFB" points="216.17 173.885 270.367 173.885 270.367 169.337 216.17 169.337"></polygon>
                <polygon id="Fill-428" fill="#FDFCFB" points="211.241 180.827 275.296 180.827 275.296 175.881 211.241 175.881"></polygon>
                <polygon id="Fill-429" fill="#FDFCFB" points="216.17 139.393 270.367 139.393 270.367 134.846 216.17 134.846"></polygon>
                <path d="M243.267,129.983 C240.511,129.983 238.277,127.748 238.277,124.992 C238.277,122.235 240.511,119.999 243.267,119.999 C246.025,119.999 248.258,122.235 248.258,124.992 C248.258,127.748 246.025,129.983 243.267,129.983 M243.267,113.823 L211.241,128.875 L211.241,133.078 L275.296,133.078 L275.296,128.875 L243.267,113.823" id="Fill-430" fill="#FDFCFB"></path>
                <polygon id="Fill-431" fill="#FDFCFB" points="220.339 168.045 229.814 168.045 229.814 163.958 220.339 163.958"></polygon>
                <polygon id="Fill-432" fill="#FDFCFB" points="232.468 168.045 241.942 168.045 241.942 163.958 232.468 163.958"></polygon>
                <polygon id="Fill-433" fill="#FDFCFB" points="244.595 168.045 254.069 168.045 254.069 163.958 244.595 163.958"></polygon>
                <polygon id="Fill-434" fill="#FDFCFB" points="256.723 168.045 266.198 168.045 266.198 163.958 256.723 163.958"></polygon>
                <path d="M281.596,245.466 C281.596,247.602 279.848,249.351 277.717,249.351 L208.821,249.351 C206.687,249.351 204.94,247.602 204.94,245.466 L204.94,203.113 C204.94,200.97 206.687,199.227 208.821,199.227 L277.717,199.227 C279.848,199.227 281.596,200.97 281.596,203.113 L281.596,245.466" id="Fill-435" fill="#DF5A78"></path>
                <path d="M266.319,205.997 C260.731,205.997 256.178,210.779 256.178,216.646 C256.178,222.516 260.731,227.295 266.319,227.295 C271.912,227.295 276.473,222.516 276.473,216.646 C276.473,210.779 271.912,205.997 266.319,205.997 Z M266.319,228.239 C260.205,228.239 255.235,223.039 255.235,216.646 C255.235,210.252 260.205,205.053 266.319,205.053 C272.438,205.053 277.415,210.252 277.415,216.646 C277.415,223.039 272.438,228.239 266.319,228.239 Z" id="Fill-436" fill="#FFFFFE"></path>
                <path d="M266.319,224.349 C260.205,224.349 255.235,220.894 255.235,216.646 L256.178,216.646 C256.178,220.374 260.731,223.403 266.319,223.403 C271.912,223.403 276.473,220.374 276.473,216.646 L277.415,216.646 C277.415,220.894 272.438,224.349 266.319,224.349" id="Fill-437" fill="#FFFFFE"></path>
                <path d="M266.319,218.577 C263.463,218.577 260.772,218.43 258.75,218.148 C255.658,217.73 255.235,217.17 255.235,216.646 L256.178,216.646 L256.138,216.509 C256.556,216.979 260.331,217.636 266.319,217.636 C272.313,217.636 276.096,216.979 276.509,216.509 L276.473,216.646 L277.415,216.646 C277.415,217.17 276.991,217.73 273.892,218.148 C271.864,218.43 269.176,218.577 266.319,218.577" id="Fill-438" fill="#FFFFFE"></path>
                <path d="M277.415,216.646 L276.473,216.646 C276.473,214.288 271.82,212.298 266.319,212.298 C260.823,212.298 256.178,214.288 256.178,216.646 L255.235,216.646 C255.235,213.677 260.099,211.356 266.319,211.356 C272.54,211.356 277.415,213.677 277.415,216.646" id="Fill-439" fill="#FFFFFE"></path>
                <path d="M266.319,228.228 C265.833,228.228 265.49,227.972 265.203,224.548 C265.024,222.436 264.93,219.625 264.93,216.646 C264.93,213.665 265.024,210.859 265.203,208.74 C265.49,205.315 265.833,205.06 266.319,205.06 L266.319,205.987 C266.464,205.987 266.563,205.911 266.593,205.868 C266.279,206.343 265.857,210.344 265.857,216.646 C265.857,222.945 266.279,226.947 266.593,227.425 C266.563,227.387 266.464,227.303 266.319,227.303 L266.319,228.228" id="Fill-440" fill="#FFFFFE"></path>
                <path d="M266.319,205.987 C263.19,205.987 260.657,210.772 260.657,216.646 C260.657,222.523 263.19,227.303 266.319,227.303 C269.444,227.303 271.987,222.523 271.987,216.646 C271.987,210.772 269.444,205.987 266.319,205.987 Z M266.319,228.228 C262.627,228.228 259.724,223.141 259.724,216.646 C259.724,210.148 262.627,205.06 266.319,205.06 C270.02,205.06 272.918,210.148 272.918,216.646 C272.918,223.141 270.02,228.228 266.319,228.228 Z" id="Fill-441" fill="#FFFFFE"></path>
                <path d="M225.681,226.434 C225.668,227.527 224.793,228.403 223.706,228.404 L211.834,228.403 C210.747,228.403 209.863,227.516 209.863,226.43 L209.865,214.557 C209.865,213.471 210.745,212.591 211.829,212.591 L223.702,212.595 C224.787,212.593 225.673,213.483 225.673,214.568 L225.681,226.434" id="Fill-442" fill="#F7C061"></path>
                <path d="M220.766,220.497 L220.511,220.497 C220.508,222.011 219.285,223.235 217.773,223.238 C216.26,223.235 215.036,222.011 215.033,220.497 C215.036,218.987 216.26,217.763 217.773,217.761 C219.285,217.763 220.508,218.987 220.511,220.497 L221.02,220.497 C221.02,218.705 219.567,217.251 217.773,217.251 C215.979,217.251 214.524,218.705 214.524,220.497 C214.524,222.292 215.978,223.747 217.773,223.747 C219.567,223.747 221.02,222.292 221.02,220.497 L220.766,220.497" id="Fill-443" fill="#FFFFFE"></path>
                <path d="M225.498,220.497 L225.243,220.497 C225.243,222.562 224.407,224.429 223.055,225.782 C221.703,227.134 219.836,227.97 217.771,227.97 C215.708,227.97 213.841,227.134 212.488,225.782 C211.136,224.429 210.3,222.562 210.3,220.497 C210.3,218.434 211.136,216.568 212.488,215.215 C213.841,213.863 215.708,213.027 217.771,213.027 C219.836,213.027 221.703,213.863 223.055,215.215 C224.408,216.568 225.243,218.433 225.243,220.497 L225.753,220.497 C225.753,216.09 222.181,212.518 217.771,212.518 C213.364,212.518 209.79,216.09 209.79,220.497 C209.79,224.907 213.364,228.48 217.771,228.48 C222.181,228.48 225.753,224.907 225.753,220.497 L225.498,220.497" id="Fill-444" fill="#FFFFFE"></path>
                <polygon id="Fill-445" fill="#FFFFFE" points="209.863 216.317 225.498 216.317 225.498 215.807 209.863 215.807"></polygon>
                <polygon id="Fill-446" fill="#FFFFFE" points="209.863 225.375 225.498 225.375 225.498 224.864 209.863 224.864"></polygon>
                <polygon id="Fill-447" fill="#FFFFFE" points="209.162 244.495 258.75 244.495 258.75 239.82 209.162 239.82"></polygon>
                <polygon id="Fill-448" fill="#FFFFFE" points="209.162 236.878 276.437 236.878 276.437 232.203 209.162 232.203"></polygon>
                <polygon id="Fill-449" fill="#F7C061" points="262.861 244.495 276.437 244.495 276.437 239.82 262.861 239.82"></polygon>
                <polygon id="Fill-450" fill="#FFFFFE" points="209.162 208.685 249.332 208.685 249.332 204.01 209.162 204.01"></polygon>
                <path d="M243.27,290.638 L192.422,290.638 C181.411,290.638 172.403,281.629 172.403,270.619 L172.403,233.795 L183.831,240.093 C184.813,240.633 185.832,241.045 186.867,241.334 L186.867,266.642 L243.27,266.642 L243.27,290.638 M186.867,209.291 L177.844,204.318 C176.108,203.359 174.259,202.8 172.403,202.612 L172.403,195.414 L182.202,200.814 C183.7,201.637 185.274,202.189 186.867,202.486 L186.867,209.291 M186.867,167.72 L175.626,161.525 C174.583,160.949 173.502,160.504 172.403,160.185 L172.403,145.753 L178.229,145.753 C182.33,145.753 185.692,142.39 185.692,138.276 L185.692,56.784 C185.692,52.661 182.33,49.305 178.229,49.305 L172.403,49.305 L172.403,20.854 C172.403,9.844 181.411,0.835 192.422,0.835 L243.27,0.835 L243.27,5.792 L193.926,5.792 C185,5.792 177.736,13.055 177.736,21.981 C177.736,21.981 179.785,7.827 193.926,7.048 L243.27,7.048 L243.27,24.832 L186.867,24.832 L186.867,167.72" id="Fill-451" fill="#403F3A"></path>
                <path d="M177.736,21.981 C177.736,13.055 185,5.792 193.926,5.792 L243.27,5.792 L243.27,7.048 L193.926,7.048 C179.785,7.827 177.736,21.981 177.736,21.981" id="Fill-452" fill="#868884"></path>
                <path d="M243.27,266.642 L186.867,266.642 L186.867,241.334 C188.122,241.684 189.4,241.854 190.669,241.854 C195.69,241.854 200.555,239.191 203.143,234.48 C206.929,227.598 204.415,218.95 197.53,215.167 L186.867,209.291 L186.867,202.486 C187.812,202.662 188.765,202.748 189.712,202.748 C195.226,202.749 200.57,199.824 203.411,194.65 C207.568,187.091 204.808,177.594 197.247,173.44 L186.867,167.72 L186.867,24.832 L243.27,24.832 L243.27,42.634 L199.388,42.634 L199.388,83.513 L217.445,83.513 L217.445,98.09 L243.27,98.09 L243.27,113.825 L243.267,113.823 L211.241,128.875 L211.241,133.078 L243.27,133.078 L243.27,134.846 L216.17,134.846 L216.17,139.393 L243.27,139.393 L243.27,169.337 L216.17,169.337 L216.17,173.885 L243.27,173.885 L243.27,175.881 L211.241,175.881 L211.241,180.827 L243.27,180.827 L243.27,199.227 L208.821,199.227 C206.687,199.227 204.94,200.97 204.94,203.113 L204.94,245.466 C204.94,247.602 206.687,249.351 208.821,249.351 L243.27,249.351 L243.27,266.642 M232.468,163.958 L232.468,168.045 L241.942,168.045 L241.942,163.958 L240.235,163.958 L240.235,141.167 L234.172,141.167 L234.172,163.958 L232.468,163.958 M220.339,163.958 L220.339,168.045 L229.814,168.045 L229.814,163.958 L228.106,163.958 L228.106,141.167 L222.044,141.167 L222.044,163.958 L220.339,163.958" id="Fill-453" fill="#F7C550"></path>
                <path d="M243.27,98.09 L217.445,98.09 L217.445,83.513 L220.32,83.513 L220.32,94.759 L243.27,94.759 L243.27,98.09 M243.27,91.89 L223.195,91.89 L223.195,83.513 L242.391,83.513 C242.656,83.958 242.949,84.384 243.27,84.788 L243.27,91.89" id="Fill-454" fill="#E9E9E4"></path>
                <polyline id="Fill-455" fill="#85BF41" points="243.27 94.759 220.32 94.759 220.32 83.513 223.195 83.513 223.195 91.89 243.27 91.89 243.27 94.759"></polyline>
                <path d="M243.27,84.788 C242.949,84.384 242.656,83.958 242.391,83.513 L243.27,83.513 L243.27,84.788" id="Fill-456" fill="#85BF41"></path>
                <path d="M243.27,83.513 L199.388,83.513 L199.388,42.634 L243.27,42.634 L243.27,45.955 L202.267,45.955 L202.267,80.191 L243.27,80.191 L243.27,83.513 M243.27,77.323 L205.14,77.323 L205.14,48.829 L243.27,48.829 L243.27,55.935 C241.161,53.271 237.9,51.562 234.241,51.562 C227.883,51.562 222.729,56.716 222.729,63.078 C222.729,69.433 227.883,74.585 234.241,74.585 C237.9,74.585 241.161,72.876 243.27,70.214 L243.27,77.323 M214.204,59.686 C212.283,59.686 210.727,61.241 210.727,63.158 C210.727,65.077 212.283,66.629 214.204,66.629 C216.118,66.629 217.673,65.077 217.673,63.158 C217.673,61.241 216.118,59.686 214.204,59.686" id="Fill-457" fill="#FEFDFC"></path>
                <polyline id="Fill-458" fill="#85BF41" points="243.27 80.191 202.267 80.191 202.267 45.955 243.27 45.955 243.27 48.829 205.14 48.829 205.14 77.323 243.27 77.323 243.27 80.191"></polyline>
                <path d="M234.241,74.585 C227.883,74.585 222.729,69.433 222.729,63.078 C222.729,56.716 227.883,51.562 234.241,51.562 C237.9,51.562 241.161,53.271 243.27,55.935 L243.27,70.214 C241.161,72.876 237.9,74.585 234.241,74.585 M233.373,71.057 L233.373,72.745 L235.816,72.745 L235.816,70.752 C236.611,70.569 237.336,70.292 237.999,69.922 C238.691,69.531 239.261,69.03 239.702,68.423 C240.146,67.811 240.367,67.073 240.367,66.214 C240.367,65.545 240.225,64.975 239.948,64.489 C239.67,64.004 239.308,63.588 238.868,63.228 C238.423,62.877 237.922,62.569 237.363,62.312 C236.855,62.076 236.337,61.861 235.816,61.672 L235.816,56.957 C236.019,56.995 236.201,57.049 236.364,57.117 C236.73,57.275 237.035,57.5 237.273,57.79 C237.511,58.083 237.706,58.434 237.854,58.841 C238.004,59.251 238.155,59.705 238.303,60.21 L239.307,60.13 C239.307,59.952 239.3,59.677 239.293,59.299 C239.289,58.924 239.277,58.527 239.263,58.107 C239.25,57.686 239.235,57.275 239.213,56.874 C239.193,56.473 239.167,56.149 239.142,55.921 C239.142,55.842 239.088,55.785 238.979,55.757 C238.366,55.57 237.746,55.429 237.12,55.35 C236.696,55.293 236.261,55.255 235.816,55.237 L235.816,53.402 L233.373,53.402 L233.373,55.384 C233.235,55.406 233.095,55.431 232.954,55.458 C232.163,55.622 231.431,55.879 230.759,56.238 C230.083,56.603 229.527,57.065 229.083,57.645 C228.642,58.224 228.419,58.939 228.419,59.783 C228.419,60.476 228.561,61.069 228.837,61.56 C229.118,62.049 229.48,62.465 229.921,62.812 C230.363,63.163 230.863,63.456 231.421,63.704 C231.979,63.947 232.538,64.172 233.097,64.377 C233.189,64.414 233.281,64.451 233.373,64.487 L233.373,69.332 C232.73,69.243 232.246,69.018 231.921,68.652 C231.493,68.171 231.278,67.479 231.278,66.582 L231.278,66.237 C231.128,66.208 231.001,66.19 230.89,66.185 C230.783,66.18 230.652,66.172 230.504,66.172 C229.809,66.172 229.238,66.326 228.789,66.62 C228.337,66.923 228.116,67.409 228.116,68.078 C228.116,68.629 228.291,69.101 228.646,69.483 C228.998,69.862 229.439,70.169 229.965,70.399 C230.484,70.629 231.047,70.801 231.647,70.903 C232.245,71.003 232.783,71.057 233.26,71.057 C233.297,71.057 233.335,71.057 233.373,71.057 M235.816,68.989 L235.816,65.621 C236.101,65.825 236.337,66.051 236.518,66.306 C236.729,66.596 236.833,66.956 236.833,67.376 C236.833,67.718 236.755,68.016 236.598,68.267 C236.441,68.517 236.238,68.726 235.986,68.886 C235.932,68.923 235.875,68.957 235.816,68.989 M233.373,60.665 C233.277,60.612 233.185,60.558 233.097,60.504 C232.756,60.299 232.485,60.056 232.278,59.783 C232.078,59.508 231.974,59.187 231.974,58.821 C231.974,58.458 232.063,58.15 232.238,57.902 C232.415,57.659 232.649,57.462 232.935,57.308 C233.073,57.238 233.219,57.175 233.373,57.122 L233.373,60.665" id="Fill-459" fill="#85BF41"></path>
                <path d="M214.204,66.629 C212.283,66.629 210.727,65.077 210.727,63.158 C210.727,61.241 212.283,59.686 214.204,59.686 C216.118,59.686 217.673,61.241 217.673,63.158 C217.673,65.077 216.118,66.629 214.204,66.629" id="Fill-460" fill="#85BF41"></path>
                <path d="M233.26,71.057 C232.783,71.057 232.245,71.003 231.647,70.903 C231.047,70.801 230.484,70.629 229.965,70.399 C229.439,70.169 228.998,69.862 228.646,69.483 C228.291,69.101 228.116,68.629 228.116,68.078 C228.116,67.409 228.337,66.923 228.789,66.62 C229.238,66.326 229.809,66.172 230.504,66.172 C230.652,66.172 230.783,66.18 230.89,66.185 C231.001,66.19 231.128,66.208 231.278,66.237 L231.278,66.582 C231.278,67.479 231.493,68.171 231.921,68.652 C232.246,69.018 232.73,69.243 233.373,69.332 L233.373,71.057 C233.335,71.057 233.297,71.057 233.26,71.057 M235.816,70.752 L235.816,68.989 C235.875,68.957 235.932,68.923 235.986,68.886 C236.238,68.726 236.441,68.517 236.598,68.267 C236.755,68.016 236.833,67.718 236.833,67.376 C236.833,66.956 236.729,66.596 236.518,66.306 C236.337,66.051 236.101,65.825 235.816,65.621 L235.816,61.672 C236.337,61.861 236.855,62.076 237.363,62.312 C237.922,62.569 238.423,62.877 238.868,63.228 C239.308,63.588 239.67,64.004 239.948,64.489 C240.225,64.975 240.367,65.545 240.367,66.214 C240.367,67.073 240.146,67.811 239.702,68.423 C239.261,69.03 238.691,69.531 237.999,69.922 C237.336,70.292 236.611,70.569 235.816,70.752 M233.373,64.487 C233.281,64.451 233.189,64.414 233.097,64.377 C232.538,64.172 231.979,63.947 231.421,63.704 C230.863,63.456 230.363,63.163 229.921,62.812 C229.48,62.465 229.118,62.049 228.837,61.56 C228.561,61.069 228.419,60.476 228.419,59.783 C228.419,58.939 228.642,58.224 229.083,57.645 C229.527,57.065 230.083,56.603 230.759,56.238 C231.431,55.879 232.163,55.622 232.954,55.458 C233.095,55.431 233.235,55.406 233.373,55.384 L233.373,57.122 C233.219,57.175 233.073,57.238 232.935,57.308 C232.649,57.462 232.415,57.659 232.238,57.902 C232.063,58.15 231.974,58.458 231.974,58.821 C231.974,59.187 232.078,59.508 232.278,59.783 C232.485,60.056 232.756,60.299 233.097,60.504 C233.185,60.558 233.277,60.612 233.373,60.665 L233.373,64.487 M238.303,60.21 C238.155,59.705 238.004,59.251 237.854,58.841 C237.706,58.434 237.511,58.083 237.273,57.79 C237.035,57.5 236.73,57.275 236.364,57.117 C236.201,57.049 236.019,56.995 235.816,56.957 L235.816,55.237 C236.261,55.255 236.696,55.293 237.12,55.35 C237.746,55.429 238.366,55.57 238.979,55.757 C239.088,55.785 239.142,55.842 239.142,55.921 C239.167,56.149 239.193,56.473 239.213,56.874 C239.235,57.275 239.25,57.686 239.263,58.107 C239.277,58.527 239.289,58.924 239.293,59.299 C239.3,59.677 239.307,59.952 239.307,60.13 L238.303,60.21" id="Fill-461" fill="#FFFFFE"></path>
                <polygon id="Fill-462" fill="#FFFFFE" points="233.373 72.745 235.816 72.745 235.816 53.402 233.373 53.402"></polygon>
                <polygon id="Fill-463" fill="#FEFDFC" points="222.044 163.958 228.106 163.958 228.106 141.167 222.044 141.167"></polygon>
                <polygon id="Fill-464" fill="#FEFDFC" points="234.172 163.958 240.235 163.958 240.235 141.167 234.172 141.167"></polygon>
                <path d="M243.267,129.983 C240.511,129.983 238.277,127.748 238.277,124.992 C238.277,122.235 240.511,119.999 243.267,119.999 C243.268,119.999 243.269,119.999 243.27,119.999 L243.27,129.983 C243.269,129.983 243.268,129.983 243.267,129.983" id="Fill-465" fill="#F7C550"></path>
                <polygon id="Fill-466" fill="#FEFDFC" points="216.17 173.885 243.27 173.885 243.27 169.337 216.17 169.337"></polygon>
                <polygon id="Fill-467" fill="#FEFDFC" points="211.241 180.827 243.27 180.827 243.27 175.881 211.241 175.881"></polygon>
                <polygon id="Fill-468" fill="#FEFDFC" points="216.17 139.393 243.27 139.393 243.27 134.846 216.17 134.846"></polygon>
                <path d="M243.27,133.078 L211.241,133.078 L211.241,128.875 L243.267,113.823 L243.27,113.825 L243.27,119.999 C243.269,119.999 243.268,119.999 243.267,119.999 C240.511,119.999 238.277,122.235 238.277,124.992 C238.277,127.748 240.511,129.983 243.267,129.983 C243.268,129.983 243.269,129.983 243.27,129.983 L243.27,133.078" id="Fill-469" fill="#FEFDFC"></path>
                <polygon id="Fill-470" fill="#FEFDFC" points="220.339 168.045 229.814 168.045 229.814 163.958 220.339 163.958"></polygon>
                <polygon id="Fill-471" fill="#FEFDFC" points="232.468 168.045 241.942 168.045 241.942 163.958 232.468 163.958"></polygon>
                <path d="M243.27,249.351 L208.821,249.351 C206.687,249.351 204.94,247.602 204.94,245.466 L204.94,203.113 C204.94,200.97 206.687,199.227 208.821,199.227 L243.27,199.227 L243.27,204.01 L209.162,204.01 L209.162,208.685 L243.27,208.685 L243.27,232.203 L209.162,232.203 L209.162,236.878 L243.27,236.878 L243.27,239.82 L209.162,239.82 L209.162,244.495 L243.27,244.495 L243.27,249.351 M216.661,228.403 C217.024,228.454 217.395,228.48 217.771,228.48 C218.148,228.48 218.519,228.454 218.881,228.403 L223.706,228.404 C224.793,228.403 225.668,227.527 225.681,226.434 L225.677,221.598 C225.727,221.238 225.753,220.871 225.753,220.497 C225.753,220.12 225.727,219.749 225.676,219.385 L225.673,214.568 C225.673,213.484 224.789,212.595 223.705,212.595 C223.704,212.595 223.703,212.595 223.702,212.595 L218.875,212.593 C218.514,212.544 218.146,212.518 217.771,212.518 C217.399,212.518 217.032,212.543 216.673,212.593 L211.829,212.591 C210.745,212.591 209.865,213.471 209.865,214.557 L209.865,215.807 L209.863,215.807 L209.863,216.317 L209.865,216.317 L209.864,219.404 C209.815,219.761 209.79,220.126 209.79,220.497 C209.79,220.867 209.815,221.231 209.864,221.588 L209.864,224.864 L209.863,224.864 L209.863,226.43 C209.863,227.516 210.747,228.403 211.834,228.403 L216.661,228.403" id="Fill-472" fill="#E26884"></path>
                <path d="M223.706,228.404 L218.881,228.403 C220.996,228.109 222.845,226.987 224.09,225.375 L225.498,225.375 L225.498,224.864 L224.454,224.864 C225.085,223.9 225.513,222.792 225.677,221.598 L225.681,226.434 C225.668,227.527 224.793,228.403 223.706,228.404 M216.661,228.403 L211.834,228.403 C210.747,228.403 209.863,227.516 209.863,226.43 L209.863,225.375 L211.453,225.375 C212.699,226.987 214.547,228.109 216.661,228.403 M217.771,227.97 C215.708,227.97 213.841,227.134 212.488,225.782 C212.357,225.651 212.232,225.515 212.111,225.375 L223.433,225.375 C223.312,225.515 223.186,225.651 223.055,225.782 C221.703,227.134 219.836,227.97 217.771,227.97 M223.836,224.864 L211.707,224.864 C210.822,223.636 210.3,222.128 210.3,220.497 C210.3,218.948 210.771,217.51 211.578,216.317 L223.965,216.317 C224.772,217.51 225.243,218.948 225.243,220.497 C225.243,222.128 224.722,223.636 223.836,224.864 M217.773,217.251 C215.979,217.251 214.524,218.705 214.524,220.497 C214.524,222.292 215.978,223.747 217.773,223.747 C219.567,223.747 221.02,222.292 221.02,220.497 C221.02,218.705 219.567,217.251 217.773,217.251 M211.089,224.864 L209.863,224.864 L209.864,221.588 C210.028,222.785 210.456,223.898 211.089,224.864 M217.773,223.238 C216.26,223.235 215.036,222.011 215.033,220.497 C215.036,218.987 216.26,217.763 217.773,217.761 C219.285,217.763 220.508,218.987 220.511,220.497 C220.508,222.011 219.285,223.235 217.773,223.238 M209.864,219.404 L209.865,216.317 L210.972,216.317 C210.404,217.238 210.018,218.284 209.864,219.404 M225.676,219.385 C225.521,218.272 225.136,217.233 224.571,216.317 L225.498,216.317 L225.498,215.807 L224.23,215.807 C222.983,214.095 221.073,212.897 218.875,212.593 L223.702,212.595 C223.703,212.595 223.704,212.595 223.705,212.595 C224.789,212.595 225.673,213.484 225.673,214.568 L225.676,219.385 M223.588,215.807 L211.956,215.807 C212.123,215.6 212.301,215.403 212.488,215.215 C213.841,213.863 215.708,213.027 217.771,213.027 C219.836,213.027 221.703,213.863 223.055,215.215 C223.243,215.403 223.421,215.6 223.588,215.807 M211.314,215.807 L209.865,215.807 L209.865,214.557 C209.865,213.471 210.745,212.591 211.829,212.591 L216.673,212.593 C214.474,212.895 212.561,214.093 211.314,215.807" id="Fill-473" fill="#F8C770"></path>
                <path d="M217.773,223.747 C215.978,223.747 214.524,222.292 214.524,220.497 C214.524,218.705 215.979,217.251 217.773,217.251 C219.567,217.251 221.02,218.705 221.02,220.497 C221.02,222.292 219.567,223.747 217.773,223.747 M217.773,217.761 C216.26,217.763 215.036,218.987 215.033,220.497 C215.036,222.011 216.26,223.235 217.773,223.238 C219.285,223.235 220.508,222.011 220.511,220.497 C220.508,218.987 219.285,217.763 217.773,217.761" id="Fill-474" fill="#FFFFFE"></path>
                <path d="M217.771,228.48 C217.395,228.48 217.024,228.454 216.661,228.403 C214.547,228.109 212.699,226.987 211.453,225.375 L212.111,225.375 C212.232,225.515 212.357,225.651 212.488,225.782 C213.841,227.134 215.708,227.97 217.771,227.97 C219.836,227.97 221.703,227.134 223.055,225.782 C223.186,225.651 223.312,225.515 223.433,225.375 L224.09,225.375 C222.845,226.987 220.996,228.109 218.881,228.403 C218.519,228.454 218.148,228.48 217.771,228.48 M224.454,224.864 L223.836,224.864 C224.722,223.636 225.243,222.128 225.243,220.497 C225.243,218.948 224.772,217.51 223.965,216.317 L224.571,216.317 C225.136,217.233 225.521,218.272 225.676,219.385 C225.727,219.749 225.753,220.12 225.753,220.497 C225.753,220.871 225.727,221.238 225.677,221.598 C225.513,222.792 225.085,223.9 224.454,224.864 M211.707,224.864 L211.089,224.864 C210.456,223.898 210.028,222.785 209.864,221.588 C209.815,221.231 209.79,220.867 209.79,220.497 C209.79,220.126 209.815,219.761 209.864,219.404 C210.018,218.284 210.404,217.238 210.972,216.317 L211.578,216.317 C210.771,217.51 210.3,218.948 210.3,220.497 C210.3,222.128 210.822,223.636 211.707,224.864 M224.23,215.807 L223.588,215.807 C223.421,215.6 223.243,215.403 223.055,215.215 C221.703,213.863 219.836,213.027 217.771,213.027 C215.708,213.027 213.841,213.863 212.488,215.215 C212.301,215.403 212.123,215.6 211.956,215.807 L211.314,215.807 C212.561,214.093 214.474,212.895 216.673,212.593 C217.032,212.543 217.399,212.518 217.771,212.518 C218.146,212.518 218.514,212.544 218.875,212.593 C221.073,212.897 222.983,214.095 224.23,215.807" id="Fill-475" fill="#FFFFFE"></path>
                <polygon id="Fill-476" fill="#FFFFFE" points="209.863 216.317 225.498 216.317 225.498 215.807 209.863 215.807"></polygon>
                <polygon id="Fill-477" fill="#FFFFFE" points="209.863 225.375 225.498 225.375 225.498 224.864 209.863 224.864"></polygon>
                <polygon id="Fill-478" fill="#FFFFFE" points="209.162 244.495 243.27 244.495 243.27 239.82 209.162 239.82"></polygon>
                <polygon id="Fill-479" fill="#FFFFFE" points="209.162 236.878 243.27 236.878 243.27 232.203 209.162 232.203"></polygon>
                <polygon id="Fill-480" fill="#FFFFFE" points="209.162 208.685 243.27 208.685 243.27 204.01 209.162 204.01"></polygon>
                <path d="M347.884,308.333 L343.495,308.333 C343.495,308.333 350.506,269.595 348.277,235.21 C347.546,223.941 345.843,213.917 343.366,205.461 C347.23,215.751 349.748,228.254 350.292,241.803 C350.411,244.665 350.767,247.657 351.29,250.73 L347.884,308.333" id="Fill-481" fill="#C78455"></path>
                <path d="M343.495,308.333 L321.172,308.333 L321.136,308.321 C312.961,305.237 306.517,298.983 301.926,289.042 C309.084,285.983 314.134,278.862 314.134,270.619 L314.134,241.8 C326.932,273.439 343.495,308.333 343.495,308.333" id="Fill-482" fill="#C78455"></path>
                <path d="M301.926,289.042 C299.127,282.983 297.017,275.556 295.623,266.642 L299.67,266.642 L299.67,197.834 C300.72,206.66 306.81,223.696 314.134,241.8 L314.134,270.619 C314.134,278.862 309.084,285.983 301.926,289.042 M299.67,193.602 L299.67,192.135 L299.914,192.796 C299.813,193.033 299.732,193.302 299.67,193.602" id="Fill-483" fill="#22201B"></path>
                <path d="M299.67,266.642 L295.623,266.642 C294.704,260.772 294.096,254.255 293.807,247.064 C293.027,227.649 294.404,209.266 298.584,196.328 L298.584,196.327 L287.945,173.934 C287.945,173.934 272.057,156.369 264.493,142.027 L264.493,141.167 L264.048,141.167 C263.744,140.569 263.455,139.977 263.184,139.393 L267.107,139.393 C275.06,153.196 291.32,169.541 291.32,169.541 L299.67,192.135 L299.67,193.602 C299.451,194.651 299.461,196.082 299.67,197.834 L299.67,266.642" id="Fill-484" fill="#CC9531"></path>
                <path d="M264.493,142.027 C264.341,141.738 264.193,141.452 264.048,141.167 L264.493,141.167 L264.493,142.027" id="Fill-485" fill="#CEC0A1"></path>
                <path d="M264.768,134.846 L261.398,134.846 C261.211,134.24 261.053,133.649 260.928,133.078 L264.042,133.078 C264.259,133.656 264.501,134.246 264.768,134.846 M263.827,123.486 L263.033,123.113 C264.187,121.451 265.674,120.023 267.39,118.822 C265.876,120.255 264.639,121.851 263.827,123.486" id="Fill-486" fill="#CC9531"></path>
                <path d="M267.107,139.393 L263.184,139.393 C262.448,137.809 261.841,136.282 261.398,134.846 L264.768,134.846 C265.418,136.311 266.21,137.837 267.107,139.393" id="Fill-487" fill="#CEC0A1"></path>
                <path d="M264.042,133.078 L260.928,133.078 C260.561,131.404 260.469,129.889 260.72,128.59 C261.115,126.542 261.918,124.718 263.033,123.113 L263.827,123.486 C263.524,124.095 263.28,124.71 263.103,125.325 C262.499,127.422 262.924,130.093 264.042,133.078" id="Fill-488" fill="#CEC0A1"></path>
                <path d="M343.366,205.461 C341.585,200.718 339.518,196.446 337.227,192.757 L314.134,151.313 L314.134,143.968 L338.817,192.912 C339.082,193.513 339.244,194.039 339.337,194.511 C340.84,197.784 342.19,201.446 343.366,205.461" id="Fill-489" fill="#C78455"></path>
                <path d="M314.134,151.313 L313.133,149.517 C313.133,149.517 306.039,140.624 299.67,132.859 L299.67,127.326 C304.993,133.003 310.4,139.304 314.134,143.968 L314.134,151.313" id="Fill-490" fill="#22201B"></path>
                <path d="M299.67,132.859 C295.667,127.979 291.95,123.545 290.46,122.042 C286.632,118.183 283.626,114.664 278.746,114.664 C277.73,114.664 276.632,114.816 275.43,115.15 C272.504,115.962 269.734,117.18 267.39,118.822 C270.916,115.486 275.946,113.034 280.623,113.034 C281.621,113.034 282.602,113.145 283.55,113.384 C286.515,114.13 293.027,120.242 299.67,127.326 L299.67,132.859" id="Fill-491" fill="#CC9531"></path>
                <path d="M343.495,308.333 C343.495,308.333 326.932,273.439 314.134,241.8 L314.134,151.313 L337.227,192.757 C339.518,196.446 341.585,200.718 343.366,205.461 C345.843,213.917 347.546,223.941 348.277,235.21 C350.506,269.595 343.495,308.333 343.495,308.333" id="Fill-492" fill="#A7693E"></path>
                <path d="M314.134,241.8 C306.81,223.696 300.72,206.66 299.67,197.834 L299.67,193.602 C299.732,193.302 299.813,193.033 299.914,192.796 L299.67,192.135 L299.67,132.859 C306.039,140.624 313.133,149.517 313.133,149.517 L314.134,151.313 L314.134,241.8" id="Fill-493" fill="#1D1A15"></path>
                <path d="M299.67,197.834 C299.461,196.082 299.451,194.651 299.67,193.602 L299.67,197.834 M299.67,192.135 L291.32,169.541 C291.32,169.541 275.06,153.196 267.107,139.393 L270.367,139.393 L270.367,134.846 L264.768,134.846 C264.501,134.246 264.259,133.656 264.042,133.078 L275.296,133.078 L275.296,128.875 L263.827,123.486 C264.639,121.851 265.876,120.255 267.39,118.822 C269.734,117.18 272.504,115.962 275.43,115.15 C276.632,114.816 277.73,114.664 278.746,114.664 C283.626,114.664 286.632,118.183 290.46,122.042 C291.95,123.545 295.667,127.979 299.67,132.859 L299.67,192.135" id="Fill-494" fill="#AB7531"></path>
                <path d="M270.367,139.393 L267.107,139.393 C266.21,137.837 265.418,136.311 264.768,134.846 L270.367,134.846 L270.367,139.393" id="Fill-495" fill="#AB966D"></path>
                <path d="M275.296,133.078 L264.042,133.078 C262.924,130.093 262.499,127.422 263.103,125.325 C263.28,124.71 263.524,124.095 263.827,123.486 L275.296,128.875 L275.296,133.078" id="Fill-496" fill="#AB966D"></path>
                <path d="M351.88,234.248 C346.429,199.2 332.516,177.226 317.22,177.843 C299.669,178.55 293.694,211.037 295.141,247.063 C296.592,283.097 306.031,302.12 322.471,308.321 L322.507,308.333 L353.838,308.333 C353.838,308.333 357.175,268.295 351.88,234.248" id="Fill-497" fill="#F1B683"></path>
                <path d="M314.468,149.517 C314.468,149.517 295.657,125.936 291.795,122.042 C287.17,117.38 283.746,113.213 276.766,115.15 C269.628,117.131 263.419,121.528 262.055,128.59 C259.627,141.15 289.279,173.934 289.279,173.934 L299.92,196.327 C304.256,204.237 313.528,206.053 321.432,201.72 C329.338,197.385 343.014,200.869 338.677,192.964 L314.468,149.517" id="Fill-498" fill="#F1B683"></path>
                <path d="M274.479,124.695 C267.404,129.356 265.33,130.276 270.668,138.374 C272.753,141.539 276.56,147.322 285.507,141.428 C294.45,135.534 290.641,129.75 288.556,126.589 C283.22,118.489 281.551,120.036 274.479,124.695" id="Fill-499" fill="#FBE1C4"></path>
                <path d="M172.403,195.414 L160.519,188.864 C152.968,184.69 150.229,175.188 154.403,167.641 C157.25,162.484 162.583,159.572 168.083,159.572 C169.525,159.572 170.98,159.773 172.403,160.185 L172.403,195.414" id="Fill-500" fill="#3B625F"></path>
                <path d="M186.867,202.486 C185.274,202.189 183.7,201.637 182.202,200.814 L172.403,195.414 L172.403,160.185 C173.502,160.504 174.583,160.949 175.626,161.525 L186.867,167.72 L186.867,202.486" id="Fill-501" fill="#35322A"></path>
                <path d="M189.712,202.748 C188.765,202.748 187.812,202.662 186.867,202.486 L186.867,167.72 L197.247,173.44 C204.808,177.594 207.568,187.091 203.411,194.65 C200.57,199.824 195.226,202.749 189.712,202.748" id="Fill-502" fill="#CD9A39"></path>
                <path d="M202.743,193.982 C206.901,186.424 204.14,176.927 196.579,172.773 L174.959,160.858 C167.41,156.684 157.905,159.421 153.735,166.974 C149.563,174.521 152.301,184.023 159.851,188.197 L181.535,200.147 C189.096,204.302 198.591,201.542 202.743,193.982" id="Fill-503" fill="#F1B683"></path>
                <path d="M196.276,190.426 C200.356,183.002 201.764,181.221 193.262,176.55 C189.941,174.726 183.876,171.387 178.714,180.777 C173.556,190.163 179.624,193.5 182.945,195.323 C191.442,199.995 192.197,197.849 196.276,190.426" id="Fill-504" fill="#FBE1C4"></path>
                <path d="M172.403,233.795 L164.087,229.212 C157.212,225.411 154.718,216.759 158.518,209.887 C161.111,205.191 165.967,202.54 170.976,202.54 C171.451,202.54 171.927,202.564 172.403,202.612 L172.403,233.795" id="Fill-505" fill="#3B625F"></path>
                <path d="M186.867,241.334 C185.832,241.045 184.813,240.633 183.831,240.093 L172.403,233.795 L172.403,202.612 C174.259,202.8 176.108,203.359 177.844,204.318 L186.867,209.291 L186.867,241.334" id="Fill-506" fill="#35322A"></path>
                <path d="M190.669,241.854 C189.4,241.854 188.122,241.684 186.867,241.334 L186.867,209.291 L197.53,215.167 C204.415,218.95 206.929,227.598 203.143,234.48 C200.555,239.191 195.69,241.854 190.669,241.854" id="Fill-507" fill="#CD9A39"></path>
                <path d="M202.476,233.813 C206.261,226.931 203.747,218.282 196.862,214.5 L177.176,203.651 C170.302,199.85 161.647,202.343 157.851,209.219 C154.05,216.091 156.544,224.744 163.42,228.545 L183.163,239.426 C190.048,243.209 198.694,240.697 202.476,233.813" id="Fill-508" fill="#F1B683"></path>
                <path d="M196.588,230.575 C200.302,223.814 201.582,222.193 193.842,217.94 C190.818,216.278 185.295,213.238 180.595,221.789 C175.897,230.335 181.424,233.374 184.446,235.034 C192.185,239.287 192.871,237.333 196.588,230.575" id="Fill-509" fill="#FBE1C4"></path>
                <polyline id="Fill-510" fill="#3B625F" points="96.584 168.045 94.018 168.045 101.964 145.753 104.624 145.753 96.584 168.045"></polyline>
                <path d="M48.019,65.895 L0.928,185.714 C0.928,185.714 -0.172,252.948 8.136,308.333 L120.471,308.333 C126.891,277.647 126.713,171.611 126.713,171.611 L150.729,87.706 L127.553,82.181 L96.584,168.045 L94.018,168.045 L124.912,81.377 L48.019,65.895" id="Fill-511" fill="#F0AC7C"></path>
                <path d="M185.692,138.276 C185.692,142.39 182.33,145.753 178.229,145.753 L45.665,145.753 C41.558,145.753 38.198,142.39 38.198,138.276 L38.198,56.784 C38.198,52.661 41.558,49.305 45.665,49.305 L178.229,49.305 C182.33,49.305 185.692,52.661 185.692,56.784 L185.692,138.276" id="Fill-512" fill="#344156"></path>
                <path d="M48.157,57.042 L49.268,57.042 L49.268,62.169 C49.268,64.261 50.151,64.929 51.295,64.929 C52.445,64.929 53.34,64.261 53.34,62.169 L53.34,57.042 L54.414,57.042 L54.414,62.141 C54.414,64.934 53.068,65.895 51.295,65.895 C49.52,65.895 48.157,64.934 48.157,62.141 L48.157,57.042" id="Fill-513" fill="#FFFFFE"></path>
                <path d="M56.658,59.298 L57.561,59.298 L57.653,60.225 L57.693,60.225 C58.301,59.603 58.959,59.145 59.849,59.145 C61.208,59.145 61.815,60.007 61.815,61.65 L61.815,65.741 L60.725,65.741 L60.725,61.809 C60.725,60.602 60.357,60.081 59.504,60.081 C58.843,60.081 58.397,60.425 57.744,61.069 L57.744,65.741 L56.658,65.741 L56.658,59.298" id="Fill-514" fill="#FFFFFE"></path>
                <path d="M63.919,65.741 L65.01,65.741 L65.01,59.298 L63.919,59.298 L63.919,65.741 Z M63.72,57.274 C63.72,56.843 64.042,56.565 64.464,56.565 C64.896,56.565 65.227,56.843 65.227,57.274 C65.227,57.683 64.896,57.969 64.464,57.969 C64.042,57.969 63.72,57.683 63.72,57.274 Z" id="Fill-515" fill="#FFFFFE"></path>
                <path d="M66.247,59.298 L67.374,59.298 L68.596,62.954 C68.779,63.593 68.995,64.239 69.201,64.856 L69.247,64.856 C69.431,64.239 69.64,63.593 69.837,62.954 L71.048,59.298 L72.13,59.298 L69.848,65.741 L68.577,65.741 L66.247,59.298" id="Fill-516" fill="#FFFFFE"></path>
                <path d="M77.36,62.032 C77.36,60.724 76.773,59.994 75.763,59.994 C74.864,59.994 74.032,60.734 73.908,62.032 L77.36,62.032 Z M75.741,59.145 C77.383,59.145 78.31,60.326 78.31,62.169 C78.31,62.382 78.299,62.595 78.271,62.753 L73.93,62.753 C73.999,64.153 74.843,65.024 76.074,65.024 C76.677,65.024 77.194,64.824 77.677,64.521 L78.056,65.238 C77.511,65.6 76.814,65.895 75.938,65.895 C74.218,65.895 72.85,64.643 72.85,62.532 C72.85,60.425 74.264,59.145 75.741,59.145 Z" id="Fill-517" fill="#FFFFFE"></path>
                <path d="M79.9,59.298 L80.804,59.298 L80.897,60.47 L80.937,60.47 C81.382,59.658 82.046,59.145 82.775,59.145 C83.047,59.145 83.254,59.163 83.461,59.271 L83.254,60.225 C83.038,60.161 82.893,60.107 82.63,60.107 C82.089,60.107 81.431,60.515 80.998,61.597 L80.998,65.741 L79.9,65.741 L79.9,59.298" id="Fill-518" fill="#FFFFFE"></path>
                <path d="M84.214,64.284 C84.762,64.734 85.343,65.061 86.112,65.061 C86.95,65.061 87.372,64.606 87.372,64.057 C87.372,63.38 86.603,63.085 85.909,62.831 C84.991,62.496 83.982,62.059 83.982,60.969 C83.982,59.93 84.805,59.145 86.197,59.145 C87.012,59.145 87.71,59.467 88.201,59.862 L87.683,60.552 C87.254,60.225 86.784,59.985 86.21,59.985 C85.399,59.985 85.029,60.425 85.029,60.92 C85.029,61.524 85.739,61.742 86.468,62.032 C87.396,62.369 88.428,62.753 88.428,63.98 C88.428,65.024 87.592,65.895 86.063,65.895 C85.151,65.895 84.273,65.514 83.66,65.015 L84.214,64.284" id="Fill-519" fill="#FFFFFE"></path>
                <path d="M91.823,65.024 C92.442,65.024 92.96,64.724 93.585,64.161 L93.585,62.369 C91.424,62.631 90.695,63.162 90.695,63.989 C90.695,64.724 91.186,65.024 91.823,65.024 Z M93.585,61.65 C93.585,60.834 93.311,60.047 92.26,60.047 C91.508,60.047 90.839,60.375 90.348,60.724 L89.903,59.975 C90.507,59.579 91.404,59.145 92.437,59.145 C94.008,59.145 94.686,60.188 94.686,61.779 L94.686,65.741 L93.78,65.741 L93.68,64.98 L93.663,64.98 C93.038,65.483 92.318,65.895 91.522,65.895 C90.431,65.895 89.626,65.228 89.626,64.075 C89.626,62.672 90.839,61.96 93.585,61.65 Z" id="Fill-520" fill="#FFFFFE"></path>
                <path d="M96.73,56.298 L97.824,56.298 L97.824,64.521 C97.824,64.87 97.971,65.007 98.136,65.007 C98.2,65.007 98.254,65.007 98.364,64.98 L98.514,65.792 C98.364,65.869 98.182,65.895 97.896,65.895 C97.07,65.895 96.73,65.382 96.73,64.435 L96.73,56.298" id="Fill-521" fill="#FFFFFE"></path>
                <path d="M105.531,64.87 C107.02,64.87 107.891,64.334 107.891,63.135 C107.891,62.068 107.044,61.578 105.531,61.578 L104.017,61.578 L104.017,64.87 L105.531,64.87 Z M105.301,60.747 C106.774,60.747 107.393,60.225 107.393,59.244 C107.393,58.323 106.706,57.914 105.351,57.914 L104.017,57.914 L104.017,60.747 L105.301,60.747 Z M102.915,57.042 L105.496,57.042 C107.256,57.042 108.481,57.642 108.481,59.163 C108.481,60.021 107.991,60.802 106.974,61.065 L106.974,61.111 C108.245,61.325 108.983,62.004 108.983,63.198 C108.983,64.901 107.628,65.741 105.685,65.741 L102.915,65.741 L102.915,57.042 Z" id="Fill-522" fill="#FFFFFE"></path>
                <path d="M112.489,65.024 C113.115,65.024 113.633,64.724 114.26,64.161 L114.26,62.369 C112.097,62.631 111.365,63.162 111.365,63.989 C111.365,64.724 111.854,65.024 112.489,65.024 Z M114.26,61.65 C114.26,60.834 113.976,60.047 112.936,60.047 C112.169,60.047 111.501,60.375 111.002,60.724 L110.574,59.975 C111.17,59.579 112.073,59.145 113.103,59.145 C114.676,59.145 115.351,60.188 115.351,61.779 L115.351,65.741 L114.447,65.741 L114.356,64.98 L114.313,64.98 C113.703,65.483 112.979,65.895 112.193,65.895 C111.095,65.895 110.298,65.228 110.298,64.075 C110.298,62.672 111.501,61.96 114.26,61.65 Z" id="Fill-523" fill="#FFFFFE"></path>
                <path d="M117.398,59.298 L118.312,59.298 L118.396,60.225 L118.444,60.225 C119.047,59.603 119.717,59.145 120.609,59.145 C121.963,59.145 122.565,60.007 122.565,61.65 L122.565,65.741 L121.474,65.741 L121.474,61.809 C121.474,60.602 121.111,60.081 120.255,60.081 C119.596,60.081 119.14,60.425 118.495,61.069 L118.495,65.741 L117.398,65.741 L117.398,59.298" id="Fill-524" fill="#FFFFFE"></path>
                <polyline id="Fill-525" fill="#FFFFFE" points="124.675 56.298 125.744 56.298 125.744 62.694 125.779 62.694 128.529 59.298 129.723 59.298 127.563 61.878 130.025 65.741 128.825 65.741 126.938 62.631 125.744 64.057 125.744 65.741 124.675 65.741 124.675 56.298"></polyline>
                <path d="M48.148,120.51 L50.082,120.51 L50.082,114.263 L48.546,114.263 L48.546,113.578 C49.313,113.441 49.864,113.223 50.331,112.951 L51.173,112.951 L51.173,120.51 L52.925,120.51 L52.925,121.409 L48.148,121.409 L48.148,120.51" id="Fill-526" fill="#FFFFFE"></path>
                <path d="M54.226,120.77 C56.772,118.212 58.201,116.688 58.201,115.334 C58.201,114.363 57.677,113.678 56.593,113.678 C55.891,113.678 55.277,114.126 54.797,114.699 L54.176,114.082 C54.871,113.306 55.631,112.796 56.731,112.796 C58.289,112.796 59.263,113.786 59.263,115.28 C59.263,116.874 57.828,118.458 55.816,120.542 C56.284,120.51 56.79,120.464 57.239,120.464 L59.689,120.464 L59.689,121.409 L54.226,121.409 L54.226,120.77" id="Fill-527" fill="#FFFFFE"></path>
                <path d="M61.197,119.651 C61.699,120.188 62.353,120.665 63.356,120.665 C64.373,120.665 65.111,120.06 65.111,119.117 C65.111,118.112 64.411,117.422 62.393,117.422 L62.393,116.597 C64.21,116.597 64.81,115.902 64.81,115.011 C64.81,114.195 64.239,113.678 63.34,113.678 C62.638,113.678 62.051,114.027 61.533,114.53 L60.955,113.845 C61.605,113.237 62.385,112.796 63.374,112.796 C64.855,112.796 65.926,113.578 65.926,114.925 C65.926,115.966 65.29,116.61 64.373,116.955 L64.373,117.005 C65.393,117.246 66.212,117.989 66.212,119.157 C66.212,120.65 64.977,121.558 63.418,121.558 C62.073,121.558 61.208,121 60.626,120.37 L61.197,119.651" id="Fill-528" fill="#FFFFFE"></path>
                <path d="M70.919,118.19 L70.919,115.744 C70.919,115.285 70.967,114.567 70.988,114.109 L70.93,114.109 C70.723,114.521 70.484,114.889 70.244,115.316 L68.264,118.19 L70.919,118.19 M73.114,119.076 L71.951,119.076 L71.951,121.409 L70.919,121.409 L70.919,119.076 L67.113,119.076 L67.113,118.362 L70.736,112.951 L71.951,112.951 L71.951,118.19 L73.114,118.19 L73.114,119.076" id="Fill-529" fill="#FFFFFE"></path>
                <path d="M82.391,119.697 C82.893,120.197 83.535,120.665 84.525,120.665 C85.556,120.665 86.386,119.911 86.386,118.739 C86.386,117.55 85.665,116.873 84.572,116.873 C83.998,116.873 83.638,117.051 83.132,117.386 L82.545,117.01 L82.822,112.951 L87.06,112.951 L87.06,113.88 L83.784,113.88 L83.553,116.397 C83.95,116.183 84.336,116.043 84.863,116.043 C86.303,116.043 87.479,116.873 87.479,118.699 C87.479,120.532 86.095,121.558 84.637,121.558 C83.273,121.558 82.443,121 81.862,120.414 L82.391,119.697" id="Fill-530" fill="#FFFFFE"></path>
                <path d="M93.156,118.853 C93.156,117.754 92.642,117.051 91.583,117.051 C91.062,117.051 90.393,117.373 89.821,118.163 C89.953,119.815 90.599,120.692 91.683,120.692 C92.504,120.692 93.156,119.96 93.156,118.853 M93.422,114.363 C93.072,113.949 92.554,113.695 92.015,113.695 C90.839,113.695 89.842,114.617 89.796,117.297 C90.322,116.646 91.083,116.237 91.772,116.237 C93.224,116.237 94.19,117.105 94.19,118.853 C94.19,120.464 93.045,121.558 91.683,121.558 C90.018,121.558 88.762,120.206 88.762,117.496 C88.762,114.103 90.3,112.796 91.982,112.796 C92.893,112.796 93.552,113.168 94.019,113.695 L93.422,114.363" id="Fill-531" fill="#FFFFFE"></path>
                <path d="M99.53,113.88 L95.302,113.88 L95.302,112.951 L100.752,112.951 L100.752,113.618 C98.751,116.183 98.346,118.112 98.2,121.409 L97.07,121.409 C97.211,118.212 97.85,116.205 99.53,113.88" id="Fill-532" fill="#FFFFFE"></path>
                <path d="M106.12,115.103 C106.12,114.258 105.581,113.595 104.643,113.595 C103.866,113.595 103.288,114.131 103.288,114.967 C103.288,115.97 104.209,116.397 105.226,116.787 C105.798,116.288 106.12,115.724 106.12,115.103 Z M104.653,120.77 C105.64,120.77 106.318,120.151 106.318,119.275 C106.318,118.176 105.242,117.781 104.017,117.297 C103.345,117.754 102.841,118.377 102.841,119.143 C102.841,120.079 103.622,120.77 104.653,120.77 Z M103.456,116.968 L103.456,116.91 C102.832,116.478 102.277,115.856 102.277,114.967 C102.277,113.664 103.31,112.796 104.677,112.796 C106.144,112.796 107.059,113.722 107.059,115.031 C107.059,115.925 106.401,116.688 105.896,117.091 L105.896,117.137 C106.643,117.568 107.364,118.163 107.364,119.306 C107.364,120.564 106.272,121.558 104.632,121.558 C103.047,121.558 101.854,120.579 101.854,119.253 C101.854,118.141 102.664,117.386 103.456,116.968 Z" id="Fill-533" fill="#FFFFFE"></path>
                <path d="M120.854,116.161 C120.713,114.521 120.053,113.642 118.988,113.642 C118.152,113.642 117.51,114.385 117.51,115.507 C117.51,116.61 118.022,117.297 119.081,117.297 C119.621,117.297 120.277,116.982 120.854,116.161 Z M117.242,119.997 C117.594,120.401 118.106,120.665 118.636,120.665 C119.825,120.665 120.845,119.744 120.881,117.028 C120.35,117.7 119.596,118.122 118.888,118.122 C117.426,118.122 116.488,117.246 116.488,115.507 C116.488,113.88 117.629,112.796 118.988,112.796 C120.654,112.796 121.897,114.131 121.897,116.855 C121.897,120.26 120.362,121.558 118.674,121.558 C117.772,121.558 117.103,121.187 116.629,120.674 L117.242,119.997 Z" id="Fill-534" fill="#FFFFFE"></path>
                <path d="M127.508,117.15 C127.508,114.676 126.833,113.664 125.844,113.664 C124.864,113.664 124.21,114.676 124.21,117.15 C124.21,119.634 124.864,120.692 125.844,120.692 C126.833,120.692 127.508,119.634 127.508,117.15 Z M123.14,117.15 C123.14,114.308 124.157,112.796 125.844,112.796 C127.542,112.796 128.559,114.308 128.559,117.15 C128.559,119.997 127.542,121.558 125.844,121.558 C124.157,121.558 123.14,119.997 123.14,117.15 Z" id="Fill-535" fill="#FFFFFE"></path>
                <path d="M130.206,120.51 L132.141,120.51 L132.141,114.263 L130.604,114.263 L130.604,113.578 C131.374,113.441 131.924,113.223 132.389,112.951 L133.22,112.951 L133.22,120.51 L134.974,120.51 L134.974,121.409 L130.206,121.409 L130.206,120.51" id="Fill-536" fill="#FFFFFE"></path>
                <path d="M136.283,120.77 C138.821,118.212 140.259,116.688 140.259,115.334 C140.259,114.363 139.726,113.678 138.656,113.678 C137.948,113.678 137.333,114.126 136.842,114.699 L136.222,114.082 C136.926,113.306 137.68,112.796 138.793,112.796 C140.344,112.796 141.324,113.786 141.324,115.28 C141.324,116.874 139.868,118.458 137.864,120.542 C138.329,120.51 138.848,120.464 139.297,120.464 L141.736,120.464 L141.736,121.409 L136.283,121.409 L136.283,120.77" id="Fill-537" fill="#FFFFFE"></path>
                <path d="M151.292,119.651 C151.803,120.188 152.457,120.665 153.453,120.665 C154.477,120.665 155.205,120.06 155.205,119.117 C155.205,118.112 154.508,117.422 152.489,117.422 L152.489,116.597 C154.306,116.597 154.893,115.902 154.893,115.011 C154.893,114.195 154.34,113.678 153.426,113.678 C152.728,113.678 152.136,114.027 151.63,114.53 L151.051,113.845 C151.704,113.237 152.481,112.796 153.479,112.796 C154.949,112.796 156.01,113.578 156.01,114.925 C156.01,115.966 155.383,116.61 154.477,116.955 L154.477,117.005 C155.495,117.246 156.302,117.989 156.302,119.157 C156.302,120.65 155.061,121.558 153.509,121.558 C152.166,121.558 151.305,121 150.729,120.37 L151.292,119.651" id="Fill-538" fill="#FFFFFE"></path>
                <path d="M161.013,118.19 L161.013,115.744 C161.013,115.285 161.048,114.567 161.085,114.109 L161.026,114.109 C160.813,114.521 160.585,114.889 160.348,115.316 L158.36,118.19 L161.013,118.19 Z M163.2,119.076 L162.043,119.076 L162.043,121.409 L161.013,121.409 L161.013,119.076 L157.212,119.076 L157.212,118.362 L160.835,112.951 L162.043,112.951 L162.043,118.19 L163.2,118.19 L163.2,119.076 Z" id="Fill-539" fill="#FFFFFE"></path>
                <path d="M164.45,119.697 C164.941,120.197 165.587,120.665 166.584,120.665 C167.614,120.665 168.434,119.911 168.434,118.739 C168.434,117.55 167.728,116.874 166.632,116.874 C166.04,116.874 165.687,117.051 165.18,117.386 L164.602,117.01 L164.875,112.951 L169.119,112.951 L169.119,113.88 L165.843,113.88 L165.612,116.397 C166.007,116.183 166.394,116.042 166.902,116.042 C168.362,116.042 169.536,116.874 169.536,118.699 C169.536,120.532 168.153,121.558 166.678,121.558 C165.331,121.558 164.501,121 163.92,120.415 L164.45,119.697" id="Fill-540" fill="#FFFFFE"></path>
                <path d="M175.214,118.853 C175.214,117.754 174.697,117.051 173.649,117.051 C173.13,117.051 172.438,117.373 171.88,118.163 C172.009,119.815 172.655,120.692 173.748,120.692 C174.579,120.692 175.214,119.96 175.214,118.853 M175.48,114.363 C175.139,113.949 174.628,113.695 174.086,113.695 C172.91,113.695 171.899,114.617 171.836,117.297 C172.382,116.646 173.15,116.237 173.831,116.237 C175.298,116.237 176.249,117.105 176.249,118.853 C176.249,120.464 175.113,121.558 173.748,121.558 C172.067,121.558 170.809,120.206 170.809,117.496 C170.809,114.103 172.353,112.796 174.047,112.796 C174.96,112.796 175.609,113.168 176.086,113.695 L175.48,114.363" id="Fill-541" fill="#FFFFFE"></path>
                <path d="M50.904,127.298 C51.793,127.298 52.472,127.71 52.894,128.178 L52.375,128.755 C51.986,128.36 51.522,128.092 50.904,128.092 C49.532,128.092 48.625,129.223 48.625,131.034 C48.625,132.841 49.492,134.012 50.872,134.012 C51.57,134.012 52.072,133.731 52.539,133.196 L53.068,133.759 C52.493,134.417 51.793,134.817 50.853,134.817 C49.021,134.817 47.671,133.427 47.671,131.044 C47.671,128.718 49.052,127.298 50.904,127.298" id="Fill-542" fill="#FFFFFE"></path>
                <path d="M55.891,134.081 C56.403,134.081 56.838,133.836 57.368,133.363 L57.368,131.865 C55.569,132.092 54.957,132.533 54.957,133.213 C54.957,133.836 55.36,134.081 55.891,134.081 M57.368,131.27 C57.368,130.59 57.139,129.923 56.262,129.923 C55.631,129.923 55.079,130.204 54.653,130.49 L54.28,129.873 C54.789,129.545 55.543,129.16 56.403,129.16 C57.71,129.16 58.273,130.045 58.273,131.384 L58.273,134.685 L57.521,134.685 L57.438,134.04 L57.429,134.04 C56.899,134.454 56.299,134.817 55.64,134.817 C54.726,134.817 54.058,134.248 54.058,133.277 C54.058,132.115 55.079,131.534 57.368,131.27" id="Fill-543" fill="#FFFFFE"></path>
                <path d="M59.986,129.286 L60.741,129.286 L60.812,130.281 L60.847,130.281 C61.217,129.594 61.761,129.16 62.374,129.16 C62.611,129.16 62.781,129.199 62.949,129.277 L62.781,130.077 C62.603,130.013 62.479,129.999 62.248,129.999 C61.792,129.999 61.254,130.317 60.896,131.229 L60.896,134.685 L59.986,134.685 L59.986,129.286" id="Fill-544" fill="#FFFFFE"></path>
                <path d="M65.747,134.049 C66.247,134.049 66.682,133.813 67.122,133.309 L67.122,130.49 C66.663,130.086 66.262,129.923 65.814,129.923 C64.952,129.923 64.27,130.762 64.27,131.997 C64.27,133.277 64.81,134.049 65.747,134.049 M65.662,129.16 C66.289,129.16 66.693,129.405 67.161,129.78 L67.122,128.877 L67.122,126.802 L68.039,126.802 L68.039,134.685 L67.29,134.685 L67.207,134.049 L67.168,134.049 C66.752,134.454 66.171,134.817 65.549,134.817 C64.193,134.817 63.319,133.795 63.319,132.007 C63.319,130.258 64.423,129.16 65.662,129.16" id="Fill-545" fill="#FFFFFE"></path>
                <polyline id="Fill-546" fill="#FFFFFE" points="72.18 127.415 73.088 127.415 73.088 130.463 76.459 130.463 76.459 127.415 77.399 127.415 77.399 134.685 76.459 134.685 76.459 131.256 73.088 131.256 73.088 134.685 72.18 134.685 72.18 127.415"></polyline>
                <path d="M81.382,134.058 C82.317,134.058 82.934,133.232 82.934,132.007 C82.934,130.762 82.317,129.923 81.382,129.923 C80.473,129.923 79.835,130.762 79.835,132.007 C79.835,133.232 80.473,134.058 81.382,134.058 M81.382,129.16 C82.7,129.16 83.883,130.194 83.883,132.007 C83.883,133.781 82.7,134.817 81.382,134.817 C80.068,134.817 78.892,133.781 78.892,132.007 C78.892,130.194 80.068,129.16 81.382,129.16" id="Fill-547" fill="#FFFFFE"></path>
                <path d="M85.285,126.802 L86.197,126.802 L86.197,133.659 C86.197,133.959 86.316,134.058 86.462,134.058 C86.508,134.058 86.552,134.058 86.647,134.04 L86.771,134.73 C86.647,134.775 86.493,134.817 86.252,134.817 C85.571,134.817 85.285,134.381 85.285,133.59 L85.285,126.802" id="Fill-548" fill="#FFFFFE"></path>
                <path d="M90.143,134.049 C90.647,134.049 91.083,133.813 91.523,133.309 L91.523,130.49 C91.07,130.086 90.661,129.923 90.216,129.923 C89.349,129.923 88.666,130.762 88.666,131.997 C88.666,133.277 89.209,134.049 90.143,134.049 M90.06,129.16 C90.687,129.16 91.092,129.405 91.561,129.78 L91.523,128.877 L91.523,126.802 L92.436,126.802 L92.436,134.685 L91.683,134.685 L91.604,134.049 L91.574,134.049 C91.151,134.454 90.573,134.817 89.953,134.817 C88.594,134.817 87.719,133.795 87.719,132.007 C87.719,130.258 88.82,129.16 90.06,129.16" id="Fill-549" fill="#FFFFFE"></path>
                <path d="M97.619,131.593 C97.619,130.49 97.127,129.899 96.284,129.899 C95.537,129.899 94.846,130.507 94.728,131.593 L97.619,131.593 Z M96.266,129.16 C97.642,129.16 98.411,130.158 98.411,131.702 C98.411,131.875 98.396,132.052 98.38,132.184 L94.754,132.184 C94.82,133.35 95.508,134.081 96.541,134.081 C97.054,134.081 97.479,133.913 97.887,133.659 L98.2,134.271 C97.74,134.558 97.169,134.817 96.434,134.817 C94.995,134.817 93.851,133.759 93.851,132.007 C93.851,130.24 95.039,129.16 96.266,129.16 Z" id="Fill-550" fill="#FFFFFE"></path>
                <path d="M99.731,129.286 L100.488,129.286 L100.572,130.281 L100.598,130.281 C100.968,129.594 101.523,129.16 102.133,129.16 C102.361,129.16 102.529,129.199 102.7,129.277 L102.529,130.077 C102.354,130.013 102.228,129.999 101.996,129.999 C101.544,129.999 101.004,130.317 100.646,131.229 L100.646,134.685 L99.731,134.685 L99.731,129.286" id="Fill-551" fill="#FFFFFE"></path>
                <path d="M103.288,129.491 C103.84,129.123 104.113,128.75 104.113,128.105 L104.017,128.114 C103.717,128.114 103.445,127.916 103.445,127.571 C103.445,127.17 103.683,126.944 104.017,126.944 C104.464,126.944 104.727,127.316 104.727,127.952 C104.727,128.833 104.307,129.458 103.536,129.903 L103.288,129.491" id="Fill-552" fill="#FFFFFE"></path>
                <path d="M105.564,133.459 C106.037,133.84 106.502,134.104 107.153,134.104 C107.857,134.104 108.202,133.731 108.202,133.263 C108.202,132.714 107.569,132.474 106.983,132.247 C106.216,131.97 105.374,131.593 105.374,130.698 C105.374,129.836 106.055,129.16 107.222,129.16 C107.891,129.16 108.481,129.458 108.894,129.776 L108.462,130.357 C108.097,130.077 107.717,129.881 107.235,129.881 C106.563,129.881 106.25,130.24 106.25,130.644 C106.25,131.162 106.84,131.349 107.441,131.584 C108.221,131.865 109.088,132.184 109.088,133.209 C109.088,134.081 108.39,134.817 107.11,134.817 C106.347,134.817 105.614,134.494 105.107,134.072 L105.564,133.459" id="Fill-553" fill="#FFFFFE"></path>
                <path d="M112.671,127.416 L113.615,127.416 L116.238,131.983 L117.028,133.491 L117.076,133.491 C117.028,132.746 116.956,131.933 116.956,131.17 L116.956,127.416 L117.829,127.416 L117.829,134.685 L116.88,134.685 L114.238,130.104 L113.463,128.61 L113.419,128.61 C113.476,129.341 113.535,130.126 113.535,130.889 L113.535,134.685 L112.671,134.685 L112.671,127.416" id="Fill-554" fill="#FFFFFE"></path>
                <path d="M121.299,134.081 C121.83,134.081 122.261,133.836 122.774,133.363 L122.774,131.865 C120.976,132.092 120.362,132.533 120.362,133.213 C120.362,133.836 120.769,134.081 121.299,134.081 Z M122.774,131.27 C122.774,130.59 122.54,129.923 121.672,129.923 C121.035,129.923 120.482,130.204 120.068,130.49 L119.706,129.873 C120.197,129.545 120.952,129.16 121.818,129.16 C123.129,129.16 123.689,130.045 123.689,131.384 L123.689,134.685 L122.931,134.685 L122.847,134.04 L122.824,134.04 C122.305,134.454 121.721,134.817 121.047,134.817 C120.139,134.817 119.462,134.248 119.462,133.277 C119.462,132.115 120.482,131.534 122.774,131.27 Z" id="Fill-555" fill="#FFFFFE"></path>
                <path d="M125.399,129.286 L126.149,129.286 L126.221,130.077 L126.259,130.077 C126.731,129.568 127.289,129.16 127.924,129.16 C128.759,129.16 129.199,129.555 129.412,130.194 C129.975,129.594 130.529,129.16 131.194,129.16 C132.292,129.16 132.819,129.903 132.819,131.27 L132.819,134.685 L131.924,134.685 L131.924,131.398 C131.924,130.385 131.601,129.959 130.92,129.959 C130.497,129.959 130.064,130.227 129.571,130.78 L129.571,134.685 L128.661,134.685 L128.661,131.398 C128.661,130.385 128.345,129.959 127.648,129.959 C127.252,129.959 126.798,130.227 126.305,130.78 L126.305,134.685 L125.399,134.685 L125.399,129.286" id="Fill-556" fill="#FFFFFE"></path>
                <path d="M137.937,131.593 C137.937,130.49 137.442,129.899 136.606,129.899 C135.843,129.899 135.157,130.507 135.058,131.593 L137.937,131.593 Z M136.578,129.16 C137.948,129.16 138.727,130.158 138.727,131.702 C138.727,131.875 138.718,132.052 138.684,132.184 L135.066,132.184 C135.126,133.35 135.825,134.081 136.858,134.081 C137.36,134.081 137.804,133.913 138.204,133.659 L138.509,134.271 C138.055,134.558 137.483,134.817 136.747,134.817 C135.306,134.817 134.169,133.759 134.169,132.007 C134.169,130.24 135.35,129.16 136.578,129.16 Z" id="Fill-557" fill="#FFFFFE"></path>
                <path d="M156.302,62.337 C145.546,62.337 136.783,71.535 136.783,82.826 C136.783,94.117 145.546,103.316 156.302,103.316 C167.061,103.316 175.836,94.117 175.836,82.826 C175.836,71.535 167.061,62.337 156.302,62.337 M156.302,105.133 C144.536,105.133 134.974,95.125 134.974,82.826 C134.974,70.522 144.536,60.515 156.302,60.515 C168.069,60.515 177.647,70.522 177.647,82.826 C177.647,95.125 168.069,105.133 156.302,105.133" id="Fill-558" fill="#FFFFFE"></path>
                <path d="M156.302,97.646 C144.536,97.646 134.974,90.999 134.974,82.826 L136.783,82.826 C136.783,89.996 145.546,95.825 156.302,95.825 C167.061,95.825 175.836,89.996 175.836,82.826 L177.647,82.826 C177.647,90.999 168.069,97.646 156.302,97.646" id="Fill-559" fill="#FFFFFE"></path>
                <path d="M156.302,86.541 C150.803,86.541 145.629,86.259 141.736,85.714 C135.787,84.91 134.974,83.834 134.974,82.826 L136.783,82.826 C136.783,82.677 136.722,82.6 136.709,82.563 C137.512,83.467 144.776,84.729 156.302,84.729 C167.832,84.729 175.107,83.467 175.905,82.563 C175.889,82.6 175.836,82.677 175.836,82.826 L177.647,82.826 C177.647,83.834 176.835,84.91 170.869,85.714 C166.969,86.259 161.795,86.541 156.302,86.541" id="Fill-560" fill="#FFFFFE"></path>
                <path d="M177.647,82.826 L175.836,82.826 C175.836,78.286 166.885,74.459 156.302,74.459 C145.726,74.459 136.783,78.286 136.783,82.826 L134.974,82.826 C134.974,77.11 144.331,72.647 156.302,72.647 C168.27,72.647 177.647,77.11 177.647,82.826" id="Fill-561" fill="#FFFFFE"></path>
                <path d="M156.302,105.11 C155.363,105.11 154.703,104.62 154.154,98.026 C153.81,93.963 153.625,88.556 153.625,82.826 C153.625,77.088 153.81,71.69 154.154,67.613 C154.703,61.024 155.363,60.529 156.302,60.529 L156.302,62.313 C156.579,62.313 156.767,62.169 156.825,62.087 C156.225,62.999 155.411,70.699 155.411,82.826 C155.411,94.944 156.225,102.644 156.825,103.566 C156.767,103.488 156.579,103.331 156.302,103.331 L156.302,105.11" id="Fill-562" fill="#FFFFFE"></path>
                <path d="M156.302,62.313 C150.281,62.313 145.405,71.521 145.405,82.826 C145.405,94.131 150.281,103.331 156.302,103.331 C162.313,103.331 167.208,94.131 167.208,82.826 C167.208,71.521 162.313,62.313 156.302,62.313 Z M156.302,105.11 C149.193,105.11 143.608,95.321 143.608,82.826 C143.608,70.323 149.193,60.529 156.302,60.529 C163.418,60.529 168.996,70.323 168.996,82.826 C168.996,95.321 163.418,105.11 156.302,105.11 Z" id="Fill-563" fill="#FFFFFE"></path>
                <path d="M78.103,101.659 C78.082,103.761 76.396,105.446 74.306,105.45 L51.461,105.446 C49.37,105.446 47.671,103.738 47.671,101.65 L47.676,78.803 C47.674,76.715 49.366,75.022 51.452,75.022 L74.296,75.031 C76.385,75.026 78.089,76.737 78.087,78.826 L78.103,101.659" id="Fill-564" fill="#F7C061"></path>
                <path d="M68.645,90.236 L68.154,90.236 C68.154,91.694 67.565,93.008 66.612,93.963 C65.657,94.918 64.344,95.506 62.889,95.506 C61.431,95.506 60.117,94.918 59.161,93.963 C58.207,93.008 57.618,91.694 57.618,90.236 C57.618,88.781 58.207,87.467 59.161,86.512 C60.117,85.558 61.431,84.968 62.889,84.968 C64.344,84.968 65.657,85.557 66.612,86.512 C67.565,87.467 68.154,88.781 68.154,90.236 L69.135,90.236 C69.134,86.787 66.338,83.988 62.889,83.988 C59.435,83.988 56.638,86.787 56.638,90.236 C56.638,93.69 59.435,96.487 62.889,96.487 C66.337,96.487 69.134,93.69 69.135,90.236 L68.645,90.236" id="Fill-565" fill="#FFFFFE"></path>
                <path d="M77.751,90.236 L77.261,90.236 C77.26,94.209 75.653,97.8 73.051,100.404 C70.449,103.006 66.858,104.614 62.887,104.615 C58.916,104.615 55.325,103.006 52.721,100.404 C50.119,97.8 48.51,94.208 48.51,90.236 C48.51,86.266 50.119,82.675 52.721,80.072 C55.325,77.47 58.916,75.862 62.887,75.861 C66.858,75.862 70.449,77.47 73.051,80.072 C75.653,82.675 77.26,86.266 77.261,90.236 L78.241,90.236 C78.241,81.757 71.369,74.881 62.887,74.881 C54.407,74.881 47.53,81.757 47.529,90.236 C47.53,98.72 54.407,105.595 62.887,105.595 C71.369,105.595 78.241,98.719 78.241,90.236 L77.751,90.236" id="Fill-566" fill="#FFFFFE"></path>
                <polygon id="Fill-567" fill="#FFFFFE" points="47.671 82.19 77.751 82.19 77.751 81.209 47.671 81.209"></polygon>
                <polygon id="Fill-568" fill="#FFFFFE" points="47.671 99.621 77.751 99.621 77.751 98.642 47.671 98.642"></polygon>
                <path d="M178.229,49.305 L176.249,49.305 L176.249,145.753 L178.229,145.753 C182.33,145.753 185.692,142.39 185.692,138.276 L185.692,56.784 C185.692,52.661 182.33,49.305 178.229,49.305" id="Fill-569" fill="#2C2C28"></path>
                <path d="M178.229,145.753 L176.249,145.753 L176.249,49.305 L178.229,49.305 C182.33,49.305 185.692,52.661 185.692,56.784 L185.692,138.276 C185.692,142.39 182.33,145.753 178.229,145.753" id="Fill-570" fill="#403F3A"></path>
                <polyline id="Fill-571" fill="#A1A6A4" points="172.364 45.48 172.364 49.305 176.249 49.305 176.249 145.511 172.364 145.511 172.364 149.579 180.361 149.579 180.361 45.48 172.364 45.48"></polyline>
                <path d="M36.186,308.333 L9.469,308.333 L6.066,250.73 C6.591,247.657 6.946,244.665 7.064,241.803 C7.863,221.898 12.925,204.251 20.253,192.561 L48.219,145.753 L86.559,145.753 L58.771,196.327 C62.952,209.266 64.33,227.649 63.55,247.064 C62.101,283.097 52.656,302.12 36.224,308.321 L36.186,308.333" id="Fill-572" fill="#C78455"></path>
                <path d="M86.559,145.753 L48.219,145.753 L54.854,134.648 C55.081,134.759 55.348,134.817 55.64,134.817 C56.299,134.817 56.899,134.454 57.429,134.04 L57.438,134.04 L57.521,134.685 L58.273,134.685 L58.273,131.384 C58.273,130.69 58.122,130.117 57.794,129.727 L61.786,123.045 C62.08,122.509 62.399,121.997 62.742,121.507 C62.953,121.54 63.178,121.558 63.418,121.558 C64.977,121.558 66.212,120.65 66.212,119.157 C66.212,118.756 66.115,118.404 65.946,118.106 C66.7,117.508 67.502,116.981 68.34,116.529 L67.113,118.362 L67.113,119.076 L70.919,119.076 L70.919,121.409 L71.951,121.409 L71.951,119.076 L73.114,119.076 L73.114,118.19 L71.951,118.19 L71.951,115.105 C73.304,114.75 74.703,114.566 76.113,114.566 C78.3,114.566 80.513,115.007 82.619,115.928 L82.545,117.01 L83.132,117.386 C83.605,117.072 83.95,116.897 84.463,116.876 C85.12,117.267 85.74,117.698 86.322,118.164 C86.364,118.34 86.386,118.532 86.386,118.739 C86.386,119.911 85.556,120.665 84.525,120.665 C83.535,120.665 82.893,120.197 82.391,119.697 L81.862,120.414 C82.443,121 83.273,121.558 84.637,121.558 C85.969,121.558 87.239,120.702 87.448,119.156 C89.641,121.273 91.158,123.935 91.901,126.802 L91.523,126.802 L91.523,128.877 L91.561,129.78 C91.092,129.405 90.687,129.16 90.06,129.16 C88.82,129.16 87.719,130.258 87.719,132.007 C87.719,133.795 88.594,134.817 89.953,134.817 C90.573,134.817 91.151,134.454 91.574,134.049 L91.604,134.049 L91.683,134.685 L91.98,134.685 C91.649,136.07 91.13,137.433 90.412,138.742 L86.559,145.753 M85.285,126.802 L85.285,133.59 C85.285,134.381 85.571,134.817 86.252,134.817 C86.493,134.817 86.647,134.775 86.771,134.73 L86.647,134.04 C86.552,134.058 86.508,134.058 86.462,134.058 C86.316,134.058 86.197,133.959 86.197,133.659 L86.197,126.802 L85.285,126.802 M81.382,129.16 C80.068,129.16 78.892,130.194 78.892,132.007 C78.892,133.781 80.068,134.817 81.382,134.817 C82.7,134.817 83.883,133.781 83.883,132.007 C83.883,130.194 82.7,129.16 81.382,129.16 M65.662,129.16 C64.423,129.16 63.319,130.258 63.319,132.007 C63.319,133.795 64.193,134.817 65.549,134.817 C66.171,134.817 66.752,134.454 67.168,134.049 L67.207,134.049 L67.29,134.685 L68.039,134.685 L68.039,126.802 L67.122,126.802 L67.122,128.877 L67.161,129.78 C66.693,129.405 66.289,129.16 65.662,129.16 M73.088,131.256 L76.459,131.256 L76.459,134.685 L77.399,134.685 L77.399,127.415 L76.459,127.415 L76.459,130.463 L73.088,130.463 L73.088,127.415 L72.18,127.415 L72.18,134.685 L73.088,134.685 L73.088,131.256 M59.986,129.286 L59.986,134.685 L60.896,134.685 L60.896,131.229 C61.254,130.317 61.792,129.999 62.248,129.999 C62.479,129.999 62.603,130.013 62.781,130.077 L62.949,129.277 C62.781,129.199 62.611,129.16 62.374,129.16 C61.761,129.16 61.217,129.594 60.847,130.281 L60.812,130.281 L60.741,129.286 L59.986,129.286 M55.891,134.081 C55.656,134.081 55.447,134.033 55.286,133.926 L56.419,132.029 C56.69,131.966 57.005,131.911 57.368,131.865 L57.368,133.363 C56.838,133.836 56.403,134.081 55.891,134.081 M81.382,134.058 C80.473,134.058 79.835,133.232 79.835,132.007 C79.835,130.762 80.473,129.923 81.382,129.923 C82.317,129.923 82.934,130.762 82.934,132.007 C82.934,133.232 82.317,134.058 81.382,134.058 M90.143,134.049 C89.209,134.049 88.666,133.277 88.666,131.997 C88.666,130.762 89.349,129.923 90.216,129.923 C90.661,129.923 91.07,130.086 91.523,130.49 L91.523,133.309 C91.083,133.813 90.647,134.049 90.143,134.049 M65.747,134.049 C64.81,134.049 64.27,133.277 64.27,131.997 C64.27,130.762 64.952,129.923 65.814,129.923 C66.262,129.923 66.663,130.086 67.122,130.49 L67.122,133.309 C66.682,133.813 66.247,134.049 65.747,134.049 M56.829,131.342 L57.271,130.603 C57.341,130.806 57.368,131.037 57.368,131.27 C57.18,131.292 57,131.316 56.829,131.342 M63.375,120.664 C63.905,120.004 64.478,119.394 65.091,118.834 C65.105,118.925 65.111,119.02 65.111,119.117 C65.111,120.054 64.382,120.657 63.375,120.664 M70.919,118.19 L68.264,118.19 L69.923,115.783 C70.253,115.648 70.587,115.524 70.925,115.411 C70.921,115.531 70.919,115.643 70.919,115.744 L70.919,118.19 M83.553,116.397 L83.555,116.373 C83.563,116.377 83.569,116.38 83.577,116.384 C83.569,116.388 83.561,116.393 83.553,116.397" id="Fill-573" fill="#2D343A"></path>
                <path d="M63.418,121.558 C63.178,121.558 62.953,121.54 62.742,121.507 C62.945,121.219 63.156,120.937 63.375,120.664 C64.382,120.657 65.111,120.054 65.111,119.117 C65.111,119.02 65.105,118.925 65.091,118.834 C65.369,118.581 65.654,118.338 65.946,118.106 C66.115,118.404 66.212,118.756 66.212,119.157 C66.212,120.65 64.977,121.558 63.418,121.558" id="Fill-574" fill="#D3C4A4"></path>
                <path d="M71.951,121.409 L70.919,121.409 L70.919,119.076 L67.113,119.076 L67.113,118.362 L68.34,116.529 C68.855,116.252 69.383,116.003 69.923,115.783 L68.264,118.19 L70.919,118.19 L70.919,115.744 C70.919,115.643 70.921,115.531 70.925,115.411 C71.264,115.298 71.606,115.196 71.951,115.105 L71.951,118.19 L73.114,118.19 L73.114,119.076 L71.951,119.076 L71.951,121.409" id="Fill-575" fill="#D3C4A4"></path>
                <path d="M84.637,121.558 C83.273,121.558 82.443,121 81.862,120.414 L82.391,119.697 C82.893,120.197 83.535,120.665 84.525,120.665 C85.556,120.665 86.386,119.911 86.386,118.739 C86.386,118.532 86.364,118.34 86.322,118.164 C86.715,118.479 87.091,118.811 87.448,119.156 C87.239,120.702 85.969,121.558 84.637,121.558 M83.132,117.386 L82.545,117.01 L82.619,115.928 C82.933,116.065 83.246,116.214 83.555,116.373 L83.553,116.397 C83.561,116.393 83.569,116.388 83.577,116.384 C83.701,116.448 83.825,116.514 83.948,116.582 C84.122,116.677 84.294,116.775 84.463,116.876 C83.95,116.897 83.605,117.072 83.132,117.386" id="Fill-576" fill="#D3C4A4"></path>
                <path d="M55.64,134.817 C55.348,134.817 55.081,134.759 54.854,134.648 L55.286,133.926 C55.447,134.033 55.656,134.081 55.891,134.081 C56.403,134.081 56.838,133.836 57.368,133.363 L57.368,131.865 C57.005,131.911 56.69,131.966 56.419,132.029 L56.829,131.342 C57,131.316 57.18,131.292 57.368,131.27 C57.368,131.037 57.341,130.806 57.271,130.603 L57.794,129.727 C58.122,130.117 58.273,130.69 58.273,131.384 L58.273,134.685 L57.521,134.685 L57.438,134.04 L57.429,134.04 C56.899,134.454 56.299,134.817 55.64,134.817" id="Fill-577" fill="#D3C4A4"></path>
                <path d="M60.896,134.685 L59.986,134.685 L59.986,129.286 L60.741,129.286 L60.812,130.281 L60.847,130.281 C61.217,129.594 61.761,129.16 62.374,129.16 C62.611,129.16 62.781,129.199 62.949,129.277 L62.781,130.077 C62.603,130.013 62.479,129.999 62.248,129.999 C61.792,129.999 61.254,130.317 60.896,131.229 L60.896,134.685" id="Fill-578" fill="#D3C4A4"></path>
                <path d="M65.549,134.817 C64.193,134.817 63.319,133.795 63.319,132.007 C63.319,130.258 64.423,129.16 65.662,129.16 C66.289,129.16 66.693,129.405 67.161,129.78 L67.122,128.877 L67.122,126.802 L68.039,126.802 L68.039,134.685 L67.29,134.685 L67.207,134.049 L67.168,134.049 C66.752,134.454 66.171,134.817 65.549,134.817 M65.814,129.923 C64.952,129.923 64.27,130.762 64.27,131.997 C64.27,133.277 64.81,134.049 65.747,134.049 C66.247,134.049 66.682,133.813 67.122,133.309 L67.122,130.49 C66.663,130.086 66.262,129.923 65.814,129.923" id="Fill-579" fill="#D3C4A4"></path>
                <polyline id="Fill-580" fill="#D3C4A4" points="77.399 134.685 76.459 134.685 76.459 131.256 73.088 131.256 73.088 134.685 72.18 134.685 72.18 127.415 73.088 127.415 73.088 130.463 76.459 130.463 76.459 127.415 77.399 127.415 77.399 134.685"></polyline>
                <path d="M81.382,134.817 C80.068,134.817 78.892,133.781 78.892,132.007 C78.892,130.194 80.068,129.16 81.382,129.16 C82.7,129.16 83.883,130.194 83.883,132.007 C83.883,133.781 82.7,134.817 81.382,134.817 M81.382,129.923 C80.473,129.923 79.835,130.762 79.835,132.007 C79.835,133.232 80.473,134.058 81.382,134.058 C82.317,134.058 82.934,133.232 82.934,132.007 C82.934,130.762 82.317,129.923 81.382,129.923" id="Fill-581" fill="#D3C4A4"></path>
                <path d="M86.252,134.817 C85.571,134.817 85.285,134.381 85.285,133.59 L85.285,126.802 L86.197,126.802 L86.197,133.659 C86.197,133.959 86.316,134.058 86.462,134.058 C86.508,134.058 86.552,134.058 86.647,134.04 L86.771,134.73 C86.647,134.775 86.493,134.817 86.252,134.817" id="Fill-582" fill="#D3C4A4"></path>
                <path d="M89.953,134.817 C88.594,134.817 87.719,133.795 87.719,132.007 C87.719,130.258 88.82,129.16 90.06,129.16 C90.687,129.16 91.092,129.405 91.561,129.78 L91.523,128.877 L91.523,126.802 L91.901,126.802 C92.56,129.347 92.61,132.054 91.98,134.685 L91.683,134.685 L91.604,134.049 L91.574,134.049 C91.151,134.454 90.573,134.817 89.953,134.817 M90.216,129.923 C89.349,129.923 88.666,130.762 88.666,131.997 C88.666,133.277 89.209,134.049 90.143,134.049 C90.647,134.049 91.083,133.813 91.523,133.309 L91.523,130.49 C91.07,130.086 90.661,129.923 90.216,129.923" id="Fill-583" fill="#D3C4A4"></path>
                <path d="M62.214,247.063 C63.663,211.037 57.687,178.55 40.134,177.843 C22.582,177.135 7.177,205.773 5.729,241.803 C5.612,244.665 5.257,247.657 4.732,250.73 L8.136,308.333 L34.851,308.333 L34.888,308.321 C51.321,302.12 60.766,283.097 62.214,247.063" id="Fill-584" fill="#F1B683"></path>
                <path d="M82.613,116.582 C74.709,112.245 64.787,115.14 60.453,123.045 L18.677,192.964 C14.34,200.869 28.019,197.385 35.927,201.72 C43.83,206.053 53.102,204.237 57.436,196.327 L89.078,138.742 C93.413,130.837 90.515,120.914 82.613,116.582" id="Fill-585" fill="#F1B683"></path>
                <path d="M78.905,123.346 C71.143,119.09 69.275,117.621 64.4,126.507 C62.496,129.978 59.016,136.325 68.833,141.708 C78.647,147.092 82.13,140.746 84.033,137.273 C88.91,128.385 86.665,127.603 78.905,123.346" id="Fill-586" fill="#FBE1C4"></path>
            </g>
        </g>
    </g>
</svg>